%TF.GenerationSoftware,KiCad,Pcbnew,(7.0.0-0)*%
%TF.CreationDate,2023-11-13T22:50:32+01:00*%
%TF.ProjectId,ultimate-invitation-card,756c7469-6d61-4746-952d-696e76697461,rev?*%
%TF.SameCoordinates,Original*%
%TF.FileFunction,Soldermask,Top*%
%TF.FilePolarity,Negative*%
%FSLAX46Y46*%
G04 Gerber Fmt 4.6, Leading zero omitted, Abs format (unit mm)*
G04 Created by KiCad (PCBNEW (7.0.0-0)) date 2023-11-13 22:50:32*
%MOMM*%
%LPD*%
G01*
G04 APERTURE LIST*
G04 Aperture macros list*
%AMRoundRect*
0 Rectangle with rounded corners*
0 $1 Rounding radius*
0 $2 $3 $4 $5 $6 $7 $8 $9 X,Y pos of 4 corners*
0 Add a 4 corners polygon primitive as box body*
4,1,4,$2,$3,$4,$5,$6,$7,$8,$9,$2,$3,0*
0 Add four circle primitives for the rounded corners*
1,1,$1+$1,$2,$3*
1,1,$1+$1,$4,$5*
1,1,$1+$1,$6,$7*
1,1,$1+$1,$8,$9*
0 Add four rect primitives between the rounded corners*
20,1,$1+$1,$2,$3,$4,$5,0*
20,1,$1+$1,$4,$5,$6,$7,0*
20,1,$1+$1,$6,$7,$8,$9,0*
20,1,$1+$1,$8,$9,$2,$3,0*%
G04 Aperture macros list end*
%ADD10RoundRect,0.250000X0.262500X0.450000X-0.262500X0.450000X-0.262500X-0.450000X0.262500X-0.450000X0*%
%ADD11RoundRect,0.243750X-0.243750X-0.456250X0.243750X-0.456250X0.243750X0.456250X-0.243750X0.456250X0*%
%ADD12RoundRect,0.250000X-0.262500X-0.450000X0.262500X-0.450000X0.262500X0.450000X-0.262500X0.450000X0*%
%ADD13RoundRect,0.250000X0.450000X-0.262500X0.450000X0.262500X-0.450000X0.262500X-0.450000X-0.262500X0*%
%ADD14RoundRect,0.243750X0.456250X-0.243750X0.456250X0.243750X-0.456250X0.243750X-0.456250X-0.243750X0*%
%ADD15C,2.500000*%
%ADD16R,1.524000X1.524000*%
%ADD17C,1.524000*%
%ADD18RoundRect,0.243750X-0.456250X0.243750X-0.456250X-0.243750X0.456250X-0.243750X0.456250X0.243750X0*%
%ADD19RoundRect,0.250000X0.475000X-0.250000X0.475000X0.250000X-0.475000X0.250000X-0.475000X-0.250000X0*%
%ADD20RoundRect,0.218750X0.256250X-0.218750X0.256250X0.218750X-0.256250X0.218750X-0.256250X-0.218750X0*%
%ADD21R,0.900000X0.900000*%
%ADD22R,0.900000X0.880000*%
%ADD23R,1.500000X0.900000*%
%ADD24RoundRect,0.225000X0.225000X0.375000X-0.225000X0.375000X-0.225000X-0.375000X0.225000X-0.375000X0*%
%ADD25RoundRect,0.225000X-0.375000X0.225000X-0.375000X-0.225000X0.375000X-0.225000X0.375000X0.225000X0*%
%ADD26R,3.200000X2.000000*%
%ADD27RoundRect,0.250000X-0.450000X0.262500X-0.450000X-0.262500X0.450000X-0.262500X0.450000X0.262500X0*%
%ADD28R,2.100000X1.400000*%
%ADD29RoundRect,0.250000X-0.475000X0.250000X-0.475000X-0.250000X0.475000X-0.250000X0.475000X0.250000X0*%
%ADD30R,1.500000X2.000000*%
%ADD31R,3.800000X2.000000*%
%ADD32RoundRect,0.150000X-0.150000X0.587500X-0.150000X-0.587500X0.150000X-0.587500X0.150000X0.587500X0*%
%ADD33RoundRect,0.150000X-0.512500X-0.150000X0.512500X-0.150000X0.512500X0.150000X-0.512500X0.150000X0*%
%ADD34RoundRect,0.225000X0.375000X-0.225000X0.375000X0.225000X-0.375000X0.225000X-0.375000X-0.225000X0*%
%ADD35RoundRect,0.150000X0.150000X-0.587500X0.150000X0.587500X-0.150000X0.587500X-0.150000X-0.587500X0*%
%ADD36R,1.000000X1.000000*%
%ADD37O,1.000000X1.000000*%
%ADD38C,1.400000*%
G04 APERTURE END LIST*
D10*
%TO.C,R15*%
X153312500Y-74930000D03*
X151487500Y-74930000D03*
%TD*%
D11*
%TO.C,D7*%
X136298700Y-87376000D03*
X138173700Y-87376000D03*
%TD*%
D12*
%TO.C,R14*%
X110720500Y-74930000D03*
X112545500Y-74930000D03*
%TD*%
D13*
%TO.C,R16*%
X146304000Y-117498500D03*
X146304000Y-115673500D03*
%TD*%
D11*
%TO.C,D6*%
X123090700Y-87376000D03*
X124965700Y-87376000D03*
%TD*%
D14*
%TO.C,D3*%
X108712000Y-68501500D03*
X108712000Y-66626500D03*
%TD*%
D15*
%TO.C,U4*%
X120523000Y-53467000D03*
X120523000Y-75565000D03*
X142621000Y-53467000D03*
X142621000Y-75565000D03*
D16*
X127761999Y-53085999D03*
D17*
X130302000Y-53086000D03*
X132842000Y-53086000D03*
X135382000Y-53086000D03*
%TD*%
D18*
%TO.C,D4*%
X155448000Y-67031000D03*
X155448000Y-68906000D03*
%TD*%
D13*
%TO.C,R5*%
X143510000Y-117498500D03*
X143510000Y-115673500D03*
%TD*%
%TO.C,R1*%
X155956000Y-110894500D03*
X155956000Y-109069500D03*
%TD*%
D19*
%TO.C,C2*%
X146304000Y-112456000D03*
X146304000Y-110556000D03*
%TD*%
D20*
%TO.C,F1*%
X157734000Y-106680100D03*
X157734000Y-105105100D03*
%TD*%
D21*
%TO.C,U3*%
X131778999Y-117530999D03*
X133178999Y-117530999D03*
X134578999Y-117530999D03*
X131778999Y-116130999D03*
X133178999Y-116130999D03*
X134578999Y-116130999D03*
D22*
X133168999Y-114750999D03*
D21*
X131768999Y-114730999D03*
X134568999Y-114730999D03*
D23*
X140588999Y-123920999D03*
X140588999Y-122650999D03*
X140588999Y-121380999D03*
X140588999Y-120110999D03*
X140588999Y-118840999D03*
X140588999Y-117570999D03*
X140588999Y-116300999D03*
X140588999Y-115030999D03*
X140588999Y-113760999D03*
X140588999Y-112490999D03*
X140588999Y-111220999D03*
X140588999Y-109950999D03*
X140588999Y-108680999D03*
X140588999Y-107410999D03*
X140588999Y-106140999D03*
X140588999Y-104870999D03*
X140588999Y-103600999D03*
X140588999Y-102330999D03*
X140588999Y-101060999D03*
X122808999Y-101060999D03*
X122808999Y-102330999D03*
X122808999Y-103600999D03*
X122808999Y-104870999D03*
X122808999Y-106140999D03*
X122808999Y-107410999D03*
X122808999Y-108680999D03*
X122808999Y-109950999D03*
X122808999Y-111220999D03*
X122808999Y-112490999D03*
X122808999Y-113760999D03*
X122808999Y-115030999D03*
X122808999Y-116300999D03*
X122808999Y-117570999D03*
X122808999Y-118840999D03*
X122808999Y-120110999D03*
X122808999Y-121380999D03*
X122808999Y-122650999D03*
X122808999Y-123920999D03*
%TD*%
D24*
%TO.C,D1*%
X111124000Y-102362000D03*
X107824000Y-102362000D03*
%TD*%
D11*
%TO.C,D5*%
X109908100Y-87376000D03*
X111783100Y-87376000D03*
%TD*%
D25*
%TO.C,D2*%
X117398800Y-117323600D03*
X117398800Y-120623600D03*
%TD*%
D26*
%TO.C,BZ1*%
X153695399Y-114922299D03*
X153695399Y-123939299D03*
%TD*%
D15*
%TO.C,JP1*%
X111633000Y-54737000D03*
X111633000Y-72517000D03*
%TD*%
D13*
%TO.C,R19*%
X135382000Y-57300500D03*
X135382000Y-55475500D03*
%TD*%
D10*
%TO.C,R7*%
X111402500Y-125222000D03*
X109577500Y-125222000D03*
%TD*%
D13*
%TO.C,R20*%
X132842000Y-57300500D03*
X132842000Y-55475500D03*
%TD*%
D12*
%TO.C,R21*%
X117959500Y-102362000D03*
X119784500Y-102362000D03*
%TD*%
D15*
%TO.C,JP2*%
X152400000Y-54737000D03*
X152400000Y-72517000D03*
%TD*%
D19*
%TO.C,C6*%
X127762000Y-57338000D03*
X127762000Y-55438000D03*
%TD*%
D27*
%TO.C,R8*%
X108712000Y-70715500D03*
X108712000Y-72540500D03*
%TD*%
D13*
%TO.C,R2*%
X153670000Y-110894500D03*
X153670000Y-109069500D03*
%TD*%
D28*
%TO.C,SW5*%
X133625999Y-79791999D03*
X142725999Y-79791999D03*
X133625999Y-84291999D03*
X142725999Y-84291999D03*
%TD*%
%TO.C,SW6*%
X146833999Y-79791999D03*
X155933999Y-79791999D03*
X146833999Y-84291999D03*
X155933999Y-84291999D03*
%TD*%
D27*
%TO.C,R9*%
X155448000Y-70715500D03*
X155448000Y-72540500D03*
%TD*%
D29*
%TO.C,C5*%
X143510000Y-120716000D03*
X143510000Y-122616000D03*
%TD*%
D30*
%TO.C,U2*%
X147051999Y-106679999D03*
X149351999Y-106679999D03*
D31*
X149351999Y-100379999D03*
D30*
X151651999Y-106679999D03*
%TD*%
D28*
%TO.C,SW2*%
X114023999Y-120613999D03*
X104923999Y-120613999D03*
X114023999Y-116113999D03*
X104923999Y-116113999D03*
%TD*%
D32*
%TO.C,Q2*%
X156652000Y-100891100D03*
X154752000Y-100891100D03*
X155702000Y-102766100D03*
%TD*%
D11*
%TO.C,D8*%
X149506700Y-87376000D03*
X151381700Y-87376000D03*
%TD*%
D12*
%TO.C,R3*%
X117959500Y-100330000D03*
X119784500Y-100330000D03*
%TD*%
D33*
%TO.C,U1*%
X117734500Y-106746000D03*
X117734500Y-107696000D03*
X117734500Y-108646000D03*
X120009500Y-108646000D03*
X120009500Y-107696000D03*
X120009500Y-106746000D03*
%TD*%
D12*
%TO.C,R4*%
X117959500Y-112522000D03*
X119784500Y-112522000D03*
%TD*%
D28*
%TO.C,SW3*%
X107209999Y-79791999D03*
X116309999Y-79791999D03*
X107209999Y-84291999D03*
X116309999Y-84291999D03*
%TD*%
D29*
%TO.C,C1*%
X151384000Y-109032000D03*
X151384000Y-110932000D03*
%TD*%
D28*
%TO.C,SW4*%
X120417999Y-79791999D03*
X129517999Y-79791999D03*
X120417999Y-84291999D03*
X129517999Y-84291999D03*
%TD*%
D34*
%TO.C,D9*%
X120142000Y-120623600D03*
X120142000Y-117323600D03*
%TD*%
D29*
%TO.C,C3*%
X143510000Y-110556000D03*
X143510000Y-112456000D03*
%TD*%
D35*
%TO.C,Q1*%
X154752000Y-98219500D03*
X156652000Y-98219500D03*
X155702000Y-96344500D03*
%TD*%
D13*
%TO.C,R17*%
X143510000Y-107414700D03*
X143510000Y-105589700D03*
%TD*%
D36*
%TO.C,J1*%
X108589999Y-127888999D03*
D37*
X111129999Y-127888999D03*
X112399999Y-127888999D03*
%TD*%
D38*
%TO.C,BT1*%
X155702000Y-94195900D03*
X155702000Y-105625900D03*
%TD*%
M02*
