%TF.GenerationSoftware,KiCad,Pcbnew,(7.0.0-0)*%
%TF.CreationDate,2023-11-13T22:50:32+01:00*%
%TF.ProjectId,ultimate-invitation-card,756c7469-6d61-4746-952d-696e76697461,rev?*%
%TF.SameCoordinates,Original*%
%TF.FileFunction,Legend,Bot*%
%TF.FilePolarity,Positive*%
%FSLAX46Y46*%
G04 Gerber Fmt 4.6, Leading zero omitted, Abs format (unit mm)*
G04 Created by KiCad (PCBNEW (7.0.0-0)) date 2023-11-13 22:50:32*
%MOMM*%
%LPD*%
G01*
G04 APERTURE LIST*
%ADD10C,0.300000*%
%ADD11C,0.150000*%
%ADD12C,0.100000*%
%ADD13C,0.120000*%
G04 APERTURE END LIST*
D10*
X113541714Y-67467857D02*
X113327428Y-67539285D01*
X113327428Y-67539285D02*
X113255999Y-67610714D01*
X113255999Y-67610714D02*
X113184571Y-67753571D01*
X113184571Y-67753571D02*
X113184571Y-67967857D01*
X113184571Y-67967857D02*
X113255999Y-68110714D01*
X113255999Y-68110714D02*
X113327428Y-68182142D01*
X113327428Y-68182142D02*
X113470285Y-68253571D01*
X113470285Y-68253571D02*
X114041714Y-68253571D01*
X114041714Y-68253571D02*
X114041714Y-66753571D01*
X114041714Y-66753571D02*
X113541714Y-66753571D01*
X113541714Y-66753571D02*
X113398857Y-66825000D01*
X113398857Y-66825000D02*
X113327428Y-66896428D01*
X113327428Y-66896428D02*
X113255999Y-67039285D01*
X113255999Y-67039285D02*
X113255999Y-67182142D01*
X113255999Y-67182142D02*
X113327428Y-67325000D01*
X113327428Y-67325000D02*
X113398857Y-67396428D01*
X113398857Y-67396428D02*
X113541714Y-67467857D01*
X113541714Y-67467857D02*
X114041714Y-67467857D01*
X112255999Y-66753571D02*
X111970285Y-66753571D01*
X111970285Y-66753571D02*
X111827428Y-66825000D01*
X111827428Y-66825000D02*
X111684571Y-66967857D01*
X111684571Y-66967857D02*
X111613142Y-67253571D01*
X111613142Y-67253571D02*
X111613142Y-67753571D01*
X111613142Y-67753571D02*
X111684571Y-68039285D01*
X111684571Y-68039285D02*
X111827428Y-68182142D01*
X111827428Y-68182142D02*
X111970285Y-68253571D01*
X111970285Y-68253571D02*
X112255999Y-68253571D01*
X112255999Y-68253571D02*
X112398857Y-68182142D01*
X112398857Y-68182142D02*
X112541714Y-68039285D01*
X112541714Y-68039285D02*
X112613142Y-67753571D01*
X112613142Y-67753571D02*
X112613142Y-67253571D01*
X112613142Y-67253571D02*
X112541714Y-66967857D01*
X112541714Y-66967857D02*
X112398857Y-66825000D01*
X112398857Y-66825000D02*
X112255999Y-66753571D01*
X110684570Y-66753571D02*
X110398856Y-66753571D01*
X110398856Y-66753571D02*
X110255999Y-66825000D01*
X110255999Y-66825000D02*
X110113142Y-66967857D01*
X110113142Y-66967857D02*
X110041713Y-67253571D01*
X110041713Y-67253571D02*
X110041713Y-67753571D01*
X110041713Y-67753571D02*
X110113142Y-68039285D01*
X110113142Y-68039285D02*
X110255999Y-68182142D01*
X110255999Y-68182142D02*
X110398856Y-68253571D01*
X110398856Y-68253571D02*
X110684570Y-68253571D01*
X110684570Y-68253571D02*
X110827428Y-68182142D01*
X110827428Y-68182142D02*
X110970285Y-68039285D01*
X110970285Y-68039285D02*
X111041713Y-67753571D01*
X111041713Y-67753571D02*
X111041713Y-67253571D01*
X111041713Y-67253571D02*
X110970285Y-66967857D01*
X110970285Y-66967857D02*
X110827428Y-66825000D01*
X110827428Y-66825000D02*
X110684570Y-66753571D01*
X109613141Y-66753571D02*
X108755999Y-66753571D01*
X109184570Y-68253571D02*
X109184570Y-66753571D01*
D11*
X139797399Y-65025228D02*
X139725971Y-64953800D01*
X139725971Y-64953800D02*
X139583114Y-64882371D01*
X139583114Y-64882371D02*
X139225971Y-64882371D01*
X139225971Y-64882371D02*
X139083114Y-64953800D01*
X139083114Y-64953800D02*
X139011685Y-65025228D01*
X139011685Y-65025228D02*
X138940256Y-65168085D01*
X138940256Y-65168085D02*
X138940256Y-65310942D01*
X138940256Y-65310942D02*
X139011685Y-65525228D01*
X139011685Y-65525228D02*
X139868828Y-66382371D01*
X139868828Y-66382371D02*
X138940256Y-66382371D01*
X137654543Y-65382371D02*
X137654543Y-66382371D01*
X138011685Y-64810942D02*
X138368828Y-65882371D01*
X138368828Y-65882371D02*
X137440257Y-65882371D01*
X135797400Y-64810942D02*
X137083114Y-66739514D01*
X135440257Y-64882371D02*
X134440257Y-64882371D01*
X134440257Y-64882371D02*
X135083114Y-66382371D01*
X133040257Y-66310942D02*
X132825972Y-66382371D01*
X132825972Y-66382371D02*
X132468829Y-66382371D01*
X132468829Y-66382371D02*
X132325972Y-66310942D01*
X132325972Y-66310942D02*
X132254543Y-66239514D01*
X132254543Y-66239514D02*
X132183114Y-66096657D01*
X132183114Y-66096657D02*
X132183114Y-65953800D01*
X132183114Y-65953800D02*
X132254543Y-65810942D01*
X132254543Y-65810942D02*
X132325972Y-65739514D01*
X132325972Y-65739514D02*
X132468829Y-65668085D01*
X132468829Y-65668085D02*
X132754543Y-65596657D01*
X132754543Y-65596657D02*
X132897400Y-65525228D01*
X132897400Y-65525228D02*
X132968829Y-65453800D01*
X132968829Y-65453800D02*
X133040257Y-65310942D01*
X133040257Y-65310942D02*
X133040257Y-65168085D01*
X133040257Y-65168085D02*
X132968829Y-65025228D01*
X132968829Y-65025228D02*
X132897400Y-64953800D01*
X132897400Y-64953800D02*
X132754543Y-64882371D01*
X132754543Y-64882371D02*
X132397400Y-64882371D01*
X132397400Y-64882371D02*
X132183114Y-64953800D01*
X131540258Y-64882371D02*
X131540258Y-66096657D01*
X131540258Y-66096657D02*
X131468829Y-66239514D01*
X131468829Y-66239514D02*
X131397401Y-66310942D01*
X131397401Y-66310942D02*
X131254543Y-66382371D01*
X131254543Y-66382371D02*
X130968829Y-66382371D01*
X130968829Y-66382371D02*
X130825972Y-66310942D01*
X130825972Y-66310942D02*
X130754543Y-66239514D01*
X130754543Y-66239514D02*
X130683115Y-66096657D01*
X130683115Y-66096657D02*
X130683115Y-64882371D01*
X129968829Y-66382371D02*
X129968829Y-64882371D01*
X129968829Y-64882371D02*
X129397400Y-64882371D01*
X129397400Y-64882371D02*
X129254543Y-64953800D01*
X129254543Y-64953800D02*
X129183114Y-65025228D01*
X129183114Y-65025228D02*
X129111686Y-65168085D01*
X129111686Y-65168085D02*
X129111686Y-65382371D01*
X129111686Y-65382371D02*
X129183114Y-65525228D01*
X129183114Y-65525228D02*
X129254543Y-65596657D01*
X129254543Y-65596657D02*
X129397400Y-65668085D01*
X129397400Y-65668085D02*
X129968829Y-65668085D01*
X128468829Y-66382371D02*
X128468829Y-64882371D01*
X128468829Y-64882371D02*
X127897400Y-64882371D01*
X127897400Y-64882371D02*
X127754543Y-64953800D01*
X127754543Y-64953800D02*
X127683114Y-65025228D01*
X127683114Y-65025228D02*
X127611686Y-65168085D01*
X127611686Y-65168085D02*
X127611686Y-65382371D01*
X127611686Y-65382371D02*
X127683114Y-65525228D01*
X127683114Y-65525228D02*
X127754543Y-65596657D01*
X127754543Y-65596657D02*
X127897400Y-65668085D01*
X127897400Y-65668085D02*
X128468829Y-65668085D01*
X126683114Y-64882371D02*
X126397400Y-64882371D01*
X126397400Y-64882371D02*
X126254543Y-64953800D01*
X126254543Y-64953800D02*
X126111686Y-65096657D01*
X126111686Y-65096657D02*
X126040257Y-65382371D01*
X126040257Y-65382371D02*
X126040257Y-65882371D01*
X126040257Y-65882371D02*
X126111686Y-66168085D01*
X126111686Y-66168085D02*
X126254543Y-66310942D01*
X126254543Y-66310942D02*
X126397400Y-66382371D01*
X126397400Y-66382371D02*
X126683114Y-66382371D01*
X126683114Y-66382371D02*
X126825972Y-66310942D01*
X126825972Y-66310942D02*
X126968829Y-66168085D01*
X126968829Y-66168085D02*
X127040257Y-65882371D01*
X127040257Y-65882371D02*
X127040257Y-65382371D01*
X127040257Y-65382371D02*
X126968829Y-65096657D01*
X126968829Y-65096657D02*
X126825972Y-64953800D01*
X126825972Y-64953800D02*
X126683114Y-64882371D01*
X124540257Y-66382371D02*
X125040257Y-65668085D01*
X125397400Y-66382371D02*
X125397400Y-64882371D01*
X125397400Y-64882371D02*
X124825971Y-64882371D01*
X124825971Y-64882371D02*
X124683114Y-64953800D01*
X124683114Y-64953800D02*
X124611685Y-65025228D01*
X124611685Y-65025228D02*
X124540257Y-65168085D01*
X124540257Y-65168085D02*
X124540257Y-65382371D01*
X124540257Y-65382371D02*
X124611685Y-65525228D01*
X124611685Y-65525228D02*
X124683114Y-65596657D01*
X124683114Y-65596657D02*
X124825971Y-65668085D01*
X124825971Y-65668085D02*
X125397400Y-65668085D01*
X124111685Y-64882371D02*
X123254543Y-64882371D01*
X123683114Y-66382371D02*
X123683114Y-64882371D01*
X137783112Y-68812371D02*
X137497398Y-68812371D01*
X137497398Y-68812371D02*
X137354541Y-68740942D01*
X137354541Y-68740942D02*
X137283112Y-68669514D01*
X137283112Y-68669514D02*
X137140255Y-68455228D01*
X137140255Y-68455228D02*
X137068826Y-68169514D01*
X137068826Y-68169514D02*
X137068826Y-67598085D01*
X137068826Y-67598085D02*
X137140255Y-67455228D01*
X137140255Y-67455228D02*
X137211684Y-67383800D01*
X137211684Y-67383800D02*
X137354541Y-67312371D01*
X137354541Y-67312371D02*
X137640255Y-67312371D01*
X137640255Y-67312371D02*
X137783112Y-67383800D01*
X137783112Y-67383800D02*
X137854541Y-67455228D01*
X137854541Y-67455228D02*
X137925969Y-67598085D01*
X137925969Y-67598085D02*
X137925969Y-67955228D01*
X137925969Y-67955228D02*
X137854541Y-68098085D01*
X137854541Y-68098085D02*
X137783112Y-68169514D01*
X137783112Y-68169514D02*
X137640255Y-68240942D01*
X137640255Y-68240942D02*
X137354541Y-68240942D01*
X137354541Y-68240942D02*
X137211684Y-68169514D01*
X137211684Y-68169514D02*
X137140255Y-68098085D01*
X137140255Y-68098085D02*
X137068826Y-67955228D01*
X135640255Y-68812371D02*
X136497398Y-68812371D01*
X136068827Y-68812371D02*
X136068827Y-67312371D01*
X136068827Y-67312371D02*
X136211684Y-67526657D01*
X136211684Y-67526657D02*
X136354541Y-67669514D01*
X136354541Y-67669514D02*
X136497398Y-67740942D01*
X134211684Y-68812371D02*
X135068827Y-68812371D01*
X134640256Y-68812371D02*
X134640256Y-67312371D01*
X134640256Y-67312371D02*
X134783113Y-67526657D01*
X134783113Y-67526657D02*
X134925970Y-67669514D01*
X134925970Y-67669514D02*
X135068827Y-67740942D01*
X131954542Y-67312371D02*
X132668828Y-67312371D01*
X132668828Y-67312371D02*
X132740256Y-68026657D01*
X132740256Y-68026657D02*
X132668828Y-67955228D01*
X132668828Y-67955228D02*
X132525971Y-67883800D01*
X132525971Y-67883800D02*
X132168828Y-67883800D01*
X132168828Y-67883800D02*
X132025971Y-67955228D01*
X132025971Y-67955228D02*
X131954542Y-68026657D01*
X131954542Y-68026657D02*
X131883113Y-68169514D01*
X131883113Y-68169514D02*
X131883113Y-68526657D01*
X131883113Y-68526657D02*
X131954542Y-68669514D01*
X131954542Y-68669514D02*
X132025971Y-68740942D01*
X132025971Y-68740942D02*
X132168828Y-68812371D01*
X132168828Y-68812371D02*
X132525971Y-68812371D01*
X132525971Y-68812371D02*
X132668828Y-68740942D01*
X132668828Y-68740942D02*
X132740256Y-68669514D01*
X131025971Y-67955228D02*
X131168828Y-67883800D01*
X131168828Y-67883800D02*
X131240257Y-67812371D01*
X131240257Y-67812371D02*
X131311685Y-67669514D01*
X131311685Y-67669514D02*
X131311685Y-67598085D01*
X131311685Y-67598085D02*
X131240257Y-67455228D01*
X131240257Y-67455228D02*
X131168828Y-67383800D01*
X131168828Y-67383800D02*
X131025971Y-67312371D01*
X131025971Y-67312371D02*
X130740257Y-67312371D01*
X130740257Y-67312371D02*
X130597400Y-67383800D01*
X130597400Y-67383800D02*
X130525971Y-67455228D01*
X130525971Y-67455228D02*
X130454542Y-67598085D01*
X130454542Y-67598085D02*
X130454542Y-67669514D01*
X130454542Y-67669514D02*
X130525971Y-67812371D01*
X130525971Y-67812371D02*
X130597400Y-67883800D01*
X130597400Y-67883800D02*
X130740257Y-67955228D01*
X130740257Y-67955228D02*
X131025971Y-67955228D01*
X131025971Y-67955228D02*
X131168828Y-68026657D01*
X131168828Y-68026657D02*
X131240257Y-68098085D01*
X131240257Y-68098085D02*
X131311685Y-68240942D01*
X131311685Y-68240942D02*
X131311685Y-68526657D01*
X131311685Y-68526657D02*
X131240257Y-68669514D01*
X131240257Y-68669514D02*
X131168828Y-68740942D01*
X131168828Y-68740942D02*
X131025971Y-68812371D01*
X131025971Y-68812371D02*
X130740257Y-68812371D01*
X130740257Y-68812371D02*
X130597400Y-68740942D01*
X130597400Y-68740942D02*
X130525971Y-68669514D01*
X130525971Y-68669514D02*
X130454542Y-68526657D01*
X130454542Y-68526657D02*
X130454542Y-68240942D01*
X130454542Y-68240942D02*
X130525971Y-68098085D01*
X130525971Y-68098085D02*
X130597400Y-68026657D01*
X130597400Y-68026657D02*
X130740257Y-67955228D01*
X128983114Y-67455228D02*
X128911686Y-67383800D01*
X128911686Y-67383800D02*
X128768829Y-67312371D01*
X128768829Y-67312371D02*
X128411686Y-67312371D01*
X128411686Y-67312371D02*
X128268829Y-67383800D01*
X128268829Y-67383800D02*
X128197400Y-67455228D01*
X128197400Y-67455228D02*
X128125971Y-67598085D01*
X128125971Y-67598085D02*
X128125971Y-67740942D01*
X128125971Y-67740942D02*
X128197400Y-67955228D01*
X128197400Y-67955228D02*
X129054543Y-68812371D01*
X129054543Y-68812371D02*
X128125971Y-68812371D01*
X127554543Y-67455228D02*
X127483115Y-67383800D01*
X127483115Y-67383800D02*
X127340258Y-67312371D01*
X127340258Y-67312371D02*
X126983115Y-67312371D01*
X126983115Y-67312371D02*
X126840258Y-67383800D01*
X126840258Y-67383800D02*
X126768829Y-67455228D01*
X126768829Y-67455228D02*
X126697400Y-67598085D01*
X126697400Y-67598085D02*
X126697400Y-67740942D01*
X126697400Y-67740942D02*
X126768829Y-67955228D01*
X126768829Y-67955228D02*
X127625972Y-68812371D01*
X127625972Y-68812371D02*
X126697400Y-68812371D01*
X126197401Y-67312371D02*
X125268829Y-67312371D01*
X125268829Y-67312371D02*
X125768829Y-67883800D01*
X125768829Y-67883800D02*
X125554544Y-67883800D01*
X125554544Y-67883800D02*
X125411687Y-67955228D01*
X125411687Y-67955228D02*
X125340258Y-68026657D01*
X125340258Y-68026657D02*
X125268829Y-68169514D01*
X125268829Y-68169514D02*
X125268829Y-68526657D01*
X125268829Y-68526657D02*
X125340258Y-68669514D01*
X125340258Y-68669514D02*
X125411687Y-68740942D01*
X125411687Y-68740942D02*
X125554544Y-68812371D01*
X125554544Y-68812371D02*
X125983115Y-68812371D01*
X125983115Y-68812371D02*
X126125972Y-68740942D01*
X126125972Y-68740942D02*
X126197401Y-68669514D01*
X119643590Y-90019180D02*
X119643590Y-90733466D01*
X119643590Y-90733466D02*
X119691209Y-90876323D01*
X119691209Y-90876323D02*
X119786447Y-90971561D01*
X119786447Y-90971561D02*
X119929304Y-91019180D01*
X119929304Y-91019180D02*
X120024542Y-91019180D01*
X118691209Y-91019180D02*
X119167399Y-91019180D01*
X119167399Y-91019180D02*
X119167399Y-90019180D01*
X117786447Y-90923942D02*
X117834066Y-90971561D01*
X117834066Y-90971561D02*
X117976923Y-91019180D01*
X117976923Y-91019180D02*
X118072161Y-91019180D01*
X118072161Y-91019180D02*
X118215018Y-90971561D01*
X118215018Y-90971561D02*
X118310256Y-90876323D01*
X118310256Y-90876323D02*
X118357875Y-90781085D01*
X118357875Y-90781085D02*
X118405494Y-90590609D01*
X118405494Y-90590609D02*
X118405494Y-90447752D01*
X118405494Y-90447752D02*
X118357875Y-90257276D01*
X118357875Y-90257276D02*
X118310256Y-90162038D01*
X118310256Y-90162038D02*
X118215018Y-90066800D01*
X118215018Y-90066800D02*
X118072161Y-90019180D01*
X118072161Y-90019180D02*
X117976923Y-90019180D01*
X117976923Y-90019180D02*
X117834066Y-90066800D01*
X117834066Y-90066800D02*
X117786447Y-90114419D01*
X117072161Y-90019180D02*
X117072161Y-90733466D01*
X117072161Y-90733466D02*
X117119780Y-90876323D01*
X117119780Y-90876323D02*
X117215018Y-90971561D01*
X117215018Y-90971561D02*
X117357875Y-91019180D01*
X117357875Y-91019180D02*
X117453113Y-91019180D01*
X116119780Y-91019180D02*
X116595970Y-91019180D01*
X116595970Y-91019180D02*
X116595970Y-90019180D01*
X115215018Y-90923942D02*
X115262637Y-90971561D01*
X115262637Y-90971561D02*
X115405494Y-91019180D01*
X115405494Y-91019180D02*
X115500732Y-91019180D01*
X115500732Y-91019180D02*
X115643589Y-90971561D01*
X115643589Y-90971561D02*
X115738827Y-90876323D01*
X115738827Y-90876323D02*
X115786446Y-90781085D01*
X115786446Y-90781085D02*
X115834065Y-90590609D01*
X115834065Y-90590609D02*
X115834065Y-90447752D01*
X115834065Y-90447752D02*
X115786446Y-90257276D01*
X115786446Y-90257276D02*
X115738827Y-90162038D01*
X115738827Y-90162038D02*
X115643589Y-90066800D01*
X115643589Y-90066800D02*
X115500732Y-90019180D01*
X115500732Y-90019180D02*
X115405494Y-90019180D01*
X115405494Y-90019180D02*
X115262637Y-90066800D01*
X115262637Y-90066800D02*
X115215018Y-90114419D01*
X114500732Y-90019180D02*
X114500732Y-90733466D01*
X114500732Y-90733466D02*
X114548351Y-90876323D01*
X114548351Y-90876323D02*
X114643589Y-90971561D01*
X114643589Y-90971561D02*
X114786446Y-91019180D01*
X114786446Y-91019180D02*
X114881684Y-91019180D01*
X113548351Y-91019180D02*
X114024541Y-91019180D01*
X114024541Y-91019180D02*
X114024541Y-90019180D01*
X112643589Y-90923942D02*
X112691208Y-90971561D01*
X112691208Y-90971561D02*
X112834065Y-91019180D01*
X112834065Y-91019180D02*
X112929303Y-91019180D01*
X112929303Y-91019180D02*
X113072160Y-90971561D01*
X113072160Y-90971561D02*
X113167398Y-90876323D01*
X113167398Y-90876323D02*
X113215017Y-90781085D01*
X113215017Y-90781085D02*
X113262636Y-90590609D01*
X113262636Y-90590609D02*
X113262636Y-90447752D01*
X113262636Y-90447752D02*
X113215017Y-90257276D01*
X113215017Y-90257276D02*
X113167398Y-90162038D01*
X113167398Y-90162038D02*
X113072160Y-90066800D01*
X113072160Y-90066800D02*
X112929303Y-90019180D01*
X112929303Y-90019180D02*
X112834065Y-90019180D01*
X112834065Y-90019180D02*
X112691208Y-90066800D01*
X112691208Y-90066800D02*
X112643589Y-90114419D01*
X111929303Y-90019180D02*
X111929303Y-90733466D01*
X111929303Y-90733466D02*
X111976922Y-90876323D01*
X111976922Y-90876323D02*
X112072160Y-90971561D01*
X112072160Y-90971561D02*
X112215017Y-91019180D01*
X112215017Y-91019180D02*
X112310255Y-91019180D01*
X110976922Y-91019180D02*
X111453112Y-91019180D01*
X111453112Y-91019180D02*
X111453112Y-90019180D01*
X110072160Y-90923942D02*
X110119779Y-90971561D01*
X110119779Y-90971561D02*
X110262636Y-91019180D01*
X110262636Y-91019180D02*
X110357874Y-91019180D01*
X110357874Y-91019180D02*
X110500731Y-90971561D01*
X110500731Y-90971561D02*
X110595969Y-90876323D01*
X110595969Y-90876323D02*
X110643588Y-90781085D01*
X110643588Y-90781085D02*
X110691207Y-90590609D01*
X110691207Y-90590609D02*
X110691207Y-90447752D01*
X110691207Y-90447752D02*
X110643588Y-90257276D01*
X110643588Y-90257276D02*
X110595969Y-90162038D01*
X110595969Y-90162038D02*
X110500731Y-90066800D01*
X110500731Y-90066800D02*
X110357874Y-90019180D01*
X110357874Y-90019180D02*
X110262636Y-90019180D01*
X110262636Y-90019180D02*
X110119779Y-90066800D01*
X110119779Y-90066800D02*
X110072160Y-90114419D01*
D10*
X154578571Y-68253571D02*
X155078571Y-67539285D01*
X155435714Y-68253571D02*
X155435714Y-66753571D01*
X155435714Y-66753571D02*
X154864285Y-66753571D01*
X154864285Y-66753571D02*
X154721428Y-66825000D01*
X154721428Y-66825000D02*
X154649999Y-66896428D01*
X154649999Y-66896428D02*
X154578571Y-67039285D01*
X154578571Y-67039285D02*
X154578571Y-67253571D01*
X154578571Y-67253571D02*
X154649999Y-67396428D01*
X154649999Y-67396428D02*
X154721428Y-67467857D01*
X154721428Y-67467857D02*
X154864285Y-67539285D01*
X154864285Y-67539285D02*
X155435714Y-67539285D01*
X153935714Y-67467857D02*
X153435714Y-67467857D01*
X153221428Y-68253571D02*
X153935714Y-68253571D01*
X153935714Y-68253571D02*
X153935714Y-66753571D01*
X153935714Y-66753571D02*
X153221428Y-66753571D01*
X152649999Y-68182142D02*
X152435714Y-68253571D01*
X152435714Y-68253571D02*
X152078571Y-68253571D01*
X152078571Y-68253571D02*
X151935714Y-68182142D01*
X151935714Y-68182142D02*
X151864285Y-68110714D01*
X151864285Y-68110714D02*
X151792856Y-67967857D01*
X151792856Y-67967857D02*
X151792856Y-67825000D01*
X151792856Y-67825000D02*
X151864285Y-67682142D01*
X151864285Y-67682142D02*
X151935714Y-67610714D01*
X151935714Y-67610714D02*
X152078571Y-67539285D01*
X152078571Y-67539285D02*
X152364285Y-67467857D01*
X152364285Y-67467857D02*
X152507142Y-67396428D01*
X152507142Y-67396428D02*
X152578571Y-67325000D01*
X152578571Y-67325000D02*
X152649999Y-67182142D01*
X152649999Y-67182142D02*
X152649999Y-67039285D01*
X152649999Y-67039285D02*
X152578571Y-66896428D01*
X152578571Y-66896428D02*
X152507142Y-66825000D01*
X152507142Y-66825000D02*
X152364285Y-66753571D01*
X152364285Y-66753571D02*
X152007142Y-66753571D01*
X152007142Y-66753571D02*
X151792856Y-66825000D01*
X151150000Y-67467857D02*
X150650000Y-67467857D01*
X150435714Y-68253571D02*
X151150000Y-68253571D01*
X151150000Y-68253571D02*
X151150000Y-66753571D01*
X151150000Y-66753571D02*
X150435714Y-66753571D01*
X150007142Y-66753571D02*
X149150000Y-66753571D01*
X149578571Y-68253571D02*
X149578571Y-66753571D01*
D11*
%TO.C,SW2*%
X112339237Y-129415380D02*
X112339237Y-130224904D01*
X112339237Y-130224904D02*
X112291618Y-130320142D01*
X112291618Y-130320142D02*
X112243999Y-130367761D01*
X112243999Y-130367761D02*
X112148761Y-130415380D01*
X112148761Y-130415380D02*
X111958285Y-130415380D01*
X111958285Y-130415380D02*
X111863047Y-130367761D01*
X111863047Y-130367761D02*
X111815428Y-130320142D01*
X111815428Y-130320142D02*
X111767809Y-130224904D01*
X111767809Y-130224904D02*
X111767809Y-129415380D01*
X111339237Y-130129666D02*
X110863047Y-130129666D01*
X111434475Y-130415380D02*
X111101142Y-129415380D01*
X111101142Y-129415380D02*
X110767809Y-130415380D01*
X109863047Y-130415380D02*
X110196380Y-129939190D01*
X110434475Y-130415380D02*
X110434475Y-129415380D01*
X110434475Y-129415380D02*
X110053523Y-129415380D01*
X110053523Y-129415380D02*
X109958285Y-129463000D01*
X109958285Y-129463000D02*
X109910666Y-129510619D01*
X109910666Y-129510619D02*
X109863047Y-129605857D01*
X109863047Y-129605857D02*
X109863047Y-129748714D01*
X109863047Y-129748714D02*
X109910666Y-129843952D01*
X109910666Y-129843952D02*
X109958285Y-129891571D01*
X109958285Y-129891571D02*
X110053523Y-129939190D01*
X110053523Y-129939190D02*
X110434475Y-129939190D01*
X109577332Y-129415380D02*
X109005904Y-129415380D01*
X109291618Y-130415380D02*
X109291618Y-129415380D01*
%TO.C,J1*%
X108537333Y-125478380D02*
X108537333Y-126192666D01*
X108537333Y-126192666D02*
X108584952Y-126335523D01*
X108584952Y-126335523D02*
X108680190Y-126430761D01*
X108680190Y-126430761D02*
X108823047Y-126478380D01*
X108823047Y-126478380D02*
X108918285Y-126478380D01*
X107537333Y-126478380D02*
X108108761Y-126478380D01*
X107823047Y-126478380D02*
X107823047Y-125478380D01*
X107823047Y-125478380D02*
X107918285Y-125621238D01*
X107918285Y-125621238D02*
X108013523Y-125716476D01*
X108013523Y-125716476D02*
X108108761Y-125764095D01*
%TO.C,R11*%
X126985380Y-81399142D02*
X126509190Y-81065809D01*
X126985380Y-80827714D02*
X125985380Y-80827714D01*
X125985380Y-80827714D02*
X125985380Y-81208666D01*
X125985380Y-81208666D02*
X126033000Y-81303904D01*
X126033000Y-81303904D02*
X126080619Y-81351523D01*
X126080619Y-81351523D02*
X126175857Y-81399142D01*
X126175857Y-81399142D02*
X126318714Y-81399142D01*
X126318714Y-81399142D02*
X126413952Y-81351523D01*
X126413952Y-81351523D02*
X126461571Y-81303904D01*
X126461571Y-81303904D02*
X126509190Y-81208666D01*
X126509190Y-81208666D02*
X126509190Y-80827714D01*
X126985380Y-82351523D02*
X126985380Y-81780095D01*
X126985380Y-82065809D02*
X125985380Y-82065809D01*
X125985380Y-82065809D02*
X126128238Y-81970571D01*
X126128238Y-81970571D02*
X126223476Y-81875333D01*
X126223476Y-81875333D02*
X126271095Y-81780095D01*
X126985380Y-83303904D02*
X126985380Y-82732476D01*
X126985380Y-83018190D02*
X125985380Y-83018190D01*
X125985380Y-83018190D02*
X126128238Y-82922952D01*
X126128238Y-82922952D02*
X126223476Y-82827714D01*
X126223476Y-82827714D02*
X126271095Y-82732476D01*
%TO.C,SW7*%
X112839332Y-58231761D02*
X112696475Y-58279380D01*
X112696475Y-58279380D02*
X112458380Y-58279380D01*
X112458380Y-58279380D02*
X112363142Y-58231761D01*
X112363142Y-58231761D02*
X112315523Y-58184142D01*
X112315523Y-58184142D02*
X112267904Y-58088904D01*
X112267904Y-58088904D02*
X112267904Y-57993666D01*
X112267904Y-57993666D02*
X112315523Y-57898428D01*
X112315523Y-57898428D02*
X112363142Y-57850809D01*
X112363142Y-57850809D02*
X112458380Y-57803190D01*
X112458380Y-57803190D02*
X112648856Y-57755571D01*
X112648856Y-57755571D02*
X112744094Y-57707952D01*
X112744094Y-57707952D02*
X112791713Y-57660333D01*
X112791713Y-57660333D02*
X112839332Y-57565095D01*
X112839332Y-57565095D02*
X112839332Y-57469857D01*
X112839332Y-57469857D02*
X112791713Y-57374619D01*
X112791713Y-57374619D02*
X112744094Y-57327000D01*
X112744094Y-57327000D02*
X112648856Y-57279380D01*
X112648856Y-57279380D02*
X112410761Y-57279380D01*
X112410761Y-57279380D02*
X112267904Y-57327000D01*
X111934570Y-57279380D02*
X111696475Y-58279380D01*
X111696475Y-58279380D02*
X111505999Y-57565095D01*
X111505999Y-57565095D02*
X111315523Y-58279380D01*
X111315523Y-58279380D02*
X111077428Y-57279380D01*
X110791713Y-57279380D02*
X110125047Y-57279380D01*
X110125047Y-57279380D02*
X110553618Y-58279380D01*
%TO.C,R6*%
X141898666Y-58279380D02*
X142231999Y-57803190D01*
X142470094Y-58279380D02*
X142470094Y-57279380D01*
X142470094Y-57279380D02*
X142089142Y-57279380D01*
X142089142Y-57279380D02*
X141993904Y-57327000D01*
X141993904Y-57327000D02*
X141946285Y-57374619D01*
X141946285Y-57374619D02*
X141898666Y-57469857D01*
X141898666Y-57469857D02*
X141898666Y-57612714D01*
X141898666Y-57612714D02*
X141946285Y-57707952D01*
X141946285Y-57707952D02*
X141993904Y-57755571D01*
X141993904Y-57755571D02*
X142089142Y-57803190D01*
X142089142Y-57803190D02*
X142470094Y-57803190D01*
X141041523Y-57279380D02*
X141231999Y-57279380D01*
X141231999Y-57279380D02*
X141327237Y-57327000D01*
X141327237Y-57327000D02*
X141374856Y-57374619D01*
X141374856Y-57374619D02*
X141470094Y-57517476D01*
X141470094Y-57517476D02*
X141517713Y-57707952D01*
X141517713Y-57707952D02*
X141517713Y-58088904D01*
X141517713Y-58088904D02*
X141470094Y-58184142D01*
X141470094Y-58184142D02*
X141422475Y-58231761D01*
X141422475Y-58231761D02*
X141327237Y-58279380D01*
X141327237Y-58279380D02*
X141136761Y-58279380D01*
X141136761Y-58279380D02*
X141041523Y-58231761D01*
X141041523Y-58231761D02*
X140993904Y-58184142D01*
X140993904Y-58184142D02*
X140946285Y-58088904D01*
X140946285Y-58088904D02*
X140946285Y-57850809D01*
X140946285Y-57850809D02*
X140993904Y-57755571D01*
X140993904Y-57755571D02*
X141041523Y-57707952D01*
X141041523Y-57707952D02*
X141136761Y-57660333D01*
X141136761Y-57660333D02*
X141327237Y-57660333D01*
X141327237Y-57660333D02*
X141422475Y-57707952D01*
X141422475Y-57707952D02*
X141470094Y-57755571D01*
X141470094Y-57755571D02*
X141517713Y-57850809D01*
%TO.C,R10*%
X113799380Y-81689142D02*
X113323190Y-81355809D01*
X113799380Y-81117714D02*
X112799380Y-81117714D01*
X112799380Y-81117714D02*
X112799380Y-81498666D01*
X112799380Y-81498666D02*
X112847000Y-81593904D01*
X112847000Y-81593904D02*
X112894619Y-81641523D01*
X112894619Y-81641523D02*
X112989857Y-81689142D01*
X112989857Y-81689142D02*
X113132714Y-81689142D01*
X113132714Y-81689142D02*
X113227952Y-81641523D01*
X113227952Y-81641523D02*
X113275571Y-81593904D01*
X113275571Y-81593904D02*
X113323190Y-81498666D01*
X113323190Y-81498666D02*
X113323190Y-81117714D01*
X113799380Y-82641523D02*
X113799380Y-82070095D01*
X113799380Y-82355809D02*
X112799380Y-82355809D01*
X112799380Y-82355809D02*
X112942238Y-82260571D01*
X112942238Y-82260571D02*
X113037476Y-82165333D01*
X113037476Y-82165333D02*
X113085095Y-82070095D01*
X112799380Y-83260571D02*
X112799380Y-83355809D01*
X112799380Y-83355809D02*
X112847000Y-83451047D01*
X112847000Y-83451047D02*
X112894619Y-83498666D01*
X112894619Y-83498666D02*
X112989857Y-83546285D01*
X112989857Y-83546285D02*
X113180333Y-83593904D01*
X113180333Y-83593904D02*
X113418428Y-83593904D01*
X113418428Y-83593904D02*
X113608904Y-83546285D01*
X113608904Y-83546285D02*
X113704142Y-83498666D01*
X113704142Y-83498666D02*
X113751761Y-83451047D01*
X113751761Y-83451047D02*
X113799380Y-83355809D01*
X113799380Y-83355809D02*
X113799380Y-83260571D01*
X113799380Y-83260571D02*
X113751761Y-83165333D01*
X113751761Y-83165333D02*
X113704142Y-83117714D01*
X113704142Y-83117714D02*
X113608904Y-83070095D01*
X113608904Y-83070095D02*
X113418428Y-83022476D01*
X113418428Y-83022476D02*
X113180333Y-83022476D01*
X113180333Y-83022476D02*
X112989857Y-83070095D01*
X112989857Y-83070095D02*
X112894619Y-83117714D01*
X112894619Y-83117714D02*
X112847000Y-83165333D01*
X112847000Y-83165333D02*
X112799380Y-83260571D01*
%TO.C,R13*%
X153401380Y-81399142D02*
X152925190Y-81065809D01*
X153401380Y-80827714D02*
X152401380Y-80827714D01*
X152401380Y-80827714D02*
X152401380Y-81208666D01*
X152401380Y-81208666D02*
X152449000Y-81303904D01*
X152449000Y-81303904D02*
X152496619Y-81351523D01*
X152496619Y-81351523D02*
X152591857Y-81399142D01*
X152591857Y-81399142D02*
X152734714Y-81399142D01*
X152734714Y-81399142D02*
X152829952Y-81351523D01*
X152829952Y-81351523D02*
X152877571Y-81303904D01*
X152877571Y-81303904D02*
X152925190Y-81208666D01*
X152925190Y-81208666D02*
X152925190Y-80827714D01*
X153401380Y-82351523D02*
X153401380Y-81780095D01*
X153401380Y-82065809D02*
X152401380Y-82065809D01*
X152401380Y-82065809D02*
X152544238Y-81970571D01*
X152544238Y-81970571D02*
X152639476Y-81875333D01*
X152639476Y-81875333D02*
X152687095Y-81780095D01*
X152401380Y-82684857D02*
X152401380Y-83303904D01*
X152401380Y-83303904D02*
X152782333Y-82970571D01*
X152782333Y-82970571D02*
X152782333Y-83113428D01*
X152782333Y-83113428D02*
X152829952Y-83208666D01*
X152829952Y-83208666D02*
X152877571Y-83256285D01*
X152877571Y-83256285D02*
X152972809Y-83303904D01*
X152972809Y-83303904D02*
X153210904Y-83303904D01*
X153210904Y-83303904D02*
X153306142Y-83256285D01*
X153306142Y-83256285D02*
X153353761Y-83208666D01*
X153353761Y-83208666D02*
X153401380Y-83113428D01*
X153401380Y-83113428D02*
X153401380Y-82827714D01*
X153401380Y-82827714D02*
X153353761Y-82732476D01*
X153353761Y-82732476D02*
X153306142Y-82684857D01*
%TO.C,SW1*%
X153733332Y-58231761D02*
X153590475Y-58279380D01*
X153590475Y-58279380D02*
X153352380Y-58279380D01*
X153352380Y-58279380D02*
X153257142Y-58231761D01*
X153257142Y-58231761D02*
X153209523Y-58184142D01*
X153209523Y-58184142D02*
X153161904Y-58088904D01*
X153161904Y-58088904D02*
X153161904Y-57993666D01*
X153161904Y-57993666D02*
X153209523Y-57898428D01*
X153209523Y-57898428D02*
X153257142Y-57850809D01*
X153257142Y-57850809D02*
X153352380Y-57803190D01*
X153352380Y-57803190D02*
X153542856Y-57755571D01*
X153542856Y-57755571D02*
X153638094Y-57707952D01*
X153638094Y-57707952D02*
X153685713Y-57660333D01*
X153685713Y-57660333D02*
X153733332Y-57565095D01*
X153733332Y-57565095D02*
X153733332Y-57469857D01*
X153733332Y-57469857D02*
X153685713Y-57374619D01*
X153685713Y-57374619D02*
X153638094Y-57327000D01*
X153638094Y-57327000D02*
X153542856Y-57279380D01*
X153542856Y-57279380D02*
X153304761Y-57279380D01*
X153304761Y-57279380D02*
X153161904Y-57327000D01*
X152828570Y-57279380D02*
X152590475Y-58279380D01*
X152590475Y-58279380D02*
X152399999Y-57565095D01*
X152399999Y-57565095D02*
X152209523Y-58279380D01*
X152209523Y-58279380D02*
X151971428Y-57279380D01*
X151066666Y-58279380D02*
X151638094Y-58279380D01*
X151352380Y-58279380D02*
X151352380Y-57279380D01*
X151352380Y-57279380D02*
X151447618Y-57422238D01*
X151447618Y-57422238D02*
X151542856Y-57517476D01*
X151542856Y-57517476D02*
X151638094Y-57565095D01*
%TO.C,R18*%
X121038857Y-58279380D02*
X121372190Y-57803190D01*
X121610285Y-58279380D02*
X121610285Y-57279380D01*
X121610285Y-57279380D02*
X121229333Y-57279380D01*
X121229333Y-57279380D02*
X121134095Y-57327000D01*
X121134095Y-57327000D02*
X121086476Y-57374619D01*
X121086476Y-57374619D02*
X121038857Y-57469857D01*
X121038857Y-57469857D02*
X121038857Y-57612714D01*
X121038857Y-57612714D02*
X121086476Y-57707952D01*
X121086476Y-57707952D02*
X121134095Y-57755571D01*
X121134095Y-57755571D02*
X121229333Y-57803190D01*
X121229333Y-57803190D02*
X121610285Y-57803190D01*
X120086476Y-58279380D02*
X120657904Y-58279380D01*
X120372190Y-58279380D02*
X120372190Y-57279380D01*
X120372190Y-57279380D02*
X120467428Y-57422238D01*
X120467428Y-57422238D02*
X120562666Y-57517476D01*
X120562666Y-57517476D02*
X120657904Y-57565095D01*
X119515047Y-57707952D02*
X119610285Y-57660333D01*
X119610285Y-57660333D02*
X119657904Y-57612714D01*
X119657904Y-57612714D02*
X119705523Y-57517476D01*
X119705523Y-57517476D02*
X119705523Y-57469857D01*
X119705523Y-57469857D02*
X119657904Y-57374619D01*
X119657904Y-57374619D02*
X119610285Y-57327000D01*
X119610285Y-57327000D02*
X119515047Y-57279380D01*
X119515047Y-57279380D02*
X119324571Y-57279380D01*
X119324571Y-57279380D02*
X119229333Y-57327000D01*
X119229333Y-57327000D02*
X119181714Y-57374619D01*
X119181714Y-57374619D02*
X119134095Y-57469857D01*
X119134095Y-57469857D02*
X119134095Y-57517476D01*
X119134095Y-57517476D02*
X119181714Y-57612714D01*
X119181714Y-57612714D02*
X119229333Y-57660333D01*
X119229333Y-57660333D02*
X119324571Y-57707952D01*
X119324571Y-57707952D02*
X119515047Y-57707952D01*
X119515047Y-57707952D02*
X119610285Y-57755571D01*
X119610285Y-57755571D02*
X119657904Y-57803190D01*
X119657904Y-57803190D02*
X119705523Y-57898428D01*
X119705523Y-57898428D02*
X119705523Y-58088904D01*
X119705523Y-58088904D02*
X119657904Y-58184142D01*
X119657904Y-58184142D02*
X119610285Y-58231761D01*
X119610285Y-58231761D02*
X119515047Y-58279380D01*
X119515047Y-58279380D02*
X119324571Y-58279380D01*
X119324571Y-58279380D02*
X119229333Y-58231761D01*
X119229333Y-58231761D02*
X119181714Y-58184142D01*
X119181714Y-58184142D02*
X119134095Y-58088904D01*
X119134095Y-58088904D02*
X119134095Y-57898428D01*
X119134095Y-57898428D02*
X119181714Y-57803190D01*
X119181714Y-57803190D02*
X119229333Y-57755571D01*
X119229333Y-57755571D02*
X119324571Y-57707952D01*
%TO.C,C4*%
X144692666Y-58209542D02*
X144740285Y-58257161D01*
X144740285Y-58257161D02*
X144883142Y-58304780D01*
X144883142Y-58304780D02*
X144978380Y-58304780D01*
X144978380Y-58304780D02*
X145121237Y-58257161D01*
X145121237Y-58257161D02*
X145216475Y-58161923D01*
X145216475Y-58161923D02*
X145264094Y-58066685D01*
X145264094Y-58066685D02*
X145311713Y-57876209D01*
X145311713Y-57876209D02*
X145311713Y-57733352D01*
X145311713Y-57733352D02*
X145264094Y-57542876D01*
X145264094Y-57542876D02*
X145216475Y-57447638D01*
X145216475Y-57447638D02*
X145121237Y-57352400D01*
X145121237Y-57352400D02*
X144978380Y-57304780D01*
X144978380Y-57304780D02*
X144883142Y-57304780D01*
X144883142Y-57304780D02*
X144740285Y-57352400D01*
X144740285Y-57352400D02*
X144692666Y-57400019D01*
X143835523Y-57638114D02*
X143835523Y-58304780D01*
X144073618Y-57257161D02*
X144311713Y-57971447D01*
X144311713Y-57971447D02*
X143692666Y-57971447D01*
D12*
%TO.C,BT1*%
X159414428Y-121397614D02*
X159366809Y-121254757D01*
X159366809Y-121254757D02*
X159319190Y-121207138D01*
X159319190Y-121207138D02*
X159223952Y-121159519D01*
X159223952Y-121159519D02*
X159081095Y-121159519D01*
X159081095Y-121159519D02*
X158985857Y-121207138D01*
X158985857Y-121207138D02*
X158938238Y-121254757D01*
X158938238Y-121254757D02*
X158890619Y-121349995D01*
X158890619Y-121349995D02*
X158890619Y-121730947D01*
X158890619Y-121730947D02*
X159890619Y-121730947D01*
X159890619Y-121730947D02*
X159890619Y-121397614D01*
X159890619Y-121397614D02*
X159843000Y-121302376D01*
X159843000Y-121302376D02*
X159795380Y-121254757D01*
X159795380Y-121254757D02*
X159700142Y-121207138D01*
X159700142Y-121207138D02*
X159604904Y-121207138D01*
X159604904Y-121207138D02*
X159509666Y-121254757D01*
X159509666Y-121254757D02*
X159462047Y-121302376D01*
X159462047Y-121302376D02*
X159414428Y-121397614D01*
X159414428Y-121397614D02*
X159414428Y-121730947D01*
X159890619Y-120873804D02*
X159890619Y-120302376D01*
X158890619Y-120588090D02*
X159890619Y-120588090D01*
X158890619Y-119445233D02*
X158890619Y-120016661D01*
X158890619Y-119730947D02*
X159890619Y-119730947D01*
X159890619Y-119730947D02*
X159747761Y-119826185D01*
X159747761Y-119826185D02*
X159652523Y-119921423D01*
X159652523Y-119921423D02*
X159604904Y-120016661D01*
D11*
%TO.C,R12*%
X140193380Y-81399142D02*
X139717190Y-81065809D01*
X140193380Y-80827714D02*
X139193380Y-80827714D01*
X139193380Y-80827714D02*
X139193380Y-81208666D01*
X139193380Y-81208666D02*
X139241000Y-81303904D01*
X139241000Y-81303904D02*
X139288619Y-81351523D01*
X139288619Y-81351523D02*
X139383857Y-81399142D01*
X139383857Y-81399142D02*
X139526714Y-81399142D01*
X139526714Y-81399142D02*
X139621952Y-81351523D01*
X139621952Y-81351523D02*
X139669571Y-81303904D01*
X139669571Y-81303904D02*
X139717190Y-81208666D01*
X139717190Y-81208666D02*
X139717190Y-80827714D01*
X140193380Y-82351523D02*
X140193380Y-81780095D01*
X140193380Y-82065809D02*
X139193380Y-82065809D01*
X139193380Y-82065809D02*
X139336238Y-81970571D01*
X139336238Y-81970571D02*
X139431476Y-81875333D01*
X139431476Y-81875333D02*
X139479095Y-81780095D01*
X139288619Y-82732476D02*
X139241000Y-82780095D01*
X139241000Y-82780095D02*
X139193380Y-82875333D01*
X139193380Y-82875333D02*
X139193380Y-83113428D01*
X139193380Y-83113428D02*
X139241000Y-83208666D01*
X139241000Y-83208666D02*
X139288619Y-83256285D01*
X139288619Y-83256285D02*
X139383857Y-83303904D01*
X139383857Y-83303904D02*
X139479095Y-83303904D01*
X139479095Y-83303904D02*
X139621952Y-83256285D01*
X139621952Y-83256285D02*
X140193380Y-82684857D01*
X140193380Y-82684857D02*
X140193380Y-83303904D01*
D13*
%TO.C,J1*%
X113095000Y-126779000D02*
X113095000Y-127581470D01*
X109350000Y-126779000D02*
X113095000Y-126779000D01*
X109350000Y-126779000D02*
X109350000Y-127325529D01*
X108590000Y-126779000D02*
X107830000Y-126779000D01*
X107830000Y-126779000D02*
X107830000Y-127889000D01*
X113095000Y-128196530D02*
X113095000Y-128999000D01*
X109350000Y-128452471D02*
X109350000Y-128999000D01*
X109350000Y-128999000D02*
X113095000Y-128999000D01*
%TO.C,R11*%
X124233000Y-82269064D02*
X124233000Y-81814936D01*
X125703000Y-82269064D02*
X125703000Y-81814936D01*
%TO.C,SW7*%
X108276000Y-59000000D02*
X108276000Y-59030000D01*
X108276000Y-59000000D02*
X114736000Y-59000000D01*
X108276000Y-63530000D02*
X108276000Y-60930000D01*
X108276000Y-65430000D02*
X108276000Y-65460000D01*
X108276000Y-65460000D02*
X114736000Y-65460000D01*
X114736000Y-59000000D02*
X114736000Y-59030000D01*
X114736000Y-63530000D02*
X114736000Y-60930000D01*
X114736000Y-65460000D02*
X114736000Y-65430000D01*
%TO.C,R6*%
X140997000Y-60679064D02*
X140997000Y-60224936D01*
X142467000Y-60679064D02*
X142467000Y-60224936D01*
%TO.C,R10*%
X111047000Y-82559064D02*
X111047000Y-82104936D01*
X112517000Y-82559064D02*
X112517000Y-82104936D01*
%TO.C,R13*%
X150649000Y-82269064D02*
X150649000Y-81814936D01*
X152119000Y-82269064D02*
X152119000Y-81814936D01*
%TO.C,SW1*%
X155630000Y-65460000D02*
X155630000Y-65430000D01*
X155630000Y-65460000D02*
X149170000Y-65460000D01*
X155630000Y-60930000D02*
X155630000Y-63530000D01*
X155630000Y-59030000D02*
X155630000Y-59000000D01*
X155630000Y-59000000D02*
X149170000Y-59000000D01*
X149170000Y-65460000D02*
X149170000Y-65430000D01*
X149170000Y-60930000D02*
X149170000Y-63530000D01*
X149170000Y-59000000D02*
X149170000Y-59030000D01*
%TO.C,R18*%
X119661000Y-60679064D02*
X119661000Y-60224936D01*
X121131000Y-60679064D02*
X121131000Y-60224936D01*
%TO.C,C4*%
X145261000Y-60216148D02*
X145261000Y-60738652D01*
X143791000Y-60216148D02*
X143791000Y-60738652D01*
D12*
%TO.C,BT1*%
X158496000Y-123659900D02*
X106934000Y-123659900D01*
X106934000Y-123659900D02*
X106934000Y-87718900D01*
X106934000Y-87718900D02*
X158496000Y-87718900D01*
X158496000Y-87718900D02*
X158496000Y-123659900D01*
D13*
%TO.C,R12*%
X137441000Y-82269064D02*
X137441000Y-81814936D01*
X138911000Y-82269064D02*
X138911000Y-81814936D01*
%TD*%
M02*
