M48
; DRILL file {KiCad (7.0.0-0)} date Monday, 13 November 2023 at 22:50:27
; FORMAT={-:-/ absolute / inch / decimal}
; #@! TF.CreationDate,2023-11-13T22:50:27+01:00
; #@! TF.GenerationSoftware,Kicad,Pcbnew,(7.0.0-0)
; #@! TF.FileFunction,Plated,1,4,PTH
FMAT,2
INCH
; #@! TA.AperFunction,Plated,PTH,ViaDrill
T1C0.0118
; #@! TA.AperFunction,Plated,PTH,ComponentDrill
T2C0.0256
; #@! TA.AperFunction,Plated,PTH,ComponentDrill
T3C0.0276
; #@! TA.AperFunction,Plated,PTH,ComponentDrill
T4C0.0300
; #@! TA.AperFunction,Plated,PTH,ComponentDrill
T5C0.0394
%
G90
G05
T1
X4.131Y-4.572
X4.21Y-2.36
X4.221Y-3.319
X4.28Y-2.6969
X4.28Y-2.856
X4.3145Y-4.93
X4.327Y-3.44
X4.4009Y-3.44
X4.431Y-2.95
X4.4891Y-4.5714
X4.541Y-4.072
X4.5691Y-2.3614
X4.577Y-4.24
X4.6441Y-4.03
X4.651Y-3.141
X4.651Y-3.319
X4.691Y-4.502
X4.716Y-3.951
X4.717Y-4.031
X4.7248Y-4.331
X4.73Y-4.749
X4.739Y-2.344
X4.741Y-3.319
X4.771Y-4.24
X4.7723Y-4.1303
X4.835Y-4.7788
X4.835Y-4.8788
X4.841Y-4.528
X4.846Y-3.44
X4.92Y-3.44
X4.921Y-4.322
X4.925Y-4.429
X4.961Y-4.2024
X4.962Y-4.672
X5.001Y-4.152
X5.001Y-4.382
X5.001Y-4.581
X5.03Y-2.258
X5.041Y-4.3435
X5.041Y-4.4788
X5.081Y-4.312
X5.099Y-3.319
X5.1143Y-4.7773
X5.121Y-4.282
X5.121Y-4.572
X5.23Y-2.2559
X5.261Y-3.319
X5.321Y-3.962
X5.33Y-2.2559
X5.3618Y-4.2782
X5.366Y-3.439
X5.4399Y-3.44
X5.449Y-4.7078
X5.5328Y-4.5766
X5.535Y-4.1288
X5.535Y-4.178
X5.535Y-4.829
X5.535Y-4.879
X5.58Y-2.416
X5.619Y-3.142
X5.619Y-3.319
X5.649Y-4.353
X5.65Y-4.5541
X5.65Y-4.7526
X5.65Y-4.8274
X5.651Y-3.952
X5.651Y-4.155
X5.6796Y-3.405
X5.69Y-2.417
X5.76Y-4.353
X5.76Y-4.4274
X5.76Y-4.5541
X5.78Y-3.319
X5.789Y-4.2
X5.82Y-2.539
X5.834Y-3.952
X5.876Y-3.059
X5.88Y-3.952
X5.88Y-4.2
X5.886Y-3.44
X5.925Y-3.952
X5.9599Y-3.44
X5.96Y-4.292
X5.96Y-4.3674
X5.964Y-2.95
X5.9706Y-4.2
X6.033Y-4.8795
X6.093Y-4.099
X6.101Y-4.222
X6.12Y-2.639
X6.139Y-3.141
X6.139Y-3.319
X6.14Y-4.2941
X6.1457Y-3.9195
X6.159Y-4.046
X6.1791Y-2.5386
X6.21Y-4.137
X6.219Y-3.866
T2
X4.2752Y-5.035
X4.3752Y-5.035
X4.4252Y-5.035
T3
X6.13Y-3.7085
X6.13Y-4.1585
T4
X5.03Y-2.09
X5.13Y-2.09
X5.23Y-2.09
X5.33Y-2.09
T5
X4.395Y-2.155
X4.395Y-2.855
X6.0Y-2.155
X6.0Y-2.855
T0
M30
