%TF.GenerationSoftware,KiCad,Pcbnew,(7.0.0-0)*%
%TF.CreationDate,2023-11-13T22:50:32+01:00*%
%TF.ProjectId,ultimate-invitation-card,756c7469-6d61-4746-952d-696e76697461,rev?*%
%TF.SameCoordinates,Original*%
%TF.FileFunction,Legend,Top*%
%TF.FilePolarity,Positive*%
%FSLAX46Y46*%
G04 Gerber Fmt 4.6, Leading zero omitted, Abs format (unit mm)*
G04 Created by KiCad (PCBNEW (7.0.0-0)) date 2023-11-13 22:50:32*
%MOMM*%
%LPD*%
G01*
G04 APERTURE LIST*
%ADD10C,0.300000*%
%ADD11C,0.150000*%
%ADD12C,0.500000*%
%ADD13C,0.400000*%
%ADD14C,0.100000*%
%ADD15C,0.200000*%
%ADD16C,0.120000*%
G04 APERTURE END LIST*
D10*
X120142000Y-93472000D02*
X125857000Y-93472000D01*
X106143800Y-89219000D02*
X156943800Y-89219000D01*
D11*
G36*
X110490000Y-112268000D02*
G01*
X111506000Y-112268000D01*
X109474000Y-114300000D01*
X107442000Y-112268000D01*
X108458000Y-112268000D01*
X108458000Y-110998000D01*
X110490000Y-110998000D01*
X110490000Y-112268000D01*
G37*
X110490000Y-112268000D02*
X111506000Y-112268000D01*
X109474000Y-114300000D01*
X107442000Y-112268000D01*
X108458000Y-112268000D01*
X108458000Y-110998000D01*
X110490000Y-110998000D01*
X110490000Y-112268000D01*
D10*
X104746800Y-122682000D02*
X114652800Y-122682000D01*
D12*
X111484715Y-96317428D02*
X112318048Y-96317428D01*
X112675191Y-97626952D02*
X111484715Y-97626952D01*
X111484715Y-97626952D02*
X111484715Y-95126952D01*
X111484715Y-95126952D02*
X112675191Y-95126952D01*
X113627572Y-97507904D02*
X113984715Y-97626952D01*
X113984715Y-97626952D02*
X114579953Y-97626952D01*
X114579953Y-97626952D02*
X114818048Y-97507904D01*
X114818048Y-97507904D02*
X114937096Y-97388857D01*
X114937096Y-97388857D02*
X115056143Y-97150761D01*
X115056143Y-97150761D02*
X115056143Y-96912666D01*
X115056143Y-96912666D02*
X114937096Y-96674571D01*
X114937096Y-96674571D02*
X114818048Y-96555523D01*
X114818048Y-96555523D02*
X114579953Y-96436476D01*
X114579953Y-96436476D02*
X114103762Y-96317428D01*
X114103762Y-96317428D02*
X113865667Y-96198380D01*
X113865667Y-96198380D02*
X113746620Y-96079333D01*
X113746620Y-96079333D02*
X113627572Y-95841238D01*
X113627572Y-95841238D02*
X113627572Y-95603142D01*
X113627572Y-95603142D02*
X113746620Y-95365047D01*
X113746620Y-95365047D02*
X113865667Y-95246000D01*
X113865667Y-95246000D02*
X114103762Y-95126952D01*
X114103762Y-95126952D02*
X114699001Y-95126952D01*
X114699001Y-95126952D02*
X115056143Y-95246000D01*
X116127572Y-97626952D02*
X116127572Y-95126952D01*
X116127572Y-95126952D02*
X117079953Y-95126952D01*
X117079953Y-95126952D02*
X117318048Y-95246000D01*
X117318048Y-95246000D02*
X117437095Y-95365047D01*
X117437095Y-95365047D02*
X117556143Y-95603142D01*
X117556143Y-95603142D02*
X117556143Y-95960285D01*
X117556143Y-95960285D02*
X117437095Y-96198380D01*
X117437095Y-96198380D02*
X117318048Y-96317428D01*
X117318048Y-96317428D02*
X117079953Y-96436476D01*
X117079953Y-96436476D02*
X116127572Y-96436476D01*
X118627572Y-96317428D02*
X119460905Y-96317428D01*
X119818048Y-97626952D02*
X118627572Y-97626952D01*
X118627572Y-97626952D02*
X118627572Y-95126952D01*
X118627572Y-95126952D02*
X119818048Y-95126952D01*
X120889477Y-97626952D02*
X120889477Y-95126952D01*
X120889477Y-95126952D02*
X122318048Y-97626952D01*
X122318048Y-97626952D02*
X122318048Y-95126952D01*
X123389477Y-97507904D02*
X123746620Y-97626952D01*
X123746620Y-97626952D02*
X124341858Y-97626952D01*
X124341858Y-97626952D02*
X124579953Y-97507904D01*
X124579953Y-97507904D02*
X124699001Y-97388857D01*
X124699001Y-97388857D02*
X124818048Y-97150761D01*
X124818048Y-97150761D02*
X124818048Y-96912666D01*
X124818048Y-96912666D02*
X124699001Y-96674571D01*
X124699001Y-96674571D02*
X124579953Y-96555523D01*
X124579953Y-96555523D02*
X124341858Y-96436476D01*
X124341858Y-96436476D02*
X123865667Y-96317428D01*
X123865667Y-96317428D02*
X123627572Y-96198380D01*
X123627572Y-96198380D02*
X123508525Y-96079333D01*
X123508525Y-96079333D02*
X123389477Y-95841238D01*
X123389477Y-95841238D02*
X123389477Y-95603142D01*
X123389477Y-95603142D02*
X123508525Y-95365047D01*
X123508525Y-95365047D02*
X123627572Y-95246000D01*
X123627572Y-95246000D02*
X123865667Y-95126952D01*
X123865667Y-95126952D02*
X124460906Y-95126952D01*
X124460906Y-95126952D02*
X124818048Y-95246000D01*
X128579953Y-95126952D02*
X127389477Y-95126952D01*
X127389477Y-95126952D02*
X127270429Y-96317428D01*
X127270429Y-96317428D02*
X127389477Y-96198380D01*
X127389477Y-96198380D02*
X127627572Y-96079333D01*
X127627572Y-96079333D02*
X128222810Y-96079333D01*
X128222810Y-96079333D02*
X128460905Y-96198380D01*
X128460905Y-96198380D02*
X128579953Y-96317428D01*
X128579953Y-96317428D02*
X128699000Y-96555523D01*
X128699000Y-96555523D02*
X128699000Y-97150761D01*
X128699000Y-97150761D02*
X128579953Y-97388857D01*
X128579953Y-97388857D02*
X128460905Y-97507904D01*
X128460905Y-97507904D02*
X128222810Y-97626952D01*
X128222810Y-97626952D02*
X127627572Y-97626952D01*
X127627572Y-97626952D02*
X127389477Y-97507904D01*
X127389477Y-97507904D02*
X127270429Y-97388857D01*
X130246619Y-95126952D02*
X130484714Y-95126952D01*
X130484714Y-95126952D02*
X130722810Y-95246000D01*
X130722810Y-95246000D02*
X130841857Y-95365047D01*
X130841857Y-95365047D02*
X130960905Y-95603142D01*
X130960905Y-95603142D02*
X131079952Y-96079333D01*
X131079952Y-96079333D02*
X131079952Y-96674571D01*
X131079952Y-96674571D02*
X130960905Y-97150761D01*
X130960905Y-97150761D02*
X130841857Y-97388857D01*
X130841857Y-97388857D02*
X130722810Y-97507904D01*
X130722810Y-97507904D02*
X130484714Y-97626952D01*
X130484714Y-97626952D02*
X130246619Y-97626952D01*
X130246619Y-97626952D02*
X130008524Y-97507904D01*
X130008524Y-97507904D02*
X129889476Y-97388857D01*
X129889476Y-97388857D02*
X129770429Y-97150761D01*
X129770429Y-97150761D02*
X129651381Y-96674571D01*
X129651381Y-96674571D02*
X129651381Y-96079333D01*
X129651381Y-96079333D02*
X129770429Y-95603142D01*
X129770429Y-95603142D02*
X129889476Y-95365047D01*
X129889476Y-95365047D02*
X130008524Y-95246000D01*
X130008524Y-95246000D02*
X130246619Y-95126952D01*
X132151381Y-96674571D02*
X134056143Y-96674571D01*
X135127571Y-96912666D02*
X136318047Y-96912666D01*
X134889476Y-97626952D02*
X135722809Y-95126952D01*
X135722809Y-95126952D02*
X136556142Y-97626952D01*
X135722809Y-95126952D02*
X135484714Y-95007904D01*
X135484714Y-95007904D02*
X135365666Y-94769809D01*
X135365666Y-94769809D02*
X135484714Y-94531714D01*
X135484714Y-94531714D02*
X135722809Y-94412666D01*
X135722809Y-94412666D02*
X135960904Y-94531714D01*
X135960904Y-94531714D02*
X136079952Y-94769809D01*
X136079952Y-94769809D02*
X135960904Y-95007904D01*
X135960904Y-95007904D02*
X135722809Y-95126952D01*
X138818047Y-97626952D02*
X137984714Y-96436476D01*
X137389476Y-97626952D02*
X137389476Y-95126952D01*
X137389476Y-95126952D02*
X138341857Y-95126952D01*
X138341857Y-95126952D02*
X138579952Y-95246000D01*
X138579952Y-95246000D02*
X138698999Y-95365047D01*
X138698999Y-95365047D02*
X138818047Y-95603142D01*
X138818047Y-95603142D02*
X138818047Y-95960285D01*
X138818047Y-95960285D02*
X138698999Y-96198380D01*
X138698999Y-96198380D02*
X138579952Y-96317428D01*
X138579952Y-96317428D02*
X138341857Y-96436476D01*
X138341857Y-96436476D02*
X137389476Y-96436476D01*
X139770428Y-97507904D02*
X140127571Y-97626952D01*
X140127571Y-97626952D02*
X140722809Y-97626952D01*
X140722809Y-97626952D02*
X140960904Y-97507904D01*
X140960904Y-97507904D02*
X141079952Y-97388857D01*
X141079952Y-97388857D02*
X141198999Y-97150761D01*
X141198999Y-97150761D02*
X141198999Y-96912666D01*
X141198999Y-96912666D02*
X141079952Y-96674571D01*
X141079952Y-96674571D02*
X140960904Y-96555523D01*
X140960904Y-96555523D02*
X140722809Y-96436476D01*
X140722809Y-96436476D02*
X140246618Y-96317428D01*
X140246618Y-96317428D02*
X140008523Y-96198380D01*
X140008523Y-96198380D02*
X139889476Y-96079333D01*
X139889476Y-96079333D02*
X139770428Y-95841238D01*
X139770428Y-95841238D02*
X139770428Y-95603142D01*
X139770428Y-95603142D02*
X139889476Y-95365047D01*
X139889476Y-95365047D02*
X140008523Y-95246000D01*
X140008523Y-95246000D02*
X140246618Y-95126952D01*
X140246618Y-95126952D02*
X140841857Y-95126952D01*
X140841857Y-95126952D02*
X141198999Y-95246000D01*
X143103761Y-96317428D02*
X142270428Y-96317428D01*
X142270428Y-97626952D02*
X142270428Y-95126952D01*
X142270428Y-95126952D02*
X143460904Y-95126952D01*
X144413285Y-96317428D02*
X145246618Y-96317428D01*
X145603761Y-97626952D02*
X144413285Y-97626952D01*
X144413285Y-97626952D02*
X144413285Y-95126952D01*
X144413285Y-95126952D02*
X145603761Y-95126952D01*
X146556142Y-97507904D02*
X146913285Y-97626952D01*
X146913285Y-97626952D02*
X147508523Y-97626952D01*
X147508523Y-97626952D02*
X147746618Y-97507904D01*
X147746618Y-97507904D02*
X147865666Y-97388857D01*
X147865666Y-97388857D02*
X147984713Y-97150761D01*
X147984713Y-97150761D02*
X147984713Y-96912666D01*
X147984713Y-96912666D02*
X147865666Y-96674571D01*
X147865666Y-96674571D02*
X147746618Y-96555523D01*
X147746618Y-96555523D02*
X147508523Y-96436476D01*
X147508523Y-96436476D02*
X147032332Y-96317428D01*
X147032332Y-96317428D02*
X146794237Y-96198380D01*
X146794237Y-96198380D02*
X146675190Y-96079333D01*
X146675190Y-96079333D02*
X146556142Y-95841238D01*
X146556142Y-95841238D02*
X146556142Y-95603142D01*
X146556142Y-95603142D02*
X146675190Y-95365047D01*
X146675190Y-95365047D02*
X146794237Y-95246000D01*
X146794237Y-95246000D02*
X147032332Y-95126952D01*
X147032332Y-95126952D02*
X147627571Y-95126952D01*
X147627571Y-95126952D02*
X147984713Y-95246000D01*
X148698999Y-95126952D02*
X150127570Y-95126952D01*
X149413284Y-97626952D02*
X149413284Y-95126952D01*
X151318046Y-97388857D02*
X151437094Y-97507904D01*
X151437094Y-97507904D02*
X151318046Y-97626952D01*
X151318046Y-97626952D02*
X151198999Y-97507904D01*
X151198999Y-97507904D02*
X151318046Y-97388857D01*
X151318046Y-97388857D02*
X151318046Y-97626952D01*
X150841856Y-95246000D02*
X151079951Y-95126952D01*
X151079951Y-95126952D02*
X151675189Y-95126952D01*
X151675189Y-95126952D02*
X151913285Y-95246000D01*
X151913285Y-95246000D02*
X152032332Y-95484095D01*
X152032332Y-95484095D02*
X152032332Y-95722190D01*
X152032332Y-95722190D02*
X151913285Y-95960285D01*
X151913285Y-95960285D02*
X151794237Y-96079333D01*
X151794237Y-96079333D02*
X151556142Y-96198380D01*
X151556142Y-96198380D02*
X151437094Y-96317428D01*
X151437094Y-96317428D02*
X151318046Y-96555523D01*
X151318046Y-96555523D02*
X151318046Y-96674571D01*
D10*
X153336571Y-88000285D02*
X153336571Y-86200285D01*
X153336571Y-86200285D02*
X153765142Y-86200285D01*
X153765142Y-86200285D02*
X154022285Y-86286000D01*
X154022285Y-86286000D02*
X154193714Y-86457428D01*
X154193714Y-86457428D02*
X154279428Y-86628857D01*
X154279428Y-86628857D02*
X154365142Y-86971714D01*
X154365142Y-86971714D02*
X154365142Y-87228857D01*
X154365142Y-87228857D02*
X154279428Y-87571714D01*
X154279428Y-87571714D02*
X154193714Y-87743142D01*
X154193714Y-87743142D02*
X154022285Y-87914571D01*
X154022285Y-87914571D02*
X153765142Y-88000285D01*
X153765142Y-88000285D02*
X153336571Y-88000285D01*
X127520571Y-87057428D02*
X127777714Y-87143142D01*
X127777714Y-87143142D02*
X127863428Y-87228857D01*
X127863428Y-87228857D02*
X127949142Y-87400285D01*
X127949142Y-87400285D02*
X127949142Y-87657428D01*
X127949142Y-87657428D02*
X127863428Y-87828857D01*
X127863428Y-87828857D02*
X127777714Y-87914571D01*
X127777714Y-87914571D02*
X127606285Y-88000285D01*
X127606285Y-88000285D02*
X126920571Y-88000285D01*
X126920571Y-88000285D02*
X126920571Y-86200285D01*
X126920571Y-86200285D02*
X127520571Y-86200285D01*
X127520571Y-86200285D02*
X127692000Y-86286000D01*
X127692000Y-86286000D02*
X127777714Y-86371714D01*
X127777714Y-86371714D02*
X127863428Y-86543142D01*
X127863428Y-86543142D02*
X127863428Y-86714571D01*
X127863428Y-86714571D02*
X127777714Y-86886000D01*
X127777714Y-86886000D02*
X127692000Y-86971714D01*
X127692000Y-86971714D02*
X127520571Y-87057428D01*
X127520571Y-87057428D02*
X126920571Y-87057428D01*
X141157142Y-87828857D02*
X141071428Y-87914571D01*
X141071428Y-87914571D02*
X140814285Y-88000285D01*
X140814285Y-88000285D02*
X140642857Y-88000285D01*
X140642857Y-88000285D02*
X140385714Y-87914571D01*
X140385714Y-87914571D02*
X140214285Y-87743142D01*
X140214285Y-87743142D02*
X140128571Y-87571714D01*
X140128571Y-87571714D02*
X140042857Y-87228857D01*
X140042857Y-87228857D02*
X140042857Y-86971714D01*
X140042857Y-86971714D02*
X140128571Y-86628857D01*
X140128571Y-86628857D02*
X140214285Y-86457428D01*
X140214285Y-86457428D02*
X140385714Y-86286000D01*
X140385714Y-86286000D02*
X140642857Y-86200285D01*
X140642857Y-86200285D02*
X140814285Y-86200285D01*
X140814285Y-86200285D02*
X141071428Y-86286000D01*
X141071428Y-86286000D02*
X141157142Y-86371714D01*
X112634712Y-92105857D02*
X113134712Y-92105857D01*
X113348998Y-92891571D02*
X112634712Y-92891571D01*
X112634712Y-92891571D02*
X112634712Y-91391571D01*
X112634712Y-91391571D02*
X113348998Y-91391571D01*
X114848998Y-92891571D02*
X114348998Y-92177285D01*
X113991855Y-92891571D02*
X113991855Y-91391571D01*
X113991855Y-91391571D02*
X114563284Y-91391571D01*
X114563284Y-91391571D02*
X114706141Y-91463000D01*
X114706141Y-91463000D02*
X114777570Y-91534428D01*
X114777570Y-91534428D02*
X114848998Y-91677285D01*
X114848998Y-91677285D02*
X114848998Y-91891571D01*
X114848998Y-91891571D02*
X114777570Y-92034428D01*
X114777570Y-92034428D02*
X114706141Y-92105857D01*
X114706141Y-92105857D02*
X114563284Y-92177285D01*
X114563284Y-92177285D02*
X113991855Y-92177285D01*
X116391855Y-92891571D02*
X116391855Y-91391571D01*
X116391855Y-91391571D02*
X116748998Y-91391571D01*
X116748998Y-91391571D02*
X116963284Y-91463000D01*
X116963284Y-91463000D02*
X117106141Y-91605857D01*
X117106141Y-91605857D02*
X117177570Y-91748714D01*
X117177570Y-91748714D02*
X117248998Y-92034428D01*
X117248998Y-92034428D02*
X117248998Y-92248714D01*
X117248998Y-92248714D02*
X117177570Y-92534428D01*
X117177570Y-92534428D02*
X117106141Y-92677285D01*
X117106141Y-92677285D02*
X116963284Y-92820142D01*
X116963284Y-92820142D02*
X116748998Y-92891571D01*
X116748998Y-92891571D02*
X116391855Y-92891571D01*
X117891855Y-91391571D02*
X117891855Y-92605857D01*
X117891855Y-92605857D02*
X117963284Y-92748714D01*
X117963284Y-92748714D02*
X118034713Y-92820142D01*
X118034713Y-92820142D02*
X118177570Y-92891571D01*
X118177570Y-92891571D02*
X118463284Y-92891571D01*
X118463284Y-92891571D02*
X118606141Y-92820142D01*
X118606141Y-92820142D02*
X118677570Y-92748714D01*
X118677570Y-92748714D02*
X118748998Y-92605857D01*
X118748998Y-92605857D02*
X118748998Y-91391571D01*
X120363284Y-92891571D02*
X120363284Y-91391571D01*
X120363284Y-91391571D02*
X121220427Y-92891571D01*
X121220427Y-92891571D02*
X121220427Y-91391571D01*
X121934713Y-92105857D02*
X122434713Y-92105857D01*
X122648999Y-92891571D02*
X121934713Y-92891571D01*
X121934713Y-92891571D02*
X121934713Y-91391571D01*
X121934713Y-91391571D02*
X122648999Y-91391571D01*
X124148999Y-92891571D02*
X123648999Y-92177285D01*
X123291856Y-92891571D02*
X123291856Y-91391571D01*
X123291856Y-91391571D02*
X123863285Y-91391571D01*
X123863285Y-91391571D02*
X124006142Y-91463000D01*
X124006142Y-91463000D02*
X124077571Y-91534428D01*
X124077571Y-91534428D02*
X124148999Y-91677285D01*
X124148999Y-91677285D02*
X124148999Y-91891571D01*
X124148999Y-91891571D02*
X124077571Y-92034428D01*
X124077571Y-92034428D02*
X124006142Y-92105857D01*
X124006142Y-92105857D02*
X123863285Y-92177285D01*
X123863285Y-92177285D02*
X123291856Y-92177285D01*
X124791856Y-92891571D02*
X124791856Y-91391571D01*
X124791856Y-91391571D02*
X125148999Y-91391571D01*
X125148999Y-91391571D02*
X125363285Y-91463000D01*
X125363285Y-91463000D02*
X125506142Y-91605857D01*
X125506142Y-91605857D02*
X125577571Y-91748714D01*
X125577571Y-91748714D02*
X125648999Y-92034428D01*
X125648999Y-92034428D02*
X125648999Y-92248714D01*
X125648999Y-92248714D02*
X125577571Y-92534428D01*
X125577571Y-92534428D02*
X125506142Y-92677285D01*
X125506142Y-92677285D02*
X125363285Y-92820142D01*
X125363285Y-92820142D02*
X125148999Y-92891571D01*
X125148999Y-92891571D02*
X124791856Y-92891571D01*
X127191856Y-92891571D02*
X127191856Y-91391571D01*
X127191856Y-91391571D02*
X128048999Y-92891571D01*
X128048999Y-92891571D02*
X128048999Y-91391571D01*
X129049000Y-91391571D02*
X129334714Y-91391571D01*
X129334714Y-91391571D02*
X129477571Y-91463000D01*
X129477571Y-91463000D02*
X129620428Y-91605857D01*
X129620428Y-91605857D02*
X129691857Y-91891571D01*
X129691857Y-91891571D02*
X129691857Y-92391571D01*
X129691857Y-92391571D02*
X129620428Y-92677285D01*
X129620428Y-92677285D02*
X129477571Y-92820142D01*
X129477571Y-92820142D02*
X129334714Y-92891571D01*
X129334714Y-92891571D02*
X129049000Y-92891571D01*
X129049000Y-92891571D02*
X128906143Y-92820142D01*
X128906143Y-92820142D02*
X128763285Y-92677285D01*
X128763285Y-92677285D02*
X128691857Y-92391571D01*
X128691857Y-92391571D02*
X128691857Y-91891571D01*
X128691857Y-91891571D02*
X128763285Y-91605857D01*
X128763285Y-91605857D02*
X128906143Y-91463000D01*
X128906143Y-91463000D02*
X129049000Y-91391571D01*
X130334714Y-92891571D02*
X130334714Y-91391571D01*
X131191857Y-92891571D02*
X130549000Y-92034428D01*
X131191857Y-91391571D02*
X130334714Y-92248714D01*
X132520429Y-91391571D02*
X133377572Y-91391571D01*
X132949000Y-92891571D02*
X132949000Y-91391571D01*
X133877571Y-92891571D02*
X133877571Y-91391571D01*
X135306143Y-92891571D02*
X134591857Y-92891571D01*
X134591857Y-92891571D02*
X134591857Y-91391571D01*
X136634715Y-92463000D02*
X137349001Y-92463000D01*
X136491858Y-92891571D02*
X136991858Y-91391571D01*
X136991858Y-91391571D02*
X137491858Y-92891571D01*
X136991858Y-91391571D02*
X136849001Y-91320142D01*
X136849001Y-91320142D02*
X136777572Y-91177285D01*
X136777572Y-91177285D02*
X136849001Y-91034428D01*
X136849001Y-91034428D02*
X136991858Y-90963000D01*
X136991858Y-90963000D02*
X137134715Y-91034428D01*
X137134715Y-91034428D02*
X137206143Y-91177285D01*
X137206143Y-91177285D02*
X137134715Y-91320142D01*
X137134715Y-91320142D02*
X136991858Y-91391571D01*
X139391857Y-92105857D02*
X139606143Y-92177285D01*
X139606143Y-92177285D02*
X139677572Y-92248714D01*
X139677572Y-92248714D02*
X139749000Y-92391571D01*
X139749000Y-92391571D02*
X139749000Y-92605857D01*
X139749000Y-92605857D02*
X139677572Y-92748714D01*
X139677572Y-92748714D02*
X139606143Y-92820142D01*
X139606143Y-92820142D02*
X139463286Y-92891571D01*
X139463286Y-92891571D02*
X138891857Y-92891571D01*
X138891857Y-92891571D02*
X138891857Y-91391571D01*
X138891857Y-91391571D02*
X139391857Y-91391571D01*
X139391857Y-91391571D02*
X139534715Y-91463000D01*
X139534715Y-91463000D02*
X139606143Y-91534428D01*
X139606143Y-91534428D02*
X139677572Y-91677285D01*
X139677572Y-91677285D02*
X139677572Y-91820142D01*
X139677572Y-91820142D02*
X139606143Y-91963000D01*
X139606143Y-91963000D02*
X139534715Y-92034428D01*
X139534715Y-92034428D02*
X139391857Y-92105857D01*
X139391857Y-92105857D02*
X138891857Y-92105857D01*
X141106143Y-92891571D02*
X140391857Y-92891571D01*
X140391857Y-92891571D02*
X140391857Y-91391571D01*
X141606143Y-92891571D02*
X141606143Y-91391571D01*
X143220429Y-92891571D02*
X143220429Y-91391571D01*
X143220429Y-91391571D02*
X143720429Y-92463000D01*
X143720429Y-92463000D02*
X144220429Y-91391571D01*
X144220429Y-91391571D02*
X144220429Y-92891571D01*
X144934715Y-92105857D02*
X145434715Y-92105857D01*
X145649001Y-92891571D02*
X144934715Y-92891571D01*
X144934715Y-92891571D02*
X144934715Y-91391571D01*
X144934715Y-91391571D02*
X145649001Y-91391571D01*
X146291858Y-92891571D02*
X146291858Y-91391571D01*
X146291858Y-91391571D02*
X146649001Y-91391571D01*
X146649001Y-91391571D02*
X146863287Y-91463000D01*
X146863287Y-91463000D02*
X147006144Y-91605857D01*
X147006144Y-91605857D02*
X147077573Y-91748714D01*
X147077573Y-91748714D02*
X147149001Y-92034428D01*
X147149001Y-92034428D02*
X147149001Y-92248714D01*
X147149001Y-92248714D02*
X147077573Y-92534428D01*
X147077573Y-92534428D02*
X147006144Y-92677285D01*
X147006144Y-92677285D02*
X146863287Y-92820142D01*
X146863287Y-92820142D02*
X146649001Y-92891571D01*
X146649001Y-92891571D02*
X146291858Y-92891571D01*
X148691858Y-92891571D02*
X148691858Y-91391571D01*
X148691858Y-91391571D02*
X149263287Y-91391571D01*
X149263287Y-91391571D02*
X149406144Y-91463000D01*
X149406144Y-91463000D02*
X149477573Y-91534428D01*
X149477573Y-91534428D02*
X149549001Y-91677285D01*
X149549001Y-91677285D02*
X149549001Y-91891571D01*
X149549001Y-91891571D02*
X149477573Y-92034428D01*
X149477573Y-92034428D02*
X149406144Y-92105857D01*
X149406144Y-92105857D02*
X149263287Y-92177285D01*
X149263287Y-92177285D02*
X148691858Y-92177285D01*
X150120430Y-92463000D02*
X150834716Y-92463000D01*
X149977573Y-92891571D02*
X150477573Y-91391571D01*
X150477573Y-91391571D02*
X150977573Y-92891571D01*
X150477573Y-91391571D02*
X150334716Y-91320142D01*
X150334716Y-91320142D02*
X150263287Y-91177285D01*
X150263287Y-91177285D02*
X150334716Y-91034428D01*
X150334716Y-91034428D02*
X150477573Y-90963000D01*
X150477573Y-90963000D02*
X150620430Y-91034428D01*
X150620430Y-91034428D02*
X150691858Y-91177285D01*
X150691858Y-91177285D02*
X150620430Y-91320142D01*
X150620430Y-91320142D02*
X150477573Y-91391571D01*
X113626857Y-87486000D02*
X114484000Y-87486000D01*
X113455428Y-88000285D02*
X114055428Y-86200285D01*
X114055428Y-86200285D02*
X114655428Y-88000285D01*
D13*
X106114476Y-106777096D02*
X106357333Y-106858048D01*
X106357333Y-106858048D02*
X106762095Y-106858048D01*
X106762095Y-106858048D02*
X106924000Y-106777096D01*
X106924000Y-106777096D02*
X107004952Y-106696143D01*
X107004952Y-106696143D02*
X107085905Y-106534239D01*
X107085905Y-106534239D02*
X107085905Y-106372334D01*
X107085905Y-106372334D02*
X107004952Y-106210429D01*
X107004952Y-106210429D02*
X106924000Y-106129477D01*
X106924000Y-106129477D02*
X106762095Y-106048524D01*
X106762095Y-106048524D02*
X106438286Y-105967572D01*
X106438286Y-105967572D02*
X106276381Y-105886620D01*
X106276381Y-105886620D02*
X106195428Y-105805667D01*
X106195428Y-105805667D02*
X106114476Y-105643762D01*
X106114476Y-105643762D02*
X106114476Y-105481858D01*
X106114476Y-105481858D02*
X106195428Y-105319953D01*
X106195428Y-105319953D02*
X106276381Y-105239001D01*
X106276381Y-105239001D02*
X106438286Y-105158048D01*
X106438286Y-105158048D02*
X106843047Y-105158048D01*
X106843047Y-105158048D02*
X107085905Y-105239001D01*
X107571619Y-105158048D02*
X108543048Y-105158048D01*
X108057334Y-106858048D02*
X108057334Y-105158048D01*
X109028762Y-106372334D02*
X109838286Y-106372334D01*
X108866857Y-106858048D02*
X109433524Y-105158048D01*
X109433524Y-105158048D02*
X110000191Y-106858048D01*
X111538286Y-106858048D02*
X110971619Y-106048524D01*
X110566857Y-106858048D02*
X110566857Y-105158048D01*
X110566857Y-105158048D02*
X111214476Y-105158048D01*
X111214476Y-105158048D02*
X111376381Y-105239001D01*
X111376381Y-105239001D02*
X111457334Y-105319953D01*
X111457334Y-105319953D02*
X111538286Y-105481858D01*
X111538286Y-105481858D02*
X111538286Y-105724715D01*
X111538286Y-105724715D02*
X111457334Y-105886620D01*
X111457334Y-105886620D02*
X111376381Y-105967572D01*
X111376381Y-105967572D02*
X111214476Y-106048524D01*
X111214476Y-106048524D02*
X110566857Y-106048524D01*
X112024000Y-105158048D02*
X112995429Y-105158048D01*
X112509715Y-106858048D02*
X112509715Y-105158048D01*
X106964476Y-109612048D02*
X106964476Y-107912048D01*
X106964476Y-108721572D02*
X107935905Y-108721572D01*
X107935905Y-109612048D02*
X107935905Y-107912048D01*
X108745428Y-108721572D02*
X109312095Y-108721572D01*
X109554952Y-109612048D02*
X108745428Y-109612048D01*
X108745428Y-109612048D02*
X108745428Y-107912048D01*
X108745428Y-107912048D02*
X109554952Y-107912048D01*
X111254952Y-109612048D02*
X110688285Y-108802524D01*
X110283523Y-109612048D02*
X110283523Y-107912048D01*
X110283523Y-107912048D02*
X110931142Y-107912048D01*
X110931142Y-107912048D02*
X111093047Y-107993001D01*
X111093047Y-107993001D02*
X111174000Y-108073953D01*
X111174000Y-108073953D02*
X111254952Y-108235858D01*
X111254952Y-108235858D02*
X111254952Y-108478715D01*
X111254952Y-108478715D02*
X111174000Y-108640620D01*
X111174000Y-108640620D02*
X111093047Y-108721572D01*
X111093047Y-108721572D02*
X110931142Y-108802524D01*
X110931142Y-108802524D02*
X110283523Y-108802524D01*
X111983523Y-109450143D02*
X112064476Y-109531096D01*
X112064476Y-109531096D02*
X111983523Y-109612048D01*
X111983523Y-109612048D02*
X111902571Y-109531096D01*
X111902571Y-109531096D02*
X111983523Y-109450143D01*
X111983523Y-109450143D02*
X111983523Y-109612048D01*
X111983523Y-108964429D02*
X111902571Y-107993001D01*
X111902571Y-107993001D02*
X111983523Y-107912048D01*
X111983523Y-107912048D02*
X112064476Y-107993001D01*
X112064476Y-107993001D02*
X111983523Y-108964429D01*
X111983523Y-108964429D02*
X111983523Y-107912048D01*
D11*
%TO.C,R15*%
X151757142Y-76947380D02*
X151423809Y-76471190D01*
X151185714Y-76947380D02*
X151185714Y-75947380D01*
X151185714Y-75947380D02*
X151566666Y-75947380D01*
X151566666Y-75947380D02*
X151661904Y-75995000D01*
X151661904Y-75995000D02*
X151709523Y-76042619D01*
X151709523Y-76042619D02*
X151757142Y-76137857D01*
X151757142Y-76137857D02*
X151757142Y-76280714D01*
X151757142Y-76280714D02*
X151709523Y-76375952D01*
X151709523Y-76375952D02*
X151661904Y-76423571D01*
X151661904Y-76423571D02*
X151566666Y-76471190D01*
X151566666Y-76471190D02*
X151185714Y-76471190D01*
X152709523Y-76947380D02*
X152138095Y-76947380D01*
X152423809Y-76947380D02*
X152423809Y-75947380D01*
X152423809Y-75947380D02*
X152328571Y-76090238D01*
X152328571Y-76090238D02*
X152233333Y-76185476D01*
X152233333Y-76185476D02*
X152138095Y-76233095D01*
X153614285Y-75947380D02*
X153138095Y-75947380D01*
X153138095Y-75947380D02*
X153090476Y-76423571D01*
X153090476Y-76423571D02*
X153138095Y-76375952D01*
X153138095Y-76375952D02*
X153233333Y-76328333D01*
X153233333Y-76328333D02*
X153471428Y-76328333D01*
X153471428Y-76328333D02*
X153566666Y-76375952D01*
X153566666Y-76375952D02*
X153614285Y-76423571D01*
X153614285Y-76423571D02*
X153661904Y-76518809D01*
X153661904Y-76518809D02*
X153661904Y-76756904D01*
X153661904Y-76756904D02*
X153614285Y-76852142D01*
X153614285Y-76852142D02*
X153566666Y-76899761D01*
X153566666Y-76899761D02*
X153471428Y-76947380D01*
X153471428Y-76947380D02*
X153233333Y-76947380D01*
X153233333Y-76947380D02*
X153138095Y-76899761D01*
X153138095Y-76899761D02*
X153090476Y-76852142D01*
%TO.C,D7*%
X133450105Y-87743380D02*
X133450105Y-86743380D01*
X133450105Y-86743380D02*
X133688200Y-86743380D01*
X133688200Y-86743380D02*
X133831057Y-86791000D01*
X133831057Y-86791000D02*
X133926295Y-86886238D01*
X133926295Y-86886238D02*
X133973914Y-86981476D01*
X133973914Y-86981476D02*
X134021533Y-87171952D01*
X134021533Y-87171952D02*
X134021533Y-87314809D01*
X134021533Y-87314809D02*
X133973914Y-87505285D01*
X133973914Y-87505285D02*
X133926295Y-87600523D01*
X133926295Y-87600523D02*
X133831057Y-87695761D01*
X133831057Y-87695761D02*
X133688200Y-87743380D01*
X133688200Y-87743380D02*
X133450105Y-87743380D01*
X134354867Y-86743380D02*
X135021533Y-86743380D01*
X135021533Y-86743380D02*
X134592962Y-87743380D01*
%TO.C,R14*%
X110863142Y-76948380D02*
X110529809Y-76472190D01*
X110291714Y-76948380D02*
X110291714Y-75948380D01*
X110291714Y-75948380D02*
X110672666Y-75948380D01*
X110672666Y-75948380D02*
X110767904Y-75996000D01*
X110767904Y-75996000D02*
X110815523Y-76043619D01*
X110815523Y-76043619D02*
X110863142Y-76138857D01*
X110863142Y-76138857D02*
X110863142Y-76281714D01*
X110863142Y-76281714D02*
X110815523Y-76376952D01*
X110815523Y-76376952D02*
X110767904Y-76424571D01*
X110767904Y-76424571D02*
X110672666Y-76472190D01*
X110672666Y-76472190D02*
X110291714Y-76472190D01*
X111815523Y-76948380D02*
X111244095Y-76948380D01*
X111529809Y-76948380D02*
X111529809Y-75948380D01*
X111529809Y-75948380D02*
X111434571Y-76091238D01*
X111434571Y-76091238D02*
X111339333Y-76186476D01*
X111339333Y-76186476D02*
X111244095Y-76234095D01*
X112672666Y-76281714D02*
X112672666Y-76948380D01*
X112434571Y-75900761D02*
X112196476Y-76615047D01*
X112196476Y-76615047D02*
X112815523Y-76615047D01*
%TO.C,R16*%
X145661142Y-114667380D02*
X145327809Y-114191190D01*
X145089714Y-114667380D02*
X145089714Y-113667380D01*
X145089714Y-113667380D02*
X145470666Y-113667380D01*
X145470666Y-113667380D02*
X145565904Y-113715000D01*
X145565904Y-113715000D02*
X145613523Y-113762619D01*
X145613523Y-113762619D02*
X145661142Y-113857857D01*
X145661142Y-113857857D02*
X145661142Y-114000714D01*
X145661142Y-114000714D02*
X145613523Y-114095952D01*
X145613523Y-114095952D02*
X145565904Y-114143571D01*
X145565904Y-114143571D02*
X145470666Y-114191190D01*
X145470666Y-114191190D02*
X145089714Y-114191190D01*
X146613523Y-114667380D02*
X146042095Y-114667380D01*
X146327809Y-114667380D02*
X146327809Y-113667380D01*
X146327809Y-113667380D02*
X146232571Y-113810238D01*
X146232571Y-113810238D02*
X146137333Y-113905476D01*
X146137333Y-113905476D02*
X146042095Y-113953095D01*
X147470666Y-113667380D02*
X147280190Y-113667380D01*
X147280190Y-113667380D02*
X147184952Y-113715000D01*
X147184952Y-113715000D02*
X147137333Y-113762619D01*
X147137333Y-113762619D02*
X147042095Y-113905476D01*
X147042095Y-113905476D02*
X146994476Y-114095952D01*
X146994476Y-114095952D02*
X146994476Y-114476904D01*
X146994476Y-114476904D02*
X147042095Y-114572142D01*
X147042095Y-114572142D02*
X147089714Y-114619761D01*
X147089714Y-114619761D02*
X147184952Y-114667380D01*
X147184952Y-114667380D02*
X147375428Y-114667380D01*
X147375428Y-114667380D02*
X147470666Y-114619761D01*
X147470666Y-114619761D02*
X147518285Y-114572142D01*
X147518285Y-114572142D02*
X147565904Y-114476904D01*
X147565904Y-114476904D02*
X147565904Y-114238809D01*
X147565904Y-114238809D02*
X147518285Y-114143571D01*
X147518285Y-114143571D02*
X147470666Y-114095952D01*
X147470666Y-114095952D02*
X147375428Y-114048333D01*
X147375428Y-114048333D02*
X147184952Y-114048333D01*
X147184952Y-114048333D02*
X147089714Y-114095952D01*
X147089714Y-114095952D02*
X147042095Y-114143571D01*
X147042095Y-114143571D02*
X146994476Y-114238809D01*
%TO.C,D6*%
X120242105Y-87743380D02*
X120242105Y-86743380D01*
X120242105Y-86743380D02*
X120480200Y-86743380D01*
X120480200Y-86743380D02*
X120623057Y-86791000D01*
X120623057Y-86791000D02*
X120718295Y-86886238D01*
X120718295Y-86886238D02*
X120765914Y-86981476D01*
X120765914Y-86981476D02*
X120813533Y-87171952D01*
X120813533Y-87171952D02*
X120813533Y-87314809D01*
X120813533Y-87314809D02*
X120765914Y-87505285D01*
X120765914Y-87505285D02*
X120718295Y-87600523D01*
X120718295Y-87600523D02*
X120623057Y-87695761D01*
X120623057Y-87695761D02*
X120480200Y-87743380D01*
X120480200Y-87743380D02*
X120242105Y-87743380D01*
X121670676Y-86743380D02*
X121480200Y-86743380D01*
X121480200Y-86743380D02*
X121384962Y-86791000D01*
X121384962Y-86791000D02*
X121337343Y-86838619D01*
X121337343Y-86838619D02*
X121242105Y-86981476D01*
X121242105Y-86981476D02*
X121194486Y-87171952D01*
X121194486Y-87171952D02*
X121194486Y-87552904D01*
X121194486Y-87552904D02*
X121242105Y-87648142D01*
X121242105Y-87648142D02*
X121289724Y-87695761D01*
X121289724Y-87695761D02*
X121384962Y-87743380D01*
X121384962Y-87743380D02*
X121575438Y-87743380D01*
X121575438Y-87743380D02*
X121670676Y-87695761D01*
X121670676Y-87695761D02*
X121718295Y-87648142D01*
X121718295Y-87648142D02*
X121765914Y-87552904D01*
X121765914Y-87552904D02*
X121765914Y-87314809D01*
X121765914Y-87314809D02*
X121718295Y-87219571D01*
X121718295Y-87219571D02*
X121670676Y-87171952D01*
X121670676Y-87171952D02*
X121575438Y-87124333D01*
X121575438Y-87124333D02*
X121384962Y-87124333D01*
X121384962Y-87124333D02*
X121289724Y-87171952D01*
X121289724Y-87171952D02*
X121242105Y-87219571D01*
X121242105Y-87219571D02*
X121194486Y-87314809D01*
%TO.C,D3*%
X107301380Y-68302094D02*
X106301380Y-68302094D01*
X106301380Y-68302094D02*
X106301380Y-68063999D01*
X106301380Y-68063999D02*
X106349000Y-67921142D01*
X106349000Y-67921142D02*
X106444238Y-67825904D01*
X106444238Y-67825904D02*
X106539476Y-67778285D01*
X106539476Y-67778285D02*
X106729952Y-67730666D01*
X106729952Y-67730666D02*
X106872809Y-67730666D01*
X106872809Y-67730666D02*
X107063285Y-67778285D01*
X107063285Y-67778285D02*
X107158523Y-67825904D01*
X107158523Y-67825904D02*
X107253761Y-67921142D01*
X107253761Y-67921142D02*
X107301380Y-68063999D01*
X107301380Y-68063999D02*
X107301380Y-68302094D01*
X106301380Y-67397332D02*
X106301380Y-66778285D01*
X106301380Y-66778285D02*
X106682333Y-67111618D01*
X106682333Y-67111618D02*
X106682333Y-66968761D01*
X106682333Y-66968761D02*
X106729952Y-66873523D01*
X106729952Y-66873523D02*
X106777571Y-66825904D01*
X106777571Y-66825904D02*
X106872809Y-66778285D01*
X106872809Y-66778285D02*
X107110904Y-66778285D01*
X107110904Y-66778285D02*
X107206142Y-66825904D01*
X107206142Y-66825904D02*
X107253761Y-66873523D01*
X107253761Y-66873523D02*
X107301380Y-66968761D01*
X107301380Y-66968761D02*
X107301380Y-67254475D01*
X107301380Y-67254475D02*
X107253761Y-67349713D01*
X107253761Y-67349713D02*
X107206142Y-67397332D01*
D14*
%TO.C,U4*%
X145796095Y-51437380D02*
X145796095Y-52246904D01*
X145796095Y-52246904D02*
X145843714Y-52342142D01*
X145843714Y-52342142D02*
X145891333Y-52389761D01*
X145891333Y-52389761D02*
X145986571Y-52437380D01*
X145986571Y-52437380D02*
X146177047Y-52437380D01*
X146177047Y-52437380D02*
X146272285Y-52389761D01*
X146272285Y-52389761D02*
X146319904Y-52342142D01*
X146319904Y-52342142D02*
X146367523Y-52246904D01*
X146367523Y-52246904D02*
X146367523Y-51437380D01*
X147272285Y-51770714D02*
X147272285Y-52437380D01*
X147034190Y-51389761D02*
X146796095Y-52104047D01*
X146796095Y-52104047D02*
X147415142Y-52104047D01*
D11*
%TO.C,D4*%
X157847380Y-68706594D02*
X156847380Y-68706594D01*
X156847380Y-68706594D02*
X156847380Y-68468499D01*
X156847380Y-68468499D02*
X156895000Y-68325642D01*
X156895000Y-68325642D02*
X156990238Y-68230404D01*
X156990238Y-68230404D02*
X157085476Y-68182785D01*
X157085476Y-68182785D02*
X157275952Y-68135166D01*
X157275952Y-68135166D02*
X157418809Y-68135166D01*
X157418809Y-68135166D02*
X157609285Y-68182785D01*
X157609285Y-68182785D02*
X157704523Y-68230404D01*
X157704523Y-68230404D02*
X157799761Y-68325642D01*
X157799761Y-68325642D02*
X157847380Y-68468499D01*
X157847380Y-68468499D02*
X157847380Y-68706594D01*
X157180714Y-67278023D02*
X157847380Y-67278023D01*
X156799761Y-67516118D02*
X157514047Y-67754213D01*
X157514047Y-67754213D02*
X157514047Y-67135166D01*
%TO.C,R5*%
X143343333Y-114667380D02*
X143010000Y-114191190D01*
X142771905Y-114667380D02*
X142771905Y-113667380D01*
X142771905Y-113667380D02*
X143152857Y-113667380D01*
X143152857Y-113667380D02*
X143248095Y-113715000D01*
X143248095Y-113715000D02*
X143295714Y-113762619D01*
X143295714Y-113762619D02*
X143343333Y-113857857D01*
X143343333Y-113857857D02*
X143343333Y-114000714D01*
X143343333Y-114000714D02*
X143295714Y-114095952D01*
X143295714Y-114095952D02*
X143248095Y-114143571D01*
X143248095Y-114143571D02*
X143152857Y-114191190D01*
X143152857Y-114191190D02*
X142771905Y-114191190D01*
X144248095Y-113667380D02*
X143771905Y-113667380D01*
X143771905Y-113667380D02*
X143724286Y-114143571D01*
X143724286Y-114143571D02*
X143771905Y-114095952D01*
X143771905Y-114095952D02*
X143867143Y-114048333D01*
X143867143Y-114048333D02*
X144105238Y-114048333D01*
X144105238Y-114048333D02*
X144200476Y-114095952D01*
X144200476Y-114095952D02*
X144248095Y-114143571D01*
X144248095Y-114143571D02*
X144295714Y-114238809D01*
X144295714Y-114238809D02*
X144295714Y-114476904D01*
X144295714Y-114476904D02*
X144248095Y-114572142D01*
X144248095Y-114572142D02*
X144200476Y-114619761D01*
X144200476Y-114619761D02*
X144105238Y-114667380D01*
X144105238Y-114667380D02*
X143867143Y-114667380D01*
X143867143Y-114667380D02*
X143771905Y-114619761D01*
X143771905Y-114619761D02*
X143724286Y-114572142D01*
%TO.C,R1*%
X155789333Y-112889380D02*
X155456000Y-112413190D01*
X155217905Y-112889380D02*
X155217905Y-111889380D01*
X155217905Y-111889380D02*
X155598857Y-111889380D01*
X155598857Y-111889380D02*
X155694095Y-111937000D01*
X155694095Y-111937000D02*
X155741714Y-111984619D01*
X155741714Y-111984619D02*
X155789333Y-112079857D01*
X155789333Y-112079857D02*
X155789333Y-112222714D01*
X155789333Y-112222714D02*
X155741714Y-112317952D01*
X155741714Y-112317952D02*
X155694095Y-112365571D01*
X155694095Y-112365571D02*
X155598857Y-112413190D01*
X155598857Y-112413190D02*
X155217905Y-112413190D01*
X156741714Y-112889380D02*
X156170286Y-112889380D01*
X156456000Y-112889380D02*
X156456000Y-111889380D01*
X156456000Y-111889380D02*
X156360762Y-112032238D01*
X156360762Y-112032238D02*
X156265524Y-112127476D01*
X156265524Y-112127476D02*
X156170286Y-112175095D01*
%TO.C,C2*%
X146137333Y-109492142D02*
X146089714Y-109539761D01*
X146089714Y-109539761D02*
X145946857Y-109587380D01*
X145946857Y-109587380D02*
X145851619Y-109587380D01*
X145851619Y-109587380D02*
X145708762Y-109539761D01*
X145708762Y-109539761D02*
X145613524Y-109444523D01*
X145613524Y-109444523D02*
X145565905Y-109349285D01*
X145565905Y-109349285D02*
X145518286Y-109158809D01*
X145518286Y-109158809D02*
X145518286Y-109015952D01*
X145518286Y-109015952D02*
X145565905Y-108825476D01*
X145565905Y-108825476D02*
X145613524Y-108730238D01*
X145613524Y-108730238D02*
X145708762Y-108635000D01*
X145708762Y-108635000D02*
X145851619Y-108587380D01*
X145851619Y-108587380D02*
X145946857Y-108587380D01*
X145946857Y-108587380D02*
X146089714Y-108635000D01*
X146089714Y-108635000D02*
X146137333Y-108682619D01*
X146518286Y-108682619D02*
X146565905Y-108635000D01*
X146565905Y-108635000D02*
X146661143Y-108587380D01*
X146661143Y-108587380D02*
X146899238Y-108587380D01*
X146899238Y-108587380D02*
X146994476Y-108635000D01*
X146994476Y-108635000D02*
X147042095Y-108682619D01*
X147042095Y-108682619D02*
X147089714Y-108777857D01*
X147089714Y-108777857D02*
X147089714Y-108873095D01*
X147089714Y-108873095D02*
X147042095Y-109015952D01*
X147042095Y-109015952D02*
X146470667Y-109587380D01*
X146470667Y-109587380D02*
X147089714Y-109587380D01*
%TO.C,F1*%
X159178666Y-105710771D02*
X158845333Y-105710771D01*
X158845333Y-106234580D02*
X158845333Y-105234580D01*
X158845333Y-105234580D02*
X159321523Y-105234580D01*
X160226285Y-106234580D02*
X159654857Y-106234580D01*
X159940571Y-106234580D02*
X159940571Y-105234580D01*
X159940571Y-105234580D02*
X159845333Y-105377438D01*
X159845333Y-105377438D02*
X159750095Y-105472676D01*
X159750095Y-105472676D02*
X159654857Y-105520295D01*
%TO.C,U3*%
X141732095Y-99443380D02*
X141732095Y-100252904D01*
X141732095Y-100252904D02*
X141779714Y-100348142D01*
X141779714Y-100348142D02*
X141827333Y-100395761D01*
X141827333Y-100395761D02*
X141922571Y-100443380D01*
X141922571Y-100443380D02*
X142113047Y-100443380D01*
X142113047Y-100443380D02*
X142208285Y-100395761D01*
X142208285Y-100395761D02*
X142255904Y-100348142D01*
X142255904Y-100348142D02*
X142303523Y-100252904D01*
X142303523Y-100252904D02*
X142303523Y-99443380D01*
X142684476Y-99443380D02*
X143303523Y-99443380D01*
X143303523Y-99443380D02*
X142970190Y-99824333D01*
X142970190Y-99824333D02*
X143113047Y-99824333D01*
X143113047Y-99824333D02*
X143208285Y-99871952D01*
X143208285Y-99871952D02*
X143255904Y-99919571D01*
X143255904Y-99919571D02*
X143303523Y-100014809D01*
X143303523Y-100014809D02*
X143303523Y-100252904D01*
X143303523Y-100252904D02*
X143255904Y-100348142D01*
X143255904Y-100348142D02*
X143208285Y-100395761D01*
X143208285Y-100395761D02*
X143113047Y-100443380D01*
X143113047Y-100443380D02*
X142827333Y-100443380D01*
X142827333Y-100443380D02*
X142732095Y-100395761D01*
X142732095Y-100395761D02*
X142684476Y-100348142D01*
%TO.C,D1*%
X105179905Y-102729380D02*
X105179905Y-101729380D01*
X105179905Y-101729380D02*
X105418000Y-101729380D01*
X105418000Y-101729380D02*
X105560857Y-101777000D01*
X105560857Y-101777000D02*
X105656095Y-101872238D01*
X105656095Y-101872238D02*
X105703714Y-101967476D01*
X105703714Y-101967476D02*
X105751333Y-102157952D01*
X105751333Y-102157952D02*
X105751333Y-102300809D01*
X105751333Y-102300809D02*
X105703714Y-102491285D01*
X105703714Y-102491285D02*
X105656095Y-102586523D01*
X105656095Y-102586523D02*
X105560857Y-102681761D01*
X105560857Y-102681761D02*
X105418000Y-102729380D01*
X105418000Y-102729380D02*
X105179905Y-102729380D01*
X106703714Y-102729380D02*
X106132286Y-102729380D01*
X106418000Y-102729380D02*
X106418000Y-101729380D01*
X106418000Y-101729380D02*
X106322762Y-101872238D01*
X106322762Y-101872238D02*
X106227524Y-101967476D01*
X106227524Y-101967476D02*
X106132286Y-102015095D01*
%TO.C,D5*%
X107059505Y-87743380D02*
X107059505Y-86743380D01*
X107059505Y-86743380D02*
X107297600Y-86743380D01*
X107297600Y-86743380D02*
X107440457Y-86791000D01*
X107440457Y-86791000D02*
X107535695Y-86886238D01*
X107535695Y-86886238D02*
X107583314Y-86981476D01*
X107583314Y-86981476D02*
X107630933Y-87171952D01*
X107630933Y-87171952D02*
X107630933Y-87314809D01*
X107630933Y-87314809D02*
X107583314Y-87505285D01*
X107583314Y-87505285D02*
X107535695Y-87600523D01*
X107535695Y-87600523D02*
X107440457Y-87695761D01*
X107440457Y-87695761D02*
X107297600Y-87743380D01*
X107297600Y-87743380D02*
X107059505Y-87743380D01*
X108535695Y-86743380D02*
X108059505Y-86743380D01*
X108059505Y-86743380D02*
X108011886Y-87219571D01*
X108011886Y-87219571D02*
X108059505Y-87171952D01*
X108059505Y-87171952D02*
X108154743Y-87124333D01*
X108154743Y-87124333D02*
X108392838Y-87124333D01*
X108392838Y-87124333D02*
X108488076Y-87171952D01*
X108488076Y-87171952D02*
X108535695Y-87219571D01*
X108535695Y-87219571D02*
X108583314Y-87314809D01*
X108583314Y-87314809D02*
X108583314Y-87552904D01*
X108583314Y-87552904D02*
X108535695Y-87648142D01*
X108535695Y-87648142D02*
X108488076Y-87695761D01*
X108488076Y-87695761D02*
X108392838Y-87743380D01*
X108392838Y-87743380D02*
X108154743Y-87743380D01*
X108154743Y-87743380D02*
X108059505Y-87695761D01*
X108059505Y-87695761D02*
X108011886Y-87648142D01*
%TO.C,D2*%
X116660705Y-116038980D02*
X116660705Y-115038980D01*
X116660705Y-115038980D02*
X116898800Y-115038980D01*
X116898800Y-115038980D02*
X117041657Y-115086600D01*
X117041657Y-115086600D02*
X117136895Y-115181838D01*
X117136895Y-115181838D02*
X117184514Y-115277076D01*
X117184514Y-115277076D02*
X117232133Y-115467552D01*
X117232133Y-115467552D02*
X117232133Y-115610409D01*
X117232133Y-115610409D02*
X117184514Y-115800885D01*
X117184514Y-115800885D02*
X117136895Y-115896123D01*
X117136895Y-115896123D02*
X117041657Y-115991361D01*
X117041657Y-115991361D02*
X116898800Y-116038980D01*
X116898800Y-116038980D02*
X116660705Y-116038980D01*
X117613086Y-115134219D02*
X117660705Y-115086600D01*
X117660705Y-115086600D02*
X117755943Y-115038980D01*
X117755943Y-115038980D02*
X117994038Y-115038980D01*
X117994038Y-115038980D02*
X118089276Y-115086600D01*
X118089276Y-115086600D02*
X118136895Y-115134219D01*
X118136895Y-115134219D02*
X118184514Y-115229457D01*
X118184514Y-115229457D02*
X118184514Y-115324695D01*
X118184514Y-115324695D02*
X118136895Y-115467552D01*
X118136895Y-115467552D02*
X117565467Y-116038980D01*
X117565467Y-116038980D02*
X118184514Y-116038980D01*
D15*
%TO.C,BZ1*%
X156624447Y-125116371D02*
X156767304Y-125163990D01*
X156767304Y-125163990D02*
X156814923Y-125211609D01*
X156814923Y-125211609D02*
X156862542Y-125306847D01*
X156862542Y-125306847D02*
X156862542Y-125449704D01*
X156862542Y-125449704D02*
X156814923Y-125544942D01*
X156814923Y-125544942D02*
X156767304Y-125592561D01*
X156767304Y-125592561D02*
X156672066Y-125640180D01*
X156672066Y-125640180D02*
X156291114Y-125640180D01*
X156291114Y-125640180D02*
X156291114Y-124640180D01*
X156291114Y-124640180D02*
X156624447Y-124640180D01*
X156624447Y-124640180D02*
X156719685Y-124687800D01*
X156719685Y-124687800D02*
X156767304Y-124735419D01*
X156767304Y-124735419D02*
X156814923Y-124830657D01*
X156814923Y-124830657D02*
X156814923Y-124925895D01*
X156814923Y-124925895D02*
X156767304Y-125021133D01*
X156767304Y-125021133D02*
X156719685Y-125068752D01*
X156719685Y-125068752D02*
X156624447Y-125116371D01*
X156624447Y-125116371D02*
X156291114Y-125116371D01*
X157195876Y-124640180D02*
X157862542Y-124640180D01*
X157862542Y-124640180D02*
X157195876Y-125640180D01*
X157195876Y-125640180D02*
X157862542Y-125640180D01*
X158767304Y-125640180D02*
X158195876Y-125640180D01*
X158481590Y-125640180D02*
X158481590Y-124640180D01*
X158481590Y-124640180D02*
X158386352Y-124783038D01*
X158386352Y-124783038D02*
X158291114Y-124878276D01*
X158291114Y-124878276D02*
X158195876Y-124925895D01*
D11*
%TO.C,JP1*%
X110898780Y-64130133D02*
X111613066Y-64130133D01*
X111613066Y-64130133D02*
X111755923Y-64177752D01*
X111755923Y-64177752D02*
X111851161Y-64272990D01*
X111851161Y-64272990D02*
X111898780Y-64415847D01*
X111898780Y-64415847D02*
X111898780Y-64511085D01*
X111898780Y-63653942D02*
X110898780Y-63653942D01*
X110898780Y-63653942D02*
X110898780Y-63272990D01*
X110898780Y-63272990D02*
X110946400Y-63177752D01*
X110946400Y-63177752D02*
X110994019Y-63130133D01*
X110994019Y-63130133D02*
X111089257Y-63082514D01*
X111089257Y-63082514D02*
X111232114Y-63082514D01*
X111232114Y-63082514D02*
X111327352Y-63130133D01*
X111327352Y-63130133D02*
X111374971Y-63177752D01*
X111374971Y-63177752D02*
X111422590Y-63272990D01*
X111422590Y-63272990D02*
X111422590Y-63653942D01*
X111898780Y-62130133D02*
X111898780Y-62701561D01*
X111898780Y-62415847D02*
X110898780Y-62415847D01*
X110898780Y-62415847D02*
X111041638Y-62511085D01*
X111041638Y-62511085D02*
X111136876Y-62606323D01*
X111136876Y-62606323D02*
X111184495Y-62701561D01*
%TO.C,R19*%
X135247142Y-59549380D02*
X134913809Y-59073190D01*
X134675714Y-59549380D02*
X134675714Y-58549380D01*
X134675714Y-58549380D02*
X135056666Y-58549380D01*
X135056666Y-58549380D02*
X135151904Y-58597000D01*
X135151904Y-58597000D02*
X135199523Y-58644619D01*
X135199523Y-58644619D02*
X135247142Y-58739857D01*
X135247142Y-58739857D02*
X135247142Y-58882714D01*
X135247142Y-58882714D02*
X135199523Y-58977952D01*
X135199523Y-58977952D02*
X135151904Y-59025571D01*
X135151904Y-59025571D02*
X135056666Y-59073190D01*
X135056666Y-59073190D02*
X134675714Y-59073190D01*
X136199523Y-59549380D02*
X135628095Y-59549380D01*
X135913809Y-59549380D02*
X135913809Y-58549380D01*
X135913809Y-58549380D02*
X135818571Y-58692238D01*
X135818571Y-58692238D02*
X135723333Y-58787476D01*
X135723333Y-58787476D02*
X135628095Y-58835095D01*
X136675714Y-59549380D02*
X136866190Y-59549380D01*
X136866190Y-59549380D02*
X136961428Y-59501761D01*
X136961428Y-59501761D02*
X137009047Y-59454142D01*
X137009047Y-59454142D02*
X137104285Y-59311285D01*
X137104285Y-59311285D02*
X137151904Y-59120809D01*
X137151904Y-59120809D02*
X137151904Y-58739857D01*
X137151904Y-58739857D02*
X137104285Y-58644619D01*
X137104285Y-58644619D02*
X137056666Y-58597000D01*
X137056666Y-58597000D02*
X136961428Y-58549380D01*
X136961428Y-58549380D02*
X136770952Y-58549380D01*
X136770952Y-58549380D02*
X136675714Y-58597000D01*
X136675714Y-58597000D02*
X136628095Y-58644619D01*
X136628095Y-58644619D02*
X136580476Y-58739857D01*
X136580476Y-58739857D02*
X136580476Y-58977952D01*
X136580476Y-58977952D02*
X136628095Y-59073190D01*
X136628095Y-59073190D02*
X136675714Y-59120809D01*
X136675714Y-59120809D02*
X136770952Y-59168428D01*
X136770952Y-59168428D02*
X136961428Y-59168428D01*
X136961428Y-59168428D02*
X137056666Y-59120809D01*
X137056666Y-59120809D02*
X137104285Y-59073190D01*
X137104285Y-59073190D02*
X137151904Y-58977952D01*
%TO.C,R7*%
X107021333Y-125843380D02*
X106688000Y-125367190D01*
X106449905Y-125843380D02*
X106449905Y-124843380D01*
X106449905Y-124843380D02*
X106830857Y-124843380D01*
X106830857Y-124843380D02*
X106926095Y-124891000D01*
X106926095Y-124891000D02*
X106973714Y-124938619D01*
X106973714Y-124938619D02*
X107021333Y-125033857D01*
X107021333Y-125033857D02*
X107021333Y-125176714D01*
X107021333Y-125176714D02*
X106973714Y-125271952D01*
X106973714Y-125271952D02*
X106926095Y-125319571D01*
X106926095Y-125319571D02*
X106830857Y-125367190D01*
X106830857Y-125367190D02*
X106449905Y-125367190D01*
X107354667Y-124843380D02*
X108021333Y-124843380D01*
X108021333Y-124843380D02*
X107592762Y-125843380D01*
%TO.C,R20*%
X131437142Y-59549380D02*
X131103809Y-59073190D01*
X130865714Y-59549380D02*
X130865714Y-58549380D01*
X130865714Y-58549380D02*
X131246666Y-58549380D01*
X131246666Y-58549380D02*
X131341904Y-58597000D01*
X131341904Y-58597000D02*
X131389523Y-58644619D01*
X131389523Y-58644619D02*
X131437142Y-58739857D01*
X131437142Y-58739857D02*
X131437142Y-58882714D01*
X131437142Y-58882714D02*
X131389523Y-58977952D01*
X131389523Y-58977952D02*
X131341904Y-59025571D01*
X131341904Y-59025571D02*
X131246666Y-59073190D01*
X131246666Y-59073190D02*
X130865714Y-59073190D01*
X131818095Y-58644619D02*
X131865714Y-58597000D01*
X131865714Y-58597000D02*
X131960952Y-58549380D01*
X131960952Y-58549380D02*
X132199047Y-58549380D01*
X132199047Y-58549380D02*
X132294285Y-58597000D01*
X132294285Y-58597000D02*
X132341904Y-58644619D01*
X132341904Y-58644619D02*
X132389523Y-58739857D01*
X132389523Y-58739857D02*
X132389523Y-58835095D01*
X132389523Y-58835095D02*
X132341904Y-58977952D01*
X132341904Y-58977952D02*
X131770476Y-59549380D01*
X131770476Y-59549380D02*
X132389523Y-59549380D01*
X133008571Y-58549380D02*
X133103809Y-58549380D01*
X133103809Y-58549380D02*
X133199047Y-58597000D01*
X133199047Y-58597000D02*
X133246666Y-58644619D01*
X133246666Y-58644619D02*
X133294285Y-58739857D01*
X133294285Y-58739857D02*
X133341904Y-58930333D01*
X133341904Y-58930333D02*
X133341904Y-59168428D01*
X133341904Y-59168428D02*
X133294285Y-59358904D01*
X133294285Y-59358904D02*
X133246666Y-59454142D01*
X133246666Y-59454142D02*
X133199047Y-59501761D01*
X133199047Y-59501761D02*
X133103809Y-59549380D01*
X133103809Y-59549380D02*
X133008571Y-59549380D01*
X133008571Y-59549380D02*
X132913333Y-59501761D01*
X132913333Y-59501761D02*
X132865714Y-59454142D01*
X132865714Y-59454142D02*
X132818095Y-59358904D01*
X132818095Y-59358904D02*
X132770476Y-59168428D01*
X132770476Y-59168428D02*
X132770476Y-58930333D01*
X132770476Y-58930333D02*
X132818095Y-58739857D01*
X132818095Y-58739857D02*
X132865714Y-58644619D01*
X132865714Y-58644619D02*
X132913333Y-58597000D01*
X132913333Y-58597000D02*
X133008571Y-58549380D01*
%TO.C,R21*%
X114927142Y-102729380D02*
X114593809Y-102253190D01*
X114355714Y-102729380D02*
X114355714Y-101729380D01*
X114355714Y-101729380D02*
X114736666Y-101729380D01*
X114736666Y-101729380D02*
X114831904Y-101777000D01*
X114831904Y-101777000D02*
X114879523Y-101824619D01*
X114879523Y-101824619D02*
X114927142Y-101919857D01*
X114927142Y-101919857D02*
X114927142Y-102062714D01*
X114927142Y-102062714D02*
X114879523Y-102157952D01*
X114879523Y-102157952D02*
X114831904Y-102205571D01*
X114831904Y-102205571D02*
X114736666Y-102253190D01*
X114736666Y-102253190D02*
X114355714Y-102253190D01*
X115308095Y-101824619D02*
X115355714Y-101777000D01*
X115355714Y-101777000D02*
X115450952Y-101729380D01*
X115450952Y-101729380D02*
X115689047Y-101729380D01*
X115689047Y-101729380D02*
X115784285Y-101777000D01*
X115784285Y-101777000D02*
X115831904Y-101824619D01*
X115831904Y-101824619D02*
X115879523Y-101919857D01*
X115879523Y-101919857D02*
X115879523Y-102015095D01*
X115879523Y-102015095D02*
X115831904Y-102157952D01*
X115831904Y-102157952D02*
X115260476Y-102729380D01*
X115260476Y-102729380D02*
X115879523Y-102729380D01*
X116831904Y-102729380D02*
X116260476Y-102729380D01*
X116546190Y-102729380D02*
X116546190Y-101729380D01*
X116546190Y-101729380D02*
X116450952Y-101872238D01*
X116450952Y-101872238D02*
X116355714Y-101967476D01*
X116355714Y-101967476D02*
X116260476Y-102015095D01*
%TO.C,JP2*%
X151792780Y-64130133D02*
X152507066Y-64130133D01*
X152507066Y-64130133D02*
X152649923Y-64177752D01*
X152649923Y-64177752D02*
X152745161Y-64272990D01*
X152745161Y-64272990D02*
X152792780Y-64415847D01*
X152792780Y-64415847D02*
X152792780Y-64511085D01*
X152792780Y-63653942D02*
X151792780Y-63653942D01*
X151792780Y-63653942D02*
X151792780Y-63272990D01*
X151792780Y-63272990D02*
X151840400Y-63177752D01*
X151840400Y-63177752D02*
X151888019Y-63130133D01*
X151888019Y-63130133D02*
X151983257Y-63082514D01*
X151983257Y-63082514D02*
X152126114Y-63082514D01*
X152126114Y-63082514D02*
X152221352Y-63130133D01*
X152221352Y-63130133D02*
X152268971Y-63177752D01*
X152268971Y-63177752D02*
X152316590Y-63272990D01*
X152316590Y-63272990D02*
X152316590Y-63653942D01*
X151888019Y-62701561D02*
X151840400Y-62653942D01*
X151840400Y-62653942D02*
X151792780Y-62558704D01*
X151792780Y-62558704D02*
X151792780Y-62320609D01*
X151792780Y-62320609D02*
X151840400Y-62225371D01*
X151840400Y-62225371D02*
X151888019Y-62177752D01*
X151888019Y-62177752D02*
X151983257Y-62130133D01*
X151983257Y-62130133D02*
X152078495Y-62130133D01*
X152078495Y-62130133D02*
X152221352Y-62177752D01*
X152221352Y-62177752D02*
X152792780Y-62749180D01*
X152792780Y-62749180D02*
X152792780Y-62130133D01*
%TO.C,C6*%
X127595333Y-59454142D02*
X127547714Y-59501761D01*
X127547714Y-59501761D02*
X127404857Y-59549380D01*
X127404857Y-59549380D02*
X127309619Y-59549380D01*
X127309619Y-59549380D02*
X127166762Y-59501761D01*
X127166762Y-59501761D02*
X127071524Y-59406523D01*
X127071524Y-59406523D02*
X127023905Y-59311285D01*
X127023905Y-59311285D02*
X126976286Y-59120809D01*
X126976286Y-59120809D02*
X126976286Y-58977952D01*
X126976286Y-58977952D02*
X127023905Y-58787476D01*
X127023905Y-58787476D02*
X127071524Y-58692238D01*
X127071524Y-58692238D02*
X127166762Y-58597000D01*
X127166762Y-58597000D02*
X127309619Y-58549380D01*
X127309619Y-58549380D02*
X127404857Y-58549380D01*
X127404857Y-58549380D02*
X127547714Y-58597000D01*
X127547714Y-58597000D02*
X127595333Y-58644619D01*
X128452476Y-58549380D02*
X128262000Y-58549380D01*
X128262000Y-58549380D02*
X128166762Y-58597000D01*
X128166762Y-58597000D02*
X128119143Y-58644619D01*
X128119143Y-58644619D02*
X128023905Y-58787476D01*
X128023905Y-58787476D02*
X127976286Y-58977952D01*
X127976286Y-58977952D02*
X127976286Y-59358904D01*
X127976286Y-59358904D02*
X128023905Y-59454142D01*
X128023905Y-59454142D02*
X128071524Y-59501761D01*
X128071524Y-59501761D02*
X128166762Y-59549380D01*
X128166762Y-59549380D02*
X128357238Y-59549380D01*
X128357238Y-59549380D02*
X128452476Y-59501761D01*
X128452476Y-59501761D02*
X128500095Y-59454142D01*
X128500095Y-59454142D02*
X128547714Y-59358904D01*
X128547714Y-59358904D02*
X128547714Y-59120809D01*
X128547714Y-59120809D02*
X128500095Y-59025571D01*
X128500095Y-59025571D02*
X128452476Y-58977952D01*
X128452476Y-58977952D02*
X128357238Y-58930333D01*
X128357238Y-58930333D02*
X128166762Y-58930333D01*
X128166762Y-58930333D02*
X128071524Y-58977952D01*
X128071524Y-58977952D02*
X128023905Y-59025571D01*
X128023905Y-59025571D02*
X127976286Y-59120809D01*
%TO.C,R8*%
X107301380Y-71794666D02*
X106825190Y-72127999D01*
X107301380Y-72366094D02*
X106301380Y-72366094D01*
X106301380Y-72366094D02*
X106301380Y-71985142D01*
X106301380Y-71985142D02*
X106349000Y-71889904D01*
X106349000Y-71889904D02*
X106396619Y-71842285D01*
X106396619Y-71842285D02*
X106491857Y-71794666D01*
X106491857Y-71794666D02*
X106634714Y-71794666D01*
X106634714Y-71794666D02*
X106729952Y-71842285D01*
X106729952Y-71842285D02*
X106777571Y-71889904D01*
X106777571Y-71889904D02*
X106825190Y-71985142D01*
X106825190Y-71985142D02*
X106825190Y-72366094D01*
X106729952Y-71223237D02*
X106682333Y-71318475D01*
X106682333Y-71318475D02*
X106634714Y-71366094D01*
X106634714Y-71366094D02*
X106539476Y-71413713D01*
X106539476Y-71413713D02*
X106491857Y-71413713D01*
X106491857Y-71413713D02*
X106396619Y-71366094D01*
X106396619Y-71366094D02*
X106349000Y-71318475D01*
X106349000Y-71318475D02*
X106301380Y-71223237D01*
X106301380Y-71223237D02*
X106301380Y-71032761D01*
X106301380Y-71032761D02*
X106349000Y-70937523D01*
X106349000Y-70937523D02*
X106396619Y-70889904D01*
X106396619Y-70889904D02*
X106491857Y-70842285D01*
X106491857Y-70842285D02*
X106539476Y-70842285D01*
X106539476Y-70842285D02*
X106634714Y-70889904D01*
X106634714Y-70889904D02*
X106682333Y-70937523D01*
X106682333Y-70937523D02*
X106729952Y-71032761D01*
X106729952Y-71032761D02*
X106729952Y-71223237D01*
X106729952Y-71223237D02*
X106777571Y-71318475D01*
X106777571Y-71318475D02*
X106825190Y-71366094D01*
X106825190Y-71366094D02*
X106920428Y-71413713D01*
X106920428Y-71413713D02*
X107110904Y-71413713D01*
X107110904Y-71413713D02*
X107206142Y-71366094D01*
X107206142Y-71366094D02*
X107253761Y-71318475D01*
X107253761Y-71318475D02*
X107301380Y-71223237D01*
X107301380Y-71223237D02*
X107301380Y-71032761D01*
X107301380Y-71032761D02*
X107253761Y-70937523D01*
X107253761Y-70937523D02*
X107206142Y-70889904D01*
X107206142Y-70889904D02*
X107110904Y-70842285D01*
X107110904Y-70842285D02*
X106920428Y-70842285D01*
X106920428Y-70842285D02*
X106825190Y-70889904D01*
X106825190Y-70889904D02*
X106777571Y-70937523D01*
X106777571Y-70937523D02*
X106729952Y-71032761D01*
%TO.C,R2*%
X153503333Y-112889380D02*
X153170000Y-112413190D01*
X152931905Y-112889380D02*
X152931905Y-111889380D01*
X152931905Y-111889380D02*
X153312857Y-111889380D01*
X153312857Y-111889380D02*
X153408095Y-111937000D01*
X153408095Y-111937000D02*
X153455714Y-111984619D01*
X153455714Y-111984619D02*
X153503333Y-112079857D01*
X153503333Y-112079857D02*
X153503333Y-112222714D01*
X153503333Y-112222714D02*
X153455714Y-112317952D01*
X153455714Y-112317952D02*
X153408095Y-112365571D01*
X153408095Y-112365571D02*
X153312857Y-112413190D01*
X153312857Y-112413190D02*
X152931905Y-112413190D01*
X153884286Y-111984619D02*
X153931905Y-111937000D01*
X153931905Y-111937000D02*
X154027143Y-111889380D01*
X154027143Y-111889380D02*
X154265238Y-111889380D01*
X154265238Y-111889380D02*
X154360476Y-111937000D01*
X154360476Y-111937000D02*
X154408095Y-111984619D01*
X154408095Y-111984619D02*
X154455714Y-112079857D01*
X154455714Y-112079857D02*
X154455714Y-112175095D01*
X154455714Y-112175095D02*
X154408095Y-112317952D01*
X154408095Y-112317952D02*
X153836667Y-112889380D01*
X153836667Y-112889380D02*
X154455714Y-112889380D01*
%TO.C,SW5*%
X131530667Y-82325761D02*
X131673524Y-82373380D01*
X131673524Y-82373380D02*
X131911619Y-82373380D01*
X131911619Y-82373380D02*
X132006857Y-82325761D01*
X132006857Y-82325761D02*
X132054476Y-82278142D01*
X132054476Y-82278142D02*
X132102095Y-82182904D01*
X132102095Y-82182904D02*
X132102095Y-82087666D01*
X132102095Y-82087666D02*
X132054476Y-81992428D01*
X132054476Y-81992428D02*
X132006857Y-81944809D01*
X132006857Y-81944809D02*
X131911619Y-81897190D01*
X131911619Y-81897190D02*
X131721143Y-81849571D01*
X131721143Y-81849571D02*
X131625905Y-81801952D01*
X131625905Y-81801952D02*
X131578286Y-81754333D01*
X131578286Y-81754333D02*
X131530667Y-81659095D01*
X131530667Y-81659095D02*
X131530667Y-81563857D01*
X131530667Y-81563857D02*
X131578286Y-81468619D01*
X131578286Y-81468619D02*
X131625905Y-81421000D01*
X131625905Y-81421000D02*
X131721143Y-81373380D01*
X131721143Y-81373380D02*
X131959238Y-81373380D01*
X131959238Y-81373380D02*
X132102095Y-81421000D01*
X132435429Y-81373380D02*
X132673524Y-82373380D01*
X132673524Y-82373380D02*
X132864000Y-81659095D01*
X132864000Y-81659095D02*
X133054476Y-82373380D01*
X133054476Y-82373380D02*
X133292572Y-81373380D01*
X134149714Y-81373380D02*
X133673524Y-81373380D01*
X133673524Y-81373380D02*
X133625905Y-81849571D01*
X133625905Y-81849571D02*
X133673524Y-81801952D01*
X133673524Y-81801952D02*
X133768762Y-81754333D01*
X133768762Y-81754333D02*
X134006857Y-81754333D01*
X134006857Y-81754333D02*
X134102095Y-81801952D01*
X134102095Y-81801952D02*
X134149714Y-81849571D01*
X134149714Y-81849571D02*
X134197333Y-81944809D01*
X134197333Y-81944809D02*
X134197333Y-82182904D01*
X134197333Y-82182904D02*
X134149714Y-82278142D01*
X134149714Y-82278142D02*
X134102095Y-82325761D01*
X134102095Y-82325761D02*
X134006857Y-82373380D01*
X134006857Y-82373380D02*
X133768762Y-82373380D01*
X133768762Y-82373380D02*
X133673524Y-82325761D01*
X133673524Y-82325761D02*
X133625905Y-82278142D01*
%TO.C,SW6*%
X144738667Y-82325761D02*
X144881524Y-82373380D01*
X144881524Y-82373380D02*
X145119619Y-82373380D01*
X145119619Y-82373380D02*
X145214857Y-82325761D01*
X145214857Y-82325761D02*
X145262476Y-82278142D01*
X145262476Y-82278142D02*
X145310095Y-82182904D01*
X145310095Y-82182904D02*
X145310095Y-82087666D01*
X145310095Y-82087666D02*
X145262476Y-81992428D01*
X145262476Y-81992428D02*
X145214857Y-81944809D01*
X145214857Y-81944809D02*
X145119619Y-81897190D01*
X145119619Y-81897190D02*
X144929143Y-81849571D01*
X144929143Y-81849571D02*
X144833905Y-81801952D01*
X144833905Y-81801952D02*
X144786286Y-81754333D01*
X144786286Y-81754333D02*
X144738667Y-81659095D01*
X144738667Y-81659095D02*
X144738667Y-81563857D01*
X144738667Y-81563857D02*
X144786286Y-81468619D01*
X144786286Y-81468619D02*
X144833905Y-81421000D01*
X144833905Y-81421000D02*
X144929143Y-81373380D01*
X144929143Y-81373380D02*
X145167238Y-81373380D01*
X145167238Y-81373380D02*
X145310095Y-81421000D01*
X145643429Y-81373380D02*
X145881524Y-82373380D01*
X145881524Y-82373380D02*
X146072000Y-81659095D01*
X146072000Y-81659095D02*
X146262476Y-82373380D01*
X146262476Y-82373380D02*
X146500572Y-81373380D01*
X147310095Y-81373380D02*
X147119619Y-81373380D01*
X147119619Y-81373380D02*
X147024381Y-81421000D01*
X147024381Y-81421000D02*
X146976762Y-81468619D01*
X146976762Y-81468619D02*
X146881524Y-81611476D01*
X146881524Y-81611476D02*
X146833905Y-81801952D01*
X146833905Y-81801952D02*
X146833905Y-82182904D01*
X146833905Y-82182904D02*
X146881524Y-82278142D01*
X146881524Y-82278142D02*
X146929143Y-82325761D01*
X146929143Y-82325761D02*
X147024381Y-82373380D01*
X147024381Y-82373380D02*
X147214857Y-82373380D01*
X147214857Y-82373380D02*
X147310095Y-82325761D01*
X147310095Y-82325761D02*
X147357714Y-82278142D01*
X147357714Y-82278142D02*
X147405333Y-82182904D01*
X147405333Y-82182904D02*
X147405333Y-81944809D01*
X147405333Y-81944809D02*
X147357714Y-81849571D01*
X147357714Y-81849571D02*
X147310095Y-81801952D01*
X147310095Y-81801952D02*
X147214857Y-81754333D01*
X147214857Y-81754333D02*
X147024381Y-81754333D01*
X147024381Y-81754333D02*
X146929143Y-81801952D01*
X146929143Y-81801952D02*
X146881524Y-81849571D01*
X146881524Y-81849571D02*
X146833905Y-81944809D01*
%TO.C,R9*%
X157847380Y-71794666D02*
X157371190Y-72127999D01*
X157847380Y-72366094D02*
X156847380Y-72366094D01*
X156847380Y-72366094D02*
X156847380Y-71985142D01*
X156847380Y-71985142D02*
X156895000Y-71889904D01*
X156895000Y-71889904D02*
X156942619Y-71842285D01*
X156942619Y-71842285D02*
X157037857Y-71794666D01*
X157037857Y-71794666D02*
X157180714Y-71794666D01*
X157180714Y-71794666D02*
X157275952Y-71842285D01*
X157275952Y-71842285D02*
X157323571Y-71889904D01*
X157323571Y-71889904D02*
X157371190Y-71985142D01*
X157371190Y-71985142D02*
X157371190Y-72366094D01*
X157847380Y-71318475D02*
X157847380Y-71127999D01*
X157847380Y-71127999D02*
X157799761Y-71032761D01*
X157799761Y-71032761D02*
X157752142Y-70985142D01*
X157752142Y-70985142D02*
X157609285Y-70889904D01*
X157609285Y-70889904D02*
X157418809Y-70842285D01*
X157418809Y-70842285D02*
X157037857Y-70842285D01*
X157037857Y-70842285D02*
X156942619Y-70889904D01*
X156942619Y-70889904D02*
X156895000Y-70937523D01*
X156895000Y-70937523D02*
X156847380Y-71032761D01*
X156847380Y-71032761D02*
X156847380Y-71223237D01*
X156847380Y-71223237D02*
X156895000Y-71318475D01*
X156895000Y-71318475D02*
X156942619Y-71366094D01*
X156942619Y-71366094D02*
X157037857Y-71413713D01*
X157037857Y-71413713D02*
X157275952Y-71413713D01*
X157275952Y-71413713D02*
X157371190Y-71366094D01*
X157371190Y-71366094D02*
X157418809Y-71318475D01*
X157418809Y-71318475D02*
X157466428Y-71223237D01*
X157466428Y-71223237D02*
X157466428Y-71032761D01*
X157466428Y-71032761D02*
X157418809Y-70937523D01*
X157418809Y-70937523D02*
X157371190Y-70889904D01*
X157371190Y-70889904D02*
X157275952Y-70842285D01*
%TO.C,C5*%
X143376667Y-119652142D02*
X143338571Y-119699761D01*
X143338571Y-119699761D02*
X143224286Y-119747380D01*
X143224286Y-119747380D02*
X143148095Y-119747380D01*
X143148095Y-119747380D02*
X143033809Y-119699761D01*
X143033809Y-119699761D02*
X142957619Y-119604523D01*
X142957619Y-119604523D02*
X142919524Y-119509285D01*
X142919524Y-119509285D02*
X142881428Y-119318809D01*
X142881428Y-119318809D02*
X142881428Y-119175952D01*
X142881428Y-119175952D02*
X142919524Y-118985476D01*
X142919524Y-118985476D02*
X142957619Y-118890238D01*
X142957619Y-118890238D02*
X143033809Y-118795000D01*
X143033809Y-118795000D02*
X143148095Y-118747380D01*
X143148095Y-118747380D02*
X143224286Y-118747380D01*
X143224286Y-118747380D02*
X143338571Y-118795000D01*
X143338571Y-118795000D02*
X143376667Y-118842619D01*
X144100476Y-118747380D02*
X143719524Y-118747380D01*
X143719524Y-118747380D02*
X143681428Y-119223571D01*
X143681428Y-119223571D02*
X143719524Y-119175952D01*
X143719524Y-119175952D02*
X143795714Y-119128333D01*
X143795714Y-119128333D02*
X143986190Y-119128333D01*
X143986190Y-119128333D02*
X144062381Y-119175952D01*
X144062381Y-119175952D02*
X144100476Y-119223571D01*
X144100476Y-119223571D02*
X144138571Y-119318809D01*
X144138571Y-119318809D02*
X144138571Y-119556904D01*
X144138571Y-119556904D02*
X144100476Y-119652142D01*
X144100476Y-119652142D02*
X144062381Y-119699761D01*
X144062381Y-119699761D02*
X143986190Y-119747380D01*
X143986190Y-119747380D02*
X143795714Y-119747380D01*
X143795714Y-119747380D02*
X143719524Y-119699761D01*
X143719524Y-119699761D02*
X143681428Y-119652142D01*
%TO.C,U2*%
X145288095Y-99951380D02*
X145288095Y-100760904D01*
X145288095Y-100760904D02*
X145335714Y-100856142D01*
X145335714Y-100856142D02*
X145383333Y-100903761D01*
X145383333Y-100903761D02*
X145478571Y-100951380D01*
X145478571Y-100951380D02*
X145669047Y-100951380D01*
X145669047Y-100951380D02*
X145764285Y-100903761D01*
X145764285Y-100903761D02*
X145811904Y-100856142D01*
X145811904Y-100856142D02*
X145859523Y-100760904D01*
X145859523Y-100760904D02*
X145859523Y-99951380D01*
X146288095Y-100046619D02*
X146335714Y-99999000D01*
X146335714Y-99999000D02*
X146430952Y-99951380D01*
X146430952Y-99951380D02*
X146669047Y-99951380D01*
X146669047Y-99951380D02*
X146764285Y-99999000D01*
X146764285Y-99999000D02*
X146811904Y-100046619D01*
X146811904Y-100046619D02*
X146859523Y-100141857D01*
X146859523Y-100141857D02*
X146859523Y-100237095D01*
X146859523Y-100237095D02*
X146811904Y-100379952D01*
X146811904Y-100379952D02*
X146240476Y-100951380D01*
X146240476Y-100951380D02*
X146859523Y-100951380D01*
%TO.C,SW2*%
X102552667Y-118683761D02*
X102695524Y-118731380D01*
X102695524Y-118731380D02*
X102933619Y-118731380D01*
X102933619Y-118731380D02*
X103028857Y-118683761D01*
X103028857Y-118683761D02*
X103076476Y-118636142D01*
X103076476Y-118636142D02*
X103124095Y-118540904D01*
X103124095Y-118540904D02*
X103124095Y-118445666D01*
X103124095Y-118445666D02*
X103076476Y-118350428D01*
X103076476Y-118350428D02*
X103028857Y-118302809D01*
X103028857Y-118302809D02*
X102933619Y-118255190D01*
X102933619Y-118255190D02*
X102743143Y-118207571D01*
X102743143Y-118207571D02*
X102647905Y-118159952D01*
X102647905Y-118159952D02*
X102600286Y-118112333D01*
X102600286Y-118112333D02*
X102552667Y-118017095D01*
X102552667Y-118017095D02*
X102552667Y-117921857D01*
X102552667Y-117921857D02*
X102600286Y-117826619D01*
X102600286Y-117826619D02*
X102647905Y-117779000D01*
X102647905Y-117779000D02*
X102743143Y-117731380D01*
X102743143Y-117731380D02*
X102981238Y-117731380D01*
X102981238Y-117731380D02*
X103124095Y-117779000D01*
X103457429Y-117731380D02*
X103695524Y-118731380D01*
X103695524Y-118731380D02*
X103886000Y-118017095D01*
X103886000Y-118017095D02*
X104076476Y-118731380D01*
X104076476Y-118731380D02*
X104314572Y-117731380D01*
X104647905Y-117826619D02*
X104695524Y-117779000D01*
X104695524Y-117779000D02*
X104790762Y-117731380D01*
X104790762Y-117731380D02*
X105028857Y-117731380D01*
X105028857Y-117731380D02*
X105124095Y-117779000D01*
X105124095Y-117779000D02*
X105171714Y-117826619D01*
X105171714Y-117826619D02*
X105219333Y-117921857D01*
X105219333Y-117921857D02*
X105219333Y-118017095D01*
X105219333Y-118017095D02*
X105171714Y-118159952D01*
X105171714Y-118159952D02*
X104600286Y-118731380D01*
X104600286Y-118731380D02*
X105219333Y-118731380D01*
%TO.C,Q2*%
X158842761Y-102291219D02*
X158747523Y-102243600D01*
X158747523Y-102243600D02*
X158652285Y-102148361D01*
X158652285Y-102148361D02*
X158509428Y-102005504D01*
X158509428Y-102005504D02*
X158414190Y-101957885D01*
X158414190Y-101957885D02*
X158318952Y-101957885D01*
X158366571Y-102195980D02*
X158271333Y-102148361D01*
X158271333Y-102148361D02*
X158176095Y-102053123D01*
X158176095Y-102053123D02*
X158128476Y-101862647D01*
X158128476Y-101862647D02*
X158128476Y-101529314D01*
X158128476Y-101529314D02*
X158176095Y-101338838D01*
X158176095Y-101338838D02*
X158271333Y-101243600D01*
X158271333Y-101243600D02*
X158366571Y-101195980D01*
X158366571Y-101195980D02*
X158557047Y-101195980D01*
X158557047Y-101195980D02*
X158652285Y-101243600D01*
X158652285Y-101243600D02*
X158747523Y-101338838D01*
X158747523Y-101338838D02*
X158795142Y-101529314D01*
X158795142Y-101529314D02*
X158795142Y-101862647D01*
X158795142Y-101862647D02*
X158747523Y-102053123D01*
X158747523Y-102053123D02*
X158652285Y-102148361D01*
X158652285Y-102148361D02*
X158557047Y-102195980D01*
X158557047Y-102195980D02*
X158366571Y-102195980D01*
X159176095Y-101291219D02*
X159223714Y-101243600D01*
X159223714Y-101243600D02*
X159318952Y-101195980D01*
X159318952Y-101195980D02*
X159557047Y-101195980D01*
X159557047Y-101195980D02*
X159652285Y-101243600D01*
X159652285Y-101243600D02*
X159699904Y-101291219D01*
X159699904Y-101291219D02*
X159747523Y-101386457D01*
X159747523Y-101386457D02*
X159747523Y-101481695D01*
X159747523Y-101481695D02*
X159699904Y-101624552D01*
X159699904Y-101624552D02*
X159128476Y-102195980D01*
X159128476Y-102195980D02*
X159747523Y-102195980D01*
%TO.C,D8*%
X146658105Y-87743380D02*
X146658105Y-86743380D01*
X146658105Y-86743380D02*
X146896200Y-86743380D01*
X146896200Y-86743380D02*
X147039057Y-86791000D01*
X147039057Y-86791000D02*
X147134295Y-86886238D01*
X147134295Y-86886238D02*
X147181914Y-86981476D01*
X147181914Y-86981476D02*
X147229533Y-87171952D01*
X147229533Y-87171952D02*
X147229533Y-87314809D01*
X147229533Y-87314809D02*
X147181914Y-87505285D01*
X147181914Y-87505285D02*
X147134295Y-87600523D01*
X147134295Y-87600523D02*
X147039057Y-87695761D01*
X147039057Y-87695761D02*
X146896200Y-87743380D01*
X146896200Y-87743380D02*
X146658105Y-87743380D01*
X147800962Y-87171952D02*
X147705724Y-87124333D01*
X147705724Y-87124333D02*
X147658105Y-87076714D01*
X147658105Y-87076714D02*
X147610486Y-86981476D01*
X147610486Y-86981476D02*
X147610486Y-86933857D01*
X147610486Y-86933857D02*
X147658105Y-86838619D01*
X147658105Y-86838619D02*
X147705724Y-86791000D01*
X147705724Y-86791000D02*
X147800962Y-86743380D01*
X147800962Y-86743380D02*
X147991438Y-86743380D01*
X147991438Y-86743380D02*
X148086676Y-86791000D01*
X148086676Y-86791000D02*
X148134295Y-86838619D01*
X148134295Y-86838619D02*
X148181914Y-86933857D01*
X148181914Y-86933857D02*
X148181914Y-86981476D01*
X148181914Y-86981476D02*
X148134295Y-87076714D01*
X148134295Y-87076714D02*
X148086676Y-87124333D01*
X148086676Y-87124333D02*
X147991438Y-87171952D01*
X147991438Y-87171952D02*
X147800962Y-87171952D01*
X147800962Y-87171952D02*
X147705724Y-87219571D01*
X147705724Y-87219571D02*
X147658105Y-87267190D01*
X147658105Y-87267190D02*
X147610486Y-87362428D01*
X147610486Y-87362428D02*
X147610486Y-87552904D01*
X147610486Y-87552904D02*
X147658105Y-87648142D01*
X147658105Y-87648142D02*
X147705724Y-87695761D01*
X147705724Y-87695761D02*
X147800962Y-87743380D01*
X147800962Y-87743380D02*
X147991438Y-87743380D01*
X147991438Y-87743380D02*
X148086676Y-87695761D01*
X148086676Y-87695761D02*
X148134295Y-87648142D01*
X148134295Y-87648142D02*
X148181914Y-87552904D01*
X148181914Y-87552904D02*
X148181914Y-87362428D01*
X148181914Y-87362428D02*
X148134295Y-87267190D01*
X148134295Y-87267190D02*
X148086676Y-87219571D01*
X148086676Y-87219571D02*
X147991438Y-87171952D01*
%TO.C,R3*%
X115657333Y-100697380D02*
X115324000Y-100221190D01*
X115085905Y-100697380D02*
X115085905Y-99697380D01*
X115085905Y-99697380D02*
X115466857Y-99697380D01*
X115466857Y-99697380D02*
X115562095Y-99745000D01*
X115562095Y-99745000D02*
X115609714Y-99792619D01*
X115609714Y-99792619D02*
X115657333Y-99887857D01*
X115657333Y-99887857D02*
X115657333Y-100030714D01*
X115657333Y-100030714D02*
X115609714Y-100125952D01*
X115609714Y-100125952D02*
X115562095Y-100173571D01*
X115562095Y-100173571D02*
X115466857Y-100221190D01*
X115466857Y-100221190D02*
X115085905Y-100221190D01*
X115990667Y-99697380D02*
X116609714Y-99697380D01*
X116609714Y-99697380D02*
X116276381Y-100078333D01*
X116276381Y-100078333D02*
X116419238Y-100078333D01*
X116419238Y-100078333D02*
X116514476Y-100125952D01*
X116514476Y-100125952D02*
X116562095Y-100173571D01*
X116562095Y-100173571D02*
X116609714Y-100268809D01*
X116609714Y-100268809D02*
X116609714Y-100506904D01*
X116609714Y-100506904D02*
X116562095Y-100602142D01*
X116562095Y-100602142D02*
X116514476Y-100649761D01*
X116514476Y-100649761D02*
X116419238Y-100697380D01*
X116419238Y-100697380D02*
X116133524Y-100697380D01*
X116133524Y-100697380D02*
X116038286Y-100649761D01*
X116038286Y-100649761D02*
X115990667Y-100602142D01*
%TO.C,U1*%
X118110095Y-104777380D02*
X118110095Y-105586904D01*
X118110095Y-105586904D02*
X118157714Y-105682142D01*
X118157714Y-105682142D02*
X118205333Y-105729761D01*
X118205333Y-105729761D02*
X118300571Y-105777380D01*
X118300571Y-105777380D02*
X118491047Y-105777380D01*
X118491047Y-105777380D02*
X118586285Y-105729761D01*
X118586285Y-105729761D02*
X118633904Y-105682142D01*
X118633904Y-105682142D02*
X118681523Y-105586904D01*
X118681523Y-105586904D02*
X118681523Y-104777380D01*
X119681523Y-105777380D02*
X119110095Y-105777380D01*
X119395809Y-105777380D02*
X119395809Y-104777380D01*
X119395809Y-104777380D02*
X119300571Y-104920238D01*
X119300571Y-104920238D02*
X119205333Y-105015476D01*
X119205333Y-105015476D02*
X119110095Y-105063095D01*
%TO.C,R4*%
X118705333Y-111365380D02*
X118372000Y-110889190D01*
X118133905Y-111365380D02*
X118133905Y-110365380D01*
X118133905Y-110365380D02*
X118514857Y-110365380D01*
X118514857Y-110365380D02*
X118610095Y-110413000D01*
X118610095Y-110413000D02*
X118657714Y-110460619D01*
X118657714Y-110460619D02*
X118705333Y-110555857D01*
X118705333Y-110555857D02*
X118705333Y-110698714D01*
X118705333Y-110698714D02*
X118657714Y-110793952D01*
X118657714Y-110793952D02*
X118610095Y-110841571D01*
X118610095Y-110841571D02*
X118514857Y-110889190D01*
X118514857Y-110889190D02*
X118133905Y-110889190D01*
X119562476Y-110698714D02*
X119562476Y-111365380D01*
X119324381Y-110317761D02*
X119086286Y-111032047D01*
X119086286Y-111032047D02*
X119705333Y-111032047D01*
%TO.C,SW3*%
X105114667Y-82325761D02*
X105257524Y-82373380D01*
X105257524Y-82373380D02*
X105495619Y-82373380D01*
X105495619Y-82373380D02*
X105590857Y-82325761D01*
X105590857Y-82325761D02*
X105638476Y-82278142D01*
X105638476Y-82278142D02*
X105686095Y-82182904D01*
X105686095Y-82182904D02*
X105686095Y-82087666D01*
X105686095Y-82087666D02*
X105638476Y-81992428D01*
X105638476Y-81992428D02*
X105590857Y-81944809D01*
X105590857Y-81944809D02*
X105495619Y-81897190D01*
X105495619Y-81897190D02*
X105305143Y-81849571D01*
X105305143Y-81849571D02*
X105209905Y-81801952D01*
X105209905Y-81801952D02*
X105162286Y-81754333D01*
X105162286Y-81754333D02*
X105114667Y-81659095D01*
X105114667Y-81659095D02*
X105114667Y-81563857D01*
X105114667Y-81563857D02*
X105162286Y-81468619D01*
X105162286Y-81468619D02*
X105209905Y-81421000D01*
X105209905Y-81421000D02*
X105305143Y-81373380D01*
X105305143Y-81373380D02*
X105543238Y-81373380D01*
X105543238Y-81373380D02*
X105686095Y-81421000D01*
X106019429Y-81373380D02*
X106257524Y-82373380D01*
X106257524Y-82373380D02*
X106448000Y-81659095D01*
X106448000Y-81659095D02*
X106638476Y-82373380D01*
X106638476Y-82373380D02*
X106876572Y-81373380D01*
X107162286Y-81373380D02*
X107781333Y-81373380D01*
X107781333Y-81373380D02*
X107448000Y-81754333D01*
X107448000Y-81754333D02*
X107590857Y-81754333D01*
X107590857Y-81754333D02*
X107686095Y-81801952D01*
X107686095Y-81801952D02*
X107733714Y-81849571D01*
X107733714Y-81849571D02*
X107781333Y-81944809D01*
X107781333Y-81944809D02*
X107781333Y-82182904D01*
X107781333Y-82182904D02*
X107733714Y-82278142D01*
X107733714Y-82278142D02*
X107686095Y-82325761D01*
X107686095Y-82325761D02*
X107590857Y-82373380D01*
X107590857Y-82373380D02*
X107305143Y-82373380D01*
X107305143Y-82373380D02*
X107209905Y-82325761D01*
X107209905Y-82325761D02*
X107162286Y-82278142D01*
%TO.C,C1*%
X151217333Y-112794142D02*
X151169714Y-112841761D01*
X151169714Y-112841761D02*
X151026857Y-112889380D01*
X151026857Y-112889380D02*
X150931619Y-112889380D01*
X150931619Y-112889380D02*
X150788762Y-112841761D01*
X150788762Y-112841761D02*
X150693524Y-112746523D01*
X150693524Y-112746523D02*
X150645905Y-112651285D01*
X150645905Y-112651285D02*
X150598286Y-112460809D01*
X150598286Y-112460809D02*
X150598286Y-112317952D01*
X150598286Y-112317952D02*
X150645905Y-112127476D01*
X150645905Y-112127476D02*
X150693524Y-112032238D01*
X150693524Y-112032238D02*
X150788762Y-111937000D01*
X150788762Y-111937000D02*
X150931619Y-111889380D01*
X150931619Y-111889380D02*
X151026857Y-111889380D01*
X151026857Y-111889380D02*
X151169714Y-111937000D01*
X151169714Y-111937000D02*
X151217333Y-111984619D01*
X152169714Y-112889380D02*
X151598286Y-112889380D01*
X151884000Y-112889380D02*
X151884000Y-111889380D01*
X151884000Y-111889380D02*
X151788762Y-112032238D01*
X151788762Y-112032238D02*
X151693524Y-112127476D01*
X151693524Y-112127476D02*
X151598286Y-112175095D01*
%TO.C,SW4*%
X118322667Y-82325761D02*
X118465524Y-82373380D01*
X118465524Y-82373380D02*
X118703619Y-82373380D01*
X118703619Y-82373380D02*
X118798857Y-82325761D01*
X118798857Y-82325761D02*
X118846476Y-82278142D01*
X118846476Y-82278142D02*
X118894095Y-82182904D01*
X118894095Y-82182904D02*
X118894095Y-82087666D01*
X118894095Y-82087666D02*
X118846476Y-81992428D01*
X118846476Y-81992428D02*
X118798857Y-81944809D01*
X118798857Y-81944809D02*
X118703619Y-81897190D01*
X118703619Y-81897190D02*
X118513143Y-81849571D01*
X118513143Y-81849571D02*
X118417905Y-81801952D01*
X118417905Y-81801952D02*
X118370286Y-81754333D01*
X118370286Y-81754333D02*
X118322667Y-81659095D01*
X118322667Y-81659095D02*
X118322667Y-81563857D01*
X118322667Y-81563857D02*
X118370286Y-81468619D01*
X118370286Y-81468619D02*
X118417905Y-81421000D01*
X118417905Y-81421000D02*
X118513143Y-81373380D01*
X118513143Y-81373380D02*
X118751238Y-81373380D01*
X118751238Y-81373380D02*
X118894095Y-81421000D01*
X119227429Y-81373380D02*
X119465524Y-82373380D01*
X119465524Y-82373380D02*
X119656000Y-81659095D01*
X119656000Y-81659095D02*
X119846476Y-82373380D01*
X119846476Y-82373380D02*
X120084572Y-81373380D01*
X120894095Y-81706714D02*
X120894095Y-82373380D01*
X120656000Y-81325761D02*
X120417905Y-82040047D01*
X120417905Y-82040047D02*
X121036952Y-82040047D01*
%TO.C,D9*%
X119403905Y-116038980D02*
X119403905Y-115038980D01*
X119403905Y-115038980D02*
X119642000Y-115038980D01*
X119642000Y-115038980D02*
X119784857Y-115086600D01*
X119784857Y-115086600D02*
X119880095Y-115181838D01*
X119880095Y-115181838D02*
X119927714Y-115277076D01*
X119927714Y-115277076D02*
X119975333Y-115467552D01*
X119975333Y-115467552D02*
X119975333Y-115610409D01*
X119975333Y-115610409D02*
X119927714Y-115800885D01*
X119927714Y-115800885D02*
X119880095Y-115896123D01*
X119880095Y-115896123D02*
X119784857Y-115991361D01*
X119784857Y-115991361D02*
X119642000Y-116038980D01*
X119642000Y-116038980D02*
X119403905Y-116038980D01*
X120451524Y-116038980D02*
X120642000Y-116038980D01*
X120642000Y-116038980D02*
X120737238Y-115991361D01*
X120737238Y-115991361D02*
X120784857Y-115943742D01*
X120784857Y-115943742D02*
X120880095Y-115800885D01*
X120880095Y-115800885D02*
X120927714Y-115610409D01*
X120927714Y-115610409D02*
X120927714Y-115229457D01*
X120927714Y-115229457D02*
X120880095Y-115134219D01*
X120880095Y-115134219D02*
X120832476Y-115086600D01*
X120832476Y-115086600D02*
X120737238Y-115038980D01*
X120737238Y-115038980D02*
X120546762Y-115038980D01*
X120546762Y-115038980D02*
X120451524Y-115086600D01*
X120451524Y-115086600D02*
X120403905Y-115134219D01*
X120403905Y-115134219D02*
X120356286Y-115229457D01*
X120356286Y-115229457D02*
X120356286Y-115467552D01*
X120356286Y-115467552D02*
X120403905Y-115562790D01*
X120403905Y-115562790D02*
X120451524Y-115610409D01*
X120451524Y-115610409D02*
X120546762Y-115658028D01*
X120546762Y-115658028D02*
X120737238Y-115658028D01*
X120737238Y-115658028D02*
X120832476Y-115610409D01*
X120832476Y-115610409D02*
X120880095Y-115562790D01*
X120880095Y-115562790D02*
X120927714Y-115467552D01*
%TO.C,C3*%
X143343333Y-109492142D02*
X143295714Y-109539761D01*
X143295714Y-109539761D02*
X143152857Y-109587380D01*
X143152857Y-109587380D02*
X143057619Y-109587380D01*
X143057619Y-109587380D02*
X142914762Y-109539761D01*
X142914762Y-109539761D02*
X142819524Y-109444523D01*
X142819524Y-109444523D02*
X142771905Y-109349285D01*
X142771905Y-109349285D02*
X142724286Y-109158809D01*
X142724286Y-109158809D02*
X142724286Y-109015952D01*
X142724286Y-109015952D02*
X142771905Y-108825476D01*
X142771905Y-108825476D02*
X142819524Y-108730238D01*
X142819524Y-108730238D02*
X142914762Y-108635000D01*
X142914762Y-108635000D02*
X143057619Y-108587380D01*
X143057619Y-108587380D02*
X143152857Y-108587380D01*
X143152857Y-108587380D02*
X143295714Y-108635000D01*
X143295714Y-108635000D02*
X143343333Y-108682619D01*
X143676667Y-108587380D02*
X144295714Y-108587380D01*
X144295714Y-108587380D02*
X143962381Y-108968333D01*
X143962381Y-108968333D02*
X144105238Y-108968333D01*
X144105238Y-108968333D02*
X144200476Y-109015952D01*
X144200476Y-109015952D02*
X144248095Y-109063571D01*
X144248095Y-109063571D02*
X144295714Y-109158809D01*
X144295714Y-109158809D02*
X144295714Y-109396904D01*
X144295714Y-109396904D02*
X144248095Y-109492142D01*
X144248095Y-109492142D02*
X144200476Y-109539761D01*
X144200476Y-109539761D02*
X144105238Y-109587380D01*
X144105238Y-109587380D02*
X143819524Y-109587380D01*
X143819524Y-109587380D02*
X143724286Y-109539761D01*
X143724286Y-109539761D02*
X143676667Y-109492142D01*
%TO.C,Q1*%
X158842761Y-97772319D02*
X158747523Y-97724700D01*
X158747523Y-97724700D02*
X158652285Y-97629461D01*
X158652285Y-97629461D02*
X158509428Y-97486604D01*
X158509428Y-97486604D02*
X158414190Y-97438985D01*
X158414190Y-97438985D02*
X158318952Y-97438985D01*
X158366571Y-97677080D02*
X158271333Y-97629461D01*
X158271333Y-97629461D02*
X158176095Y-97534223D01*
X158176095Y-97534223D02*
X158128476Y-97343747D01*
X158128476Y-97343747D02*
X158128476Y-97010414D01*
X158128476Y-97010414D02*
X158176095Y-96819938D01*
X158176095Y-96819938D02*
X158271333Y-96724700D01*
X158271333Y-96724700D02*
X158366571Y-96677080D01*
X158366571Y-96677080D02*
X158557047Y-96677080D01*
X158557047Y-96677080D02*
X158652285Y-96724700D01*
X158652285Y-96724700D02*
X158747523Y-96819938D01*
X158747523Y-96819938D02*
X158795142Y-97010414D01*
X158795142Y-97010414D02*
X158795142Y-97343747D01*
X158795142Y-97343747D02*
X158747523Y-97534223D01*
X158747523Y-97534223D02*
X158652285Y-97629461D01*
X158652285Y-97629461D02*
X158557047Y-97677080D01*
X158557047Y-97677080D02*
X158366571Y-97677080D01*
X159747523Y-97677080D02*
X159176095Y-97677080D01*
X159461809Y-97677080D02*
X159461809Y-96677080D01*
X159461809Y-96677080D02*
X159366571Y-96819938D01*
X159366571Y-96819938D02*
X159271333Y-96915176D01*
X159271333Y-96915176D02*
X159176095Y-96962795D01*
%TO.C,R17*%
X142867142Y-104583580D02*
X142533809Y-104107390D01*
X142295714Y-104583580D02*
X142295714Y-103583580D01*
X142295714Y-103583580D02*
X142676666Y-103583580D01*
X142676666Y-103583580D02*
X142771904Y-103631200D01*
X142771904Y-103631200D02*
X142819523Y-103678819D01*
X142819523Y-103678819D02*
X142867142Y-103774057D01*
X142867142Y-103774057D02*
X142867142Y-103916914D01*
X142867142Y-103916914D02*
X142819523Y-104012152D01*
X142819523Y-104012152D02*
X142771904Y-104059771D01*
X142771904Y-104059771D02*
X142676666Y-104107390D01*
X142676666Y-104107390D02*
X142295714Y-104107390D01*
X143819523Y-104583580D02*
X143248095Y-104583580D01*
X143533809Y-104583580D02*
X143533809Y-103583580D01*
X143533809Y-103583580D02*
X143438571Y-103726438D01*
X143438571Y-103726438D02*
X143343333Y-103821676D01*
X143343333Y-103821676D02*
X143248095Y-103869295D01*
X144152857Y-103583580D02*
X144819523Y-103583580D01*
X144819523Y-103583580D02*
X144390952Y-104583580D01*
D14*
%TO.C,BT1*%
X154141571Y-94592804D02*
X154141571Y-93830900D01*
X153760619Y-94211852D02*
X154522523Y-94211852D01*
X154141571Y-105895804D02*
X154141571Y-105133900D01*
D16*
%TO.C,R15*%
X152627064Y-75665000D02*
X152172936Y-75665000D01*
X152627064Y-74195000D02*
X152172936Y-74195000D01*
%TO.C,D7*%
X135551200Y-86416000D02*
X135551200Y-88336000D01*
X135551200Y-88336000D02*
X138236200Y-88336000D01*
X138236200Y-86416000D02*
X135551200Y-86416000D01*
%TO.C,R14*%
X111405936Y-74195000D02*
X111860064Y-74195000D01*
X111405936Y-75665000D02*
X111860064Y-75665000D01*
%TO.C,R16*%
X145569000Y-116813064D02*
X145569000Y-116358936D01*
X147039000Y-116813064D02*
X147039000Y-116358936D01*
%TO.C,D6*%
X122343200Y-86416000D02*
X122343200Y-88336000D01*
X122343200Y-88336000D02*
X125028200Y-88336000D01*
X125028200Y-86416000D02*
X122343200Y-86416000D01*
%TO.C,D3*%
X107752000Y-69249000D02*
X109672000Y-69249000D01*
X109672000Y-69249000D02*
X109672000Y-66564000D01*
X107752000Y-66564000D02*
X107752000Y-69249000D01*
D14*
%TO.C,U4*%
X118491000Y-51435000D02*
X118491000Y-77597000D01*
X118491000Y-77597000D02*
X144653000Y-77597000D01*
X144653000Y-51435000D02*
X118491000Y-51435000D01*
X144653000Y-77597000D02*
X144653000Y-51435000D01*
D16*
%TO.C,D4*%
X156408000Y-66283500D02*
X154488000Y-66283500D01*
X154488000Y-66283500D02*
X154488000Y-68968500D01*
X156408000Y-68968500D02*
X156408000Y-66283500D01*
%TO.C,R5*%
X142775000Y-116813064D02*
X142775000Y-116358936D01*
X144245000Y-116813064D02*
X144245000Y-116358936D01*
%TO.C,R1*%
X155221000Y-110209064D02*
X155221000Y-109754936D01*
X156691000Y-110209064D02*
X156691000Y-109754936D01*
%TO.C,C2*%
X145569000Y-111767252D02*
X145569000Y-111244748D01*
X147039000Y-111767252D02*
X147039000Y-111244748D01*
%TO.C,F1*%
X157224000Y-106055379D02*
X157224000Y-105729821D01*
X158244000Y-106055379D02*
X158244000Y-105729821D01*
D14*
%TO.C,U3*%
X140689000Y-100331000D02*
X140689000Y-99961000D01*
X122769000Y-99961000D02*
X122769000Y-100331000D01*
X140689000Y-99961000D02*
X122769000Y-99961000D01*
D16*
%TO.C,D1*%
X111834000Y-103362000D02*
X111834000Y-101362000D01*
X111834000Y-103362000D02*
X107824000Y-103362000D01*
X111834000Y-101362000D02*
X107824000Y-101362000D01*
%TO.C,D5*%
X109160600Y-86416000D02*
X109160600Y-88336000D01*
X109160600Y-88336000D02*
X111845600Y-88336000D01*
X111845600Y-86416000D02*
X109160600Y-86416000D01*
%TO.C,D2*%
X118398800Y-116613600D02*
X116398800Y-116613600D01*
X118398800Y-116613600D02*
X118398800Y-120623600D01*
X116398800Y-116613600D02*
X116398800Y-120623600D01*
D14*
%TO.C,BZ1*%
X149123400Y-114922300D02*
X151663400Y-114922300D01*
X149123400Y-123939300D02*
X149123400Y-114922300D01*
X151663400Y-123939300D02*
X149123400Y-123939300D01*
X155727400Y-114922300D02*
X158267400Y-114922300D01*
X158267400Y-114922300D02*
X158267400Y-123939300D01*
X158267400Y-123939300D02*
X155727400Y-123939300D01*
X151155400Y-116446300D02*
G75*
G03*
X151155400Y-116446300I-508000J0D01*
G01*
%TO.C,JP1*%
X112903000Y-54737000D02*
X112903000Y-72517000D01*
X110363000Y-54737000D02*
X110363000Y-72517000D01*
D16*
%TO.C,R19*%
X134647000Y-56615064D02*
X134647000Y-56160936D01*
X136117000Y-56615064D02*
X136117000Y-56160936D01*
%TO.C,R7*%
X110717064Y-125957000D02*
X110262936Y-125957000D01*
X110717064Y-124487000D02*
X110262936Y-124487000D01*
%TO.C,R20*%
X132107000Y-56615064D02*
X132107000Y-56160936D01*
X133577000Y-56615064D02*
X133577000Y-56160936D01*
%TO.C,R21*%
X118644936Y-101627000D02*
X119099064Y-101627000D01*
X118644936Y-103097000D02*
X119099064Y-103097000D01*
D14*
%TO.C,JP2*%
X153670000Y-54737000D02*
X153670000Y-72517000D01*
X151130000Y-54737000D02*
X151130000Y-72517000D01*
D16*
%TO.C,C6*%
X127027000Y-56649252D02*
X127027000Y-56126748D01*
X128497000Y-56649252D02*
X128497000Y-56126748D01*
%TO.C,R8*%
X109447000Y-71400936D02*
X109447000Y-71855064D01*
X107977000Y-71400936D02*
X107977000Y-71855064D01*
%TO.C,R2*%
X152935000Y-110209064D02*
X152935000Y-109754936D01*
X154405000Y-110209064D02*
X154405000Y-109754936D01*
%TO.C,SW5*%
X134946000Y-78812000D02*
X141406000Y-78812000D01*
X134946000Y-78842000D02*
X134946000Y-78812000D01*
X134946000Y-80742000D02*
X134946000Y-83342000D01*
X134946000Y-85272000D02*
X134946000Y-85242000D01*
X134946000Y-85272000D02*
X141406000Y-85272000D01*
X141406000Y-78812000D02*
X141406000Y-78842000D01*
X141406000Y-80742000D02*
X141406000Y-83342000D01*
X141406000Y-85272000D02*
X141406000Y-85242000D01*
%TO.C,SW6*%
X148154000Y-78812000D02*
X154614000Y-78812000D01*
X148154000Y-78842000D02*
X148154000Y-78812000D01*
X148154000Y-80742000D02*
X148154000Y-83342000D01*
X148154000Y-85272000D02*
X148154000Y-85242000D01*
X148154000Y-85272000D02*
X154614000Y-85272000D01*
X154614000Y-78812000D02*
X154614000Y-78842000D01*
X154614000Y-80742000D02*
X154614000Y-83342000D01*
X154614000Y-85272000D02*
X154614000Y-85242000D01*
%TO.C,R9*%
X156183000Y-71400936D02*
X156183000Y-71855064D01*
X154713000Y-71400936D02*
X154713000Y-71855064D01*
%TO.C,C5*%
X144245000Y-121404748D02*
X144245000Y-121927252D01*
X142775000Y-121404748D02*
X142775000Y-121927252D01*
%TO.C,U2*%
X145942000Y-107630000D02*
X145942000Y-101620000D01*
X152762000Y-105380000D02*
X152762000Y-101620000D01*
X145942000Y-101620000D02*
X147202000Y-101620000D01*
X152762000Y-101620000D02*
X151502000Y-101620000D01*
%TO.C,SW2*%
X112704000Y-121594000D02*
X106244000Y-121594000D01*
X112704000Y-121564000D02*
X112704000Y-121594000D01*
X112704000Y-119664000D02*
X112704000Y-117064000D01*
X112704000Y-115134000D02*
X112704000Y-115164000D01*
X112704000Y-115134000D02*
X106244000Y-115134000D01*
X106244000Y-121594000D02*
X106244000Y-121564000D01*
X106244000Y-119664000D02*
X106244000Y-117064000D01*
X106244000Y-115134000D02*
X106244000Y-115164000D01*
%TO.C,Q2*%
X157262000Y-101828600D02*
X157262000Y-100153600D01*
X157262000Y-101828600D02*
X157262000Y-102478600D01*
X154142000Y-101828600D02*
X154142000Y-101178600D01*
X154142000Y-101828600D02*
X154142000Y-102478600D01*
%TO.C,D8*%
X148759200Y-86416000D02*
X148759200Y-88336000D01*
X148759200Y-88336000D02*
X151444200Y-88336000D01*
X151444200Y-86416000D02*
X148759200Y-86416000D01*
%TO.C,R3*%
X118644936Y-99595000D02*
X119099064Y-99595000D01*
X118644936Y-101065000D02*
X119099064Y-101065000D01*
%TO.C,U1*%
X118872000Y-106136000D02*
X117072000Y-106136000D01*
X118872000Y-106136000D02*
X119672000Y-106136000D01*
X118872000Y-109256000D02*
X118072000Y-109256000D01*
X118872000Y-109256000D02*
X119672000Y-109256000D01*
%TO.C,R4*%
X118644936Y-111787000D02*
X119099064Y-111787000D01*
X118644936Y-113257000D02*
X119099064Y-113257000D01*
%TO.C,SW3*%
X108530000Y-78812000D02*
X114990000Y-78812000D01*
X108530000Y-78842000D02*
X108530000Y-78812000D01*
X108530000Y-80742000D02*
X108530000Y-83342000D01*
X108530000Y-85272000D02*
X108530000Y-85242000D01*
X108530000Y-85272000D02*
X114990000Y-85272000D01*
X114990000Y-78812000D02*
X114990000Y-78842000D01*
X114990000Y-80742000D02*
X114990000Y-83342000D01*
X114990000Y-85272000D02*
X114990000Y-85242000D01*
%TO.C,C1*%
X152119000Y-109720748D02*
X152119000Y-110243252D01*
X150649000Y-109720748D02*
X150649000Y-110243252D01*
%TO.C,SW4*%
X121738000Y-78812000D02*
X128198000Y-78812000D01*
X121738000Y-78842000D02*
X121738000Y-78812000D01*
X121738000Y-80742000D02*
X121738000Y-83342000D01*
X121738000Y-85272000D02*
X121738000Y-85242000D01*
X121738000Y-85272000D02*
X128198000Y-85272000D01*
X128198000Y-78812000D02*
X128198000Y-78842000D01*
X128198000Y-80742000D02*
X128198000Y-83342000D01*
X128198000Y-85272000D02*
X128198000Y-85242000D01*
%TO.C,D9*%
X119142000Y-121333600D02*
X121142000Y-121333600D01*
X119142000Y-121333600D02*
X119142000Y-117323600D01*
X121142000Y-121333600D02*
X121142000Y-117323600D01*
%TO.C,C3*%
X144245000Y-111244748D02*
X144245000Y-111767252D01*
X142775000Y-111244748D02*
X142775000Y-111767252D01*
%TO.C,Q1*%
X154142000Y-97282000D02*
X154142000Y-98957000D01*
X154142000Y-97282000D02*
X154142000Y-96632000D01*
X157262000Y-97282000D02*
X157262000Y-97932000D01*
X157262000Y-97282000D02*
X157262000Y-96632000D01*
%TO.C,R17*%
X142775000Y-106729264D02*
X142775000Y-106275136D01*
X144245000Y-106729264D02*
X144245000Y-106275136D01*
%TD*%
M02*
