%TF.GenerationSoftware,KiCad,Pcbnew,(7.0.0-0)*%
%TF.CreationDate,2023-11-13T22:50:32+01:00*%
%TF.ProjectId,ultimate-invitation-card,756c7469-6d61-4746-952d-696e76697461,rev?*%
%TF.SameCoordinates,Original*%
%TF.FileFunction,Copper,L3,Inr*%
%TF.FilePolarity,Positive*%
%FSLAX46Y46*%
G04 Gerber Fmt 4.6, Leading zero omitted, Abs format (unit mm)*
G04 Created by KiCad (PCBNEW (7.0.0-0)) date 2023-11-13 22:50:32*
%MOMM*%
%LPD*%
G01*
G04 APERTURE LIST*
%TA.AperFunction,ComponentPad*%
%ADD10R,1.524000X1.524000*%
%TD*%
%TA.AperFunction,ComponentPad*%
%ADD11C,1.524000*%
%TD*%
%TA.AperFunction,ComponentPad*%
%ADD12C,2.500000*%
%TD*%
%TA.AperFunction,ComponentPad*%
%ADD13R,1.000000X1.000000*%
%TD*%
%TA.AperFunction,ComponentPad*%
%ADD14O,1.000000X1.000000*%
%TD*%
%TA.AperFunction,ComponentPad*%
%ADD15C,1.400000*%
%TD*%
%TA.AperFunction,ViaPad*%
%ADD16C,0.600000*%
%TD*%
%TA.AperFunction,Conductor*%
%ADD17C,0.600000*%
%TD*%
%TA.AperFunction,Conductor*%
%ADD18C,0.300000*%
%TD*%
G04 APERTURE END LIST*
D10*
%TO.N,GND*%
%TO.C,U4*%
X127761999Y-53085999D03*
D11*
%TO.N,+3.3V*%
X130302000Y-53086000D03*
%TO.N,Net-(U3-IO5)*%
X132842000Y-53086000D03*
%TO.N,Net-(U3-IO4)*%
X135382000Y-53086000D03*
%TD*%
D12*
%TO.N,GND*%
%TO.C,JP1*%
X111633000Y-54737000D03*
%TO.N,Net-(JP1-B)*%
X111633000Y-72517000D03*
%TD*%
%TO.N,GND*%
%TO.C,JP2*%
X152400000Y-54737000D03*
%TO.N,Net-(JP2-B)*%
X152400000Y-72517000D03*
%TD*%
D13*
%TO.N,GND*%
%TO.C,J1*%
X108589999Y-127888999D03*
D14*
%TO.N,Net-(J1-Pin_3)*%
X111129999Y-127888999D03*
%TO.N,Net-(J1-Pin_4)*%
X112399999Y-127888999D03*
%TD*%
D15*
%TO.N,Net-(BT1-+)*%
%TO.C,BT1*%
X155702000Y-94195900D03*
%TO.N,Net-(BT1--)*%
X155702000Y-105625900D03*
%TD*%
D16*
%TO.N,+VDC*%
X157962600Y-98196400D03*
X114024000Y-116114000D03*
X104927400Y-116128800D03*
X151652000Y-106680000D03*
X121183400Y-107696000D03*
X151384000Y-109016800D03*
%TO.N,-VDC*%
X155956000Y-109069500D03*
X154762200Y-104114600D03*
X116255800Y-107696000D03*
X157734000Y-105079800D03*
%TO.N,GND*%
X123088400Y-87376000D03*
X140589000Y-106121200D03*
X156438600Y-102768400D03*
X155930600Y-84302600D03*
X130073400Y-116128800D03*
X153238200Y-123939300D03*
X147828000Y-64490600D03*
X144526000Y-61391800D03*
X149504400Y-87376000D03*
X143535400Y-105537000D03*
X140589000Y-123926600D03*
X147040600Y-106680000D03*
X133629400Y-84302600D03*
X143510000Y-115673500D03*
X151384000Y-110932000D03*
X129514600Y-84302600D03*
X136296400Y-87350600D03*
X106934000Y-59944000D03*
X120421400Y-84302600D03*
X154965400Y-107238800D03*
X119151400Y-114350800D03*
X108712000Y-68501500D03*
X116056000Y-59980000D03*
X156099883Y-99555300D03*
X143510000Y-122616000D03*
X127025400Y-111302800D03*
X115341400Y-103428800D03*
X109905800Y-87376000D03*
X146304000Y-110566200D03*
X156950000Y-64480000D03*
X107213400Y-84302600D03*
X122809000Y-123921000D03*
X155448000Y-67030600D03*
X118135400Y-84302600D03*
X142722600Y-84302600D03*
X146812000Y-84302600D03*
X124993400Y-109778800D03*
%TO.N,+3.3V*%
X149352000Y-100380000D03*
X143510000Y-120716000D03*
X117959500Y-102362000D03*
X148183600Y-100380800D03*
X127762000Y-57353200D03*
X146304000Y-112456000D03*
X132842000Y-57300500D03*
X109589500Y-125222000D03*
X141732000Y-61366400D03*
X150495000Y-100380800D03*
X120370600Y-59537600D03*
X143535400Y-100380800D03*
X140589000Y-122656600D03*
X135382000Y-57300500D03*
X149352000Y-106680000D03*
%TO.N,Net-(U3-EN)*%
X138404600Y-119577524D03*
%TO.N,Net-(D1-A)*%
X135153400Y-100634800D03*
X143484600Y-110566200D03*
%TO.N,Net-(D5-A)*%
X111783100Y-87376000D03*
%TO.N,Net-(D6-A)*%
X124968000Y-87376000D03*
%TO.N,Net-(D7-A)*%
X138173700Y-87376000D03*
%TO.N,Net-(D8-A)*%
X151381700Y-87376000D03*
%TO.N,Net-(D9-K)*%
X146304000Y-115673500D03*
X120142000Y-120623600D03*
%TO.N,Net-(R3-Pad2)*%
X120009500Y-110007400D03*
X119786400Y-100355400D03*
%TO.N,Net-(U3-IO25)*%
X108712000Y-72542400D03*
X125095000Y-112496600D03*
%TO.N,Net-(U3-IO21)*%
X127025400Y-116357400D03*
X149250400Y-77698600D03*
%TO.N,Net-(U3-IO19)*%
X122961400Y-115011200D03*
%TO.N,Net-(U3-IO2)*%
X127025400Y-105460800D03*
%TO.N,Net-(U3-IO18)*%
X128041400Y-113761000D03*
%TO.N,Net-(U3-IO23)*%
X129903850Y-121344050D03*
%TO.N,Net-(U3-I34)*%
X126034800Y-118668800D03*
X112547400Y-74930000D03*
%TO.N,Net-(U3-I35)*%
X151485600Y-74930000D03*
X140534021Y-116246021D03*
%TO.N,Net-(U3-IO0)*%
X126009142Y-106741506D03*
%TO.N,Net-(U3-IO4)*%
X130073400Y-108762800D03*
%TO.N,Net-(U3-IO5)*%
X129057400Y-109524800D03*
%TO.N,Net-(U3-IO15)*%
X119811800Y-102387400D03*
X121215332Y-104908532D03*
%TO.N,Net-(U3-IO26)*%
X128041400Y-110324300D03*
X118135400Y-79781400D03*
%TO.N,Net-(U3-IO14)*%
X136188632Y-108667368D03*
X144262300Y-86487000D03*
%TO.N,Net-(U3-IO22)*%
X142722600Y-79806800D03*
X122809000Y-121381000D03*
%TO.N,Net-(U3-IO13)*%
X155930600Y-79781400D03*
X140589000Y-104871000D03*
%TD*%
D17*
%TO.N,+VDC*%
X145211800Y-98221800D02*
X151658000Y-98221800D01*
X157937200Y-98221800D02*
X157962600Y-98196400D01*
X151658000Y-98221800D02*
X157937200Y-98221800D01*
X121183400Y-116114000D02*
X114024000Y-116114000D01*
X151652000Y-106680000D02*
X151652000Y-103149400D01*
D18*
X151663400Y-106691400D02*
X151652000Y-106680000D01*
D17*
X151652000Y-103149400D02*
X151652000Y-98227800D01*
X151384000Y-108077000D02*
X151663400Y-108077000D01*
D18*
X151652000Y-98227800D02*
X151658000Y-98221800D01*
D17*
X145186400Y-107696000D02*
X145211800Y-107670600D01*
D18*
X114009200Y-116128800D02*
X114024000Y-116114000D01*
D17*
X104927400Y-116128800D02*
X114009200Y-116128800D01*
X145211800Y-107670600D02*
X145211800Y-98221800D01*
X121183400Y-107696000D02*
X121183400Y-116114000D01*
X121183400Y-107696000D02*
X145186400Y-107696000D01*
X151384000Y-108077000D02*
X151384000Y-109016800D01*
X151663400Y-108077000D02*
X151663400Y-106691400D01*
%TO.N,+3.3V*%
X135382000Y-57300500D02*
X141730100Y-57300500D01*
X132842000Y-57300500D02*
X135382000Y-57300500D01*
X140589000Y-122656600D02*
X109575600Y-122656600D01*
X145313400Y-96570800D02*
X145313400Y-71272400D01*
X143535400Y-96570800D02*
X145313400Y-96570800D01*
X127762000Y-59537600D02*
X127762000Y-57353200D01*
X146304000Y-112456000D02*
X149341800Y-112456000D01*
X149352000Y-106680000D02*
X149352000Y-100380000D01*
X142138400Y-120726200D02*
X143499800Y-120726200D01*
X149352000Y-112445800D02*
X149352000Y-106680000D01*
X143510000Y-120716000D02*
X149352000Y-120716000D01*
X127762000Y-57353200D02*
X130302000Y-57353200D01*
X140589000Y-122656600D02*
X142138400Y-122656600D01*
X141732000Y-67691000D02*
X141732000Y-61366400D01*
X150494200Y-100380000D02*
X150495000Y-100380800D01*
X145313400Y-71272400D02*
X141732000Y-67691000D01*
X148183600Y-100380800D02*
X149351200Y-100380800D01*
X109575600Y-122656600D02*
X109575600Y-118414800D01*
X143499800Y-120726200D02*
X143510000Y-120716000D01*
X149341800Y-112456000D02*
X149352000Y-112445800D01*
X102870000Y-118414800D02*
X102870000Y-102362000D01*
X141732000Y-57302400D02*
X141732000Y-61366400D01*
X102870000Y-102362000D02*
X117959500Y-102362000D01*
X149351200Y-100380800D02*
X149352000Y-100380000D01*
X141730100Y-57300500D02*
X141732000Y-57302400D01*
X143535400Y-100380800D02*
X143535400Y-96570800D01*
X109575600Y-122656600D02*
X109575600Y-125208100D01*
X130302000Y-53086000D02*
X130302000Y-57353200D01*
X149352000Y-112466200D02*
X149341800Y-112456000D01*
X130302000Y-57353200D02*
X132789300Y-57353200D01*
X149352000Y-100380000D02*
X150494200Y-100380000D01*
X109575600Y-125208100D02*
X109589500Y-125222000D01*
X132789300Y-57353200D02*
X132842000Y-57300500D01*
X109575600Y-118414800D02*
X102870000Y-118414800D01*
X149352000Y-120716000D02*
X149352000Y-112466200D01*
X142138400Y-122656600D02*
X142138400Y-120726200D01*
X120370600Y-59537600D02*
X127762000Y-59537600D01*
%TD*%
%TA.AperFunction,Conductor*%
%TO.N,+3.3V*%
G36*
X162569500Y-49739113D02*
G01*
X162614887Y-49784500D01*
X162631500Y-49846500D01*
X162631500Y-131597500D01*
X162614887Y-131659500D01*
X162569500Y-131704887D01*
X162507500Y-131721500D01*
X147756500Y-131721500D01*
X147694500Y-131704887D01*
X147649113Y-131659500D01*
X147632500Y-131597500D01*
X147632500Y-128722000D01*
X158026551Y-128722000D01*
X158026933Y-128726854D01*
X158039294Y-128883920D01*
X158046317Y-128973148D01*
X158047452Y-128977877D01*
X158047453Y-128977881D01*
X158103989Y-129213374D01*
X158103991Y-129213382D01*
X158105127Y-129218111D01*
X158201534Y-129450859D01*
X158204081Y-129455016D01*
X158204082Y-129455017D01*
X158330617Y-129661504D01*
X158330622Y-129661511D01*
X158333164Y-129665659D01*
X158336324Y-129669358D01*
X158336327Y-129669363D01*
X158493183Y-129853017D01*
X158496776Y-129857224D01*
X158500476Y-129860384D01*
X158682705Y-130016023D01*
X158688341Y-130020836D01*
X158692491Y-130023379D01*
X158692495Y-130023382D01*
X158804300Y-130091896D01*
X158903141Y-130152466D01*
X159135889Y-130248873D01*
X159380852Y-130307683D01*
X159632000Y-130327449D01*
X159883148Y-130307683D01*
X160128111Y-130248873D01*
X160360859Y-130152466D01*
X160575659Y-130020836D01*
X160767224Y-129857224D01*
X160930836Y-129665659D01*
X161062466Y-129450859D01*
X161158873Y-129218111D01*
X161217683Y-128973148D01*
X161237449Y-128722000D01*
X161217683Y-128470852D01*
X161158873Y-128225889D01*
X161062466Y-127993141D01*
X160930836Y-127778341D01*
X160767224Y-127586776D01*
X160730509Y-127555418D01*
X160579363Y-127426327D01*
X160579358Y-127426324D01*
X160575659Y-127423164D01*
X160571511Y-127420622D01*
X160571504Y-127420617D01*
X160365017Y-127294082D01*
X160365016Y-127294081D01*
X160360859Y-127291534D01*
X160128111Y-127195127D01*
X160123382Y-127193991D01*
X160123374Y-127193989D01*
X159887881Y-127137453D01*
X159887877Y-127137452D01*
X159883148Y-127136317D01*
X159878295Y-127135935D01*
X159636854Y-127116933D01*
X159632000Y-127116551D01*
X159627146Y-127116933D01*
X159385704Y-127135935D01*
X159385702Y-127135935D01*
X159380852Y-127136317D01*
X159376124Y-127137451D01*
X159376118Y-127137453D01*
X159140625Y-127193989D01*
X159140613Y-127193992D01*
X159135889Y-127195127D01*
X159131392Y-127196989D01*
X159131388Y-127196991D01*
X158907645Y-127289668D01*
X158907640Y-127289670D01*
X158903141Y-127291534D01*
X158898988Y-127294078D01*
X158898982Y-127294082D01*
X158692495Y-127420617D01*
X158692482Y-127420626D01*
X158688341Y-127423164D01*
X158684646Y-127426319D01*
X158684636Y-127426327D01*
X158500476Y-127583615D01*
X158500469Y-127583621D01*
X158496776Y-127586776D01*
X158493621Y-127590469D01*
X158493615Y-127590476D01*
X158336327Y-127774636D01*
X158336319Y-127774646D01*
X158333164Y-127778341D01*
X158330626Y-127782482D01*
X158330617Y-127782495D01*
X158204082Y-127988982D01*
X158204078Y-127988988D01*
X158201534Y-127993141D01*
X158105127Y-128225889D01*
X158103992Y-128230613D01*
X158103989Y-128230625D01*
X158047453Y-128466118D01*
X158047451Y-128466124D01*
X158046317Y-128470852D01*
X158045935Y-128475702D01*
X158045935Y-128475704D01*
X158034099Y-128626093D01*
X158026551Y-128722000D01*
X147632500Y-128722000D01*
X147632500Y-125234025D01*
X147632500Y-125222099D01*
X147632541Y-125222000D01*
X147632383Y-125221617D01*
X147632099Y-125221500D01*
X147632000Y-125221459D01*
X147631901Y-125221500D01*
X115632099Y-125221500D01*
X115632000Y-125221459D01*
X115631901Y-125221500D01*
X115631617Y-125221617D01*
X115631459Y-125222000D01*
X115631500Y-125222099D01*
X115631500Y-125234025D01*
X115631500Y-131597500D01*
X115614887Y-131659500D01*
X115569500Y-131704887D01*
X115507500Y-131721500D01*
X100756500Y-131721500D01*
X100694500Y-131704887D01*
X100649113Y-131659500D01*
X100632500Y-131597500D01*
X100632500Y-128722000D01*
X102026551Y-128722000D01*
X102026933Y-128726854D01*
X102039294Y-128883920D01*
X102046317Y-128973148D01*
X102047452Y-128977877D01*
X102047453Y-128977881D01*
X102103989Y-129213374D01*
X102103991Y-129213382D01*
X102105127Y-129218111D01*
X102201534Y-129450859D01*
X102204081Y-129455016D01*
X102204082Y-129455017D01*
X102330617Y-129661504D01*
X102330622Y-129661511D01*
X102333164Y-129665659D01*
X102336324Y-129669358D01*
X102336327Y-129669363D01*
X102493183Y-129853017D01*
X102496776Y-129857224D01*
X102500476Y-129860384D01*
X102682705Y-130016023D01*
X102688341Y-130020836D01*
X102692491Y-130023379D01*
X102692495Y-130023382D01*
X102804300Y-130091896D01*
X102903141Y-130152466D01*
X103135889Y-130248873D01*
X103380852Y-130307683D01*
X103632000Y-130327449D01*
X103883148Y-130307683D01*
X104128111Y-130248873D01*
X104360859Y-130152466D01*
X104575659Y-130020836D01*
X104767224Y-129857224D01*
X104930836Y-129665659D01*
X105062466Y-129450859D01*
X105158873Y-129218111D01*
X105217683Y-128973148D01*
X105237449Y-128722000D01*
X105217683Y-128470852D01*
X105208734Y-128433578D01*
X107589500Y-128433578D01*
X107589501Y-128436872D01*
X107589853Y-128440150D01*
X107589854Y-128440161D01*
X107595079Y-128488768D01*
X107595080Y-128488773D01*
X107595909Y-128496483D01*
X107598619Y-128503749D01*
X107598620Y-128503753D01*
X107621745Y-128565753D01*
X107646204Y-128631331D01*
X107651518Y-128638430D01*
X107651519Y-128638431D01*
X107717712Y-128726854D01*
X107732454Y-128746546D01*
X107847669Y-128832796D01*
X107982517Y-128883091D01*
X108042127Y-128889500D01*
X109137872Y-128889499D01*
X109197483Y-128883091D01*
X109332331Y-128832796D01*
X109447546Y-128746546D01*
X109533796Y-128631331D01*
X109584091Y-128496483D01*
X109590500Y-128436873D01*
X109590499Y-127889000D01*
X110374751Y-127889000D01*
X110375531Y-127895923D01*
X110392906Y-128050135D01*
X110392907Y-128050142D01*
X110393687Y-128057059D01*
X110449544Y-128216690D01*
X110539523Y-128359890D01*
X110659110Y-128479477D01*
X110802310Y-128569456D01*
X110961941Y-128625313D01*
X111045970Y-128634780D01*
X111078364Y-128638431D01*
X111130000Y-128644249D01*
X111298059Y-128625313D01*
X111457690Y-128569456D01*
X111600890Y-128479477D01*
X111677318Y-128403048D01*
X111732906Y-128370954D01*
X111797094Y-128370954D01*
X111852680Y-128403047D01*
X111929110Y-128479477D01*
X112072310Y-128569456D01*
X112231941Y-128625313D01*
X112315970Y-128634780D01*
X112348364Y-128638431D01*
X112400000Y-128644249D01*
X112568059Y-128625313D01*
X112727690Y-128569456D01*
X112870890Y-128479477D01*
X112990477Y-128359890D01*
X113080456Y-128216690D01*
X113136313Y-128057059D01*
X113155249Y-127889000D01*
X113136313Y-127720941D01*
X113080456Y-127561310D01*
X112990477Y-127418110D01*
X112870890Y-127298523D01*
X112856797Y-127289668D01*
X112832254Y-127274246D01*
X112727690Y-127208544D01*
X112721124Y-127206246D01*
X112721121Y-127206245D01*
X112574633Y-127154987D01*
X112574630Y-127154986D01*
X112568059Y-127152687D01*
X112561142Y-127151907D01*
X112561135Y-127151906D01*
X112406923Y-127134531D01*
X112400000Y-127133751D01*
X112393077Y-127134531D01*
X112238864Y-127151906D01*
X112238855Y-127151907D01*
X112231941Y-127152687D01*
X112225371Y-127154985D01*
X112225366Y-127154987D01*
X112078878Y-127206245D01*
X112078872Y-127206247D01*
X112072310Y-127208544D01*
X112066419Y-127212245D01*
X112066418Y-127212246D01*
X111935010Y-127294815D01*
X111935005Y-127294818D01*
X111929110Y-127298523D01*
X111924185Y-127303447D01*
X111924181Y-127303451D01*
X111852681Y-127374952D01*
X111797094Y-127407046D01*
X111732906Y-127407046D01*
X111677319Y-127374952D01*
X111605818Y-127303451D01*
X111600890Y-127298523D01*
X111586797Y-127289668D01*
X111562254Y-127274246D01*
X111457690Y-127208544D01*
X111451124Y-127206246D01*
X111451121Y-127206245D01*
X111304633Y-127154987D01*
X111304630Y-127154986D01*
X111298059Y-127152687D01*
X111291142Y-127151907D01*
X111291135Y-127151906D01*
X111136923Y-127134531D01*
X111130000Y-127133751D01*
X111123077Y-127134531D01*
X110968864Y-127151906D01*
X110968855Y-127151907D01*
X110961941Y-127152687D01*
X110955371Y-127154985D01*
X110955366Y-127154987D01*
X110808878Y-127206245D01*
X110808872Y-127206247D01*
X110802310Y-127208544D01*
X110796419Y-127212245D01*
X110796418Y-127212246D01*
X110665010Y-127294815D01*
X110665005Y-127294818D01*
X110659110Y-127298523D01*
X110654185Y-127303447D01*
X110654181Y-127303451D01*
X110544451Y-127413181D01*
X110544447Y-127413185D01*
X110539523Y-127418110D01*
X110535818Y-127424005D01*
X110535815Y-127424010D01*
X110495000Y-127488967D01*
X110449544Y-127561310D01*
X110447247Y-127567872D01*
X110447245Y-127567878D01*
X110395987Y-127714366D01*
X110395985Y-127714371D01*
X110393687Y-127720941D01*
X110392907Y-127727855D01*
X110392906Y-127727864D01*
X110386751Y-127782495D01*
X110374751Y-127889000D01*
X109590499Y-127889000D01*
X109590499Y-127341128D01*
X109584091Y-127281517D01*
X109533796Y-127146669D01*
X109447546Y-127031454D01*
X109332331Y-126945204D01*
X109197483Y-126894909D01*
X109189770Y-126894079D01*
X109189767Y-126894079D01*
X109141180Y-126888855D01*
X109141169Y-126888854D01*
X109137873Y-126888500D01*
X109134550Y-126888500D01*
X108045439Y-126888500D01*
X108045420Y-126888500D01*
X108042128Y-126888501D01*
X108038850Y-126888853D01*
X108038838Y-126888854D01*
X107990231Y-126894079D01*
X107990225Y-126894080D01*
X107982517Y-126894909D01*
X107975252Y-126897618D01*
X107975246Y-126897620D01*
X107855980Y-126942104D01*
X107855978Y-126942104D01*
X107847669Y-126945204D01*
X107840572Y-126950516D01*
X107840568Y-126950519D01*
X107739550Y-127026141D01*
X107739546Y-127026144D01*
X107732454Y-127031454D01*
X107727144Y-127038546D01*
X107727141Y-127038550D01*
X107651519Y-127139568D01*
X107651516Y-127139572D01*
X107646204Y-127146669D01*
X107643104Y-127154978D01*
X107643104Y-127154980D01*
X107598620Y-127274247D01*
X107598619Y-127274250D01*
X107595909Y-127281517D01*
X107595079Y-127289227D01*
X107595079Y-127289232D01*
X107589855Y-127337819D01*
X107589854Y-127337831D01*
X107589500Y-127341127D01*
X107589500Y-127344448D01*
X107589500Y-127344449D01*
X107589500Y-128433560D01*
X107589500Y-128433578D01*
X105208734Y-128433578D01*
X105158873Y-128225889D01*
X105062466Y-127993141D01*
X104930836Y-127778341D01*
X104767224Y-127586776D01*
X104730509Y-127555418D01*
X104579363Y-127426327D01*
X104579358Y-127426324D01*
X104575659Y-127423164D01*
X104571511Y-127420622D01*
X104571504Y-127420617D01*
X104365017Y-127294082D01*
X104365016Y-127294081D01*
X104360859Y-127291534D01*
X104128111Y-127195127D01*
X104123382Y-127193991D01*
X104123374Y-127193989D01*
X103887881Y-127137453D01*
X103887877Y-127137452D01*
X103883148Y-127136317D01*
X103878295Y-127135935D01*
X103636854Y-127116933D01*
X103632000Y-127116551D01*
X103627146Y-127116933D01*
X103385704Y-127135935D01*
X103385702Y-127135935D01*
X103380852Y-127136317D01*
X103376124Y-127137451D01*
X103376118Y-127137453D01*
X103140625Y-127193989D01*
X103140613Y-127193992D01*
X103135889Y-127195127D01*
X103131392Y-127196989D01*
X103131388Y-127196991D01*
X102907645Y-127289668D01*
X102907640Y-127289670D01*
X102903141Y-127291534D01*
X102898988Y-127294078D01*
X102898982Y-127294082D01*
X102692495Y-127420617D01*
X102692482Y-127420626D01*
X102688341Y-127423164D01*
X102684646Y-127426319D01*
X102684636Y-127426327D01*
X102500476Y-127583615D01*
X102500469Y-127583621D01*
X102496776Y-127586776D01*
X102493621Y-127590469D01*
X102493615Y-127590476D01*
X102336327Y-127774636D01*
X102336319Y-127774646D01*
X102333164Y-127778341D01*
X102330626Y-127782482D01*
X102330617Y-127782495D01*
X102204082Y-127988982D01*
X102204078Y-127988988D01*
X102201534Y-127993141D01*
X102105127Y-128225889D01*
X102103992Y-128230613D01*
X102103989Y-128230625D01*
X102047453Y-128466118D01*
X102047451Y-128466124D01*
X102046317Y-128470852D01*
X102045935Y-128475702D01*
X102045935Y-128475704D01*
X102034099Y-128626093D01*
X102026551Y-128722000D01*
X100632500Y-128722000D01*
X100632500Y-123921000D01*
X122003435Y-123921000D01*
X122023632Y-124100255D01*
X122025928Y-124106819D01*
X122025930Y-124106824D01*
X122080913Y-124263956D01*
X122083211Y-124270522D01*
X122179184Y-124423262D01*
X122306738Y-124550816D01*
X122459478Y-124646789D01*
X122629745Y-124706368D01*
X122809000Y-124726565D01*
X122988255Y-124706368D01*
X123158522Y-124646789D01*
X123311262Y-124550816D01*
X123438816Y-124423262D01*
X123534789Y-124270522D01*
X123594368Y-124100255D01*
X123613934Y-123926600D01*
X139783435Y-123926600D01*
X139803632Y-124105855D01*
X139805928Y-124112419D01*
X139805930Y-124112424D01*
X139860913Y-124269556D01*
X139863211Y-124276122D01*
X139959184Y-124428862D01*
X140086738Y-124556416D01*
X140239478Y-124652389D01*
X140409745Y-124711968D01*
X140589000Y-124732165D01*
X140768255Y-124711968D01*
X140938522Y-124652389D01*
X141091262Y-124556416D01*
X141218816Y-124428862D01*
X141314789Y-124276122D01*
X141374368Y-124105855D01*
X141393134Y-123939300D01*
X152432635Y-123939300D01*
X152452832Y-124118555D01*
X152455128Y-124125119D01*
X152455130Y-124125124D01*
X152510028Y-124282012D01*
X152512411Y-124288822D01*
X152516112Y-124294712D01*
X152603500Y-124433790D01*
X152608384Y-124441562D01*
X152735938Y-124569116D01*
X152888678Y-124665089D01*
X153058945Y-124724668D01*
X153238200Y-124744865D01*
X153417455Y-124724668D01*
X153587722Y-124665089D01*
X153740462Y-124569116D01*
X153868016Y-124441562D01*
X153963989Y-124288822D01*
X154023568Y-124118555D01*
X154043765Y-123939300D01*
X154023568Y-123760045D01*
X153963989Y-123589778D01*
X153868016Y-123437038D01*
X153740462Y-123309484D01*
X153587722Y-123213511D01*
X153581159Y-123211214D01*
X153581156Y-123211213D01*
X153424024Y-123156230D01*
X153424019Y-123156228D01*
X153417455Y-123153932D01*
X153410535Y-123153152D01*
X153410534Y-123153152D01*
X153245123Y-123134515D01*
X153238200Y-123133735D01*
X153231277Y-123134515D01*
X153065865Y-123153152D01*
X153065862Y-123153152D01*
X153058945Y-123153932D01*
X153052382Y-123156228D01*
X153052375Y-123156230D01*
X152895243Y-123211213D01*
X152895236Y-123211215D01*
X152888678Y-123213511D01*
X152882790Y-123217210D01*
X152882787Y-123217212D01*
X152741838Y-123305776D01*
X152741833Y-123305779D01*
X152735938Y-123309484D01*
X152731013Y-123314408D01*
X152731009Y-123314412D01*
X152613312Y-123432109D01*
X152613308Y-123432113D01*
X152608384Y-123437038D01*
X152604679Y-123442933D01*
X152604676Y-123442938D01*
X152516112Y-123583887D01*
X152516110Y-123583890D01*
X152512411Y-123589778D01*
X152510115Y-123596336D01*
X152510113Y-123596343D01*
X152455130Y-123753475D01*
X152455128Y-123753482D01*
X152452832Y-123760045D01*
X152432635Y-123939300D01*
X141393134Y-123939300D01*
X141394565Y-123926600D01*
X141374368Y-123747345D01*
X141314789Y-123577078D01*
X141218816Y-123424338D01*
X141091262Y-123296784D01*
X141076448Y-123287476D01*
X140944412Y-123204512D01*
X140938522Y-123200811D01*
X140931959Y-123198514D01*
X140931956Y-123198513D01*
X140774824Y-123143530D01*
X140774819Y-123143528D01*
X140768255Y-123141232D01*
X140761335Y-123140452D01*
X140761334Y-123140452D01*
X140595923Y-123121815D01*
X140589000Y-123121035D01*
X140582077Y-123121815D01*
X140416665Y-123140452D01*
X140416662Y-123140452D01*
X140409745Y-123141232D01*
X140403182Y-123143528D01*
X140403175Y-123143530D01*
X140246043Y-123198513D01*
X140246036Y-123198515D01*
X140239478Y-123200811D01*
X140233590Y-123204510D01*
X140233587Y-123204512D01*
X140092638Y-123293076D01*
X140092633Y-123293079D01*
X140086738Y-123296784D01*
X140081813Y-123301708D01*
X140081809Y-123301712D01*
X139964112Y-123419409D01*
X139964108Y-123419413D01*
X139959184Y-123424338D01*
X139955479Y-123430233D01*
X139955476Y-123430238D01*
X139866912Y-123571187D01*
X139866910Y-123571190D01*
X139863211Y-123577078D01*
X139860915Y-123583636D01*
X139860913Y-123583643D01*
X139805930Y-123740775D01*
X139805928Y-123740782D01*
X139803632Y-123747345D01*
X139783435Y-123926600D01*
X123613934Y-123926600D01*
X123614565Y-123921000D01*
X123594368Y-123741745D01*
X123534789Y-123571478D01*
X123438816Y-123418738D01*
X123311262Y-123291184D01*
X123158522Y-123195211D01*
X123151959Y-123192914D01*
X123151956Y-123192913D01*
X122994824Y-123137930D01*
X122994819Y-123137928D01*
X122988255Y-123135632D01*
X122981335Y-123134852D01*
X122981334Y-123134852D01*
X122815923Y-123116215D01*
X122809000Y-123115435D01*
X122802077Y-123116215D01*
X122636665Y-123134852D01*
X122636662Y-123134852D01*
X122629745Y-123135632D01*
X122623182Y-123137928D01*
X122623175Y-123137930D01*
X122466043Y-123192913D01*
X122466036Y-123192915D01*
X122459478Y-123195211D01*
X122453590Y-123198910D01*
X122453587Y-123198912D01*
X122312638Y-123287476D01*
X122312633Y-123287479D01*
X122306738Y-123291184D01*
X122301813Y-123296108D01*
X122301809Y-123296112D01*
X122184112Y-123413809D01*
X122184108Y-123413813D01*
X122179184Y-123418738D01*
X122175479Y-123424633D01*
X122175476Y-123424638D01*
X122086912Y-123565587D01*
X122086910Y-123565590D01*
X122083211Y-123571478D01*
X122080915Y-123578036D01*
X122080913Y-123578043D01*
X122025930Y-123735175D01*
X122025928Y-123735182D01*
X122023632Y-123741745D01*
X122003435Y-123921000D01*
X100632500Y-123921000D01*
X100632500Y-122616000D01*
X142704435Y-122616000D01*
X142724632Y-122795255D01*
X142726928Y-122801819D01*
X142726930Y-122801824D01*
X142781913Y-122958956D01*
X142784211Y-122965522D01*
X142880184Y-123118262D01*
X143007738Y-123245816D01*
X143160478Y-123341789D01*
X143330745Y-123401368D01*
X143510000Y-123421565D01*
X143689255Y-123401368D01*
X143859522Y-123341789D01*
X144012262Y-123245816D01*
X144139816Y-123118262D01*
X144235789Y-122965522D01*
X144295368Y-122795255D01*
X144315565Y-122616000D01*
X144295368Y-122436745D01*
X144235789Y-122266478D01*
X144139816Y-122113738D01*
X144012262Y-121986184D01*
X143859522Y-121890211D01*
X143852959Y-121887914D01*
X143852956Y-121887913D01*
X143695824Y-121832930D01*
X143695819Y-121832928D01*
X143689255Y-121830632D01*
X143682335Y-121829852D01*
X143682334Y-121829852D01*
X143516923Y-121811215D01*
X143510000Y-121810435D01*
X143503077Y-121811215D01*
X143337665Y-121829852D01*
X143337662Y-121829852D01*
X143330745Y-121830632D01*
X143324182Y-121832928D01*
X143324175Y-121832930D01*
X143167043Y-121887913D01*
X143167036Y-121887915D01*
X143160478Y-121890211D01*
X143154590Y-121893910D01*
X143154587Y-121893912D01*
X143013638Y-121982476D01*
X143013633Y-121982479D01*
X143007738Y-121986184D01*
X143002813Y-121991108D01*
X143002809Y-121991112D01*
X142885112Y-122108809D01*
X142885108Y-122108813D01*
X142880184Y-122113738D01*
X142876479Y-122119633D01*
X142876476Y-122119638D01*
X142787912Y-122260587D01*
X142787910Y-122260590D01*
X142784211Y-122266478D01*
X142781915Y-122273036D01*
X142781913Y-122273043D01*
X142726930Y-122430175D01*
X142726928Y-122430182D01*
X142724632Y-122436745D01*
X142704435Y-122616000D01*
X100632500Y-122616000D01*
X100632500Y-120623600D01*
X119336435Y-120623600D01*
X119356632Y-120802855D01*
X119358928Y-120809419D01*
X119358930Y-120809424D01*
X119385249Y-120884638D01*
X119416211Y-120973122D01*
X119512184Y-121125862D01*
X119639738Y-121253416D01*
X119792478Y-121349389D01*
X119962745Y-121408968D01*
X120142000Y-121429165D01*
X120321255Y-121408968D01*
X120401183Y-121381000D01*
X122003435Y-121381000D01*
X122023632Y-121560255D01*
X122025928Y-121566819D01*
X122025930Y-121566824D01*
X122080913Y-121723956D01*
X122083211Y-121730522D01*
X122179184Y-121883262D01*
X122306738Y-122010816D01*
X122459478Y-122106789D01*
X122629745Y-122166368D01*
X122809000Y-122186565D01*
X122988255Y-122166368D01*
X123158522Y-122106789D01*
X123311262Y-122010816D01*
X123438816Y-121883262D01*
X123534789Y-121730522D01*
X123594368Y-121560255D01*
X123614565Y-121381000D01*
X123610402Y-121344050D01*
X129098285Y-121344050D01*
X129118482Y-121523305D01*
X129120778Y-121529869D01*
X129120780Y-121529874D01*
X129175763Y-121687006D01*
X129178061Y-121693572D01*
X129181762Y-121699462D01*
X129265625Y-121832930D01*
X129274034Y-121846312D01*
X129401588Y-121973866D01*
X129554328Y-122069839D01*
X129724595Y-122129418D01*
X129903850Y-122149615D01*
X130083105Y-122129418D01*
X130253372Y-122069839D01*
X130406112Y-121973866D01*
X130533666Y-121846312D01*
X130629639Y-121693572D01*
X130689218Y-121523305D01*
X130709415Y-121344050D01*
X130689218Y-121164795D01*
X130629639Y-120994528D01*
X130533666Y-120841788D01*
X130406112Y-120714234D01*
X130253372Y-120618261D01*
X130246809Y-120615964D01*
X130246806Y-120615963D01*
X130089674Y-120560980D01*
X130089669Y-120560978D01*
X130083105Y-120558682D01*
X130076185Y-120557902D01*
X130076184Y-120557902D01*
X129910773Y-120539265D01*
X129903850Y-120538485D01*
X129896927Y-120539265D01*
X129731515Y-120557902D01*
X129731512Y-120557902D01*
X129724595Y-120558682D01*
X129718032Y-120560978D01*
X129718025Y-120560980D01*
X129560893Y-120615963D01*
X129560886Y-120615965D01*
X129554328Y-120618261D01*
X129548440Y-120621960D01*
X129548437Y-120621962D01*
X129407488Y-120710526D01*
X129407483Y-120710529D01*
X129401588Y-120714234D01*
X129396663Y-120719158D01*
X129396659Y-120719162D01*
X129278962Y-120836859D01*
X129278958Y-120836863D01*
X129274034Y-120841788D01*
X129270329Y-120847683D01*
X129270326Y-120847688D01*
X129181762Y-120988637D01*
X129181760Y-120988640D01*
X129178061Y-120994528D01*
X129175765Y-121001086D01*
X129175763Y-121001093D01*
X129120780Y-121158225D01*
X129120778Y-121158232D01*
X129118482Y-121164795D01*
X129098285Y-121344050D01*
X123610402Y-121344050D01*
X123594368Y-121201745D01*
X123534789Y-121031478D01*
X123438816Y-120878738D01*
X123311262Y-120751184D01*
X123252456Y-120714234D01*
X123164412Y-120658912D01*
X123158522Y-120655211D01*
X123151959Y-120652914D01*
X123151956Y-120652913D01*
X122994824Y-120597930D01*
X122994819Y-120597928D01*
X122988255Y-120595632D01*
X122981335Y-120594852D01*
X122981334Y-120594852D01*
X122815923Y-120576215D01*
X122809000Y-120575435D01*
X122802077Y-120576215D01*
X122636665Y-120594852D01*
X122636662Y-120594852D01*
X122629745Y-120595632D01*
X122623182Y-120597928D01*
X122623175Y-120597930D01*
X122466043Y-120652913D01*
X122466036Y-120652915D01*
X122459478Y-120655211D01*
X122453590Y-120658910D01*
X122453587Y-120658912D01*
X122312638Y-120747476D01*
X122312633Y-120747479D01*
X122306738Y-120751184D01*
X122301813Y-120756108D01*
X122301809Y-120756112D01*
X122184112Y-120873809D01*
X122184108Y-120873813D01*
X122179184Y-120878738D01*
X122175479Y-120884633D01*
X122175476Y-120884638D01*
X122086912Y-121025587D01*
X122086910Y-121025590D01*
X122083211Y-121031478D01*
X122080915Y-121038036D01*
X122080913Y-121038043D01*
X122025930Y-121195175D01*
X122025928Y-121195182D01*
X122023632Y-121201745D01*
X122003435Y-121381000D01*
X120401183Y-121381000D01*
X120491522Y-121349389D01*
X120644262Y-121253416D01*
X120771816Y-121125862D01*
X120867789Y-120973122D01*
X120927368Y-120802855D01*
X120947565Y-120623600D01*
X120927368Y-120444345D01*
X120867789Y-120274078D01*
X120771816Y-120121338D01*
X120644262Y-119993784D01*
X120491522Y-119897811D01*
X120484959Y-119895514D01*
X120484956Y-119895513D01*
X120327824Y-119840530D01*
X120327819Y-119840528D01*
X120321255Y-119838232D01*
X120314335Y-119837452D01*
X120314334Y-119837452D01*
X120148923Y-119818815D01*
X120142000Y-119818035D01*
X120135077Y-119818815D01*
X119969665Y-119837452D01*
X119969662Y-119837452D01*
X119962745Y-119838232D01*
X119956182Y-119840528D01*
X119956175Y-119840530D01*
X119799043Y-119895513D01*
X119799036Y-119895515D01*
X119792478Y-119897811D01*
X119786590Y-119901510D01*
X119786587Y-119901512D01*
X119645638Y-119990076D01*
X119645633Y-119990079D01*
X119639738Y-119993784D01*
X119634813Y-119998708D01*
X119634809Y-119998712D01*
X119517112Y-120116409D01*
X119517108Y-120116413D01*
X119512184Y-120121338D01*
X119508479Y-120127233D01*
X119508476Y-120127238D01*
X119419912Y-120268187D01*
X119419910Y-120268190D01*
X119416211Y-120274078D01*
X119413915Y-120280636D01*
X119413913Y-120280643D01*
X119358930Y-120437775D01*
X119358928Y-120437782D01*
X119356632Y-120444345D01*
X119355852Y-120451262D01*
X119355852Y-120451265D01*
X119341862Y-120575435D01*
X119336435Y-120623600D01*
X100632500Y-120623600D01*
X100632500Y-119577524D01*
X137599035Y-119577524D01*
X137619232Y-119756779D01*
X137621528Y-119763343D01*
X137621530Y-119763348D01*
X137667777Y-119895513D01*
X137678811Y-119927046D01*
X137774784Y-120079786D01*
X137902338Y-120207340D01*
X138055078Y-120303313D01*
X138225345Y-120362892D01*
X138404600Y-120383089D01*
X138583855Y-120362892D01*
X138754122Y-120303313D01*
X138906862Y-120207340D01*
X139034416Y-120079786D01*
X139130389Y-119927046D01*
X139189968Y-119756779D01*
X139210165Y-119577524D01*
X139189968Y-119398269D01*
X139130389Y-119228002D01*
X139034416Y-119075262D01*
X138906862Y-118947708D01*
X138754122Y-118851735D01*
X138747559Y-118849438D01*
X138747556Y-118849437D01*
X138590424Y-118794454D01*
X138590419Y-118794452D01*
X138583855Y-118792156D01*
X138576935Y-118791376D01*
X138576934Y-118791376D01*
X138411523Y-118772739D01*
X138404600Y-118771959D01*
X138397677Y-118772739D01*
X138232265Y-118791376D01*
X138232262Y-118791376D01*
X138225345Y-118792156D01*
X138218782Y-118794452D01*
X138218775Y-118794454D01*
X138061643Y-118849437D01*
X138061636Y-118849439D01*
X138055078Y-118851735D01*
X138049190Y-118855434D01*
X138049187Y-118855436D01*
X137908238Y-118944000D01*
X137908233Y-118944003D01*
X137902338Y-118947708D01*
X137897413Y-118952632D01*
X137897409Y-118952636D01*
X137779712Y-119070333D01*
X137779708Y-119070337D01*
X137774784Y-119075262D01*
X137771079Y-119081157D01*
X137771076Y-119081162D01*
X137682512Y-119222111D01*
X137682510Y-119222114D01*
X137678811Y-119228002D01*
X137676515Y-119234560D01*
X137676513Y-119234567D01*
X137621530Y-119391699D01*
X137621528Y-119391706D01*
X137619232Y-119398269D01*
X137599035Y-119577524D01*
X100632500Y-119577524D01*
X100632500Y-118668800D01*
X125229235Y-118668800D01*
X125249432Y-118848055D01*
X125251728Y-118854619D01*
X125251730Y-118854624D01*
X125284302Y-118947708D01*
X125309011Y-119018322D01*
X125404984Y-119171062D01*
X125532538Y-119298616D01*
X125685278Y-119394589D01*
X125855545Y-119454168D01*
X126034800Y-119474365D01*
X126214055Y-119454168D01*
X126384322Y-119394589D01*
X126537062Y-119298616D01*
X126664616Y-119171062D01*
X126760589Y-119018322D01*
X126820168Y-118848055D01*
X126840365Y-118668800D01*
X126820168Y-118489545D01*
X126760589Y-118319278D01*
X126664616Y-118166538D01*
X126537062Y-118038984D01*
X126384322Y-117943011D01*
X126377759Y-117940714D01*
X126377756Y-117940713D01*
X126220624Y-117885730D01*
X126220619Y-117885728D01*
X126214055Y-117883432D01*
X126207135Y-117882652D01*
X126207134Y-117882652D01*
X126041723Y-117864015D01*
X126034800Y-117863235D01*
X126027877Y-117864015D01*
X125862465Y-117882652D01*
X125862462Y-117882652D01*
X125855545Y-117883432D01*
X125848982Y-117885728D01*
X125848975Y-117885730D01*
X125691843Y-117940713D01*
X125691836Y-117940715D01*
X125685278Y-117943011D01*
X125679390Y-117946710D01*
X125679387Y-117946712D01*
X125538438Y-118035276D01*
X125538433Y-118035279D01*
X125532538Y-118038984D01*
X125527613Y-118043908D01*
X125527609Y-118043912D01*
X125409912Y-118161609D01*
X125409908Y-118161613D01*
X125404984Y-118166538D01*
X125401279Y-118172433D01*
X125401276Y-118172438D01*
X125312712Y-118313387D01*
X125312710Y-118313390D01*
X125309011Y-118319278D01*
X125306715Y-118325836D01*
X125306713Y-118325843D01*
X125251730Y-118482975D01*
X125251728Y-118482982D01*
X125249432Y-118489545D01*
X125229235Y-118668800D01*
X100632500Y-118668800D01*
X100632500Y-116128800D01*
X104121835Y-116128800D01*
X104122615Y-116135723D01*
X104141104Y-116299824D01*
X104142032Y-116308055D01*
X104144328Y-116314619D01*
X104144330Y-116314624D01*
X104195076Y-116459647D01*
X104201611Y-116478322D01*
X104205312Y-116484212D01*
X104288284Y-116616262D01*
X104297584Y-116631062D01*
X104425138Y-116758616D01*
X104577878Y-116854589D01*
X104748145Y-116914168D01*
X104927400Y-116934365D01*
X104965431Y-116930079D01*
X104979314Y-116929300D01*
X114050670Y-116929300D01*
X114054154Y-116929300D01*
X114178585Y-116915279D01*
X114192469Y-116914500D01*
X121131486Y-116914500D01*
X121145368Y-116915279D01*
X121183400Y-116919565D01*
X121231301Y-116914168D01*
X121362655Y-116899368D01*
X121532922Y-116839789D01*
X121685662Y-116743816D01*
X121813216Y-116616262D01*
X121909189Y-116463522D01*
X121946323Y-116357400D01*
X126219835Y-116357400D01*
X126220615Y-116364323D01*
X126233459Y-116478322D01*
X126240032Y-116536655D01*
X126242328Y-116543219D01*
X126242330Y-116543224D01*
X126297313Y-116700356D01*
X126299611Y-116706922D01*
X126395584Y-116859662D01*
X126523138Y-116987216D01*
X126675878Y-117083189D01*
X126846145Y-117142768D01*
X127025400Y-117162965D01*
X127204655Y-117142768D01*
X127374922Y-117083189D01*
X127527662Y-116987216D01*
X127655216Y-116859662D01*
X127751189Y-116706922D01*
X127810768Y-116536655D01*
X127830965Y-116357400D01*
X127810768Y-116178145D01*
X127793501Y-116128800D01*
X129267835Y-116128800D01*
X129268615Y-116135723D01*
X129287104Y-116299824D01*
X129288032Y-116308055D01*
X129290328Y-116314619D01*
X129290330Y-116314624D01*
X129341076Y-116459647D01*
X129347611Y-116478322D01*
X129351312Y-116484212D01*
X129434284Y-116616262D01*
X129443584Y-116631062D01*
X129571138Y-116758616D01*
X129723878Y-116854589D01*
X129894145Y-116914168D01*
X130073400Y-116934365D01*
X130252655Y-116914168D01*
X130422922Y-116854589D01*
X130575662Y-116758616D01*
X130703216Y-116631062D01*
X130799189Y-116478322D01*
X130858768Y-116308055D01*
X130865757Y-116246021D01*
X139728456Y-116246021D01*
X139729236Y-116252944D01*
X139734911Y-116303316D01*
X139748653Y-116425276D01*
X139750949Y-116431840D01*
X139750951Y-116431845D01*
X139805934Y-116588977D01*
X139808232Y-116595543D01*
X139904205Y-116748283D01*
X140031759Y-116875837D01*
X140184499Y-116971810D01*
X140354766Y-117031389D01*
X140534021Y-117051586D01*
X140713276Y-117031389D01*
X140883543Y-116971810D01*
X141036283Y-116875837D01*
X141163837Y-116748283D01*
X141259810Y-116595543D01*
X141319389Y-116425276D01*
X141339586Y-116246021D01*
X141319389Y-116066766D01*
X141259810Y-115896499D01*
X141163837Y-115743759D01*
X141093578Y-115673500D01*
X142704435Y-115673500D01*
X142724632Y-115852755D01*
X142726928Y-115859319D01*
X142726930Y-115859324D01*
X142781209Y-116014443D01*
X142784211Y-116023022D01*
X142880184Y-116175762D01*
X143007738Y-116303316D01*
X143160478Y-116399289D01*
X143330745Y-116458868D01*
X143510000Y-116479065D01*
X143689255Y-116458868D01*
X143859522Y-116399289D01*
X144012262Y-116303316D01*
X144139816Y-116175762D01*
X144235789Y-116023022D01*
X144295368Y-115852755D01*
X144315565Y-115673500D01*
X145498435Y-115673500D01*
X145518632Y-115852755D01*
X145520928Y-115859319D01*
X145520930Y-115859324D01*
X145575209Y-116014443D01*
X145578211Y-116023022D01*
X145674184Y-116175762D01*
X145801738Y-116303316D01*
X145954478Y-116399289D01*
X146124745Y-116458868D01*
X146304000Y-116479065D01*
X146483255Y-116458868D01*
X146653522Y-116399289D01*
X146806262Y-116303316D01*
X146933816Y-116175762D01*
X147029789Y-116023022D01*
X147089368Y-115852755D01*
X147109565Y-115673500D01*
X147089368Y-115494245D01*
X147029789Y-115323978D01*
X146933816Y-115171238D01*
X146806262Y-115043684D01*
X146653522Y-114947711D01*
X146646959Y-114945414D01*
X146646956Y-114945413D01*
X146489824Y-114890430D01*
X146489819Y-114890428D01*
X146483255Y-114888132D01*
X146476335Y-114887352D01*
X146476334Y-114887352D01*
X146310923Y-114868715D01*
X146304000Y-114867935D01*
X146297077Y-114868715D01*
X146131665Y-114887352D01*
X146131662Y-114887352D01*
X146124745Y-114888132D01*
X146118182Y-114890428D01*
X146118175Y-114890430D01*
X145961043Y-114945413D01*
X145961036Y-114945415D01*
X145954478Y-114947711D01*
X145948590Y-114951410D01*
X145948587Y-114951412D01*
X145807638Y-115039976D01*
X145807633Y-115039979D01*
X145801738Y-115043684D01*
X145796813Y-115048608D01*
X145796809Y-115048612D01*
X145679112Y-115166309D01*
X145679108Y-115166313D01*
X145674184Y-115171238D01*
X145670479Y-115177133D01*
X145670476Y-115177138D01*
X145581912Y-115318087D01*
X145581910Y-115318090D01*
X145578211Y-115323978D01*
X145575915Y-115330536D01*
X145575913Y-115330543D01*
X145520930Y-115487675D01*
X145520928Y-115487682D01*
X145518632Y-115494245D01*
X145517852Y-115501162D01*
X145517852Y-115501165D01*
X145502738Y-115635312D01*
X145498435Y-115673500D01*
X144315565Y-115673500D01*
X144295368Y-115494245D01*
X144235789Y-115323978D01*
X144139816Y-115171238D01*
X144012262Y-115043684D01*
X143859522Y-114947711D01*
X143852959Y-114945414D01*
X143852956Y-114945413D01*
X143695824Y-114890430D01*
X143695819Y-114890428D01*
X143689255Y-114888132D01*
X143682335Y-114887352D01*
X143682334Y-114887352D01*
X143516923Y-114868715D01*
X143510000Y-114867935D01*
X143503077Y-114868715D01*
X143337665Y-114887352D01*
X143337662Y-114887352D01*
X143330745Y-114888132D01*
X143324182Y-114890428D01*
X143324175Y-114890430D01*
X143167043Y-114945413D01*
X143167036Y-114945415D01*
X143160478Y-114947711D01*
X143154590Y-114951410D01*
X143154587Y-114951412D01*
X143013638Y-115039976D01*
X143013633Y-115039979D01*
X143007738Y-115043684D01*
X143002813Y-115048608D01*
X143002809Y-115048612D01*
X142885112Y-115166309D01*
X142885108Y-115166313D01*
X142880184Y-115171238D01*
X142876479Y-115177133D01*
X142876476Y-115177138D01*
X142787912Y-115318087D01*
X142787910Y-115318090D01*
X142784211Y-115323978D01*
X142781915Y-115330536D01*
X142781913Y-115330543D01*
X142726930Y-115487675D01*
X142726928Y-115487682D01*
X142724632Y-115494245D01*
X142723852Y-115501162D01*
X142723852Y-115501165D01*
X142708738Y-115635312D01*
X142704435Y-115673500D01*
X141093578Y-115673500D01*
X141036283Y-115616205D01*
X140883543Y-115520232D01*
X140876980Y-115517935D01*
X140876977Y-115517934D01*
X140719845Y-115462951D01*
X140719840Y-115462949D01*
X140713276Y-115460653D01*
X140706356Y-115459873D01*
X140706355Y-115459873D01*
X140540944Y-115441236D01*
X140534021Y-115440456D01*
X140527098Y-115441236D01*
X140361686Y-115459873D01*
X140361683Y-115459873D01*
X140354766Y-115460653D01*
X140348203Y-115462949D01*
X140348196Y-115462951D01*
X140191064Y-115517934D01*
X140191057Y-115517936D01*
X140184499Y-115520232D01*
X140178611Y-115523931D01*
X140178608Y-115523933D01*
X140037659Y-115612497D01*
X140037654Y-115612500D01*
X140031759Y-115616205D01*
X140026834Y-115621129D01*
X140026830Y-115621133D01*
X139909133Y-115738830D01*
X139909129Y-115738834D01*
X139904205Y-115743759D01*
X139900500Y-115749654D01*
X139900497Y-115749659D01*
X139811933Y-115890608D01*
X139811931Y-115890611D01*
X139808232Y-115896499D01*
X139805936Y-115903057D01*
X139805934Y-115903064D01*
X139750951Y-116060196D01*
X139750949Y-116060203D01*
X139748653Y-116066766D01*
X139747873Y-116073683D01*
X139747873Y-116073686D01*
X139740883Y-116135723D01*
X139728456Y-116246021D01*
X130865757Y-116246021D01*
X130878965Y-116128800D01*
X130878077Y-116120923D01*
X130872232Y-116069046D01*
X130858768Y-115949545D01*
X130799189Y-115779278D01*
X130703216Y-115626538D01*
X130575662Y-115498984D01*
X130422922Y-115403011D01*
X130416359Y-115400714D01*
X130416356Y-115400713D01*
X130259224Y-115345730D01*
X130259219Y-115345728D01*
X130252655Y-115343432D01*
X130245735Y-115342652D01*
X130245734Y-115342652D01*
X130080323Y-115324015D01*
X130073400Y-115323235D01*
X130066477Y-115324015D01*
X129901065Y-115342652D01*
X129901062Y-115342652D01*
X129894145Y-115343432D01*
X129887582Y-115345728D01*
X129887575Y-115345730D01*
X129730443Y-115400713D01*
X129730436Y-115400715D01*
X129723878Y-115403011D01*
X129717990Y-115406710D01*
X129717987Y-115406712D01*
X129577038Y-115495276D01*
X129577033Y-115495279D01*
X129571138Y-115498984D01*
X129566213Y-115503908D01*
X129566209Y-115503912D01*
X129448512Y-115621609D01*
X129448508Y-115621613D01*
X129443584Y-115626538D01*
X129439879Y-115632433D01*
X129439876Y-115632438D01*
X129351312Y-115773387D01*
X129351310Y-115773390D01*
X129347611Y-115779278D01*
X129345315Y-115785836D01*
X129345313Y-115785843D01*
X129290330Y-115942975D01*
X129290328Y-115942982D01*
X129288032Y-115949545D01*
X129287252Y-115956462D01*
X129287252Y-115956465D01*
X129268615Y-116121877D01*
X129267835Y-116128800D01*
X127793501Y-116128800D01*
X127751189Y-116007878D01*
X127655216Y-115855138D01*
X127527662Y-115727584D01*
X127374922Y-115631611D01*
X127368359Y-115629314D01*
X127368356Y-115629313D01*
X127211224Y-115574330D01*
X127211219Y-115574328D01*
X127204655Y-115572032D01*
X127197735Y-115571252D01*
X127197734Y-115571252D01*
X127032323Y-115552615D01*
X127025400Y-115551835D01*
X127018477Y-115552615D01*
X126853065Y-115571252D01*
X126853062Y-115571252D01*
X126846145Y-115572032D01*
X126839582Y-115574328D01*
X126839575Y-115574330D01*
X126682443Y-115629313D01*
X126682436Y-115629315D01*
X126675878Y-115631611D01*
X126669990Y-115635310D01*
X126669987Y-115635312D01*
X126529038Y-115723876D01*
X126529033Y-115723879D01*
X126523138Y-115727584D01*
X126518213Y-115732508D01*
X126518209Y-115732512D01*
X126400512Y-115850209D01*
X126400508Y-115850213D01*
X126395584Y-115855138D01*
X126391879Y-115861033D01*
X126391876Y-115861038D01*
X126303312Y-116001987D01*
X126303310Y-116001990D01*
X126299611Y-116007878D01*
X126297315Y-116014436D01*
X126297313Y-116014443D01*
X126242330Y-116171575D01*
X126242328Y-116171582D01*
X126240032Y-116178145D01*
X126239252Y-116185062D01*
X126239252Y-116185065D01*
X126225929Y-116303316D01*
X126219835Y-116357400D01*
X121946323Y-116357400D01*
X121968768Y-116293255D01*
X121987567Y-116126407D01*
X121988185Y-116120923D01*
X121988965Y-116114000D01*
X121984679Y-116075968D01*
X121983900Y-116062086D01*
X121983900Y-115371187D01*
X122002906Y-115305215D01*
X122054098Y-115259467D01*
X122121783Y-115247967D01*
X122185213Y-115274240D01*
X122224941Y-115330232D01*
X122233309Y-115354148D01*
X122233313Y-115354156D01*
X122235611Y-115360722D01*
X122331584Y-115513462D01*
X122459138Y-115641016D01*
X122611878Y-115736989D01*
X122782145Y-115796568D01*
X122961400Y-115816765D01*
X123140655Y-115796568D01*
X123310922Y-115736989D01*
X123463662Y-115641016D01*
X123591216Y-115513462D01*
X123687189Y-115360722D01*
X123746768Y-115190455D01*
X123766965Y-115011200D01*
X123746768Y-114831945D01*
X123687189Y-114661678D01*
X123591216Y-114508938D01*
X123463662Y-114381384D01*
X123310922Y-114285411D01*
X123304359Y-114283114D01*
X123304356Y-114283113D01*
X123147224Y-114228130D01*
X123147219Y-114228128D01*
X123140655Y-114225832D01*
X123133735Y-114225052D01*
X123133734Y-114225052D01*
X122968323Y-114206415D01*
X122961400Y-114205635D01*
X122954477Y-114206415D01*
X122789065Y-114225052D01*
X122789062Y-114225052D01*
X122782145Y-114225832D01*
X122775582Y-114228128D01*
X122775575Y-114228130D01*
X122618443Y-114283113D01*
X122618436Y-114283115D01*
X122611878Y-114285411D01*
X122605990Y-114289110D01*
X122605987Y-114289112D01*
X122465038Y-114377676D01*
X122465033Y-114377679D01*
X122459138Y-114381384D01*
X122454213Y-114386308D01*
X122454209Y-114386312D01*
X122336512Y-114504009D01*
X122336508Y-114504013D01*
X122331584Y-114508938D01*
X122327879Y-114514833D01*
X122327876Y-114514838D01*
X122239312Y-114655787D01*
X122239310Y-114655790D01*
X122235611Y-114661678D01*
X122233316Y-114668235D01*
X122233309Y-114668251D01*
X122224941Y-114692168D01*
X122185213Y-114748160D01*
X122121783Y-114774433D01*
X122054098Y-114762933D01*
X122002906Y-114717185D01*
X121983900Y-114651213D01*
X121983900Y-113761000D01*
X127235835Y-113761000D01*
X127256032Y-113940255D01*
X127258328Y-113946819D01*
X127258330Y-113946824D01*
X127279682Y-114007843D01*
X127315611Y-114110522D01*
X127319312Y-114116412D01*
X127375374Y-114205635D01*
X127411584Y-114263262D01*
X127539138Y-114390816D01*
X127691878Y-114486789D01*
X127862145Y-114546368D01*
X128041400Y-114566565D01*
X128220655Y-114546368D01*
X128390922Y-114486789D01*
X128543662Y-114390816D01*
X128671216Y-114263262D01*
X128767189Y-114110522D01*
X128826768Y-113940255D01*
X128846965Y-113761000D01*
X128826768Y-113581745D01*
X128767189Y-113411478D01*
X128671216Y-113258738D01*
X128543662Y-113131184D01*
X128528229Y-113121487D01*
X128396812Y-113038912D01*
X128390922Y-113035211D01*
X128384359Y-113032914D01*
X128384356Y-113032913D01*
X128227224Y-112977930D01*
X128227219Y-112977928D01*
X128220655Y-112975632D01*
X128213735Y-112974852D01*
X128213734Y-112974852D01*
X128048323Y-112956215D01*
X128041400Y-112955435D01*
X128034477Y-112956215D01*
X127869065Y-112974852D01*
X127869062Y-112974852D01*
X127862145Y-112975632D01*
X127855582Y-112977928D01*
X127855575Y-112977930D01*
X127698443Y-113032913D01*
X127698436Y-113032915D01*
X127691878Y-113035211D01*
X127685990Y-113038910D01*
X127685987Y-113038912D01*
X127545038Y-113127476D01*
X127545033Y-113127479D01*
X127539138Y-113131184D01*
X127534213Y-113136108D01*
X127534209Y-113136112D01*
X127416512Y-113253809D01*
X127416508Y-113253813D01*
X127411584Y-113258738D01*
X127407879Y-113264633D01*
X127407876Y-113264638D01*
X127319312Y-113405587D01*
X127319310Y-113405590D01*
X127315611Y-113411478D01*
X127313315Y-113418036D01*
X127313313Y-113418043D01*
X127258330Y-113575175D01*
X127258328Y-113575182D01*
X127256032Y-113581745D01*
X127235835Y-113761000D01*
X121983900Y-113761000D01*
X121983900Y-112496600D01*
X124289435Y-112496600D01*
X124309632Y-112675855D01*
X124311928Y-112682419D01*
X124311930Y-112682424D01*
X124366913Y-112839556D01*
X124369211Y-112846122D01*
X124372912Y-112852012D01*
X124452031Y-112977930D01*
X124465184Y-112998862D01*
X124592738Y-113126416D01*
X124745478Y-113222389D01*
X124915745Y-113281968D01*
X125095000Y-113302165D01*
X125274255Y-113281968D01*
X125444522Y-113222389D01*
X125597262Y-113126416D01*
X125724816Y-112998862D01*
X125820789Y-112846122D01*
X125880368Y-112675855D01*
X125900565Y-112496600D01*
X125880368Y-112317345D01*
X125820789Y-112147078D01*
X125724816Y-111994338D01*
X125597262Y-111866784D01*
X125444522Y-111770811D01*
X125437959Y-111768514D01*
X125437956Y-111768513D01*
X125280824Y-111713530D01*
X125280819Y-111713528D01*
X125274255Y-111711232D01*
X125267335Y-111710452D01*
X125267334Y-111710452D01*
X125101923Y-111691815D01*
X125095000Y-111691035D01*
X125088077Y-111691815D01*
X124922665Y-111710452D01*
X124922662Y-111710452D01*
X124915745Y-111711232D01*
X124909182Y-111713528D01*
X124909175Y-111713530D01*
X124752043Y-111768513D01*
X124752036Y-111768515D01*
X124745478Y-111770811D01*
X124739590Y-111774510D01*
X124739587Y-111774512D01*
X124598638Y-111863076D01*
X124598633Y-111863079D01*
X124592738Y-111866784D01*
X124587813Y-111871708D01*
X124587809Y-111871712D01*
X124470112Y-111989409D01*
X124470108Y-111989413D01*
X124465184Y-111994338D01*
X124461479Y-112000233D01*
X124461476Y-112000238D01*
X124372912Y-112141187D01*
X124372910Y-112141190D01*
X124369211Y-112147078D01*
X124366915Y-112153636D01*
X124366913Y-112153643D01*
X124311930Y-112310775D01*
X124311928Y-112310782D01*
X124309632Y-112317345D01*
X124289435Y-112496600D01*
X121983900Y-112496600D01*
X121983900Y-109778800D01*
X124187835Y-109778800D01*
X124188615Y-109785723D01*
X124206145Y-109941312D01*
X124208032Y-109958055D01*
X124210328Y-109964619D01*
X124210330Y-109964624D01*
X124265313Y-110121756D01*
X124267611Y-110128322D01*
X124271312Y-110134212D01*
X124344436Y-110250589D01*
X124363584Y-110281062D01*
X124491138Y-110408616D01*
X124643878Y-110504589D01*
X124814145Y-110564168D01*
X124993400Y-110584365D01*
X125172655Y-110564168D01*
X125342922Y-110504589D01*
X125495662Y-110408616D01*
X125623216Y-110281062D01*
X125719189Y-110128322D01*
X125778768Y-109958055D01*
X125798965Y-109778800D01*
X125778768Y-109599545D01*
X125719189Y-109429278D01*
X125623216Y-109276538D01*
X125495662Y-109148984D01*
X125441901Y-109115204D01*
X125348812Y-109056712D01*
X125342922Y-109053011D01*
X125336359Y-109050714D01*
X125336356Y-109050713D01*
X125179224Y-108995730D01*
X125179219Y-108995728D01*
X125172655Y-108993432D01*
X125165735Y-108992652D01*
X125165734Y-108992652D01*
X125000323Y-108974015D01*
X124993400Y-108973235D01*
X124986477Y-108974015D01*
X124821065Y-108992652D01*
X124821062Y-108992652D01*
X124814145Y-108993432D01*
X124807582Y-108995728D01*
X124807575Y-108995730D01*
X124650443Y-109050713D01*
X124650436Y-109050715D01*
X124643878Y-109053011D01*
X124637990Y-109056710D01*
X124637987Y-109056712D01*
X124497038Y-109145276D01*
X124497033Y-109145279D01*
X124491138Y-109148984D01*
X124486213Y-109153908D01*
X124486209Y-109153912D01*
X124368512Y-109271609D01*
X124368508Y-109271613D01*
X124363584Y-109276538D01*
X124359879Y-109282433D01*
X124359876Y-109282438D01*
X124271312Y-109423387D01*
X124271310Y-109423390D01*
X124267611Y-109429278D01*
X124265315Y-109435836D01*
X124265313Y-109435843D01*
X124210330Y-109592975D01*
X124210328Y-109592982D01*
X124208032Y-109599545D01*
X124207252Y-109606462D01*
X124207252Y-109606465D01*
X124192332Y-109738887D01*
X124187835Y-109778800D01*
X121983900Y-109778800D01*
X121983900Y-108620500D01*
X122000513Y-108558500D01*
X122045900Y-108513113D01*
X122107900Y-108496500D01*
X128845472Y-108496500D01*
X128903414Y-108510870D01*
X128947926Y-108550650D01*
X128968693Y-108606619D01*
X128960899Y-108665805D01*
X128926353Y-108714491D01*
X128877964Y-108738916D01*
X128878145Y-108739432D01*
X128874226Y-108740803D01*
X128874223Y-108740804D01*
X128871582Y-108741728D01*
X128871575Y-108741730D01*
X128714443Y-108796713D01*
X128714436Y-108796715D01*
X128707878Y-108799011D01*
X128701990Y-108802710D01*
X128701987Y-108802712D01*
X128561038Y-108891276D01*
X128561033Y-108891279D01*
X128555138Y-108894984D01*
X128550213Y-108899908D01*
X128550209Y-108899912D01*
X128432512Y-109017609D01*
X128432508Y-109017613D01*
X128427584Y-109022538D01*
X128423879Y-109028433D01*
X128423876Y-109028438D01*
X128335312Y-109169387D01*
X128335310Y-109169390D01*
X128331611Y-109175278D01*
X128329315Y-109181836D01*
X128329313Y-109181843D01*
X128274330Y-109338975D01*
X128274328Y-109338982D01*
X128272032Y-109345545D01*
X128271252Y-109352460D01*
X128271252Y-109352464D01*
X128263755Y-109419004D01*
X128240305Y-109478754D01*
X128190122Y-109518774D01*
X128126652Y-109528340D01*
X128048323Y-109519515D01*
X128041400Y-109518735D01*
X128034477Y-109519515D01*
X127869065Y-109538152D01*
X127869062Y-109538152D01*
X127862145Y-109538932D01*
X127855582Y-109541228D01*
X127855575Y-109541230D01*
X127698443Y-109596213D01*
X127698436Y-109596215D01*
X127691878Y-109598511D01*
X127685990Y-109602210D01*
X127685987Y-109602212D01*
X127545038Y-109690776D01*
X127545033Y-109690779D01*
X127539138Y-109694484D01*
X127534213Y-109699408D01*
X127534209Y-109699412D01*
X127416512Y-109817109D01*
X127416508Y-109817113D01*
X127411584Y-109822038D01*
X127407879Y-109827933D01*
X127407876Y-109827938D01*
X127319312Y-109968887D01*
X127319310Y-109968890D01*
X127315611Y-109974778D01*
X127313315Y-109981336D01*
X127313313Y-109981343D01*
X127258330Y-110138475D01*
X127258328Y-110138482D01*
X127256032Y-110145045D01*
X127255252Y-110151962D01*
X127255252Y-110151965D01*
X127236615Y-110317377D01*
X127235835Y-110324300D01*
X127236615Y-110331223D01*
X127240867Y-110368961D01*
X127234689Y-110423799D01*
X127205328Y-110470525D01*
X127158602Y-110499885D01*
X127103764Y-110506064D01*
X127032323Y-110498015D01*
X127025400Y-110497235D01*
X127018477Y-110498015D01*
X126853065Y-110516652D01*
X126853062Y-110516652D01*
X126846145Y-110517432D01*
X126839582Y-110519728D01*
X126839575Y-110519730D01*
X126682443Y-110574713D01*
X126682436Y-110574715D01*
X126675878Y-110577011D01*
X126669990Y-110580710D01*
X126669987Y-110580712D01*
X126529038Y-110669276D01*
X126529033Y-110669279D01*
X126523138Y-110672984D01*
X126518213Y-110677908D01*
X126518209Y-110677912D01*
X126400512Y-110795609D01*
X126400508Y-110795613D01*
X126395584Y-110800538D01*
X126391879Y-110806433D01*
X126391876Y-110806438D01*
X126303312Y-110947387D01*
X126303310Y-110947390D01*
X126299611Y-110953278D01*
X126297315Y-110959836D01*
X126297313Y-110959843D01*
X126242330Y-111116975D01*
X126242328Y-111116982D01*
X126240032Y-111123545D01*
X126239252Y-111130462D01*
X126239252Y-111130465D01*
X126224867Y-111258141D01*
X126219835Y-111302800D01*
X126220615Y-111309723D01*
X126227517Y-111370985D01*
X126240032Y-111482055D01*
X126242328Y-111488619D01*
X126242330Y-111488624D01*
X126297313Y-111645756D01*
X126299611Y-111652322D01*
X126395584Y-111805062D01*
X126523138Y-111932616D01*
X126675878Y-112028589D01*
X126846145Y-112088168D01*
X127025400Y-112108365D01*
X127204655Y-112088168D01*
X127374922Y-112028589D01*
X127527662Y-111932616D01*
X127655216Y-111805062D01*
X127751189Y-111652322D01*
X127810768Y-111482055D01*
X127830965Y-111302800D01*
X127825932Y-111258135D01*
X127832110Y-111203302D01*
X127861470Y-111156574D01*
X127908197Y-111127213D01*
X127963033Y-111121035D01*
X128041400Y-111129865D01*
X128220655Y-111109668D01*
X128390922Y-111050089D01*
X128543662Y-110954116D01*
X128671216Y-110826562D01*
X128767189Y-110673822D01*
X128804848Y-110566200D01*
X142679035Y-110566200D01*
X142679815Y-110573123D01*
X142691824Y-110679712D01*
X142699232Y-110745455D01*
X142701528Y-110752019D01*
X142701530Y-110752024D01*
X142733253Y-110842682D01*
X142758811Y-110915722D01*
X142854784Y-111068462D01*
X142982338Y-111196016D01*
X143135078Y-111291989D01*
X143305345Y-111351568D01*
X143484600Y-111371765D01*
X143663855Y-111351568D01*
X143834122Y-111291989D01*
X143986862Y-111196016D01*
X144114416Y-111068462D01*
X144210389Y-110915722D01*
X144269968Y-110745455D01*
X144290165Y-110566200D01*
X145498435Y-110566200D01*
X145499215Y-110573123D01*
X145511224Y-110679712D01*
X145518632Y-110745455D01*
X145520928Y-110752019D01*
X145520930Y-110752024D01*
X145552653Y-110842682D01*
X145578211Y-110915722D01*
X145674184Y-111068462D01*
X145801738Y-111196016D01*
X145954478Y-111291989D01*
X146124745Y-111351568D01*
X146304000Y-111371765D01*
X146483255Y-111351568D01*
X146653522Y-111291989D01*
X146806262Y-111196016D01*
X146933816Y-111068462D01*
X147019561Y-110932000D01*
X150578435Y-110932000D01*
X150579215Y-110938923D01*
X150593145Y-111062561D01*
X150598632Y-111111255D01*
X150600928Y-111117819D01*
X150600930Y-111117824D01*
X150655913Y-111274956D01*
X150658211Y-111281522D01*
X150754184Y-111434262D01*
X150881738Y-111561816D01*
X151034478Y-111657789D01*
X151204745Y-111717368D01*
X151384000Y-111737565D01*
X151563255Y-111717368D01*
X151733522Y-111657789D01*
X151886262Y-111561816D01*
X152013816Y-111434262D01*
X152109789Y-111281522D01*
X152169368Y-111111255D01*
X152189565Y-110932000D01*
X152169368Y-110752745D01*
X152109789Y-110582478D01*
X152013816Y-110429738D01*
X151886262Y-110302184D01*
X151860489Y-110285990D01*
X151739412Y-110209912D01*
X151733522Y-110206211D01*
X151726959Y-110203914D01*
X151726956Y-110203913D01*
X151569824Y-110148930D01*
X151569819Y-110148928D01*
X151563255Y-110146632D01*
X151556335Y-110145852D01*
X151556334Y-110145852D01*
X151390923Y-110127215D01*
X151384000Y-110126435D01*
X151377077Y-110127215D01*
X151211665Y-110145852D01*
X151211662Y-110145852D01*
X151204745Y-110146632D01*
X151198182Y-110148928D01*
X151198175Y-110148930D01*
X151041043Y-110203913D01*
X151041036Y-110203915D01*
X151034478Y-110206211D01*
X151028590Y-110209910D01*
X151028587Y-110209912D01*
X150887638Y-110298476D01*
X150887633Y-110298479D01*
X150881738Y-110302184D01*
X150876813Y-110307108D01*
X150876809Y-110307112D01*
X150759112Y-110424809D01*
X150759108Y-110424813D01*
X150754184Y-110429738D01*
X150750479Y-110435633D01*
X150750476Y-110435638D01*
X150661912Y-110576587D01*
X150661910Y-110576590D01*
X150658211Y-110582478D01*
X150655915Y-110589036D01*
X150655913Y-110589043D01*
X150600930Y-110746175D01*
X150600928Y-110746182D01*
X150598632Y-110752745D01*
X150597852Y-110759662D01*
X150597852Y-110759665D01*
X150582086Y-110899596D01*
X150578435Y-110932000D01*
X147019561Y-110932000D01*
X147029789Y-110915722D01*
X147089368Y-110745455D01*
X147109565Y-110566200D01*
X147089368Y-110386945D01*
X147029789Y-110216678D01*
X146933816Y-110063938D01*
X146806262Y-109936384D01*
X146653522Y-109840411D01*
X146646959Y-109838114D01*
X146646956Y-109838113D01*
X146489824Y-109783130D01*
X146489819Y-109783128D01*
X146483255Y-109780832D01*
X146476335Y-109780052D01*
X146476334Y-109780052D01*
X146310923Y-109761415D01*
X146304000Y-109760635D01*
X146297077Y-109761415D01*
X146131665Y-109780052D01*
X146131662Y-109780052D01*
X146124745Y-109780832D01*
X146118182Y-109783128D01*
X146118175Y-109783130D01*
X145961043Y-109838113D01*
X145961036Y-109838115D01*
X145954478Y-109840411D01*
X145948590Y-109844110D01*
X145948587Y-109844112D01*
X145807638Y-109932676D01*
X145807633Y-109932679D01*
X145801738Y-109936384D01*
X145796813Y-109941308D01*
X145796809Y-109941312D01*
X145679112Y-110059009D01*
X145679108Y-110059013D01*
X145674184Y-110063938D01*
X145670479Y-110069833D01*
X145670476Y-110069838D01*
X145581912Y-110210787D01*
X145581910Y-110210790D01*
X145578211Y-110216678D01*
X145575915Y-110223236D01*
X145575913Y-110223243D01*
X145520930Y-110380375D01*
X145520928Y-110380382D01*
X145518632Y-110386945D01*
X145517852Y-110393862D01*
X145517852Y-110393865D01*
X145505907Y-110499885D01*
X145498435Y-110566200D01*
X144290165Y-110566200D01*
X144269968Y-110386945D01*
X144210389Y-110216678D01*
X144114416Y-110063938D01*
X143986862Y-109936384D01*
X143834122Y-109840411D01*
X143827559Y-109838114D01*
X143827556Y-109838113D01*
X143670424Y-109783130D01*
X143670419Y-109783128D01*
X143663855Y-109780832D01*
X143656935Y-109780052D01*
X143656934Y-109780052D01*
X143491523Y-109761415D01*
X143484600Y-109760635D01*
X143477677Y-109761415D01*
X143312265Y-109780052D01*
X143312262Y-109780052D01*
X143305345Y-109780832D01*
X143298782Y-109783128D01*
X143298775Y-109783130D01*
X143141643Y-109838113D01*
X143141636Y-109838115D01*
X143135078Y-109840411D01*
X143129190Y-109844110D01*
X143129187Y-109844112D01*
X142988238Y-109932676D01*
X142988233Y-109932679D01*
X142982338Y-109936384D01*
X142977413Y-109941308D01*
X142977409Y-109941312D01*
X142859712Y-110059009D01*
X142859708Y-110059013D01*
X142854784Y-110063938D01*
X142851079Y-110069833D01*
X142851076Y-110069838D01*
X142762512Y-110210787D01*
X142762510Y-110210790D01*
X142758811Y-110216678D01*
X142756515Y-110223236D01*
X142756513Y-110223243D01*
X142701530Y-110380375D01*
X142701528Y-110380382D01*
X142699232Y-110386945D01*
X142698452Y-110393862D01*
X142698452Y-110393865D01*
X142686507Y-110499885D01*
X142679035Y-110566200D01*
X128804848Y-110566200D01*
X128826768Y-110503555D01*
X128835044Y-110430094D01*
X128858493Y-110370346D01*
X128908677Y-110330325D01*
X128972146Y-110320759D01*
X129057400Y-110330365D01*
X129236655Y-110310168D01*
X129406922Y-110250589D01*
X129559662Y-110154616D01*
X129687216Y-110027062D01*
X129783189Y-109874322D01*
X129842768Y-109704055D01*
X129846872Y-109667622D01*
X129870321Y-109607876D01*
X129920505Y-109567855D01*
X129983974Y-109558289D01*
X130073400Y-109568365D01*
X130252655Y-109548168D01*
X130422922Y-109488589D01*
X130575662Y-109392616D01*
X130703216Y-109265062D01*
X130799189Y-109112322D01*
X130858768Y-108942055D01*
X130878965Y-108762800D01*
X130864496Y-108634382D01*
X130875996Y-108566698D01*
X130921744Y-108515506D01*
X130987716Y-108496500D01*
X135263563Y-108496500D01*
X135329534Y-108515506D01*
X135375283Y-108566697D01*
X135386783Y-108634380D01*
X135383067Y-108667368D01*
X135383847Y-108674291D01*
X135397640Y-108796713D01*
X135403264Y-108846623D01*
X135405560Y-108853187D01*
X135405562Y-108853192D01*
X135460389Y-109009877D01*
X135462843Y-109016890D01*
X135558816Y-109169630D01*
X135686370Y-109297184D01*
X135839110Y-109393157D01*
X136009377Y-109452736D01*
X136188632Y-109472933D01*
X136367887Y-109452736D01*
X136538154Y-109393157D01*
X136690894Y-109297184D01*
X136818448Y-109169630D01*
X136914421Y-109016890D01*
X136974000Y-108846623D01*
X136994197Y-108667368D01*
X136990480Y-108634380D01*
X137001981Y-108566697D01*
X137047730Y-108515506D01*
X137113701Y-108496500D01*
X145269633Y-108496500D01*
X145276594Y-108496500D01*
X145313923Y-108487979D01*
X145327597Y-108485655D01*
X145365655Y-108481368D01*
X145401803Y-108468718D01*
X145415126Y-108464881D01*
X145452461Y-108456360D01*
X145486946Y-108439752D01*
X145499798Y-108434429D01*
X145505562Y-108432412D01*
X145535922Y-108421789D01*
X145568339Y-108401418D01*
X145580486Y-108394705D01*
X145614987Y-108378091D01*
X145644919Y-108354220D01*
X145656253Y-108346179D01*
X145660181Y-108343711D01*
X145688662Y-108325816D01*
X145816216Y-108198262D01*
X145816215Y-108198262D01*
X145841616Y-108172862D01*
X145861980Y-108140450D01*
X145870020Y-108129119D01*
X145893891Y-108099187D01*
X145910505Y-108064686D01*
X145917218Y-108052539D01*
X145937589Y-108020122D01*
X145950229Y-107983997D01*
X145955552Y-107971147D01*
X145960493Y-107960887D01*
X145972160Y-107936661D01*
X145980681Y-107899326D01*
X145984518Y-107886003D01*
X145997168Y-107849855D01*
X146001455Y-107811797D01*
X146003779Y-107798123D01*
X146012300Y-107760794D01*
X146012300Y-107580406D01*
X146012300Y-106891928D01*
X146026670Y-106833986D01*
X146066450Y-106789474D01*
X146122419Y-106768707D01*
X146181605Y-106776501D01*
X146230291Y-106811047D01*
X146254716Y-106859435D01*
X146255232Y-106859255D01*
X146257528Y-106865819D01*
X146257530Y-106865824D01*
X146312513Y-107022956D01*
X146314811Y-107029522D01*
X146410784Y-107182262D01*
X146538338Y-107309816D01*
X146691078Y-107405789D01*
X146861345Y-107465368D01*
X147040600Y-107485565D01*
X147219855Y-107465368D01*
X147390122Y-107405789D01*
X147542862Y-107309816D01*
X147670416Y-107182262D01*
X147766389Y-107029522D01*
X147825968Y-106859255D01*
X147846165Y-106680000D01*
X147825968Y-106500745D01*
X147766389Y-106330478D01*
X147670416Y-106177738D01*
X147542862Y-106050184D01*
X147516088Y-106033361D01*
X147396012Y-105957912D01*
X147390122Y-105954211D01*
X147383559Y-105951914D01*
X147383556Y-105951913D01*
X147226424Y-105896930D01*
X147226419Y-105896928D01*
X147219855Y-105894632D01*
X147212935Y-105893852D01*
X147212934Y-105893852D01*
X147047523Y-105875215D01*
X147040600Y-105874435D01*
X147033677Y-105875215D01*
X146868265Y-105893852D01*
X146868262Y-105893852D01*
X146861345Y-105894632D01*
X146854782Y-105896928D01*
X146854775Y-105896930D01*
X146697643Y-105951913D01*
X146697636Y-105951915D01*
X146691078Y-105954211D01*
X146685190Y-105957910D01*
X146685187Y-105957912D01*
X146544238Y-106046476D01*
X146544233Y-106046479D01*
X146538338Y-106050184D01*
X146533413Y-106055108D01*
X146533409Y-106055112D01*
X146415712Y-106172809D01*
X146415708Y-106172813D01*
X146410784Y-106177738D01*
X146407079Y-106183633D01*
X146407076Y-106183638D01*
X146318512Y-106324587D01*
X146318510Y-106324590D01*
X146314811Y-106330478D01*
X146312515Y-106337036D01*
X146312513Y-106337043D01*
X146257530Y-106494175D01*
X146257528Y-106494182D01*
X146256604Y-106496823D01*
X146256603Y-106496826D01*
X146255232Y-106500745D01*
X146254716Y-106500564D01*
X146230291Y-106548953D01*
X146181605Y-106583499D01*
X146122419Y-106591293D01*
X146066450Y-106570526D01*
X146026670Y-106526014D01*
X146012300Y-106468072D01*
X146012300Y-99146300D01*
X146028913Y-99084300D01*
X146074300Y-99038913D01*
X146136300Y-99022300D01*
X150727500Y-99022300D01*
X150789500Y-99038913D01*
X150834887Y-99084300D01*
X150851500Y-99146300D01*
X150851500Y-106628086D01*
X150850720Y-106641968D01*
X150846435Y-106680000D01*
X150847215Y-106686923D01*
X150851500Y-106724954D01*
X150854672Y-106753104D01*
X150854672Y-106753105D01*
X150862120Y-106819208D01*
X150862900Y-106833092D01*
X150862900Y-107414660D01*
X150853461Y-107462113D01*
X150826581Y-107502341D01*
X150759112Y-107569809D01*
X150759108Y-107569813D01*
X150754184Y-107574738D01*
X150750479Y-107580633D01*
X150750476Y-107580638D01*
X150661912Y-107721587D01*
X150661910Y-107721590D01*
X150658211Y-107727478D01*
X150655915Y-107734036D01*
X150655913Y-107734043D01*
X150600930Y-107891175D01*
X150600928Y-107891182D01*
X150598632Y-107897745D01*
X150597852Y-107904661D01*
X150597852Y-107904665D01*
X150594247Y-107936661D01*
X150589654Y-107977432D01*
X150578435Y-108077000D01*
X150579215Y-108083923D01*
X150582720Y-108115031D01*
X150583500Y-108128914D01*
X150583500Y-108964886D01*
X150582720Y-108978768D01*
X150578435Y-109016800D01*
X150583500Y-109061754D01*
X150598632Y-109196055D01*
X150600931Y-109202625D01*
X150653361Y-109352464D01*
X150658211Y-109366322D01*
X150665287Y-109377584D01*
X150735036Y-109488589D01*
X150754184Y-109519062D01*
X150881738Y-109646616D01*
X151034478Y-109742589D01*
X151204745Y-109802168D01*
X151384000Y-109822365D01*
X151563255Y-109802168D01*
X151733522Y-109742589D01*
X151886262Y-109646616D01*
X152013816Y-109519062D01*
X152109789Y-109366322D01*
X152169368Y-109196055D01*
X152183627Y-109069500D01*
X155150435Y-109069500D01*
X155151215Y-109076423D01*
X155169418Y-109237986D01*
X155170632Y-109248755D01*
X155172928Y-109255319D01*
X155172930Y-109255324D01*
X155219246Y-109387687D01*
X155230211Y-109419022D01*
X155233912Y-109424912D01*
X155305555Y-109538932D01*
X155326184Y-109571762D01*
X155453738Y-109699316D01*
X155606478Y-109795289D01*
X155776745Y-109854868D01*
X155956000Y-109875065D01*
X156135255Y-109854868D01*
X156305522Y-109795289D01*
X156458262Y-109699316D01*
X156585816Y-109571762D01*
X156681789Y-109419022D01*
X156741368Y-109248755D01*
X156761565Y-109069500D01*
X156741368Y-108890245D01*
X156681789Y-108719978D01*
X156585816Y-108567238D01*
X156458262Y-108439684D01*
X156305522Y-108343711D01*
X156298959Y-108341414D01*
X156298956Y-108341413D01*
X156141824Y-108286430D01*
X156141819Y-108286428D01*
X156135255Y-108284132D01*
X156128335Y-108283352D01*
X156128334Y-108283352D01*
X155962923Y-108264715D01*
X155956000Y-108263935D01*
X155949077Y-108264715D01*
X155783665Y-108283352D01*
X155783662Y-108283352D01*
X155776745Y-108284132D01*
X155770182Y-108286428D01*
X155770175Y-108286430D01*
X155613043Y-108341413D01*
X155613036Y-108341415D01*
X155606478Y-108343711D01*
X155600590Y-108347410D01*
X155600587Y-108347412D01*
X155459638Y-108435976D01*
X155459633Y-108435979D01*
X155453738Y-108439684D01*
X155448813Y-108444608D01*
X155448809Y-108444612D01*
X155331112Y-108562309D01*
X155331108Y-108562313D01*
X155326184Y-108567238D01*
X155322479Y-108573133D01*
X155322476Y-108573138D01*
X155233912Y-108714087D01*
X155233910Y-108714090D01*
X155230211Y-108719978D01*
X155227915Y-108726536D01*
X155227913Y-108726543D01*
X155172930Y-108883675D01*
X155172928Y-108883682D01*
X155170632Y-108890245D01*
X155169852Y-108897162D01*
X155169852Y-108897165D01*
X155152552Y-109050713D01*
X155150435Y-109069500D01*
X152183627Y-109069500D01*
X152184500Y-109061754D01*
X152189565Y-109016800D01*
X152185279Y-108978768D01*
X152184500Y-108964886D01*
X152184500Y-108739340D01*
X152193939Y-108691887D01*
X152220819Y-108651659D01*
X152251978Y-108620500D01*
X152293216Y-108579262D01*
X152389189Y-108426522D01*
X152448768Y-108256255D01*
X152463900Y-108121954D01*
X152468965Y-108077000D01*
X152467579Y-108064703D01*
X152464680Y-108038969D01*
X152463900Y-108025086D01*
X152463900Y-106649930D01*
X152463900Y-106646446D01*
X152453279Y-106552190D01*
X152452500Y-106538307D01*
X152452500Y-104114600D01*
X153956635Y-104114600D01*
X153957415Y-104121522D01*
X153957415Y-104121523D01*
X153975681Y-104283644D01*
X153976832Y-104293855D01*
X153979128Y-104300419D01*
X153979130Y-104300424D01*
X154033188Y-104454912D01*
X154036411Y-104464122D01*
X154132384Y-104616862D01*
X154259938Y-104744416D01*
X154412678Y-104840389D01*
X154568964Y-104895075D01*
X154625295Y-104935231D01*
X154651347Y-104999318D01*
X154639009Y-105067388D01*
X154580327Y-105185236D01*
X154580321Y-105185249D01*
X154577771Y-105190372D01*
X154576205Y-105195875D01*
X154576201Y-105195886D01*
X154530149Y-105357745D01*
X154516885Y-105404364D01*
X154516356Y-105410069D01*
X154516356Y-105410071D01*
X154505411Y-105528194D01*
X154496357Y-105625900D01*
X154496886Y-105631609D01*
X154512837Y-105803756D01*
X154516885Y-105847436D01*
X154518454Y-105852950D01*
X154576201Y-106055913D01*
X154576204Y-106055921D01*
X154577771Y-106061428D01*
X154580323Y-106066553D01*
X154580325Y-106066558D01*
X154674387Y-106255459D01*
X154674389Y-106255463D01*
X154676942Y-106260589D01*
X154680394Y-106265160D01*
X154712531Y-106307717D01*
X154735649Y-106360665D01*
X154732266Y-106418340D01*
X154703119Y-106468223D01*
X154654533Y-106499484D01*
X154622446Y-106510712D01*
X154622440Y-106510714D01*
X154615878Y-106513011D01*
X154609990Y-106516710D01*
X154609987Y-106516712D01*
X154469038Y-106605276D01*
X154469033Y-106605279D01*
X154463138Y-106608984D01*
X154458213Y-106613908D01*
X154458209Y-106613912D01*
X154340512Y-106731609D01*
X154340508Y-106731613D01*
X154335584Y-106736538D01*
X154331879Y-106742433D01*
X154331876Y-106742438D01*
X154243312Y-106883387D01*
X154243310Y-106883390D01*
X154239611Y-106889278D01*
X154237315Y-106895836D01*
X154237313Y-106895843D01*
X154182330Y-107052975D01*
X154182328Y-107052982D01*
X154180032Y-107059545D01*
X154179252Y-107066462D01*
X154179252Y-107066465D01*
X154164912Y-107193738D01*
X154159835Y-107238800D01*
X154160615Y-107245723D01*
X154171303Y-107340587D01*
X154180032Y-107418055D01*
X154182328Y-107424619D01*
X154182330Y-107424624D01*
X154236841Y-107580406D01*
X154239611Y-107588322D01*
X154243312Y-107594212D01*
X154327048Y-107727478D01*
X154335584Y-107741062D01*
X154463138Y-107868616D01*
X154615878Y-107964589D01*
X154786145Y-108024168D01*
X154965400Y-108044365D01*
X155144655Y-108024168D01*
X155314922Y-107964589D01*
X155467662Y-107868616D01*
X155595216Y-107741062D01*
X155691189Y-107588322D01*
X155750768Y-107418055D01*
X155770965Y-107238800D01*
X155750768Y-107059545D01*
X155748468Y-107052973D01*
X155748467Y-107052967D01*
X155725728Y-106987983D01*
X155719317Y-106935383D01*
X155735450Y-106884910D01*
X155771181Y-106845780D01*
X155819980Y-106825140D01*
X156031940Y-106785518D01*
X156239401Y-106705147D01*
X156428562Y-106588024D01*
X156592981Y-106438136D01*
X156727058Y-106260589D01*
X156826229Y-106061428D01*
X156887115Y-105847436D01*
X156903656Y-105668925D01*
X156929042Y-105604503D01*
X156985016Y-105563737D01*
X157054121Y-105559341D01*
X157114808Y-105592685D01*
X157231738Y-105709616D01*
X157384478Y-105805589D01*
X157554745Y-105865168D01*
X157734000Y-105885365D01*
X157913255Y-105865168D01*
X158083522Y-105805589D01*
X158236262Y-105709616D01*
X158363816Y-105582062D01*
X158459789Y-105429322D01*
X158519368Y-105259055D01*
X158539565Y-105079800D01*
X158519368Y-104900545D01*
X158459789Y-104730278D01*
X158363816Y-104577538D01*
X158236262Y-104449984D01*
X158176081Y-104412170D01*
X158089412Y-104357712D01*
X158083522Y-104354011D01*
X158076959Y-104351714D01*
X158076956Y-104351713D01*
X157919824Y-104296730D01*
X157919819Y-104296728D01*
X157913255Y-104294432D01*
X157906335Y-104293652D01*
X157906334Y-104293652D01*
X157740923Y-104275015D01*
X157734000Y-104274235D01*
X157727077Y-104275015D01*
X157561665Y-104293652D01*
X157561662Y-104293652D01*
X157554745Y-104294432D01*
X157548182Y-104296728D01*
X157548175Y-104296730D01*
X157391043Y-104351713D01*
X157391036Y-104351715D01*
X157384478Y-104354011D01*
X157378590Y-104357710D01*
X157378587Y-104357712D01*
X157237638Y-104446276D01*
X157237633Y-104446279D01*
X157231738Y-104449984D01*
X157226813Y-104454908D01*
X157226809Y-104454912D01*
X157109112Y-104572609D01*
X157109108Y-104572613D01*
X157104184Y-104577538D01*
X157100479Y-104583433D01*
X157100476Y-104583438D01*
X157011912Y-104724387D01*
X157011910Y-104724390D01*
X157008211Y-104730278D01*
X157005915Y-104736836D01*
X157005913Y-104736843D01*
X156950930Y-104893975D01*
X156950928Y-104893982D01*
X156948632Y-104900545D01*
X156947852Y-104907460D01*
X156947852Y-104907464D01*
X156945786Y-104925804D01*
X156925691Y-104980777D01*
X156882619Y-105020408D01*
X156826166Y-105035868D01*
X156768912Y-105023711D01*
X156723612Y-104986647D01*
X156596438Y-104818241D01*
X156596434Y-104818237D01*
X156592981Y-104813664D01*
X156588744Y-104809801D01*
X156588740Y-104809797D01*
X156459242Y-104691745D01*
X156428562Y-104663776D01*
X156423692Y-104660761D01*
X156423690Y-104660759D01*
X156289282Y-104577538D01*
X156239401Y-104546653D01*
X156031940Y-104466282D01*
X156026302Y-104465228D01*
X155818872Y-104426452D01*
X155818869Y-104426451D01*
X155813243Y-104425400D01*
X155671502Y-104425400D01*
X155605530Y-104406394D01*
X155559782Y-104355202D01*
X155548282Y-104287516D01*
X155549692Y-104275008D01*
X155567765Y-104114600D01*
X155547568Y-103935345D01*
X155487989Y-103765078D01*
X155392016Y-103612338D01*
X155264462Y-103484784D01*
X155111722Y-103388811D01*
X155105159Y-103386514D01*
X155105156Y-103386513D01*
X154948024Y-103331530D01*
X154948019Y-103331528D01*
X154941455Y-103329232D01*
X154934535Y-103328452D01*
X154934534Y-103328452D01*
X154769123Y-103309815D01*
X154762200Y-103309035D01*
X154755277Y-103309815D01*
X154589865Y-103328452D01*
X154589862Y-103328452D01*
X154582945Y-103329232D01*
X154576382Y-103331528D01*
X154576375Y-103331530D01*
X154419243Y-103386513D01*
X154419236Y-103386515D01*
X154412678Y-103388811D01*
X154406790Y-103392510D01*
X154406787Y-103392512D01*
X154265838Y-103481076D01*
X154265833Y-103481079D01*
X154259938Y-103484784D01*
X154255013Y-103489708D01*
X154255009Y-103489712D01*
X154137312Y-103607409D01*
X154137308Y-103607413D01*
X154132384Y-103612338D01*
X154128679Y-103618233D01*
X154128676Y-103618238D01*
X154040112Y-103759187D01*
X154040110Y-103759190D01*
X154036411Y-103765078D01*
X154034115Y-103771636D01*
X154034113Y-103771643D01*
X153979130Y-103928775D01*
X153979128Y-103928782D01*
X153976832Y-103935345D01*
X153976052Y-103942262D01*
X153976052Y-103942265D01*
X153962087Y-104066215D01*
X153956635Y-104114600D01*
X152452500Y-104114600D01*
X152452500Y-102768400D01*
X155633035Y-102768400D01*
X155653232Y-102947655D01*
X155655528Y-102954219D01*
X155655530Y-102954224D01*
X155709859Y-103109487D01*
X155712811Y-103117922D01*
X155716512Y-103123812D01*
X155745828Y-103170469D01*
X155808784Y-103270662D01*
X155936338Y-103398216D01*
X156089078Y-103494189D01*
X156259345Y-103553768D01*
X156438600Y-103573965D01*
X156617855Y-103553768D01*
X156788122Y-103494189D01*
X156940862Y-103398216D01*
X157068416Y-103270662D01*
X157164389Y-103117922D01*
X157223968Y-102947655D01*
X157244165Y-102768400D01*
X157223968Y-102589145D01*
X157164389Y-102418878D01*
X157068416Y-102266138D01*
X156940862Y-102138584D01*
X156788122Y-102042611D01*
X156781559Y-102040314D01*
X156781556Y-102040313D01*
X156624424Y-101985330D01*
X156624419Y-101985328D01*
X156617855Y-101983032D01*
X156610935Y-101982252D01*
X156610934Y-101982252D01*
X156445523Y-101963615D01*
X156438600Y-101962835D01*
X156431677Y-101963615D01*
X156266265Y-101982252D01*
X156266262Y-101982252D01*
X156259345Y-101983032D01*
X156252782Y-101985328D01*
X156252775Y-101985330D01*
X156095643Y-102040313D01*
X156095636Y-102040315D01*
X156089078Y-102042611D01*
X156083190Y-102046310D01*
X156083187Y-102046312D01*
X155942238Y-102134876D01*
X155942233Y-102134879D01*
X155936338Y-102138584D01*
X155931413Y-102143508D01*
X155931409Y-102143512D01*
X155813712Y-102261209D01*
X155813708Y-102261213D01*
X155808784Y-102266138D01*
X155805079Y-102272033D01*
X155805076Y-102272038D01*
X155716512Y-102412987D01*
X155716510Y-102412990D01*
X155712811Y-102418878D01*
X155710515Y-102425436D01*
X155710513Y-102425443D01*
X155655530Y-102582575D01*
X155655528Y-102582582D01*
X155653232Y-102589145D01*
X155652452Y-102596062D01*
X155652452Y-102596065D01*
X155637321Y-102730356D01*
X155633035Y-102768400D01*
X152452500Y-102768400D01*
X152452500Y-99146300D01*
X152469113Y-99084300D01*
X152514500Y-99038913D01*
X152576500Y-99022300D01*
X155265973Y-99022300D01*
X155325955Y-99037773D01*
X155370968Y-99080330D01*
X155389778Y-99139350D01*
X155377706Y-99200029D01*
X155374094Y-99205778D01*
X155371797Y-99212340D01*
X155371796Y-99212344D01*
X155316813Y-99369475D01*
X155316811Y-99369482D01*
X155314515Y-99376045D01*
X155294318Y-99555300D01*
X155314515Y-99734555D01*
X155316811Y-99741119D01*
X155316813Y-99741124D01*
X155358073Y-99859038D01*
X155374094Y-99904822D01*
X155470067Y-100057562D01*
X155597621Y-100185116D01*
X155750361Y-100281089D01*
X155920628Y-100340668D01*
X156099883Y-100360865D01*
X156279138Y-100340668D01*
X156449405Y-100281089D01*
X156602145Y-100185116D01*
X156729699Y-100057562D01*
X156825672Y-99904822D01*
X156885251Y-99734555D01*
X156905448Y-99555300D01*
X156885251Y-99376045D01*
X156825672Y-99205778D01*
X156822059Y-99200029D01*
X156809988Y-99139350D01*
X156828798Y-99080330D01*
X156873811Y-99037773D01*
X156933793Y-99022300D01*
X158020433Y-99022300D01*
X158027394Y-99022300D01*
X158064723Y-99013779D01*
X158078397Y-99011455D01*
X158116455Y-99007168D01*
X158152603Y-98994518D01*
X158165926Y-98990681D01*
X158203261Y-98982160D01*
X158237746Y-98965552D01*
X158250598Y-98960229D01*
X158286722Y-98947589D01*
X158319139Y-98927218D01*
X158331286Y-98920505D01*
X158365787Y-98903891D01*
X158395719Y-98880020D01*
X158407053Y-98871979D01*
X158439462Y-98851616D01*
X158567016Y-98724062D01*
X158592416Y-98698662D01*
X158612780Y-98666250D01*
X158620820Y-98654919D01*
X158644691Y-98624987D01*
X158661305Y-98590486D01*
X158668018Y-98578339D01*
X158688389Y-98545922D01*
X158701029Y-98509797D01*
X158706352Y-98496947D01*
X158706849Y-98495913D01*
X158722960Y-98462461D01*
X158731481Y-98425126D01*
X158735318Y-98411803D01*
X158747968Y-98375655D01*
X158752255Y-98337597D01*
X158754579Y-98323923D01*
X158763100Y-98286594D01*
X158763100Y-98248314D01*
X158763880Y-98234431D01*
X158767385Y-98203323D01*
X158768165Y-98196400D01*
X158763879Y-98158368D01*
X158763100Y-98144486D01*
X158763100Y-98113168D01*
X158763100Y-98106206D01*
X158754581Y-98068884D01*
X158752253Y-98055177D01*
X158747968Y-98017145D01*
X158745669Y-98010575D01*
X158745668Y-98010570D01*
X158735325Y-97981013D01*
X158731479Y-97967666D01*
X158722960Y-97930339D01*
X158706347Y-97895843D01*
X158701031Y-97883006D01*
X158690688Y-97853448D01*
X158690687Y-97853447D01*
X158688389Y-97846878D01*
X158668022Y-97814464D01*
X158661297Y-97802295D01*
X158647713Y-97774089D01*
X158644691Y-97767813D01*
X158620827Y-97737889D01*
X158612779Y-97726546D01*
X158596120Y-97700033D01*
X158596119Y-97700032D01*
X158592416Y-97694138D01*
X158565348Y-97667070D01*
X158556082Y-97656702D01*
X158536559Y-97632221D01*
X158532220Y-97626780D01*
X158502295Y-97602915D01*
X158491928Y-97593650D01*
X158469790Y-97571512D01*
X158464862Y-97566584D01*
X158458964Y-97562878D01*
X158458959Y-97562874D01*
X158432446Y-97546215D01*
X158421106Y-97538169D01*
X158396630Y-97518650D01*
X158396631Y-97518650D01*
X158391187Y-97514309D01*
X158384917Y-97511289D01*
X158384910Y-97511285D01*
X158356693Y-97497696D01*
X158344527Y-97490972D01*
X158318014Y-97474313D01*
X158318012Y-97474312D01*
X158312122Y-97470611D01*
X158275993Y-97457968D01*
X158263154Y-97452650D01*
X158234936Y-97439061D01*
X158234929Y-97439058D01*
X158228661Y-97436040D01*
X158221876Y-97434491D01*
X158221867Y-97434488D01*
X158191335Y-97427519D01*
X158177982Y-97423673D01*
X158141855Y-97411032D01*
X158134938Y-97410252D01*
X158134936Y-97410252D01*
X158103818Y-97406745D01*
X158090118Y-97404417D01*
X158059588Y-97397450D01*
X158059583Y-97397449D01*
X158052794Y-97395900D01*
X158045828Y-97395900D01*
X158014514Y-97395900D01*
X158000631Y-97395120D01*
X157969523Y-97391615D01*
X157962600Y-97390835D01*
X157955677Y-97391615D01*
X157924569Y-97395120D01*
X157910686Y-97395900D01*
X157872406Y-97395900D01*
X157865620Y-97397448D01*
X157865608Y-97397450D01*
X157835079Y-97404417D01*
X157821381Y-97406745D01*
X157790259Y-97410252D01*
X157790251Y-97410253D01*
X157783345Y-97411032D01*
X157776781Y-97413328D01*
X157776780Y-97413329D01*
X157776213Y-97413527D01*
X157773886Y-97414341D01*
X157732934Y-97421300D01*
X151702954Y-97421300D01*
X145263714Y-97421300D01*
X145249831Y-97420520D01*
X145218723Y-97417015D01*
X145211800Y-97416235D01*
X145204877Y-97417015D01*
X145166846Y-97421300D01*
X145039466Y-97435652D01*
X145039464Y-97435652D01*
X145032545Y-97436432D01*
X145025976Y-97438730D01*
X145025974Y-97438731D01*
X144868843Y-97493713D01*
X144868836Y-97493715D01*
X144862278Y-97496011D01*
X144856390Y-97499710D01*
X144856387Y-97499712D01*
X144715438Y-97588276D01*
X144715433Y-97588279D01*
X144709538Y-97591984D01*
X144704613Y-97596908D01*
X144704609Y-97596912D01*
X144586912Y-97714609D01*
X144586908Y-97714613D01*
X144581984Y-97719538D01*
X144578279Y-97725433D01*
X144578276Y-97725438D01*
X144489712Y-97866387D01*
X144489710Y-97866390D01*
X144486011Y-97872278D01*
X144483715Y-97878836D01*
X144483713Y-97878843D01*
X144428730Y-98035975D01*
X144428728Y-98035982D01*
X144426432Y-98042545D01*
X144425652Y-98049462D01*
X144425652Y-98049465D01*
X144424229Y-98062099D01*
X144406235Y-98221800D01*
X144407015Y-98228723D01*
X144410520Y-98259831D01*
X144411300Y-98273714D01*
X144411300Y-104995965D01*
X144395148Y-105057160D01*
X144350899Y-105102413D01*
X144290082Y-105119934D01*
X144228540Y-105105159D01*
X144182306Y-105061936D01*
X144168926Y-105040641D01*
X144168921Y-105040635D01*
X144165216Y-105034738D01*
X144037662Y-104907184D01*
X144028789Y-104901609D01*
X143924233Y-104835912D01*
X143884922Y-104811211D01*
X143878359Y-104808914D01*
X143878356Y-104808913D01*
X143721224Y-104753930D01*
X143721219Y-104753928D01*
X143714655Y-104751632D01*
X143707735Y-104750852D01*
X143707734Y-104750852D01*
X143542323Y-104732215D01*
X143535400Y-104731435D01*
X143528477Y-104732215D01*
X143363065Y-104750852D01*
X143363062Y-104750852D01*
X143356145Y-104751632D01*
X143349582Y-104753928D01*
X143349575Y-104753930D01*
X143192443Y-104808913D01*
X143192436Y-104808915D01*
X143185878Y-104811211D01*
X143179990Y-104814910D01*
X143179987Y-104814912D01*
X143039038Y-104903476D01*
X143039033Y-104903479D01*
X143033138Y-104907184D01*
X143028213Y-104912108D01*
X143028209Y-104912112D01*
X142910512Y-105029809D01*
X142910508Y-105029813D01*
X142905584Y-105034738D01*
X142901879Y-105040633D01*
X142901876Y-105040638D01*
X142813312Y-105181587D01*
X142813310Y-105181590D01*
X142809611Y-105187478D01*
X142807315Y-105194036D01*
X142807313Y-105194043D01*
X142752330Y-105351175D01*
X142752328Y-105351182D01*
X142750032Y-105357745D01*
X142749252Y-105364662D01*
X142749252Y-105364665D01*
X142734443Y-105496100D01*
X142729835Y-105537000D01*
X142730615Y-105543923D01*
X142748728Y-105704687D01*
X142750032Y-105716255D01*
X142752328Y-105722819D01*
X142752330Y-105722824D01*
X142807313Y-105879956D01*
X142809611Y-105886522D01*
X142813312Y-105892412D01*
X142861335Y-105968841D01*
X142905584Y-106039262D01*
X143033138Y-106166816D01*
X143185878Y-106262789D01*
X143356145Y-106322368D01*
X143535400Y-106342565D01*
X143714655Y-106322368D01*
X143884922Y-106262789D01*
X144037662Y-106166816D01*
X144165216Y-106039262D01*
X144179305Y-106016840D01*
X144182306Y-106012064D01*
X144228540Y-105968841D01*
X144290082Y-105954066D01*
X144350899Y-105971587D01*
X144395148Y-106016840D01*
X144411300Y-106078035D01*
X144411300Y-106771500D01*
X144394687Y-106833500D01*
X144349300Y-106878887D01*
X144287300Y-106895500D01*
X141246140Y-106895500D01*
X141189845Y-106881985D01*
X141145822Y-106844385D01*
X141123667Y-106790898D01*
X141128209Y-106733182D01*
X141158459Y-106683819D01*
X141169201Y-106673077D01*
X141218816Y-106623462D01*
X141314789Y-106470722D01*
X141374368Y-106300455D01*
X141394565Y-106121200D01*
X141393493Y-106111690D01*
X141390564Y-106085687D01*
X141374368Y-105941945D01*
X141314789Y-105771678D01*
X141218816Y-105618938D01*
X141183659Y-105583781D01*
X141151565Y-105528194D01*
X141151565Y-105464006D01*
X141183659Y-105408419D01*
X141193229Y-105398849D01*
X141218816Y-105373262D01*
X141314789Y-105220522D01*
X141374368Y-105050255D01*
X141394565Y-104871000D01*
X141374368Y-104691745D01*
X141314789Y-104521478D01*
X141218816Y-104368738D01*
X141091262Y-104241184D01*
X141079168Y-104233585D01*
X140944412Y-104148912D01*
X140938522Y-104145211D01*
X140931959Y-104142914D01*
X140931956Y-104142913D01*
X140774824Y-104087930D01*
X140774819Y-104087928D01*
X140768255Y-104085632D01*
X140761335Y-104084852D01*
X140761334Y-104084852D01*
X140595923Y-104066215D01*
X140589000Y-104065435D01*
X140582077Y-104066215D01*
X140416665Y-104084852D01*
X140416662Y-104084852D01*
X140409745Y-104085632D01*
X140403182Y-104087928D01*
X140403175Y-104087930D01*
X140246043Y-104142913D01*
X140246036Y-104142915D01*
X140239478Y-104145211D01*
X140233590Y-104148910D01*
X140233587Y-104148912D01*
X140092638Y-104237476D01*
X140092633Y-104237479D01*
X140086738Y-104241184D01*
X140081813Y-104246108D01*
X140081809Y-104246112D01*
X139964112Y-104363809D01*
X139964108Y-104363813D01*
X139959184Y-104368738D01*
X139955479Y-104374633D01*
X139955476Y-104374638D01*
X139866912Y-104515587D01*
X139866910Y-104515590D01*
X139863211Y-104521478D01*
X139860915Y-104528036D01*
X139860913Y-104528043D01*
X139805930Y-104685175D01*
X139805928Y-104685182D01*
X139803632Y-104691745D01*
X139802852Y-104698662D01*
X139802852Y-104698665D01*
X139789379Y-104818241D01*
X139783435Y-104871000D01*
X139784215Y-104877923D01*
X139801883Y-105034738D01*
X139803632Y-105050255D01*
X139805928Y-105056819D01*
X139805930Y-105056824D01*
X139854590Y-105195886D01*
X139863211Y-105220522D01*
X139959184Y-105373262D01*
X139964112Y-105378190D01*
X139994341Y-105408419D01*
X140026435Y-105464006D01*
X140026435Y-105528194D01*
X139994341Y-105583781D01*
X139964112Y-105614009D01*
X139964108Y-105614013D01*
X139959184Y-105618938D01*
X139955479Y-105624833D01*
X139955476Y-105624838D01*
X139866912Y-105765787D01*
X139866910Y-105765790D01*
X139863211Y-105771678D01*
X139860915Y-105778236D01*
X139860913Y-105778243D01*
X139805930Y-105935375D01*
X139805928Y-105935382D01*
X139803632Y-105941945D01*
X139802852Y-105948862D01*
X139802852Y-105948865D01*
X139784215Y-106114277D01*
X139783435Y-106121200D01*
X139784215Y-106128123D01*
X139790802Y-106186589D01*
X139803632Y-106300455D01*
X139805928Y-106307019D01*
X139805930Y-106307024D01*
X139853161Y-106442002D01*
X139863211Y-106470722D01*
X139866912Y-106476612D01*
X139934073Y-106583499D01*
X139959184Y-106623462D01*
X139964112Y-106628390D01*
X140019541Y-106683819D01*
X140049791Y-106733182D01*
X140054333Y-106790898D01*
X140032178Y-106844385D01*
X139988155Y-106881985D01*
X139931860Y-106895500D01*
X126936112Y-106895500D01*
X126870140Y-106876494D01*
X126824392Y-106825302D01*
X126812892Y-106757618D01*
X126813927Y-106748431D01*
X126813927Y-106748429D01*
X126814707Y-106741506D01*
X126794510Y-106562251D01*
X126792210Y-106555679D01*
X126792209Y-106555673D01*
X126742428Y-106413408D01*
X126737221Y-106351682D01*
X126762522Y-106295140D01*
X126812016Y-106257892D01*
X126873350Y-106249233D01*
X127025400Y-106266365D01*
X127204655Y-106246168D01*
X127374922Y-106186589D01*
X127527662Y-106090616D01*
X127655216Y-105963062D01*
X127751189Y-105810322D01*
X127810768Y-105640055D01*
X127830965Y-105460800D01*
X127810768Y-105281545D01*
X127751189Y-105111278D01*
X127655216Y-104958538D01*
X127527662Y-104830984D01*
X127500097Y-104813664D01*
X127389890Y-104744416D01*
X127374922Y-104735011D01*
X127368359Y-104732714D01*
X127368356Y-104732713D01*
X127211224Y-104677730D01*
X127211219Y-104677728D01*
X127204655Y-104675432D01*
X127197735Y-104674652D01*
X127197734Y-104674652D01*
X127032323Y-104656015D01*
X127025400Y-104655235D01*
X127018477Y-104656015D01*
X126853065Y-104674652D01*
X126853062Y-104674652D01*
X126846145Y-104675432D01*
X126839582Y-104677728D01*
X126839575Y-104677730D01*
X126682443Y-104732713D01*
X126682436Y-104732715D01*
X126675878Y-104735011D01*
X126669990Y-104738710D01*
X126669987Y-104738712D01*
X126529038Y-104827276D01*
X126529033Y-104827279D01*
X126523138Y-104830984D01*
X126518213Y-104835908D01*
X126518209Y-104835912D01*
X126400512Y-104953609D01*
X126400508Y-104953613D01*
X126395584Y-104958538D01*
X126391879Y-104964433D01*
X126391876Y-104964438D01*
X126303312Y-105105387D01*
X126303310Y-105105390D01*
X126299611Y-105111278D01*
X126297315Y-105117836D01*
X126297313Y-105117843D01*
X126242330Y-105274975D01*
X126242328Y-105274982D01*
X126240032Y-105281545D01*
X126239252Y-105288462D01*
X126239252Y-105288465D01*
X126231446Y-105357745D01*
X126219835Y-105460800D01*
X126220615Y-105467723D01*
X126233691Y-105583781D01*
X126240032Y-105640055D01*
X126242328Y-105646619D01*
X126242330Y-105646624D01*
X126292114Y-105788897D01*
X126297320Y-105850623D01*
X126272019Y-105907165D01*
X126222525Y-105944413D01*
X126161189Y-105953072D01*
X126016065Y-105936721D01*
X126009142Y-105935941D01*
X126002219Y-105936721D01*
X125836807Y-105955358D01*
X125836804Y-105955358D01*
X125829887Y-105956138D01*
X125823324Y-105958434D01*
X125823317Y-105958436D01*
X125666185Y-106013419D01*
X125666178Y-106013421D01*
X125659620Y-106015717D01*
X125653732Y-106019416D01*
X125653729Y-106019418D01*
X125512780Y-106107982D01*
X125512775Y-106107985D01*
X125506880Y-106111690D01*
X125501955Y-106116614D01*
X125501951Y-106116618D01*
X125384254Y-106234315D01*
X125384250Y-106234319D01*
X125379326Y-106239244D01*
X125375621Y-106245139D01*
X125375618Y-106245144D01*
X125287054Y-106386093D01*
X125287052Y-106386096D01*
X125283353Y-106391984D01*
X125281057Y-106398542D01*
X125281055Y-106398549D01*
X125226072Y-106555681D01*
X125226070Y-106555688D01*
X125223774Y-106562251D01*
X125222994Y-106569168D01*
X125222994Y-106569171D01*
X125205442Y-106724954D01*
X125203577Y-106741506D01*
X125204357Y-106748429D01*
X125204357Y-106748431D01*
X125205392Y-106757618D01*
X125193892Y-106825302D01*
X125148144Y-106876494D01*
X125082172Y-106895500D01*
X121235314Y-106895500D01*
X121221431Y-106894720D01*
X121190323Y-106891215D01*
X121183400Y-106890435D01*
X121176477Y-106891215D01*
X121138446Y-106895500D01*
X121040214Y-106906568D01*
X121011066Y-106909852D01*
X121011064Y-106909852D01*
X121004145Y-106910632D01*
X120997576Y-106912930D01*
X120997574Y-106912931D01*
X120840443Y-106967913D01*
X120840436Y-106967915D01*
X120833878Y-106970211D01*
X120827990Y-106973910D01*
X120827987Y-106973912D01*
X120687038Y-107062476D01*
X120687033Y-107062479D01*
X120681138Y-107066184D01*
X120676213Y-107071108D01*
X120676209Y-107071112D01*
X120558512Y-107188809D01*
X120558508Y-107188813D01*
X120553584Y-107193738D01*
X120549879Y-107199633D01*
X120549876Y-107199638D01*
X120461312Y-107340587D01*
X120461310Y-107340590D01*
X120457611Y-107346478D01*
X120455315Y-107353036D01*
X120455313Y-107353043D01*
X120400330Y-107510175D01*
X120400328Y-107510182D01*
X120398032Y-107516745D01*
X120397252Y-107523662D01*
X120397252Y-107523665D01*
X120378615Y-107689077D01*
X120377835Y-107696000D01*
X120378615Y-107702923D01*
X120382120Y-107734031D01*
X120382900Y-107747914D01*
X120382900Y-109115204D01*
X120369067Y-109172118D01*
X120330655Y-109216334D01*
X120276234Y-109237986D01*
X120217945Y-109232246D01*
X120195324Y-109224330D01*
X120195319Y-109224328D01*
X120188755Y-109222032D01*
X120181835Y-109221252D01*
X120181834Y-109221252D01*
X120016423Y-109202615D01*
X120009500Y-109201835D01*
X120002577Y-109202615D01*
X119837165Y-109221252D01*
X119837162Y-109221252D01*
X119830245Y-109222032D01*
X119823682Y-109224328D01*
X119823675Y-109224330D01*
X119666543Y-109279313D01*
X119666536Y-109279315D01*
X119659978Y-109281611D01*
X119654090Y-109285310D01*
X119654087Y-109285312D01*
X119513138Y-109373876D01*
X119513133Y-109373879D01*
X119507238Y-109377584D01*
X119502313Y-109382508D01*
X119502309Y-109382512D01*
X119384612Y-109500209D01*
X119384608Y-109500213D01*
X119379684Y-109505138D01*
X119375979Y-109511033D01*
X119375976Y-109511038D01*
X119287412Y-109651987D01*
X119287410Y-109651990D01*
X119283711Y-109657878D01*
X119281415Y-109664436D01*
X119281413Y-109664443D01*
X119226430Y-109821575D01*
X119226428Y-109821582D01*
X119224132Y-109828145D01*
X119223352Y-109835062D01*
X119223352Y-109835065D01*
X119209495Y-109958055D01*
X119203935Y-110007400D01*
X119204715Y-110014323D01*
X119219622Y-110146632D01*
X119224132Y-110186655D01*
X119226428Y-110193219D01*
X119226430Y-110193224D01*
X119281413Y-110350356D01*
X119283711Y-110356922D01*
X119287412Y-110362812D01*
X119371875Y-110497235D01*
X119379684Y-110509662D01*
X119507238Y-110637216D01*
X119659978Y-110733189D01*
X119830245Y-110792768D01*
X120009500Y-110812965D01*
X120188755Y-110792768D01*
X120217944Y-110782554D01*
X120276234Y-110776814D01*
X120330655Y-110798466D01*
X120369067Y-110842682D01*
X120382900Y-110899596D01*
X120382900Y-115189500D01*
X120366287Y-115251500D01*
X120320900Y-115296887D01*
X120258900Y-115313500D01*
X119550455Y-115313500D01*
X119486856Y-115295948D01*
X119441262Y-115248261D01*
X119426580Y-115183938D01*
X119446967Y-115121190D01*
X119496073Y-115078285D01*
X119500922Y-115076589D01*
X119653662Y-114980616D01*
X119781216Y-114853062D01*
X119877189Y-114700322D01*
X119936768Y-114530055D01*
X119956965Y-114350800D01*
X119936768Y-114171545D01*
X119877189Y-114001278D01*
X119781216Y-113848538D01*
X119653662Y-113720984D01*
X119500922Y-113625011D01*
X119494359Y-113622714D01*
X119494356Y-113622713D01*
X119337224Y-113567730D01*
X119337219Y-113567728D01*
X119330655Y-113565432D01*
X119323735Y-113564652D01*
X119323734Y-113564652D01*
X119158323Y-113546015D01*
X119151400Y-113545235D01*
X119144477Y-113546015D01*
X118979065Y-113564652D01*
X118979062Y-113564652D01*
X118972145Y-113565432D01*
X118965582Y-113567728D01*
X118965575Y-113567730D01*
X118808443Y-113622713D01*
X118808436Y-113622715D01*
X118801878Y-113625011D01*
X118795990Y-113628710D01*
X118795987Y-113628712D01*
X118655038Y-113717276D01*
X118655033Y-113717279D01*
X118649138Y-113720984D01*
X118644213Y-113725908D01*
X118644209Y-113725912D01*
X118526512Y-113843609D01*
X118526508Y-113843613D01*
X118521584Y-113848538D01*
X118517879Y-113854433D01*
X118517876Y-113854438D01*
X118429312Y-113995387D01*
X118429310Y-113995390D01*
X118425611Y-114001278D01*
X118423315Y-114007836D01*
X118423313Y-114007843D01*
X118368330Y-114164975D01*
X118368328Y-114164982D01*
X118366032Y-114171545D01*
X118365252Y-114178462D01*
X118365252Y-114178465D01*
X118346615Y-114343877D01*
X118345835Y-114350800D01*
X118366032Y-114530055D01*
X118368328Y-114536619D01*
X118368330Y-114536624D01*
X118423313Y-114693756D01*
X118425611Y-114700322D01*
X118521584Y-114853062D01*
X118649138Y-114980616D01*
X118801878Y-115076589D01*
X118806726Y-115078285D01*
X118855833Y-115121190D01*
X118876220Y-115183938D01*
X118861538Y-115248261D01*
X118815944Y-115295948D01*
X118752345Y-115313500D01*
X114075914Y-115313500D01*
X114062031Y-115312720D01*
X114030923Y-115309215D01*
X114024000Y-115308435D01*
X114017077Y-115309215D01*
X113979046Y-115313500D01*
X113854615Y-115327520D01*
X113840731Y-115328300D01*
X104979314Y-115328300D01*
X104965431Y-115327520D01*
X104934323Y-115324015D01*
X104927400Y-115323235D01*
X104920477Y-115324015D01*
X104882446Y-115328300D01*
X104763195Y-115341735D01*
X104763193Y-115341735D01*
X104748145Y-115343431D01*
X104748145Y-115343432D01*
X104736805Y-115347399D01*
X104736803Y-115347400D01*
X104584443Y-115400713D01*
X104584436Y-115400715D01*
X104577878Y-115403011D01*
X104571990Y-115406710D01*
X104571987Y-115406712D01*
X104431038Y-115495276D01*
X104431033Y-115495279D01*
X104425138Y-115498984D01*
X104420213Y-115503908D01*
X104420209Y-115503912D01*
X104302512Y-115621609D01*
X104302508Y-115621613D01*
X104297584Y-115626538D01*
X104293879Y-115632433D01*
X104293876Y-115632438D01*
X104205312Y-115773387D01*
X104205310Y-115773390D01*
X104201611Y-115779278D01*
X104199315Y-115785836D01*
X104199313Y-115785843D01*
X104144330Y-115942975D01*
X104144328Y-115942982D01*
X104142032Y-115949545D01*
X104141252Y-115956462D01*
X104141252Y-115956465D01*
X104122615Y-116121877D01*
X104121835Y-116128800D01*
X100632500Y-116128800D01*
X100632500Y-107696000D01*
X115450235Y-107696000D01*
X115451015Y-107702923D01*
X115469128Y-107863687D01*
X115470432Y-107875255D01*
X115472728Y-107881819D01*
X115472730Y-107881824D01*
X115527713Y-108038956D01*
X115530011Y-108045522D01*
X115533712Y-108051412D01*
X115613115Y-108177782D01*
X115625984Y-108198262D01*
X115753538Y-108325816D01*
X115906278Y-108421789D01*
X116076545Y-108481368D01*
X116255800Y-108501565D01*
X116435055Y-108481368D01*
X116605322Y-108421789D01*
X116758062Y-108325816D01*
X116885616Y-108198262D01*
X116981589Y-108045522D01*
X117041168Y-107875255D01*
X117061365Y-107696000D01*
X117041168Y-107516745D01*
X116981589Y-107346478D01*
X116885616Y-107193738D01*
X116758062Y-107066184D01*
X116605322Y-106970211D01*
X116598759Y-106967914D01*
X116598756Y-106967913D01*
X116441624Y-106912930D01*
X116441619Y-106912928D01*
X116435055Y-106910632D01*
X116428135Y-106909852D01*
X116428134Y-106909852D01*
X116262723Y-106891215D01*
X116255800Y-106890435D01*
X116248877Y-106891215D01*
X116083465Y-106909852D01*
X116083462Y-106909852D01*
X116076545Y-106910632D01*
X116069982Y-106912928D01*
X116069975Y-106912930D01*
X115912843Y-106967913D01*
X115912836Y-106967915D01*
X115906278Y-106970211D01*
X115900390Y-106973910D01*
X115900387Y-106973912D01*
X115759438Y-107062476D01*
X115759433Y-107062479D01*
X115753538Y-107066184D01*
X115748613Y-107071108D01*
X115748609Y-107071112D01*
X115630912Y-107188809D01*
X115630908Y-107188813D01*
X115625984Y-107193738D01*
X115622279Y-107199633D01*
X115622276Y-107199638D01*
X115533712Y-107340587D01*
X115533710Y-107340590D01*
X115530011Y-107346478D01*
X115527715Y-107353036D01*
X115527713Y-107353043D01*
X115472730Y-107510175D01*
X115472728Y-107510182D01*
X115470432Y-107516745D01*
X115469652Y-107523662D01*
X115469652Y-107523665D01*
X115451015Y-107689077D01*
X115450235Y-107696000D01*
X100632500Y-107696000D01*
X100632500Y-104908532D01*
X120409767Y-104908532D01*
X120410547Y-104915455D01*
X120427665Y-105067388D01*
X120429964Y-105087787D01*
X120432260Y-105094351D01*
X120432262Y-105094356D01*
X120467789Y-105195886D01*
X120489543Y-105258054D01*
X120493244Y-105263944D01*
X120565029Y-105378190D01*
X120585516Y-105410794D01*
X120713070Y-105538348D01*
X120865810Y-105634321D01*
X121036077Y-105693900D01*
X121215332Y-105714097D01*
X121394587Y-105693900D01*
X121564854Y-105634321D01*
X121717594Y-105538348D01*
X121845148Y-105410794D01*
X121941121Y-105258054D01*
X122000700Y-105087787D01*
X122020897Y-104908532D01*
X122000700Y-104729277D01*
X121941121Y-104559010D01*
X121845148Y-104406270D01*
X121717594Y-104278716D01*
X121645768Y-104233585D01*
X121570744Y-104186444D01*
X121564854Y-104182743D01*
X121558291Y-104180446D01*
X121558288Y-104180445D01*
X121401156Y-104125462D01*
X121401151Y-104125460D01*
X121394587Y-104123164D01*
X121387667Y-104122384D01*
X121387666Y-104122384D01*
X121222255Y-104103747D01*
X121215332Y-104102967D01*
X121208409Y-104103747D01*
X121042997Y-104122384D01*
X121042994Y-104122384D01*
X121036077Y-104123164D01*
X121029514Y-104125460D01*
X121029507Y-104125462D01*
X120872375Y-104180445D01*
X120872368Y-104180447D01*
X120865810Y-104182743D01*
X120859922Y-104186442D01*
X120859919Y-104186444D01*
X120718970Y-104275008D01*
X120718965Y-104275011D01*
X120713070Y-104278716D01*
X120708145Y-104283640D01*
X120708141Y-104283644D01*
X120590444Y-104401341D01*
X120590440Y-104401345D01*
X120585516Y-104406270D01*
X120581811Y-104412165D01*
X120581808Y-104412170D01*
X120493244Y-104553119D01*
X120493242Y-104553122D01*
X120489543Y-104559010D01*
X120487247Y-104565568D01*
X120487245Y-104565575D01*
X120432262Y-104722707D01*
X120432260Y-104722714D01*
X120429964Y-104729277D01*
X120429184Y-104736194D01*
X120429184Y-104736197D01*
X120420732Y-104811211D01*
X120409767Y-104908532D01*
X100632500Y-104908532D01*
X100632500Y-103428800D01*
X114535835Y-103428800D01*
X114536615Y-103435723D01*
X114543202Y-103494189D01*
X114556032Y-103608055D01*
X114558328Y-103614619D01*
X114558330Y-103614624D01*
X114613313Y-103771756D01*
X114615611Y-103778322D01*
X114711584Y-103931062D01*
X114839138Y-104058616D01*
X114991878Y-104154589D01*
X115162145Y-104214168D01*
X115341400Y-104234365D01*
X115520655Y-104214168D01*
X115690922Y-104154589D01*
X115843662Y-104058616D01*
X115971216Y-103931062D01*
X116067189Y-103778322D01*
X116126768Y-103608055D01*
X116146965Y-103428800D01*
X116126768Y-103249545D01*
X116067189Y-103079278D01*
X115971216Y-102926538D01*
X115843662Y-102798984D01*
X115690922Y-102703011D01*
X115684359Y-102700714D01*
X115684356Y-102700713D01*
X115527224Y-102645730D01*
X115527219Y-102645728D01*
X115520655Y-102643432D01*
X115513735Y-102642652D01*
X115513734Y-102642652D01*
X115348323Y-102624015D01*
X115341400Y-102623235D01*
X115334477Y-102624015D01*
X115169065Y-102642652D01*
X115169062Y-102642652D01*
X115162145Y-102643432D01*
X115155582Y-102645728D01*
X115155575Y-102645730D01*
X114998443Y-102700713D01*
X114998436Y-102700715D01*
X114991878Y-102703011D01*
X114985990Y-102706710D01*
X114985987Y-102706712D01*
X114845038Y-102795276D01*
X114845033Y-102795279D01*
X114839138Y-102798984D01*
X114834213Y-102803908D01*
X114834209Y-102803912D01*
X114716512Y-102921609D01*
X114716508Y-102921613D01*
X114711584Y-102926538D01*
X114707879Y-102932433D01*
X114707876Y-102932438D01*
X114619312Y-103073387D01*
X114619310Y-103073390D01*
X114615611Y-103079278D01*
X114613315Y-103085836D01*
X114613313Y-103085843D01*
X114558330Y-103242975D01*
X114558328Y-103242982D01*
X114556032Y-103249545D01*
X114555252Y-103256462D01*
X114555252Y-103256465D01*
X114540341Y-103388811D01*
X114535835Y-103428800D01*
X100632500Y-103428800D01*
X100632500Y-102387400D01*
X119006235Y-102387400D01*
X119026432Y-102566655D01*
X119028728Y-102573219D01*
X119028730Y-102573224D01*
X119074145Y-102703011D01*
X119086011Y-102736922D01*
X119181984Y-102889662D01*
X119309538Y-103017216D01*
X119462278Y-103113189D01*
X119632545Y-103172768D01*
X119811800Y-103192965D01*
X119991055Y-103172768D01*
X120161322Y-103113189D01*
X120314062Y-103017216D01*
X120441616Y-102889662D01*
X120537589Y-102736922D01*
X120597168Y-102566655D01*
X120617365Y-102387400D01*
X120597168Y-102208145D01*
X120537589Y-102037878D01*
X120441616Y-101885138D01*
X120314062Y-101757584D01*
X120161322Y-101661611D01*
X120154759Y-101659314D01*
X120154756Y-101659313D01*
X119997624Y-101604330D01*
X119997619Y-101604328D01*
X119991055Y-101602032D01*
X119984135Y-101601252D01*
X119984134Y-101601252D01*
X119818723Y-101582615D01*
X119811800Y-101581835D01*
X119804877Y-101582615D01*
X119639465Y-101601252D01*
X119639462Y-101601252D01*
X119632545Y-101602032D01*
X119625982Y-101604328D01*
X119625975Y-101604330D01*
X119468843Y-101659313D01*
X119468836Y-101659315D01*
X119462278Y-101661611D01*
X119456390Y-101665310D01*
X119456387Y-101665312D01*
X119315438Y-101753876D01*
X119315433Y-101753879D01*
X119309538Y-101757584D01*
X119304613Y-101762508D01*
X119304609Y-101762512D01*
X119186912Y-101880209D01*
X119186908Y-101880213D01*
X119181984Y-101885138D01*
X119178279Y-101891033D01*
X119178276Y-101891038D01*
X119089712Y-102031987D01*
X119089710Y-102031990D01*
X119086011Y-102037878D01*
X119083715Y-102044436D01*
X119083713Y-102044443D01*
X119028730Y-102201575D01*
X119028728Y-102201582D01*
X119026432Y-102208145D01*
X119006235Y-102387400D01*
X100632500Y-102387400D01*
X100632500Y-100355400D01*
X118980835Y-100355400D01*
X118981615Y-100362323D01*
X118992118Y-100455545D01*
X119001032Y-100534655D01*
X119003328Y-100541219D01*
X119003330Y-100541224D01*
X119058313Y-100698356D01*
X119060611Y-100704922D01*
X119156584Y-100857662D01*
X119284138Y-100985216D01*
X119436878Y-101081189D01*
X119607145Y-101140768D01*
X119786400Y-101160965D01*
X119965655Y-101140768D01*
X120135922Y-101081189D01*
X120288662Y-100985216D01*
X120416216Y-100857662D01*
X120512189Y-100704922D01*
X120536726Y-100634800D01*
X134347835Y-100634800D01*
X134368032Y-100814055D01*
X134370328Y-100820619D01*
X134370330Y-100820624D01*
X134385015Y-100862590D01*
X134427611Y-100984322D01*
X134431312Y-100990212D01*
X134486150Y-101077487D01*
X134523584Y-101137062D01*
X134651138Y-101264616D01*
X134803878Y-101360589D01*
X134974145Y-101420168D01*
X135153400Y-101440365D01*
X135332655Y-101420168D01*
X135502922Y-101360589D01*
X135655662Y-101264616D01*
X135783216Y-101137062D01*
X135879189Y-100984322D01*
X135938768Y-100814055D01*
X135958965Y-100634800D01*
X135938768Y-100455545D01*
X135879189Y-100285278D01*
X135783216Y-100132538D01*
X135655662Y-100004984D01*
X135647709Y-99999987D01*
X135508812Y-99912712D01*
X135502922Y-99909011D01*
X135496359Y-99906714D01*
X135496356Y-99906713D01*
X135339224Y-99851730D01*
X135339219Y-99851728D01*
X135332655Y-99849432D01*
X135325735Y-99848652D01*
X135325734Y-99848652D01*
X135160323Y-99830015D01*
X135153400Y-99829235D01*
X135146477Y-99830015D01*
X134981065Y-99848652D01*
X134981062Y-99848652D01*
X134974145Y-99849432D01*
X134967582Y-99851728D01*
X134967575Y-99851730D01*
X134810443Y-99906713D01*
X134810436Y-99906715D01*
X134803878Y-99909011D01*
X134797990Y-99912710D01*
X134797987Y-99912712D01*
X134657038Y-100001276D01*
X134657033Y-100001279D01*
X134651138Y-100004984D01*
X134646213Y-100009908D01*
X134646209Y-100009912D01*
X134528512Y-100127609D01*
X134528508Y-100127613D01*
X134523584Y-100132538D01*
X134519879Y-100138433D01*
X134519876Y-100138438D01*
X134431312Y-100279387D01*
X134431310Y-100279390D01*
X134427611Y-100285278D01*
X134425315Y-100291836D01*
X134425313Y-100291843D01*
X134370330Y-100448975D01*
X134370328Y-100448982D01*
X134368032Y-100455545D01*
X134367252Y-100462462D01*
X134367252Y-100462465D01*
X134358378Y-100541224D01*
X134347835Y-100634800D01*
X120536726Y-100634800D01*
X120571768Y-100534655D01*
X120591965Y-100355400D01*
X120571768Y-100176145D01*
X120512189Y-100005878D01*
X120416216Y-99853138D01*
X120288662Y-99725584D01*
X120135922Y-99629611D01*
X120129359Y-99627314D01*
X120129356Y-99627313D01*
X119972224Y-99572330D01*
X119972219Y-99572328D01*
X119965655Y-99570032D01*
X119958735Y-99569252D01*
X119958734Y-99569252D01*
X119793323Y-99550615D01*
X119786400Y-99549835D01*
X119779477Y-99550615D01*
X119614065Y-99569252D01*
X119614062Y-99569252D01*
X119607145Y-99570032D01*
X119600582Y-99572328D01*
X119600575Y-99572330D01*
X119443443Y-99627313D01*
X119443436Y-99627315D01*
X119436878Y-99629611D01*
X119430990Y-99633310D01*
X119430987Y-99633312D01*
X119290038Y-99721876D01*
X119290033Y-99721879D01*
X119284138Y-99725584D01*
X119279213Y-99730508D01*
X119279209Y-99730512D01*
X119161512Y-99848209D01*
X119161508Y-99848213D01*
X119156584Y-99853138D01*
X119152879Y-99859033D01*
X119152876Y-99859038D01*
X119064312Y-99999987D01*
X119064310Y-99999990D01*
X119060611Y-100005878D01*
X119058315Y-100012436D01*
X119058313Y-100012443D01*
X119003330Y-100169575D01*
X119003328Y-100169582D01*
X119001032Y-100176145D01*
X119000252Y-100183062D01*
X119000252Y-100183065D01*
X118989208Y-100281089D01*
X118980835Y-100355400D01*
X100632500Y-100355400D01*
X100632500Y-94195900D01*
X154496357Y-94195900D01*
X154516885Y-94417436D01*
X154518454Y-94422950D01*
X154576201Y-94625913D01*
X154576204Y-94625921D01*
X154577771Y-94631428D01*
X154580323Y-94636553D01*
X154580325Y-94636558D01*
X154674387Y-94825459D01*
X154674389Y-94825463D01*
X154676942Y-94830589D01*
X154680391Y-94835156D01*
X154680394Y-94835161D01*
X154807561Y-95003558D01*
X154807566Y-95003563D01*
X154811019Y-95008136D01*
X154815255Y-95011997D01*
X154815259Y-95012002D01*
X154927603Y-95114417D01*
X154975438Y-95158024D01*
X155164599Y-95275147D01*
X155372060Y-95355518D01*
X155590757Y-95396400D01*
X155807514Y-95396400D01*
X155813243Y-95396400D01*
X156031940Y-95355518D01*
X156239401Y-95275147D01*
X156428562Y-95158024D01*
X156592981Y-95008136D01*
X156727058Y-94830589D01*
X156826229Y-94631428D01*
X156887115Y-94417436D01*
X156907643Y-94195900D01*
X156887115Y-93974364D01*
X156826229Y-93760372D01*
X156727058Y-93561211D01*
X156723605Y-93556638D01*
X156596438Y-93388241D01*
X156596434Y-93388237D01*
X156592981Y-93383664D01*
X156588744Y-93379801D01*
X156588740Y-93379797D01*
X156432796Y-93237636D01*
X156432797Y-93237636D01*
X156428562Y-93233776D01*
X156423692Y-93230761D01*
X156423690Y-93230759D01*
X156244275Y-93119671D01*
X156244276Y-93119671D01*
X156239401Y-93116653D01*
X156031940Y-93036282D01*
X156026302Y-93035228D01*
X155818872Y-92996452D01*
X155818869Y-92996451D01*
X155813243Y-92995400D01*
X155590757Y-92995400D01*
X155585131Y-92996451D01*
X155585127Y-92996452D01*
X155377697Y-93035228D01*
X155377694Y-93035228D01*
X155372060Y-93036282D01*
X155366717Y-93038351D01*
X155366713Y-93038353D01*
X155169941Y-93114583D01*
X155169936Y-93114585D01*
X155164599Y-93116653D01*
X155159727Y-93119669D01*
X155159724Y-93119671D01*
X154980309Y-93230759D01*
X154980301Y-93230764D01*
X154975438Y-93233776D01*
X154971207Y-93237632D01*
X154971203Y-93237636D01*
X154815259Y-93379797D01*
X154815249Y-93379807D01*
X154811019Y-93383664D01*
X154807570Y-93388230D01*
X154807561Y-93388241D01*
X154680394Y-93556638D01*
X154680387Y-93556648D01*
X154676942Y-93561211D01*
X154674392Y-93566331D01*
X154674387Y-93566340D01*
X154580325Y-93755241D01*
X154580321Y-93755249D01*
X154577771Y-93760372D01*
X154576205Y-93765875D01*
X154576201Y-93765886D01*
X154518454Y-93968849D01*
X154516885Y-93974364D01*
X154496357Y-94195900D01*
X100632500Y-94195900D01*
X100632500Y-87376000D01*
X109100235Y-87376000D01*
X109120432Y-87555255D01*
X109122728Y-87561819D01*
X109122730Y-87561824D01*
X109171123Y-87700122D01*
X109180011Y-87725522D01*
X109183712Y-87731412D01*
X109263120Y-87857790D01*
X109275984Y-87878262D01*
X109403538Y-88005816D01*
X109556278Y-88101789D01*
X109726545Y-88161368D01*
X109905800Y-88181565D01*
X110085055Y-88161368D01*
X110255322Y-88101789D01*
X110408062Y-88005816D01*
X110535616Y-87878262D01*
X110631589Y-87725522D01*
X110691168Y-87555255D01*
X110711365Y-87376000D01*
X110977535Y-87376000D01*
X110997732Y-87555255D01*
X111000028Y-87561819D01*
X111000030Y-87561824D01*
X111048423Y-87700122D01*
X111057311Y-87725522D01*
X111061012Y-87731412D01*
X111140420Y-87857790D01*
X111153284Y-87878262D01*
X111280838Y-88005816D01*
X111433578Y-88101789D01*
X111603845Y-88161368D01*
X111783100Y-88181565D01*
X111962355Y-88161368D01*
X112132622Y-88101789D01*
X112285362Y-88005816D01*
X112412916Y-87878262D01*
X112508889Y-87725522D01*
X112568468Y-87555255D01*
X112588665Y-87376000D01*
X122282835Y-87376000D01*
X122303032Y-87555255D01*
X122305328Y-87561819D01*
X122305330Y-87561824D01*
X122353723Y-87700122D01*
X122362611Y-87725522D01*
X122366312Y-87731412D01*
X122445720Y-87857790D01*
X122458584Y-87878262D01*
X122586138Y-88005816D01*
X122738878Y-88101789D01*
X122909145Y-88161368D01*
X123088400Y-88181565D01*
X123267655Y-88161368D01*
X123437922Y-88101789D01*
X123590662Y-88005816D01*
X123718216Y-87878262D01*
X123814189Y-87725522D01*
X123873768Y-87555255D01*
X123893965Y-87376000D01*
X124162435Y-87376000D01*
X124182632Y-87555255D01*
X124184928Y-87561819D01*
X124184930Y-87561824D01*
X124233323Y-87700122D01*
X124242211Y-87725522D01*
X124245912Y-87731412D01*
X124325320Y-87857790D01*
X124338184Y-87878262D01*
X124465738Y-88005816D01*
X124618478Y-88101789D01*
X124788745Y-88161368D01*
X124968000Y-88181565D01*
X125147255Y-88161368D01*
X125317522Y-88101789D01*
X125470262Y-88005816D01*
X125597816Y-87878262D01*
X125693789Y-87725522D01*
X125753368Y-87555255D01*
X125773565Y-87376000D01*
X125770703Y-87350600D01*
X135490835Y-87350600D01*
X135511032Y-87529855D01*
X135513328Y-87536419D01*
X135513330Y-87536424D01*
X135522218Y-87561824D01*
X135570611Y-87700122D01*
X135666584Y-87852862D01*
X135794138Y-87980416D01*
X135946878Y-88076389D01*
X136117145Y-88135968D01*
X136296400Y-88156165D01*
X136475655Y-88135968D01*
X136645922Y-88076389D01*
X136798662Y-87980416D01*
X136926216Y-87852862D01*
X137022189Y-87700122D01*
X137081768Y-87529855D01*
X137099103Y-87376000D01*
X137368135Y-87376000D01*
X137388332Y-87555255D01*
X137390628Y-87561819D01*
X137390630Y-87561824D01*
X137439023Y-87700122D01*
X137447911Y-87725522D01*
X137451612Y-87731412D01*
X137531020Y-87857790D01*
X137543884Y-87878262D01*
X137671438Y-88005816D01*
X137824178Y-88101789D01*
X137994445Y-88161368D01*
X138173700Y-88181565D01*
X138352955Y-88161368D01*
X138523222Y-88101789D01*
X138675962Y-88005816D01*
X138803516Y-87878262D01*
X138899489Y-87725522D01*
X138959068Y-87555255D01*
X138979265Y-87376000D01*
X148698835Y-87376000D01*
X148719032Y-87555255D01*
X148721328Y-87561819D01*
X148721330Y-87561824D01*
X148769723Y-87700122D01*
X148778611Y-87725522D01*
X148782312Y-87731412D01*
X148861720Y-87857790D01*
X148874584Y-87878262D01*
X149002138Y-88005816D01*
X149154878Y-88101789D01*
X149325145Y-88161368D01*
X149504400Y-88181565D01*
X149683655Y-88161368D01*
X149853922Y-88101789D01*
X150006662Y-88005816D01*
X150134216Y-87878262D01*
X150230189Y-87725522D01*
X150289768Y-87555255D01*
X150309965Y-87376000D01*
X150576135Y-87376000D01*
X150596332Y-87555255D01*
X150598628Y-87561819D01*
X150598630Y-87561824D01*
X150647023Y-87700122D01*
X150655911Y-87725522D01*
X150659612Y-87731412D01*
X150739020Y-87857790D01*
X150751884Y-87878262D01*
X150879438Y-88005816D01*
X151032178Y-88101789D01*
X151202445Y-88161368D01*
X151381700Y-88181565D01*
X151560955Y-88161368D01*
X151731222Y-88101789D01*
X151883962Y-88005816D01*
X152011516Y-87878262D01*
X152107489Y-87725522D01*
X152167068Y-87555255D01*
X152187265Y-87376000D01*
X152167068Y-87196745D01*
X152107489Y-87026478D01*
X152011516Y-86873738D01*
X151883962Y-86746184D01*
X151731222Y-86650211D01*
X151724659Y-86647914D01*
X151724656Y-86647913D01*
X151567524Y-86592930D01*
X151567519Y-86592928D01*
X151560955Y-86590632D01*
X151554035Y-86589852D01*
X151554034Y-86589852D01*
X151388623Y-86571215D01*
X151381700Y-86570435D01*
X151374777Y-86571215D01*
X151209365Y-86589852D01*
X151209362Y-86589852D01*
X151202445Y-86590632D01*
X151195882Y-86592928D01*
X151195875Y-86592930D01*
X151038743Y-86647913D01*
X151038736Y-86647915D01*
X151032178Y-86650211D01*
X151026290Y-86653910D01*
X151026287Y-86653912D01*
X150885338Y-86742476D01*
X150885333Y-86742479D01*
X150879438Y-86746184D01*
X150874513Y-86751108D01*
X150874509Y-86751112D01*
X150756812Y-86868809D01*
X150756808Y-86868813D01*
X150751884Y-86873738D01*
X150748179Y-86879633D01*
X150748176Y-86879638D01*
X150659612Y-87020587D01*
X150659610Y-87020590D01*
X150655911Y-87026478D01*
X150653615Y-87033036D01*
X150653613Y-87033043D01*
X150598630Y-87190175D01*
X150598628Y-87190182D01*
X150596332Y-87196745D01*
X150595552Y-87203662D01*
X150595552Y-87203665D01*
X150585624Y-87291785D01*
X150576135Y-87376000D01*
X150309965Y-87376000D01*
X150289768Y-87196745D01*
X150230189Y-87026478D01*
X150134216Y-86873738D01*
X150006662Y-86746184D01*
X149853922Y-86650211D01*
X149847359Y-86647914D01*
X149847356Y-86647913D01*
X149690224Y-86592930D01*
X149690219Y-86592928D01*
X149683655Y-86590632D01*
X149676735Y-86589852D01*
X149676734Y-86589852D01*
X149511323Y-86571215D01*
X149504400Y-86570435D01*
X149497477Y-86571215D01*
X149332065Y-86589852D01*
X149332062Y-86589852D01*
X149325145Y-86590632D01*
X149318582Y-86592928D01*
X149318575Y-86592930D01*
X149161443Y-86647913D01*
X149161436Y-86647915D01*
X149154878Y-86650211D01*
X149148990Y-86653910D01*
X149148987Y-86653912D01*
X149008038Y-86742476D01*
X149008033Y-86742479D01*
X149002138Y-86746184D01*
X148997213Y-86751108D01*
X148997209Y-86751112D01*
X148879512Y-86868809D01*
X148879508Y-86868813D01*
X148874584Y-86873738D01*
X148870879Y-86879633D01*
X148870876Y-86879638D01*
X148782312Y-87020587D01*
X148782310Y-87020590D01*
X148778611Y-87026478D01*
X148776315Y-87033036D01*
X148776313Y-87033043D01*
X148721330Y-87190175D01*
X148721328Y-87190182D01*
X148719032Y-87196745D01*
X148718252Y-87203662D01*
X148718252Y-87203665D01*
X148708324Y-87291785D01*
X148698835Y-87376000D01*
X138979265Y-87376000D01*
X138959068Y-87196745D01*
X138899489Y-87026478D01*
X138803516Y-86873738D01*
X138675962Y-86746184D01*
X138523222Y-86650211D01*
X138516659Y-86647914D01*
X138516656Y-86647913D01*
X138359524Y-86592930D01*
X138359519Y-86592928D01*
X138352955Y-86590632D01*
X138346035Y-86589852D01*
X138346034Y-86589852D01*
X138180623Y-86571215D01*
X138173700Y-86570435D01*
X138166777Y-86571215D01*
X138001365Y-86589852D01*
X138001362Y-86589852D01*
X137994445Y-86590632D01*
X137987882Y-86592928D01*
X137987875Y-86592930D01*
X137830743Y-86647913D01*
X137830736Y-86647915D01*
X137824178Y-86650211D01*
X137818290Y-86653910D01*
X137818287Y-86653912D01*
X137677338Y-86742476D01*
X137677333Y-86742479D01*
X137671438Y-86746184D01*
X137666513Y-86751108D01*
X137666509Y-86751112D01*
X137548812Y-86868809D01*
X137548808Y-86868813D01*
X137543884Y-86873738D01*
X137540179Y-86879633D01*
X137540176Y-86879638D01*
X137451612Y-87020587D01*
X137451610Y-87020590D01*
X137447911Y-87026478D01*
X137445615Y-87033036D01*
X137445613Y-87033043D01*
X137390630Y-87190175D01*
X137390628Y-87190182D01*
X137388332Y-87196745D01*
X137387552Y-87203662D01*
X137387552Y-87203665D01*
X137377624Y-87291785D01*
X137368135Y-87376000D01*
X137099103Y-87376000D01*
X137101965Y-87350600D01*
X137081768Y-87171345D01*
X137022189Y-87001078D01*
X136926216Y-86848338D01*
X136798662Y-86720784D01*
X136645922Y-86624811D01*
X136639359Y-86622514D01*
X136639356Y-86622513D01*
X136482224Y-86567530D01*
X136482219Y-86567528D01*
X136475655Y-86565232D01*
X136468735Y-86564452D01*
X136468734Y-86564452D01*
X136303323Y-86545815D01*
X136296400Y-86545035D01*
X136289477Y-86545815D01*
X136124065Y-86564452D01*
X136124062Y-86564452D01*
X136117145Y-86565232D01*
X136110582Y-86567528D01*
X136110575Y-86567530D01*
X135953443Y-86622513D01*
X135953436Y-86622515D01*
X135946878Y-86624811D01*
X135940990Y-86628510D01*
X135940987Y-86628512D01*
X135800038Y-86717076D01*
X135800033Y-86717079D01*
X135794138Y-86720784D01*
X135789213Y-86725708D01*
X135789209Y-86725712D01*
X135671512Y-86843409D01*
X135671508Y-86843413D01*
X135666584Y-86848338D01*
X135662879Y-86854233D01*
X135662876Y-86854238D01*
X135574312Y-86995187D01*
X135574310Y-86995190D01*
X135570611Y-87001078D01*
X135568315Y-87007636D01*
X135568313Y-87007643D01*
X135513330Y-87164775D01*
X135513328Y-87164782D01*
X135511032Y-87171345D01*
X135510252Y-87178262D01*
X135510252Y-87178265D01*
X135499562Y-87273147D01*
X135490835Y-87350600D01*
X125770703Y-87350600D01*
X125753368Y-87196745D01*
X125693789Y-87026478D01*
X125597816Y-86873738D01*
X125470262Y-86746184D01*
X125317522Y-86650211D01*
X125310959Y-86647914D01*
X125310956Y-86647913D01*
X125153824Y-86592930D01*
X125153819Y-86592928D01*
X125147255Y-86590632D01*
X125140335Y-86589852D01*
X125140334Y-86589852D01*
X124974923Y-86571215D01*
X124968000Y-86570435D01*
X124961077Y-86571215D01*
X124795665Y-86589852D01*
X124795662Y-86589852D01*
X124788745Y-86590632D01*
X124782182Y-86592928D01*
X124782175Y-86592930D01*
X124625043Y-86647913D01*
X124625036Y-86647915D01*
X124618478Y-86650211D01*
X124612590Y-86653910D01*
X124612587Y-86653912D01*
X124471638Y-86742476D01*
X124471633Y-86742479D01*
X124465738Y-86746184D01*
X124460813Y-86751108D01*
X124460809Y-86751112D01*
X124343112Y-86868809D01*
X124343108Y-86868813D01*
X124338184Y-86873738D01*
X124334479Y-86879633D01*
X124334476Y-86879638D01*
X124245912Y-87020587D01*
X124245910Y-87020590D01*
X124242211Y-87026478D01*
X124239915Y-87033036D01*
X124239913Y-87033043D01*
X124184930Y-87190175D01*
X124184928Y-87190182D01*
X124182632Y-87196745D01*
X124181852Y-87203662D01*
X124181852Y-87203665D01*
X124171924Y-87291785D01*
X124162435Y-87376000D01*
X123893965Y-87376000D01*
X123873768Y-87196745D01*
X123814189Y-87026478D01*
X123718216Y-86873738D01*
X123590662Y-86746184D01*
X123437922Y-86650211D01*
X123431359Y-86647914D01*
X123431356Y-86647913D01*
X123274224Y-86592930D01*
X123274219Y-86592928D01*
X123267655Y-86590632D01*
X123260735Y-86589852D01*
X123260734Y-86589852D01*
X123095323Y-86571215D01*
X123088400Y-86570435D01*
X123081477Y-86571215D01*
X122916065Y-86589852D01*
X122916062Y-86589852D01*
X122909145Y-86590632D01*
X122902582Y-86592928D01*
X122902575Y-86592930D01*
X122745443Y-86647913D01*
X122745436Y-86647915D01*
X122738878Y-86650211D01*
X122732990Y-86653910D01*
X122732987Y-86653912D01*
X122592038Y-86742476D01*
X122592033Y-86742479D01*
X122586138Y-86746184D01*
X122581213Y-86751108D01*
X122581209Y-86751112D01*
X122463512Y-86868809D01*
X122463508Y-86868813D01*
X122458584Y-86873738D01*
X122454879Y-86879633D01*
X122454876Y-86879638D01*
X122366312Y-87020587D01*
X122366310Y-87020590D01*
X122362611Y-87026478D01*
X122360315Y-87033036D01*
X122360313Y-87033043D01*
X122305330Y-87190175D01*
X122305328Y-87190182D01*
X122303032Y-87196745D01*
X122302252Y-87203662D01*
X122302252Y-87203665D01*
X122292324Y-87291785D01*
X122282835Y-87376000D01*
X112588665Y-87376000D01*
X112568468Y-87196745D01*
X112508889Y-87026478D01*
X112412916Y-86873738D01*
X112285362Y-86746184D01*
X112132622Y-86650211D01*
X112126059Y-86647914D01*
X112126056Y-86647913D01*
X111968924Y-86592930D01*
X111968919Y-86592928D01*
X111962355Y-86590632D01*
X111955435Y-86589852D01*
X111955434Y-86589852D01*
X111790023Y-86571215D01*
X111783100Y-86570435D01*
X111776177Y-86571215D01*
X111610765Y-86589852D01*
X111610762Y-86589852D01*
X111603845Y-86590632D01*
X111597282Y-86592928D01*
X111597275Y-86592930D01*
X111440143Y-86647913D01*
X111440136Y-86647915D01*
X111433578Y-86650211D01*
X111427690Y-86653910D01*
X111427687Y-86653912D01*
X111286738Y-86742476D01*
X111286733Y-86742479D01*
X111280838Y-86746184D01*
X111275913Y-86751108D01*
X111275909Y-86751112D01*
X111158212Y-86868809D01*
X111158208Y-86868813D01*
X111153284Y-86873738D01*
X111149579Y-86879633D01*
X111149576Y-86879638D01*
X111061012Y-87020587D01*
X111061010Y-87020590D01*
X111057311Y-87026478D01*
X111055015Y-87033036D01*
X111055013Y-87033043D01*
X111000030Y-87190175D01*
X111000028Y-87190182D01*
X110997732Y-87196745D01*
X110996952Y-87203662D01*
X110996952Y-87203665D01*
X110987024Y-87291785D01*
X110977535Y-87376000D01*
X110711365Y-87376000D01*
X110691168Y-87196745D01*
X110631589Y-87026478D01*
X110535616Y-86873738D01*
X110408062Y-86746184D01*
X110255322Y-86650211D01*
X110248759Y-86647914D01*
X110248756Y-86647913D01*
X110091624Y-86592930D01*
X110091619Y-86592928D01*
X110085055Y-86590632D01*
X110078135Y-86589852D01*
X110078134Y-86589852D01*
X109912723Y-86571215D01*
X109905800Y-86570435D01*
X109898877Y-86571215D01*
X109733465Y-86589852D01*
X109733462Y-86589852D01*
X109726545Y-86590632D01*
X109719982Y-86592928D01*
X109719975Y-86592930D01*
X109562843Y-86647913D01*
X109562836Y-86647915D01*
X109556278Y-86650211D01*
X109550390Y-86653910D01*
X109550387Y-86653912D01*
X109409438Y-86742476D01*
X109409433Y-86742479D01*
X109403538Y-86746184D01*
X109398613Y-86751108D01*
X109398609Y-86751112D01*
X109280912Y-86868809D01*
X109280908Y-86868813D01*
X109275984Y-86873738D01*
X109272279Y-86879633D01*
X109272276Y-86879638D01*
X109183712Y-87020587D01*
X109183710Y-87020590D01*
X109180011Y-87026478D01*
X109177715Y-87033036D01*
X109177713Y-87033043D01*
X109122730Y-87190175D01*
X109122728Y-87190182D01*
X109120432Y-87196745D01*
X109119652Y-87203662D01*
X109119652Y-87203665D01*
X109109724Y-87291785D01*
X109100235Y-87376000D01*
X100632500Y-87376000D01*
X100632500Y-86487000D01*
X143456735Y-86487000D01*
X143457515Y-86493923D01*
X143472003Y-86622513D01*
X143476932Y-86666255D01*
X143479228Y-86672819D01*
X143479230Y-86672824D01*
X143534213Y-86829956D01*
X143536511Y-86836522D01*
X143632484Y-86989262D01*
X143760038Y-87116816D01*
X143912778Y-87212789D01*
X144083045Y-87272368D01*
X144262300Y-87292565D01*
X144441555Y-87272368D01*
X144611822Y-87212789D01*
X144764562Y-87116816D01*
X144892116Y-86989262D01*
X144988089Y-86836522D01*
X145047668Y-86666255D01*
X145067865Y-86487000D01*
X145047668Y-86307745D01*
X144988089Y-86137478D01*
X144892116Y-85984738D01*
X144764562Y-85857184D01*
X144611822Y-85761211D01*
X144605259Y-85758914D01*
X144605256Y-85758913D01*
X144448124Y-85703930D01*
X144448119Y-85703928D01*
X144441555Y-85701632D01*
X144434635Y-85700852D01*
X144434634Y-85700852D01*
X144269223Y-85682215D01*
X144262300Y-85681435D01*
X144255377Y-85682215D01*
X144089965Y-85700852D01*
X144089962Y-85700852D01*
X144083045Y-85701632D01*
X144076482Y-85703928D01*
X144076475Y-85703930D01*
X143919343Y-85758913D01*
X143919336Y-85758915D01*
X143912778Y-85761211D01*
X143906890Y-85764910D01*
X143906887Y-85764912D01*
X143765938Y-85853476D01*
X143765933Y-85853479D01*
X143760038Y-85857184D01*
X143755113Y-85862108D01*
X143755109Y-85862112D01*
X143637412Y-85979809D01*
X143637408Y-85979813D01*
X143632484Y-85984738D01*
X143628779Y-85990633D01*
X143628776Y-85990638D01*
X143540212Y-86131587D01*
X143540210Y-86131590D01*
X143536511Y-86137478D01*
X143534215Y-86144036D01*
X143534213Y-86144043D01*
X143479230Y-86301175D01*
X143479228Y-86301182D01*
X143476932Y-86307745D01*
X143456735Y-86487000D01*
X100632500Y-86487000D01*
X100632500Y-84302600D01*
X106407835Y-84302600D01*
X106428032Y-84481855D01*
X106430328Y-84488419D01*
X106430330Y-84488424D01*
X106485313Y-84645556D01*
X106487611Y-84652122D01*
X106583584Y-84804862D01*
X106711138Y-84932416D01*
X106863878Y-85028389D01*
X107034145Y-85087968D01*
X107213400Y-85108165D01*
X107392655Y-85087968D01*
X107562922Y-85028389D01*
X107715662Y-84932416D01*
X107843216Y-84804862D01*
X107939189Y-84652122D01*
X107998768Y-84481855D01*
X108018965Y-84302600D01*
X117329835Y-84302600D01*
X117350032Y-84481855D01*
X117352328Y-84488419D01*
X117352330Y-84488424D01*
X117407313Y-84645556D01*
X117409611Y-84652122D01*
X117505584Y-84804862D01*
X117633138Y-84932416D01*
X117785878Y-85028389D01*
X117956145Y-85087968D01*
X118135400Y-85108165D01*
X118314655Y-85087968D01*
X118484922Y-85028389D01*
X118637662Y-84932416D01*
X118765216Y-84804862D01*
X118861189Y-84652122D01*
X118920768Y-84481855D01*
X118940965Y-84302600D01*
X119615835Y-84302600D01*
X119636032Y-84481855D01*
X119638328Y-84488419D01*
X119638330Y-84488424D01*
X119693313Y-84645556D01*
X119695611Y-84652122D01*
X119791584Y-84804862D01*
X119919138Y-84932416D01*
X120071878Y-85028389D01*
X120242145Y-85087968D01*
X120421400Y-85108165D01*
X120600655Y-85087968D01*
X120770922Y-85028389D01*
X120923662Y-84932416D01*
X121051216Y-84804862D01*
X121147189Y-84652122D01*
X121206768Y-84481855D01*
X121226965Y-84302600D01*
X128709035Y-84302600D01*
X128729232Y-84481855D01*
X128731528Y-84488419D01*
X128731530Y-84488424D01*
X128786513Y-84645556D01*
X128788811Y-84652122D01*
X128884784Y-84804862D01*
X129012338Y-84932416D01*
X129165078Y-85028389D01*
X129335345Y-85087968D01*
X129514600Y-85108165D01*
X129693855Y-85087968D01*
X129864122Y-85028389D01*
X130016862Y-84932416D01*
X130144416Y-84804862D01*
X130240389Y-84652122D01*
X130299968Y-84481855D01*
X130320165Y-84302600D01*
X132823835Y-84302600D01*
X132844032Y-84481855D01*
X132846328Y-84488419D01*
X132846330Y-84488424D01*
X132901313Y-84645556D01*
X132903611Y-84652122D01*
X132999584Y-84804862D01*
X133127138Y-84932416D01*
X133279878Y-85028389D01*
X133450145Y-85087968D01*
X133629400Y-85108165D01*
X133808655Y-85087968D01*
X133978922Y-85028389D01*
X134131662Y-84932416D01*
X134259216Y-84804862D01*
X134355189Y-84652122D01*
X134414768Y-84481855D01*
X134434965Y-84302600D01*
X141917035Y-84302600D01*
X141937232Y-84481855D01*
X141939528Y-84488419D01*
X141939530Y-84488424D01*
X141994513Y-84645556D01*
X141996811Y-84652122D01*
X142092784Y-84804862D01*
X142220338Y-84932416D01*
X142373078Y-85028389D01*
X142543345Y-85087968D01*
X142722600Y-85108165D01*
X142901855Y-85087968D01*
X143072122Y-85028389D01*
X143224862Y-84932416D01*
X143352416Y-84804862D01*
X143448389Y-84652122D01*
X143507968Y-84481855D01*
X143528165Y-84302600D01*
X146006435Y-84302600D01*
X146026632Y-84481855D01*
X146028928Y-84488419D01*
X146028930Y-84488424D01*
X146083913Y-84645556D01*
X146086211Y-84652122D01*
X146182184Y-84804862D01*
X146309738Y-84932416D01*
X146462478Y-85028389D01*
X146632745Y-85087968D01*
X146812000Y-85108165D01*
X146991255Y-85087968D01*
X147161522Y-85028389D01*
X147314262Y-84932416D01*
X147441816Y-84804862D01*
X147537789Y-84652122D01*
X147597368Y-84481855D01*
X147617565Y-84302600D01*
X155125035Y-84302600D01*
X155145232Y-84481855D01*
X155147528Y-84488419D01*
X155147530Y-84488424D01*
X155202513Y-84645556D01*
X155204811Y-84652122D01*
X155300784Y-84804862D01*
X155428338Y-84932416D01*
X155581078Y-85028389D01*
X155751345Y-85087968D01*
X155930600Y-85108165D01*
X156109855Y-85087968D01*
X156280122Y-85028389D01*
X156432862Y-84932416D01*
X156560416Y-84804862D01*
X156656389Y-84652122D01*
X156715968Y-84481855D01*
X156736165Y-84302600D01*
X156715968Y-84123345D01*
X156656389Y-83953078D01*
X156560416Y-83800338D01*
X156432862Y-83672784D01*
X156280122Y-83576811D01*
X156273559Y-83574514D01*
X156273556Y-83574513D01*
X156116424Y-83519530D01*
X156116419Y-83519528D01*
X156109855Y-83517232D01*
X156102935Y-83516452D01*
X156102934Y-83516452D01*
X155937523Y-83497815D01*
X155930600Y-83497035D01*
X155923677Y-83497815D01*
X155758265Y-83516452D01*
X155758262Y-83516452D01*
X155751345Y-83517232D01*
X155744782Y-83519528D01*
X155744775Y-83519530D01*
X155587643Y-83574513D01*
X155587636Y-83574515D01*
X155581078Y-83576811D01*
X155575190Y-83580510D01*
X155575187Y-83580512D01*
X155434238Y-83669076D01*
X155434233Y-83669079D01*
X155428338Y-83672784D01*
X155423413Y-83677708D01*
X155423409Y-83677712D01*
X155305712Y-83795409D01*
X155305708Y-83795413D01*
X155300784Y-83800338D01*
X155297079Y-83806233D01*
X155297076Y-83806238D01*
X155208512Y-83947187D01*
X155208510Y-83947190D01*
X155204811Y-83953078D01*
X155202515Y-83959636D01*
X155202513Y-83959643D01*
X155147530Y-84116775D01*
X155147528Y-84116782D01*
X155145232Y-84123345D01*
X155125035Y-84302600D01*
X147617565Y-84302600D01*
X147597368Y-84123345D01*
X147537789Y-83953078D01*
X147441816Y-83800338D01*
X147314262Y-83672784D01*
X147161522Y-83576811D01*
X147154959Y-83574514D01*
X147154956Y-83574513D01*
X146997824Y-83519530D01*
X146997819Y-83519528D01*
X146991255Y-83517232D01*
X146984335Y-83516452D01*
X146984334Y-83516452D01*
X146818923Y-83497815D01*
X146812000Y-83497035D01*
X146805077Y-83497815D01*
X146639665Y-83516452D01*
X146639662Y-83516452D01*
X146632745Y-83517232D01*
X146626182Y-83519528D01*
X146626175Y-83519530D01*
X146469043Y-83574513D01*
X146469036Y-83574515D01*
X146462478Y-83576811D01*
X146456590Y-83580510D01*
X146456587Y-83580512D01*
X146315638Y-83669076D01*
X146315633Y-83669079D01*
X146309738Y-83672784D01*
X146304813Y-83677708D01*
X146304809Y-83677712D01*
X146187112Y-83795409D01*
X146187108Y-83795413D01*
X146182184Y-83800338D01*
X146178479Y-83806233D01*
X146178476Y-83806238D01*
X146089912Y-83947187D01*
X146089910Y-83947190D01*
X146086211Y-83953078D01*
X146083915Y-83959636D01*
X146083913Y-83959643D01*
X146028930Y-84116775D01*
X146028928Y-84116782D01*
X146026632Y-84123345D01*
X146006435Y-84302600D01*
X143528165Y-84302600D01*
X143507968Y-84123345D01*
X143448389Y-83953078D01*
X143352416Y-83800338D01*
X143224862Y-83672784D01*
X143072122Y-83576811D01*
X143065559Y-83574514D01*
X143065556Y-83574513D01*
X142908424Y-83519530D01*
X142908419Y-83519528D01*
X142901855Y-83517232D01*
X142894935Y-83516452D01*
X142894934Y-83516452D01*
X142729523Y-83497815D01*
X142722600Y-83497035D01*
X142715677Y-83497815D01*
X142550265Y-83516452D01*
X142550262Y-83516452D01*
X142543345Y-83517232D01*
X142536782Y-83519528D01*
X142536775Y-83519530D01*
X142379643Y-83574513D01*
X142379636Y-83574515D01*
X142373078Y-83576811D01*
X142367190Y-83580510D01*
X142367187Y-83580512D01*
X142226238Y-83669076D01*
X142226233Y-83669079D01*
X142220338Y-83672784D01*
X142215413Y-83677708D01*
X142215409Y-83677712D01*
X142097712Y-83795409D01*
X142097708Y-83795413D01*
X142092784Y-83800338D01*
X142089079Y-83806233D01*
X142089076Y-83806238D01*
X142000512Y-83947187D01*
X142000510Y-83947190D01*
X141996811Y-83953078D01*
X141994515Y-83959636D01*
X141994513Y-83959643D01*
X141939530Y-84116775D01*
X141939528Y-84116782D01*
X141937232Y-84123345D01*
X141917035Y-84302600D01*
X134434965Y-84302600D01*
X134414768Y-84123345D01*
X134355189Y-83953078D01*
X134259216Y-83800338D01*
X134131662Y-83672784D01*
X133978922Y-83576811D01*
X133972359Y-83574514D01*
X133972356Y-83574513D01*
X133815224Y-83519530D01*
X133815219Y-83519528D01*
X133808655Y-83517232D01*
X133801735Y-83516452D01*
X133801734Y-83516452D01*
X133636323Y-83497815D01*
X133629400Y-83497035D01*
X133622477Y-83497815D01*
X133457065Y-83516452D01*
X133457062Y-83516452D01*
X133450145Y-83517232D01*
X133443582Y-83519528D01*
X133443575Y-83519530D01*
X133286443Y-83574513D01*
X133286436Y-83574515D01*
X133279878Y-83576811D01*
X133273990Y-83580510D01*
X133273987Y-83580512D01*
X133133038Y-83669076D01*
X133133033Y-83669079D01*
X133127138Y-83672784D01*
X133122213Y-83677708D01*
X133122209Y-83677712D01*
X133004512Y-83795409D01*
X133004508Y-83795413D01*
X132999584Y-83800338D01*
X132995879Y-83806233D01*
X132995876Y-83806238D01*
X132907312Y-83947187D01*
X132907310Y-83947190D01*
X132903611Y-83953078D01*
X132901315Y-83959636D01*
X132901313Y-83959643D01*
X132846330Y-84116775D01*
X132846328Y-84116782D01*
X132844032Y-84123345D01*
X132823835Y-84302600D01*
X130320165Y-84302600D01*
X130299968Y-84123345D01*
X130240389Y-83953078D01*
X130144416Y-83800338D01*
X130016862Y-83672784D01*
X129864122Y-83576811D01*
X129857559Y-83574514D01*
X129857556Y-83574513D01*
X129700424Y-83519530D01*
X129700419Y-83519528D01*
X129693855Y-83517232D01*
X129686935Y-83516452D01*
X129686934Y-83516452D01*
X129521523Y-83497815D01*
X129514600Y-83497035D01*
X129507677Y-83497815D01*
X129342265Y-83516452D01*
X129342262Y-83516452D01*
X129335345Y-83517232D01*
X129328782Y-83519528D01*
X129328775Y-83519530D01*
X129171643Y-83574513D01*
X129171636Y-83574515D01*
X129165078Y-83576811D01*
X129159190Y-83580510D01*
X129159187Y-83580512D01*
X129018238Y-83669076D01*
X129018233Y-83669079D01*
X129012338Y-83672784D01*
X129007413Y-83677708D01*
X129007409Y-83677712D01*
X128889712Y-83795409D01*
X128889708Y-83795413D01*
X128884784Y-83800338D01*
X128881079Y-83806233D01*
X128881076Y-83806238D01*
X128792512Y-83947187D01*
X128792510Y-83947190D01*
X128788811Y-83953078D01*
X128786515Y-83959636D01*
X128786513Y-83959643D01*
X128731530Y-84116775D01*
X128731528Y-84116782D01*
X128729232Y-84123345D01*
X128709035Y-84302600D01*
X121226965Y-84302600D01*
X121206768Y-84123345D01*
X121147189Y-83953078D01*
X121051216Y-83800338D01*
X120923662Y-83672784D01*
X120770922Y-83576811D01*
X120764359Y-83574514D01*
X120764356Y-83574513D01*
X120607224Y-83519530D01*
X120607219Y-83519528D01*
X120600655Y-83517232D01*
X120593735Y-83516452D01*
X120593734Y-83516452D01*
X120428323Y-83497815D01*
X120421400Y-83497035D01*
X120414477Y-83497815D01*
X120249065Y-83516452D01*
X120249062Y-83516452D01*
X120242145Y-83517232D01*
X120235582Y-83519528D01*
X120235575Y-83519530D01*
X120078443Y-83574513D01*
X120078436Y-83574515D01*
X120071878Y-83576811D01*
X120065990Y-83580510D01*
X120065987Y-83580512D01*
X119925038Y-83669076D01*
X119925033Y-83669079D01*
X119919138Y-83672784D01*
X119914213Y-83677708D01*
X119914209Y-83677712D01*
X119796512Y-83795409D01*
X119796508Y-83795413D01*
X119791584Y-83800338D01*
X119787879Y-83806233D01*
X119787876Y-83806238D01*
X119699312Y-83947187D01*
X119699310Y-83947190D01*
X119695611Y-83953078D01*
X119693315Y-83959636D01*
X119693313Y-83959643D01*
X119638330Y-84116775D01*
X119638328Y-84116782D01*
X119636032Y-84123345D01*
X119615835Y-84302600D01*
X118940965Y-84302600D01*
X118920768Y-84123345D01*
X118861189Y-83953078D01*
X118765216Y-83800338D01*
X118637662Y-83672784D01*
X118484922Y-83576811D01*
X118478359Y-83574514D01*
X118478356Y-83574513D01*
X118321224Y-83519530D01*
X118321219Y-83519528D01*
X118314655Y-83517232D01*
X118307735Y-83516452D01*
X118307734Y-83516452D01*
X118142323Y-83497815D01*
X118135400Y-83497035D01*
X118128477Y-83497815D01*
X117963065Y-83516452D01*
X117963062Y-83516452D01*
X117956145Y-83517232D01*
X117949582Y-83519528D01*
X117949575Y-83519530D01*
X117792443Y-83574513D01*
X117792436Y-83574515D01*
X117785878Y-83576811D01*
X117779990Y-83580510D01*
X117779987Y-83580512D01*
X117639038Y-83669076D01*
X117639033Y-83669079D01*
X117633138Y-83672784D01*
X117628213Y-83677708D01*
X117628209Y-83677712D01*
X117510512Y-83795409D01*
X117510508Y-83795413D01*
X117505584Y-83800338D01*
X117501879Y-83806233D01*
X117501876Y-83806238D01*
X117413312Y-83947187D01*
X117413310Y-83947190D01*
X117409611Y-83953078D01*
X117407315Y-83959636D01*
X117407313Y-83959643D01*
X117352330Y-84116775D01*
X117352328Y-84116782D01*
X117350032Y-84123345D01*
X117329835Y-84302600D01*
X108018965Y-84302600D01*
X107998768Y-84123345D01*
X107939189Y-83953078D01*
X107843216Y-83800338D01*
X107715662Y-83672784D01*
X107562922Y-83576811D01*
X107556359Y-83574514D01*
X107556356Y-83574513D01*
X107399224Y-83519530D01*
X107399219Y-83519528D01*
X107392655Y-83517232D01*
X107385735Y-83516452D01*
X107385734Y-83516452D01*
X107220323Y-83497815D01*
X107213400Y-83497035D01*
X107206477Y-83497815D01*
X107041065Y-83516452D01*
X107041062Y-83516452D01*
X107034145Y-83517232D01*
X107027582Y-83519528D01*
X107027575Y-83519530D01*
X106870443Y-83574513D01*
X106870436Y-83574515D01*
X106863878Y-83576811D01*
X106857990Y-83580510D01*
X106857987Y-83580512D01*
X106717038Y-83669076D01*
X106717033Y-83669079D01*
X106711138Y-83672784D01*
X106706213Y-83677708D01*
X106706209Y-83677712D01*
X106588512Y-83795409D01*
X106588508Y-83795413D01*
X106583584Y-83800338D01*
X106579879Y-83806233D01*
X106579876Y-83806238D01*
X106491312Y-83947187D01*
X106491310Y-83947190D01*
X106487611Y-83953078D01*
X106485315Y-83959636D01*
X106485313Y-83959643D01*
X106430330Y-84116775D01*
X106430328Y-84116782D01*
X106428032Y-84123345D01*
X106407835Y-84302600D01*
X100632500Y-84302600D01*
X100632500Y-79781400D01*
X117329835Y-79781400D01*
X117350032Y-79960655D01*
X117352328Y-79967219D01*
X117352330Y-79967224D01*
X117361218Y-79992624D01*
X117409611Y-80130922D01*
X117505584Y-80283662D01*
X117633138Y-80411216D01*
X117785878Y-80507189D01*
X117956145Y-80566768D01*
X118135400Y-80586965D01*
X118314655Y-80566768D01*
X118484922Y-80507189D01*
X118637662Y-80411216D01*
X118765216Y-80283662D01*
X118861189Y-80130922D01*
X118920768Y-79960655D01*
X118938103Y-79806800D01*
X141917035Y-79806800D01*
X141937232Y-79986055D01*
X141939528Y-79992619D01*
X141939530Y-79992624D01*
X141987923Y-80130922D01*
X141996811Y-80156322D01*
X142000512Y-80162212D01*
X142079920Y-80288590D01*
X142092784Y-80309062D01*
X142220338Y-80436616D01*
X142373078Y-80532589D01*
X142543345Y-80592168D01*
X142722600Y-80612365D01*
X142901855Y-80592168D01*
X143072122Y-80532589D01*
X143224862Y-80436616D01*
X143352416Y-80309062D01*
X143448389Y-80156322D01*
X143507968Y-79986055D01*
X143528165Y-79806800D01*
X143525303Y-79781400D01*
X155125035Y-79781400D01*
X155145232Y-79960655D01*
X155147528Y-79967219D01*
X155147530Y-79967224D01*
X155156418Y-79992624D01*
X155204811Y-80130922D01*
X155300784Y-80283662D01*
X155428338Y-80411216D01*
X155581078Y-80507189D01*
X155751345Y-80566768D01*
X155930600Y-80586965D01*
X156109855Y-80566768D01*
X156280122Y-80507189D01*
X156432862Y-80411216D01*
X156560416Y-80283662D01*
X156656389Y-80130922D01*
X156715968Y-79960655D01*
X156736165Y-79781400D01*
X156715968Y-79602145D01*
X156656389Y-79431878D01*
X156560416Y-79279138D01*
X156432862Y-79151584D01*
X156280122Y-79055611D01*
X156273559Y-79053314D01*
X156273556Y-79053313D01*
X156116424Y-78998330D01*
X156116419Y-78998328D01*
X156109855Y-78996032D01*
X156102935Y-78995252D01*
X156102934Y-78995252D01*
X155937523Y-78976615D01*
X155930600Y-78975835D01*
X155923677Y-78976615D01*
X155758265Y-78995252D01*
X155758262Y-78995252D01*
X155751345Y-78996032D01*
X155744782Y-78998328D01*
X155744775Y-78998330D01*
X155587643Y-79053313D01*
X155587636Y-79053315D01*
X155581078Y-79055611D01*
X155575190Y-79059310D01*
X155575187Y-79059312D01*
X155434238Y-79147876D01*
X155434233Y-79147879D01*
X155428338Y-79151584D01*
X155423413Y-79156508D01*
X155423409Y-79156512D01*
X155305712Y-79274209D01*
X155305708Y-79274213D01*
X155300784Y-79279138D01*
X155297079Y-79285033D01*
X155297076Y-79285038D01*
X155208512Y-79425987D01*
X155208510Y-79425990D01*
X155204811Y-79431878D01*
X155202515Y-79438436D01*
X155202513Y-79438443D01*
X155147530Y-79595575D01*
X155147528Y-79595582D01*
X155145232Y-79602145D01*
X155125035Y-79781400D01*
X143525303Y-79781400D01*
X143507968Y-79627545D01*
X143448389Y-79457278D01*
X143352416Y-79304538D01*
X143224862Y-79176984D01*
X143072122Y-79081011D01*
X143065559Y-79078714D01*
X143065556Y-79078713D01*
X142908424Y-79023730D01*
X142908419Y-79023728D01*
X142901855Y-79021432D01*
X142894935Y-79020652D01*
X142894934Y-79020652D01*
X142729523Y-79002015D01*
X142722600Y-79001235D01*
X142715677Y-79002015D01*
X142550265Y-79020652D01*
X142550262Y-79020652D01*
X142543345Y-79021432D01*
X142536782Y-79023728D01*
X142536775Y-79023730D01*
X142379643Y-79078713D01*
X142379636Y-79078715D01*
X142373078Y-79081011D01*
X142367190Y-79084710D01*
X142367187Y-79084712D01*
X142226238Y-79173276D01*
X142226233Y-79173279D01*
X142220338Y-79176984D01*
X142215413Y-79181908D01*
X142215409Y-79181912D01*
X142097712Y-79299609D01*
X142097708Y-79299613D01*
X142092784Y-79304538D01*
X142089079Y-79310433D01*
X142089076Y-79310438D01*
X142000512Y-79451387D01*
X142000510Y-79451390D01*
X141996811Y-79457278D01*
X141994515Y-79463836D01*
X141994513Y-79463843D01*
X141939530Y-79620975D01*
X141939528Y-79620982D01*
X141937232Y-79627545D01*
X141917035Y-79806800D01*
X118938103Y-79806800D01*
X118940965Y-79781400D01*
X118920768Y-79602145D01*
X118861189Y-79431878D01*
X118765216Y-79279138D01*
X118637662Y-79151584D01*
X118484922Y-79055611D01*
X118478359Y-79053314D01*
X118478356Y-79053313D01*
X118321224Y-78998330D01*
X118321219Y-78998328D01*
X118314655Y-78996032D01*
X118307735Y-78995252D01*
X118307734Y-78995252D01*
X118142323Y-78976615D01*
X118135400Y-78975835D01*
X118128477Y-78976615D01*
X117963065Y-78995252D01*
X117963062Y-78995252D01*
X117956145Y-78996032D01*
X117949582Y-78998328D01*
X117949575Y-78998330D01*
X117792443Y-79053313D01*
X117792436Y-79053315D01*
X117785878Y-79055611D01*
X117779990Y-79059310D01*
X117779987Y-79059312D01*
X117639038Y-79147876D01*
X117639033Y-79147879D01*
X117633138Y-79151584D01*
X117628213Y-79156508D01*
X117628209Y-79156512D01*
X117510512Y-79274209D01*
X117510508Y-79274213D01*
X117505584Y-79279138D01*
X117501879Y-79285033D01*
X117501876Y-79285038D01*
X117413312Y-79425987D01*
X117413310Y-79425990D01*
X117409611Y-79431878D01*
X117407315Y-79438436D01*
X117407313Y-79438443D01*
X117352330Y-79595575D01*
X117352328Y-79595582D01*
X117350032Y-79602145D01*
X117329835Y-79781400D01*
X100632500Y-79781400D01*
X100632500Y-77698600D01*
X148444835Y-77698600D01*
X148465032Y-77877855D01*
X148467328Y-77884419D01*
X148467330Y-77884424D01*
X148522313Y-78041556D01*
X148524611Y-78048122D01*
X148620584Y-78200862D01*
X148748138Y-78328416D01*
X148900878Y-78424389D01*
X149071145Y-78483968D01*
X149250400Y-78504165D01*
X149429655Y-78483968D01*
X149599922Y-78424389D01*
X149752662Y-78328416D01*
X149880216Y-78200862D01*
X149976189Y-78048122D01*
X150035768Y-77877855D01*
X150055965Y-77698600D01*
X150035768Y-77519345D01*
X149976189Y-77349078D01*
X149880216Y-77196338D01*
X149752662Y-77068784D01*
X149722939Y-77050108D01*
X149605812Y-76976512D01*
X149599922Y-76972811D01*
X149593359Y-76970514D01*
X149593356Y-76970513D01*
X149436224Y-76915530D01*
X149436219Y-76915528D01*
X149429655Y-76913232D01*
X149422735Y-76912452D01*
X149422734Y-76912452D01*
X149257323Y-76893815D01*
X149250400Y-76893035D01*
X149243477Y-76893815D01*
X149078065Y-76912452D01*
X149078062Y-76912452D01*
X149071145Y-76913232D01*
X149064582Y-76915528D01*
X149064575Y-76915530D01*
X148907443Y-76970513D01*
X148907436Y-76970515D01*
X148900878Y-76972811D01*
X148894990Y-76976510D01*
X148894987Y-76976512D01*
X148754038Y-77065076D01*
X148754033Y-77065079D01*
X148748138Y-77068784D01*
X148743213Y-77073708D01*
X148743209Y-77073712D01*
X148625512Y-77191409D01*
X148625508Y-77191413D01*
X148620584Y-77196338D01*
X148616879Y-77202233D01*
X148616876Y-77202238D01*
X148528312Y-77343187D01*
X148528310Y-77343190D01*
X148524611Y-77349078D01*
X148522315Y-77355636D01*
X148522313Y-77355643D01*
X148467330Y-77512775D01*
X148467328Y-77512782D01*
X148465032Y-77519345D01*
X148444835Y-77698600D01*
X100632500Y-77698600D01*
X100632500Y-72542400D01*
X107906435Y-72542400D01*
X107926632Y-72721655D01*
X107928928Y-72728219D01*
X107928930Y-72728224D01*
X107983913Y-72885356D01*
X107986211Y-72891922D01*
X108082184Y-73044662D01*
X108209738Y-73172216D01*
X108362478Y-73268189D01*
X108532745Y-73327768D01*
X108712000Y-73347965D01*
X108891255Y-73327768D01*
X109061522Y-73268189D01*
X109214262Y-73172216D01*
X109341816Y-73044662D01*
X109437789Y-72891922D01*
X109497368Y-72721655D01*
X109517565Y-72542400D01*
X109514703Y-72517000D01*
X109877592Y-72517000D01*
X109877939Y-72521631D01*
X109893420Y-72728224D01*
X109897198Y-72778630D01*
X109898228Y-72783143D01*
X109898229Y-72783149D01*
X109954547Y-73029891D01*
X109955580Y-73034416D01*
X109957275Y-73038734D01*
X109957276Y-73038738D01*
X110049734Y-73274318D01*
X110049737Y-73274324D01*
X110051432Y-73278643D01*
X110053750Y-73282658D01*
X110053753Y-73282664D01*
X110091455Y-73347965D01*
X110182614Y-73505857D01*
X110346195Y-73710981D01*
X110538521Y-73889433D01*
X110755296Y-74037228D01*
X110991677Y-74151063D01*
X110996105Y-74152428D01*
X110996108Y-74152430D01*
X111099537Y-74184333D01*
X111242385Y-74228396D01*
X111501818Y-74267500D01*
X111759547Y-74267500D01*
X111764182Y-74267500D01*
X111777561Y-74265483D01*
X111846689Y-74274912D01*
X111899785Y-74320173D01*
X111920039Y-74386938D01*
X111901038Y-74454070D01*
X111825312Y-74574586D01*
X111825308Y-74574594D01*
X111821611Y-74580478D01*
X111819315Y-74587036D01*
X111819313Y-74587043D01*
X111764330Y-74744175D01*
X111764328Y-74744182D01*
X111762032Y-74750745D01*
X111741835Y-74930000D01*
X111762032Y-75109255D01*
X111764328Y-75115819D01*
X111764330Y-75115824D01*
X111793940Y-75200443D01*
X111821611Y-75279522D01*
X111917584Y-75432262D01*
X112045138Y-75559816D01*
X112197878Y-75655789D01*
X112368145Y-75715368D01*
X112547400Y-75735565D01*
X112726655Y-75715368D01*
X112801053Y-75689335D01*
X119022500Y-75689335D01*
X119023343Y-75694387D01*
X119023344Y-75694398D01*
X119030214Y-75735565D01*
X119063429Y-75934614D01*
X119065093Y-75939461D01*
X119065094Y-75939465D01*
X119142507Y-76164962D01*
X119142510Y-76164969D01*
X119144172Y-76169810D01*
X119146607Y-76174310D01*
X119146610Y-76174316D01*
X119260084Y-76383997D01*
X119262526Y-76388509D01*
X119415262Y-76584744D01*
X119419029Y-76588211D01*
X119419032Y-76588215D01*
X119594439Y-76749688D01*
X119598215Y-76753164D01*
X119697057Y-76817740D01*
X119802099Y-76886368D01*
X119802102Y-76886369D01*
X119806393Y-76889173D01*
X119811087Y-76891232D01*
X119811089Y-76891233D01*
X119847599Y-76907248D01*
X120034119Y-76989063D01*
X120275179Y-77050108D01*
X120460933Y-77065500D01*
X120582497Y-77065500D01*
X120585067Y-77065500D01*
X120770821Y-77050108D01*
X121011881Y-76989063D01*
X121239607Y-76889173D01*
X121447785Y-76753164D01*
X121630738Y-76584744D01*
X121783474Y-76388509D01*
X121901828Y-76169810D01*
X121982571Y-75934614D01*
X122023500Y-75689335D01*
X141120500Y-75689335D01*
X141121343Y-75694387D01*
X141121344Y-75694398D01*
X141128214Y-75735565D01*
X141161429Y-75934614D01*
X141163093Y-75939461D01*
X141163094Y-75939465D01*
X141240507Y-76164962D01*
X141240510Y-76164969D01*
X141242172Y-76169810D01*
X141244607Y-76174310D01*
X141244610Y-76174316D01*
X141358084Y-76383997D01*
X141360526Y-76388509D01*
X141513262Y-76584744D01*
X141517029Y-76588211D01*
X141517032Y-76588215D01*
X141692439Y-76749688D01*
X141696215Y-76753164D01*
X141795057Y-76817740D01*
X141900099Y-76886368D01*
X141900102Y-76886369D01*
X141904393Y-76889173D01*
X141909087Y-76891232D01*
X141909089Y-76891233D01*
X141945599Y-76907248D01*
X142132119Y-76989063D01*
X142373179Y-77050108D01*
X142558933Y-77065500D01*
X142680497Y-77065500D01*
X142683067Y-77065500D01*
X142868821Y-77050108D01*
X143109881Y-76989063D01*
X143337607Y-76889173D01*
X143545785Y-76753164D01*
X143728738Y-76584744D01*
X143881474Y-76388509D01*
X143999828Y-76169810D01*
X144080571Y-75934614D01*
X144121500Y-75689335D01*
X144121500Y-75440665D01*
X144080571Y-75195386D01*
X143999828Y-74960190D01*
X143881474Y-74741491D01*
X143728738Y-74545256D01*
X143724970Y-74541787D01*
X143724967Y-74541784D01*
X143549560Y-74380311D01*
X143549559Y-74380310D01*
X143545785Y-74376836D01*
X143537885Y-74371675D01*
X143341900Y-74243631D01*
X143341893Y-74243627D01*
X143337607Y-74240827D01*
X143332916Y-74238769D01*
X143332910Y-74238766D01*
X143123546Y-74146931D01*
X143109881Y-74140937D01*
X143104911Y-74139678D01*
X143104910Y-74139678D01*
X142873795Y-74081151D01*
X142873788Y-74081149D01*
X142868821Y-74079892D01*
X142863709Y-74079468D01*
X142863701Y-74079467D01*
X142685633Y-74064712D01*
X142685617Y-74064711D01*
X142683067Y-74064500D01*
X142558933Y-74064500D01*
X142556383Y-74064711D01*
X142556366Y-74064712D01*
X142378298Y-74079467D01*
X142378288Y-74079468D01*
X142373179Y-74079892D01*
X142368213Y-74081149D01*
X142368204Y-74081151D01*
X142137089Y-74139678D01*
X142137084Y-74139679D01*
X142132119Y-74140937D01*
X142127425Y-74142995D01*
X142127422Y-74142997D01*
X141909089Y-74238766D01*
X141909077Y-74238772D01*
X141904393Y-74240827D01*
X141900111Y-74243624D01*
X141900099Y-74243631D01*
X141700512Y-74374028D01*
X141700506Y-74374031D01*
X141696215Y-74376836D01*
X141692446Y-74380305D01*
X141692439Y-74380311D01*
X141517032Y-74541784D01*
X141517023Y-74541793D01*
X141513262Y-74545256D01*
X141510113Y-74549301D01*
X141510111Y-74549304D01*
X141363678Y-74737440D01*
X141363672Y-74737448D01*
X141360526Y-74741491D01*
X141358088Y-74745995D01*
X141358084Y-74746002D01*
X141244610Y-74955683D01*
X141244605Y-74955693D01*
X141242172Y-74960190D01*
X141240511Y-74965026D01*
X141240507Y-74965037D01*
X141163094Y-75190534D01*
X141163092Y-75190541D01*
X141161429Y-75195386D01*
X141160585Y-75200441D01*
X141160585Y-75200443D01*
X141121344Y-75435601D01*
X141121343Y-75435613D01*
X141120500Y-75440665D01*
X141120500Y-75689335D01*
X122023500Y-75689335D01*
X122023500Y-75440665D01*
X121982571Y-75195386D01*
X121901828Y-74960190D01*
X121783474Y-74741491D01*
X121630738Y-74545256D01*
X121626970Y-74541787D01*
X121626967Y-74541784D01*
X121451560Y-74380311D01*
X121451559Y-74380310D01*
X121447785Y-74376836D01*
X121439885Y-74371675D01*
X121243900Y-74243631D01*
X121243893Y-74243627D01*
X121239607Y-74240827D01*
X121234916Y-74238769D01*
X121234910Y-74238766D01*
X121025546Y-74146931D01*
X121011881Y-74140937D01*
X121006911Y-74139678D01*
X121006910Y-74139678D01*
X120775795Y-74081151D01*
X120775788Y-74081149D01*
X120770821Y-74079892D01*
X120765709Y-74079468D01*
X120765701Y-74079467D01*
X120587633Y-74064712D01*
X120587617Y-74064711D01*
X120585067Y-74064500D01*
X120460933Y-74064500D01*
X120458383Y-74064711D01*
X120458366Y-74064712D01*
X120280298Y-74079467D01*
X120280288Y-74079468D01*
X120275179Y-74079892D01*
X120270213Y-74081149D01*
X120270204Y-74081151D01*
X120039089Y-74139678D01*
X120039084Y-74139679D01*
X120034119Y-74140937D01*
X120029425Y-74142995D01*
X120029422Y-74142997D01*
X119811089Y-74238766D01*
X119811077Y-74238772D01*
X119806393Y-74240827D01*
X119802111Y-74243624D01*
X119802099Y-74243631D01*
X119602512Y-74374028D01*
X119602506Y-74374031D01*
X119598215Y-74376836D01*
X119594446Y-74380305D01*
X119594439Y-74380311D01*
X119419032Y-74541784D01*
X119419023Y-74541793D01*
X119415262Y-74545256D01*
X119412113Y-74549301D01*
X119412111Y-74549304D01*
X119265678Y-74737440D01*
X119265672Y-74737448D01*
X119262526Y-74741491D01*
X119260088Y-74745995D01*
X119260084Y-74746002D01*
X119146610Y-74955683D01*
X119146605Y-74955693D01*
X119144172Y-74960190D01*
X119142511Y-74965026D01*
X119142507Y-74965037D01*
X119065094Y-75190534D01*
X119065092Y-75190541D01*
X119063429Y-75195386D01*
X119062585Y-75200441D01*
X119062585Y-75200443D01*
X119023344Y-75435601D01*
X119023343Y-75435613D01*
X119022500Y-75440665D01*
X119022500Y-75689335D01*
X112801053Y-75689335D01*
X112896922Y-75655789D01*
X113049662Y-75559816D01*
X113177216Y-75432262D01*
X113273189Y-75279522D01*
X113332768Y-75109255D01*
X113352965Y-74930000D01*
X113332768Y-74750745D01*
X113273189Y-74580478D01*
X113177216Y-74427738D01*
X113049662Y-74300184D01*
X113009443Y-74274913D01*
X112902812Y-74207912D01*
X112896922Y-74204211D01*
X112890359Y-74201914D01*
X112890356Y-74201913D01*
X112733224Y-74146930D01*
X112733219Y-74146928D01*
X112726655Y-74144632D01*
X112722040Y-74144112D01*
X112671891Y-74119500D01*
X112637364Y-74074155D01*
X112626768Y-74018156D01*
X112642340Y-73963332D01*
X112680792Y-73921264D01*
X112723645Y-73892047D01*
X112723645Y-73892046D01*
X112727479Y-73889433D01*
X112919805Y-73710981D01*
X113083386Y-73505857D01*
X113214568Y-73278643D01*
X113310420Y-73034416D01*
X113368802Y-72778630D01*
X113388408Y-72517000D01*
X150644592Y-72517000D01*
X150644939Y-72521631D01*
X150660420Y-72728224D01*
X150664198Y-72778630D01*
X150665228Y-72783143D01*
X150665229Y-72783149D01*
X150721547Y-73029891D01*
X150722580Y-73034416D01*
X150724275Y-73038734D01*
X150724276Y-73038738D01*
X150816734Y-73274318D01*
X150816737Y-73274324D01*
X150818432Y-73278643D01*
X150820750Y-73282658D01*
X150820753Y-73282664D01*
X150858455Y-73347965D01*
X150949614Y-73505857D01*
X151113195Y-73710981D01*
X151305521Y-73889433D01*
X151309342Y-73892038D01*
X151309357Y-73892050D01*
X151352208Y-73921265D01*
X151390659Y-73963332D01*
X151406231Y-74018156D01*
X151395635Y-74074155D01*
X151361109Y-74119499D01*
X151310960Y-74144111D01*
X151306345Y-74144632D01*
X151299780Y-74146929D01*
X151299772Y-74146931D01*
X151142643Y-74201913D01*
X151142636Y-74201915D01*
X151136078Y-74204211D01*
X151130190Y-74207910D01*
X151130187Y-74207912D01*
X150989238Y-74296476D01*
X150989233Y-74296479D01*
X150983338Y-74300184D01*
X150978413Y-74305108D01*
X150978409Y-74305112D01*
X150860712Y-74422809D01*
X150860708Y-74422813D01*
X150855784Y-74427738D01*
X150852079Y-74433633D01*
X150852076Y-74433638D01*
X150763512Y-74574587D01*
X150763510Y-74574590D01*
X150759811Y-74580478D01*
X150757515Y-74587036D01*
X150757513Y-74587043D01*
X150702530Y-74744175D01*
X150702528Y-74744182D01*
X150700232Y-74750745D01*
X150680035Y-74930000D01*
X150700232Y-75109255D01*
X150702528Y-75115819D01*
X150702530Y-75115824D01*
X150732140Y-75200443D01*
X150759811Y-75279522D01*
X150855784Y-75432262D01*
X150983338Y-75559816D01*
X151136078Y-75655789D01*
X151306345Y-75715368D01*
X151485600Y-75735565D01*
X151664855Y-75715368D01*
X151835122Y-75655789D01*
X151987862Y-75559816D01*
X152115416Y-75432262D01*
X152211389Y-75279522D01*
X152270968Y-75109255D01*
X152291165Y-74930000D01*
X152270968Y-74750745D01*
X152211389Y-74580478D01*
X152131960Y-74454068D01*
X152112960Y-74386939D01*
X152133213Y-74320174D01*
X152186309Y-74274913D01*
X152255436Y-74265483D01*
X152268818Y-74267500D01*
X152526547Y-74267500D01*
X152531182Y-74267500D01*
X152790615Y-74228396D01*
X153041323Y-74151063D01*
X153277704Y-74037228D01*
X153494479Y-73889433D01*
X153686805Y-73710981D01*
X153850386Y-73505857D01*
X153981568Y-73278643D01*
X154077420Y-73034416D01*
X154135802Y-72778630D01*
X154155408Y-72517000D01*
X154135802Y-72255370D01*
X154077420Y-71999584D01*
X153981568Y-71755357D01*
X153850386Y-71528143D01*
X153686805Y-71323019D01*
X153494479Y-71144567D01*
X153277704Y-70996772D01*
X153273518Y-70994756D01*
X153045502Y-70884949D01*
X153045496Y-70884946D01*
X153041323Y-70882937D01*
X153036901Y-70881573D01*
X153036891Y-70881569D01*
X152795048Y-70806971D01*
X152795043Y-70806969D01*
X152790615Y-70805604D01*
X152786035Y-70804913D01*
X152786028Y-70804912D01*
X152535765Y-70767190D01*
X152535754Y-70767189D01*
X152531182Y-70766500D01*
X152268818Y-70766500D01*
X152264246Y-70767189D01*
X152264234Y-70767190D01*
X152013971Y-70804912D01*
X152013961Y-70804914D01*
X152009385Y-70805604D01*
X152004959Y-70806968D01*
X152004951Y-70806971D01*
X151763108Y-70881569D01*
X151763093Y-70881574D01*
X151758677Y-70882937D01*
X151754508Y-70884944D01*
X151754497Y-70884949D01*
X151526481Y-70994756D01*
X151526474Y-70994759D01*
X151522296Y-70996772D01*
X151518463Y-70999385D01*
X151518460Y-70999387D01*
X151309349Y-71141957D01*
X151305521Y-71144567D01*
X151302129Y-71147713D01*
X151302123Y-71147719D01*
X151116596Y-71319863D01*
X151113195Y-71323019D01*
X151110306Y-71326641D01*
X151110302Y-71326646D01*
X150952506Y-71524516D01*
X150949614Y-71528143D01*
X150947295Y-71532159D01*
X150947294Y-71532161D01*
X150820753Y-71751335D01*
X150820747Y-71751346D01*
X150818432Y-71755357D01*
X150816739Y-71759670D01*
X150816734Y-71759681D01*
X150724276Y-71995261D01*
X150724273Y-71995268D01*
X150722580Y-71999584D01*
X150721548Y-72004102D01*
X150721547Y-72004108D01*
X150665229Y-72250850D01*
X150665227Y-72250858D01*
X150664198Y-72255370D01*
X150663851Y-72259989D01*
X150663851Y-72259995D01*
X150655603Y-72370065D01*
X150644592Y-72517000D01*
X113388408Y-72517000D01*
X113368802Y-72255370D01*
X113310420Y-71999584D01*
X113214568Y-71755357D01*
X113083386Y-71528143D01*
X112919805Y-71323019D01*
X112727479Y-71144567D01*
X112510704Y-70996772D01*
X112506518Y-70994756D01*
X112278502Y-70884949D01*
X112278496Y-70884946D01*
X112274323Y-70882937D01*
X112269901Y-70881573D01*
X112269891Y-70881569D01*
X112028048Y-70806971D01*
X112028043Y-70806969D01*
X112023615Y-70805604D01*
X112019035Y-70804913D01*
X112019028Y-70804912D01*
X111768765Y-70767190D01*
X111768754Y-70767189D01*
X111764182Y-70766500D01*
X111501818Y-70766500D01*
X111497246Y-70767189D01*
X111497234Y-70767190D01*
X111246971Y-70804912D01*
X111246961Y-70804914D01*
X111242385Y-70805604D01*
X111237959Y-70806968D01*
X111237951Y-70806971D01*
X110996108Y-70881569D01*
X110996093Y-70881574D01*
X110991677Y-70882937D01*
X110987508Y-70884944D01*
X110987497Y-70884949D01*
X110759481Y-70994756D01*
X110759474Y-70994759D01*
X110755296Y-70996772D01*
X110751463Y-70999385D01*
X110751460Y-70999387D01*
X110542349Y-71141957D01*
X110538521Y-71144567D01*
X110535129Y-71147713D01*
X110535123Y-71147719D01*
X110349596Y-71319863D01*
X110346195Y-71323019D01*
X110343306Y-71326641D01*
X110343302Y-71326646D01*
X110185506Y-71524516D01*
X110182614Y-71528143D01*
X110180295Y-71532159D01*
X110180294Y-71532161D01*
X110053753Y-71751335D01*
X110053747Y-71751346D01*
X110051432Y-71755357D01*
X110049739Y-71759670D01*
X110049734Y-71759681D01*
X109957276Y-71995261D01*
X109957273Y-71995268D01*
X109955580Y-71999584D01*
X109954548Y-72004102D01*
X109954547Y-72004108D01*
X109898229Y-72250850D01*
X109898227Y-72250858D01*
X109897198Y-72255370D01*
X109896851Y-72259989D01*
X109896851Y-72259995D01*
X109888603Y-72370065D01*
X109877592Y-72517000D01*
X109514703Y-72517000D01*
X109497368Y-72363145D01*
X109437789Y-72192878D01*
X109341816Y-72040138D01*
X109214262Y-71912584D01*
X109061522Y-71816611D01*
X109054959Y-71814314D01*
X109054956Y-71814313D01*
X108897824Y-71759330D01*
X108897819Y-71759328D01*
X108891255Y-71757032D01*
X108884335Y-71756252D01*
X108884334Y-71756252D01*
X108718923Y-71737615D01*
X108712000Y-71736835D01*
X108705077Y-71737615D01*
X108539665Y-71756252D01*
X108539662Y-71756252D01*
X108532745Y-71757032D01*
X108526182Y-71759328D01*
X108526175Y-71759330D01*
X108369043Y-71814313D01*
X108369036Y-71814315D01*
X108362478Y-71816611D01*
X108356590Y-71820310D01*
X108356587Y-71820312D01*
X108215638Y-71908876D01*
X108215633Y-71908879D01*
X108209738Y-71912584D01*
X108204813Y-71917508D01*
X108204809Y-71917512D01*
X108087112Y-72035209D01*
X108087108Y-72035213D01*
X108082184Y-72040138D01*
X108078479Y-72046033D01*
X108078476Y-72046038D01*
X107989912Y-72186987D01*
X107989910Y-72186990D01*
X107986211Y-72192878D01*
X107983915Y-72199436D01*
X107983913Y-72199443D01*
X107928930Y-72356575D01*
X107928928Y-72356582D01*
X107926632Y-72363145D01*
X107906435Y-72542400D01*
X100632500Y-72542400D01*
X100632500Y-68501500D01*
X107906435Y-68501500D01*
X107926632Y-68680755D01*
X107928928Y-68687319D01*
X107928930Y-68687324D01*
X107983913Y-68844456D01*
X107986211Y-68851022D01*
X108082184Y-69003762D01*
X108209738Y-69131316D01*
X108362478Y-69227289D01*
X108532745Y-69286868D01*
X108712000Y-69307065D01*
X108891255Y-69286868D01*
X109061522Y-69227289D01*
X109214262Y-69131316D01*
X109341816Y-69003762D01*
X109437789Y-68851022D01*
X109497368Y-68680755D01*
X109517565Y-68501500D01*
X109497368Y-68322245D01*
X109437789Y-68151978D01*
X109341816Y-67999238D01*
X109214262Y-67871684D01*
X109061522Y-67775711D01*
X109054959Y-67773414D01*
X109054956Y-67773413D01*
X108897824Y-67718430D01*
X108897819Y-67718428D01*
X108891255Y-67716132D01*
X108884335Y-67715352D01*
X108884334Y-67715352D01*
X108718923Y-67696715D01*
X108712000Y-67695935D01*
X108705077Y-67696715D01*
X108539665Y-67715352D01*
X108539662Y-67715352D01*
X108532745Y-67716132D01*
X108526182Y-67718428D01*
X108526175Y-67718430D01*
X108369043Y-67773413D01*
X108369036Y-67773415D01*
X108362478Y-67775711D01*
X108356590Y-67779410D01*
X108356587Y-67779412D01*
X108215638Y-67867976D01*
X108215633Y-67867979D01*
X108209738Y-67871684D01*
X108204813Y-67876608D01*
X108204809Y-67876612D01*
X108087112Y-67994309D01*
X108087108Y-67994313D01*
X108082184Y-67999238D01*
X108078479Y-68005133D01*
X108078476Y-68005138D01*
X107989912Y-68146087D01*
X107989910Y-68146090D01*
X107986211Y-68151978D01*
X107983915Y-68158536D01*
X107983913Y-68158543D01*
X107928930Y-68315675D01*
X107928928Y-68315682D01*
X107926632Y-68322245D01*
X107906435Y-68501500D01*
X100632500Y-68501500D01*
X100632500Y-67030600D01*
X154642435Y-67030600D01*
X154662632Y-67209855D01*
X154664928Y-67216419D01*
X154664930Y-67216424D01*
X154719913Y-67373556D01*
X154722211Y-67380122D01*
X154818184Y-67532862D01*
X154945738Y-67660416D01*
X155098478Y-67756389D01*
X155268745Y-67815968D01*
X155448000Y-67836165D01*
X155627255Y-67815968D01*
X155797522Y-67756389D01*
X155950262Y-67660416D01*
X156077816Y-67532862D01*
X156173789Y-67380122D01*
X156233368Y-67209855D01*
X156253565Y-67030600D01*
X156233368Y-66851345D01*
X156173789Y-66681078D01*
X156077816Y-66528338D01*
X155950262Y-66400784D01*
X155797522Y-66304811D01*
X155790959Y-66302514D01*
X155790956Y-66302513D01*
X155633824Y-66247530D01*
X155633819Y-66247528D01*
X155627255Y-66245232D01*
X155620335Y-66244452D01*
X155620334Y-66244452D01*
X155454923Y-66225815D01*
X155448000Y-66225035D01*
X155441077Y-66225815D01*
X155275665Y-66244452D01*
X155275662Y-66244452D01*
X155268745Y-66245232D01*
X155262182Y-66247528D01*
X155262175Y-66247530D01*
X155105043Y-66302513D01*
X155105036Y-66302515D01*
X155098478Y-66304811D01*
X155092590Y-66308510D01*
X155092587Y-66308512D01*
X154951638Y-66397076D01*
X154951633Y-66397079D01*
X154945738Y-66400784D01*
X154940813Y-66405708D01*
X154940809Y-66405712D01*
X154823112Y-66523409D01*
X154823108Y-66523413D01*
X154818184Y-66528338D01*
X154814479Y-66534233D01*
X154814476Y-66534238D01*
X154725912Y-66675187D01*
X154725910Y-66675190D01*
X154722211Y-66681078D01*
X154719915Y-66687636D01*
X154719913Y-66687643D01*
X154664930Y-66844775D01*
X154664928Y-66844782D01*
X154662632Y-66851345D01*
X154642435Y-67030600D01*
X100632500Y-67030600D01*
X100632500Y-64490600D01*
X147022435Y-64490600D01*
X147023215Y-64497523D01*
X147041437Y-64659255D01*
X147042632Y-64669855D01*
X147044928Y-64676419D01*
X147044930Y-64676424D01*
X147099913Y-64833556D01*
X147102211Y-64840122D01*
X147105912Y-64846012D01*
X147191523Y-64982262D01*
X147198184Y-64992862D01*
X147325738Y-65120416D01*
X147478478Y-65216389D01*
X147648745Y-65275968D01*
X147828000Y-65296165D01*
X148007255Y-65275968D01*
X148177522Y-65216389D01*
X148330262Y-65120416D01*
X148457816Y-64992862D01*
X148553789Y-64840122D01*
X148613368Y-64669855D01*
X148633565Y-64490600D01*
X148632371Y-64480000D01*
X156144435Y-64480000D01*
X156164632Y-64659255D01*
X156166928Y-64665819D01*
X156166930Y-64665824D01*
X156221913Y-64822956D01*
X156224211Y-64829522D01*
X156320184Y-64982262D01*
X156447738Y-65109816D01*
X156600478Y-65205789D01*
X156770745Y-65265368D01*
X156950000Y-65285565D01*
X157129255Y-65265368D01*
X157299522Y-65205789D01*
X157452262Y-65109816D01*
X157579816Y-64982262D01*
X157675789Y-64829522D01*
X157735368Y-64659255D01*
X157755565Y-64480000D01*
X157735368Y-64300745D01*
X157675789Y-64130478D01*
X157579816Y-63977738D01*
X157452262Y-63850184D01*
X157299522Y-63754211D01*
X157292959Y-63751914D01*
X157292956Y-63751913D01*
X157135824Y-63696930D01*
X157135819Y-63696928D01*
X157129255Y-63694632D01*
X157122335Y-63693852D01*
X157122334Y-63693852D01*
X156956923Y-63675215D01*
X156950000Y-63674435D01*
X156943077Y-63675215D01*
X156777665Y-63693852D01*
X156777662Y-63693852D01*
X156770745Y-63694632D01*
X156764182Y-63696928D01*
X156764175Y-63696930D01*
X156607043Y-63751913D01*
X156607036Y-63751915D01*
X156600478Y-63754211D01*
X156594590Y-63757910D01*
X156594587Y-63757912D01*
X156453638Y-63846476D01*
X156453633Y-63846479D01*
X156447738Y-63850184D01*
X156442813Y-63855108D01*
X156442809Y-63855112D01*
X156325112Y-63972809D01*
X156325108Y-63972813D01*
X156320184Y-63977738D01*
X156316479Y-63983633D01*
X156316476Y-63983638D01*
X156227912Y-64124587D01*
X156227910Y-64124590D01*
X156224211Y-64130478D01*
X156221915Y-64137036D01*
X156221913Y-64137043D01*
X156166930Y-64294175D01*
X156166928Y-64294182D01*
X156164632Y-64300745D01*
X156163852Y-64307662D01*
X156163852Y-64307665D01*
X156162658Y-64318265D01*
X156144435Y-64480000D01*
X148632371Y-64480000D01*
X148613368Y-64311345D01*
X148553789Y-64141078D01*
X148457816Y-63988338D01*
X148330262Y-63860784D01*
X148177522Y-63764811D01*
X148170959Y-63762514D01*
X148170956Y-63762513D01*
X148013824Y-63707530D01*
X148013819Y-63707528D01*
X148007255Y-63705232D01*
X148000335Y-63704452D01*
X148000334Y-63704452D01*
X147834923Y-63685815D01*
X147828000Y-63685035D01*
X147821077Y-63685815D01*
X147655665Y-63704452D01*
X147655662Y-63704452D01*
X147648745Y-63705232D01*
X147642182Y-63707528D01*
X147642175Y-63707530D01*
X147485043Y-63762513D01*
X147485036Y-63762515D01*
X147478478Y-63764811D01*
X147472590Y-63768510D01*
X147472587Y-63768512D01*
X147331638Y-63857076D01*
X147331633Y-63857079D01*
X147325738Y-63860784D01*
X147320813Y-63865708D01*
X147320809Y-63865712D01*
X147203112Y-63983409D01*
X147203108Y-63983413D01*
X147198184Y-63988338D01*
X147194479Y-63994233D01*
X147194476Y-63994238D01*
X147105912Y-64135187D01*
X147105910Y-64135190D01*
X147102211Y-64141078D01*
X147099915Y-64147636D01*
X147099913Y-64147643D01*
X147044930Y-64304775D01*
X147044928Y-64304782D01*
X147042632Y-64311345D01*
X147022435Y-64490600D01*
X100632500Y-64490600D01*
X100632500Y-61391800D01*
X143720435Y-61391800D01*
X143740632Y-61571055D01*
X143742928Y-61577619D01*
X143742930Y-61577624D01*
X143797913Y-61734756D01*
X143800211Y-61741322D01*
X143896184Y-61894062D01*
X144023738Y-62021616D01*
X144176478Y-62117589D01*
X144346745Y-62177168D01*
X144526000Y-62197365D01*
X144705255Y-62177168D01*
X144875522Y-62117589D01*
X145028262Y-62021616D01*
X145155816Y-61894062D01*
X145251789Y-61741322D01*
X145311368Y-61571055D01*
X145331565Y-61391800D01*
X145311368Y-61212545D01*
X145251789Y-61042278D01*
X145155816Y-60889538D01*
X145028262Y-60761984D01*
X145008497Y-60749565D01*
X144881412Y-60669712D01*
X144875522Y-60666011D01*
X144868959Y-60663714D01*
X144868956Y-60663713D01*
X144711824Y-60608730D01*
X144711819Y-60608728D01*
X144705255Y-60606432D01*
X144698335Y-60605652D01*
X144698334Y-60605652D01*
X144532923Y-60587015D01*
X144526000Y-60586235D01*
X144519077Y-60587015D01*
X144353665Y-60605652D01*
X144353662Y-60605652D01*
X144346745Y-60606432D01*
X144340182Y-60608728D01*
X144340175Y-60608730D01*
X144183043Y-60663713D01*
X144183036Y-60663715D01*
X144176478Y-60666011D01*
X144170590Y-60669710D01*
X144170587Y-60669712D01*
X144029638Y-60758276D01*
X144029633Y-60758279D01*
X144023738Y-60761984D01*
X144018813Y-60766908D01*
X144018809Y-60766912D01*
X143901112Y-60884609D01*
X143901108Y-60884613D01*
X143896184Y-60889538D01*
X143892479Y-60895433D01*
X143892476Y-60895438D01*
X143803912Y-61036387D01*
X143803910Y-61036390D01*
X143800211Y-61042278D01*
X143797915Y-61048836D01*
X143797913Y-61048843D01*
X143742930Y-61205975D01*
X143742928Y-61205982D01*
X143740632Y-61212545D01*
X143720435Y-61391800D01*
X100632500Y-61391800D01*
X100632500Y-59944000D01*
X106128435Y-59944000D01*
X106148632Y-60123255D01*
X106150928Y-60129819D01*
X106150930Y-60129824D01*
X106205913Y-60286956D01*
X106208211Y-60293522D01*
X106304184Y-60446262D01*
X106431738Y-60573816D01*
X106584478Y-60669789D01*
X106754745Y-60729368D01*
X106934000Y-60749565D01*
X107113255Y-60729368D01*
X107283522Y-60669789D01*
X107436262Y-60573816D01*
X107563816Y-60446262D01*
X107659789Y-60293522D01*
X107719368Y-60123255D01*
X107735509Y-59980000D01*
X115250435Y-59980000D01*
X115270632Y-60159255D01*
X115272928Y-60165819D01*
X115272930Y-60165824D01*
X115317614Y-60293522D01*
X115330211Y-60329522D01*
X115426184Y-60482262D01*
X115553738Y-60609816D01*
X115706478Y-60705789D01*
X115876745Y-60765368D01*
X116056000Y-60785565D01*
X116235255Y-60765368D01*
X116405522Y-60705789D01*
X116558262Y-60609816D01*
X116685816Y-60482262D01*
X116781789Y-60329522D01*
X116841368Y-60159255D01*
X116861565Y-59980000D01*
X116841368Y-59800745D01*
X116781789Y-59630478D01*
X116685816Y-59477738D01*
X116558262Y-59350184D01*
X116500968Y-59314184D01*
X116411412Y-59257912D01*
X116405522Y-59254211D01*
X116398959Y-59251914D01*
X116398956Y-59251913D01*
X116241824Y-59196930D01*
X116241819Y-59196928D01*
X116235255Y-59194632D01*
X116228335Y-59193852D01*
X116228334Y-59193852D01*
X116062923Y-59175215D01*
X116056000Y-59174435D01*
X116049077Y-59175215D01*
X115883665Y-59193852D01*
X115883662Y-59193852D01*
X115876745Y-59194632D01*
X115870182Y-59196928D01*
X115870175Y-59196930D01*
X115713043Y-59251913D01*
X115713036Y-59251915D01*
X115706478Y-59254211D01*
X115700590Y-59257910D01*
X115700587Y-59257912D01*
X115559638Y-59346476D01*
X115559633Y-59346479D01*
X115553738Y-59350184D01*
X115548813Y-59355108D01*
X115548809Y-59355112D01*
X115431112Y-59472809D01*
X115431108Y-59472813D01*
X115426184Y-59477738D01*
X115422479Y-59483633D01*
X115422476Y-59483638D01*
X115333912Y-59624587D01*
X115333910Y-59624590D01*
X115330211Y-59630478D01*
X115327915Y-59637036D01*
X115327913Y-59637043D01*
X115272930Y-59794175D01*
X115272928Y-59794182D01*
X115270632Y-59800745D01*
X115250435Y-59980000D01*
X107735509Y-59980000D01*
X107739565Y-59944000D01*
X107719368Y-59764745D01*
X107659789Y-59594478D01*
X107563816Y-59441738D01*
X107436262Y-59314184D01*
X107283522Y-59218211D01*
X107276959Y-59215914D01*
X107276956Y-59215913D01*
X107119824Y-59160930D01*
X107119819Y-59160928D01*
X107113255Y-59158632D01*
X107106335Y-59157852D01*
X107106334Y-59157852D01*
X106940923Y-59139215D01*
X106934000Y-59138435D01*
X106927077Y-59139215D01*
X106761665Y-59157852D01*
X106761662Y-59157852D01*
X106754745Y-59158632D01*
X106748182Y-59160928D01*
X106748175Y-59160930D01*
X106591043Y-59215913D01*
X106591036Y-59215915D01*
X106584478Y-59218211D01*
X106578590Y-59221910D01*
X106578587Y-59221912D01*
X106437638Y-59310476D01*
X106437633Y-59310479D01*
X106431738Y-59314184D01*
X106426813Y-59319108D01*
X106426809Y-59319112D01*
X106309112Y-59436809D01*
X106309108Y-59436813D01*
X106304184Y-59441738D01*
X106300479Y-59447633D01*
X106300476Y-59447638D01*
X106211912Y-59588587D01*
X106211910Y-59588590D01*
X106208211Y-59594478D01*
X106205915Y-59601036D01*
X106205913Y-59601043D01*
X106150930Y-59758175D01*
X106150928Y-59758182D01*
X106148632Y-59764745D01*
X106128435Y-59944000D01*
X100632500Y-59944000D01*
X100632500Y-54737000D01*
X109877592Y-54737000D01*
X109877939Y-54741631D01*
X109893743Y-54952532D01*
X109897198Y-54998630D01*
X109955580Y-55254416D01*
X109957275Y-55258734D01*
X109957276Y-55258738D01*
X110049734Y-55494318D01*
X110049737Y-55494324D01*
X110051432Y-55498643D01*
X110053750Y-55502658D01*
X110053753Y-55502664D01*
X110127973Y-55631216D01*
X110182614Y-55725857D01*
X110346195Y-55930981D01*
X110538521Y-56109433D01*
X110755296Y-56257228D01*
X110991677Y-56371063D01*
X110996105Y-56372428D01*
X110996108Y-56372430D01*
X111099537Y-56404333D01*
X111242385Y-56448396D01*
X111501818Y-56487500D01*
X111759547Y-56487500D01*
X111764182Y-56487500D01*
X112023615Y-56448396D01*
X112274323Y-56371063D01*
X112510704Y-56257228D01*
X112727479Y-56109433D01*
X112919805Y-55930981D01*
X113083386Y-55725857D01*
X113214568Y-55498643D01*
X113310420Y-55254416D01*
X113368802Y-54998630D01*
X113388408Y-54737000D01*
X113368802Y-54475370D01*
X113310420Y-54219584D01*
X113214568Y-53975357D01*
X113083386Y-53748143D01*
X112958336Y-53591335D01*
X119022500Y-53591335D01*
X119023343Y-53596387D01*
X119023344Y-53596398D01*
X119053078Y-53774582D01*
X119063429Y-53836614D01*
X119065093Y-53841461D01*
X119065094Y-53841465D01*
X119142507Y-54066962D01*
X119142510Y-54066969D01*
X119144172Y-54071810D01*
X119146607Y-54076310D01*
X119146610Y-54076316D01*
X119255915Y-54278293D01*
X119262526Y-54290509D01*
X119265676Y-54294557D01*
X119265678Y-54294559D01*
X119294954Y-54332173D01*
X119415262Y-54486744D01*
X119419029Y-54490211D01*
X119419032Y-54490215D01*
X119594439Y-54651688D01*
X119598215Y-54655164D01*
X119697057Y-54719740D01*
X119802099Y-54788368D01*
X119802102Y-54788369D01*
X119806393Y-54791173D01*
X120034119Y-54891063D01*
X120275179Y-54952108D01*
X120460933Y-54967500D01*
X120582497Y-54967500D01*
X120585067Y-54967500D01*
X120770821Y-54952108D01*
X121011881Y-54891063D01*
X121239607Y-54791173D01*
X121447785Y-54655164D01*
X121630738Y-54486744D01*
X121783474Y-54290509D01*
X121901828Y-54071810D01*
X121963359Y-53892578D01*
X126499500Y-53892578D01*
X126499501Y-53895872D01*
X126499853Y-53899150D01*
X126499854Y-53899161D01*
X126505079Y-53947768D01*
X126505080Y-53947773D01*
X126505909Y-53955483D01*
X126508619Y-53962749D01*
X126508620Y-53962753D01*
X126542217Y-54052831D01*
X126556204Y-54090331D01*
X126561518Y-54097430D01*
X126561519Y-54097431D01*
X126627688Y-54185822D01*
X126642454Y-54205546D01*
X126757669Y-54291796D01*
X126892517Y-54342091D01*
X126952127Y-54348500D01*
X128571872Y-54348499D01*
X128631483Y-54342091D01*
X128766331Y-54291796D01*
X128881546Y-54205546D01*
X128932547Y-54137418D01*
X129607503Y-54137418D01*
X129614936Y-54145530D01*
X129664151Y-54179991D01*
X129673499Y-54185388D01*
X129863819Y-54274135D01*
X129873943Y-54277821D01*
X130076786Y-54332173D01*
X130087418Y-54334047D01*
X130296605Y-54352349D01*
X130307395Y-54352349D01*
X130516581Y-54334047D01*
X130527213Y-54332173D01*
X130730056Y-54277821D01*
X130740180Y-54274135D01*
X130930494Y-54185391D01*
X130939851Y-54179989D01*
X130989064Y-54145528D01*
X130996496Y-54137419D01*
X130990582Y-54128136D01*
X130313542Y-53451095D01*
X130302000Y-53444431D01*
X130290457Y-53451095D01*
X129613416Y-54128136D01*
X129607503Y-54137418D01*
X128932547Y-54137418D01*
X128967796Y-54090331D01*
X129018091Y-53955483D01*
X129024500Y-53895873D01*
X129024499Y-53855048D01*
X129040028Y-53794965D01*
X129082729Y-53749929D01*
X129141904Y-53731224D01*
X129202732Y-53743538D01*
X129229896Y-53766679D01*
X129232455Y-53763888D01*
X129250579Y-53780496D01*
X129259862Y-53774582D01*
X129936903Y-53097542D01*
X129943566Y-53086000D01*
X130660431Y-53086000D01*
X130667095Y-53097542D01*
X131344136Y-53774582D01*
X131353419Y-53780496D01*
X131361528Y-53773064D01*
X131395989Y-53723851D01*
X131401388Y-53714499D01*
X131459340Y-53590219D01*
X131505097Y-53538042D01*
X131571722Y-53518622D01*
X131638348Y-53538041D01*
X131684105Y-53590217D01*
X131717346Y-53661504D01*
X131744466Y-53719662D01*
X131747566Y-53724090D01*
X131747570Y-53724096D01*
X131829753Y-53841465D01*
X131871174Y-53900620D01*
X132027380Y-54056826D01*
X132075230Y-54090331D01*
X132203903Y-54180429D01*
X132203906Y-54180430D01*
X132208338Y-54183534D01*
X132408550Y-54276894D01*
X132413770Y-54278292D01*
X132413771Y-54278293D01*
X132616699Y-54332668D01*
X132616701Y-54332668D01*
X132621932Y-54334070D01*
X132842000Y-54353323D01*
X133062068Y-54334070D01*
X133275450Y-54276894D01*
X133475662Y-54183534D01*
X133656620Y-54056826D01*
X133812826Y-53900620D01*
X133939534Y-53719662D01*
X133999618Y-53590808D01*
X134045375Y-53538634D01*
X134112000Y-53519214D01*
X134178625Y-53538634D01*
X134224381Y-53590808D01*
X134284466Y-53719662D01*
X134287566Y-53724090D01*
X134287570Y-53724096D01*
X134369753Y-53841465D01*
X134411174Y-53900620D01*
X134567380Y-54056826D01*
X134615230Y-54090331D01*
X134743903Y-54180429D01*
X134743906Y-54180430D01*
X134748338Y-54183534D01*
X134948550Y-54276894D01*
X134953770Y-54278292D01*
X134953771Y-54278293D01*
X135156699Y-54332668D01*
X135156701Y-54332668D01*
X135161932Y-54334070D01*
X135382000Y-54353323D01*
X135602068Y-54334070D01*
X135815450Y-54276894D01*
X136015662Y-54183534D01*
X136196620Y-54056826D01*
X136352826Y-53900620D01*
X136479534Y-53719662D01*
X136539374Y-53591335D01*
X141120500Y-53591335D01*
X141121343Y-53596387D01*
X141121344Y-53596398D01*
X141151078Y-53774582D01*
X141161429Y-53836614D01*
X141163093Y-53841461D01*
X141163094Y-53841465D01*
X141240507Y-54066962D01*
X141240510Y-54066969D01*
X141242172Y-54071810D01*
X141244607Y-54076310D01*
X141244610Y-54076316D01*
X141353915Y-54278293D01*
X141360526Y-54290509D01*
X141363676Y-54294557D01*
X141363678Y-54294559D01*
X141392954Y-54332173D01*
X141513262Y-54486744D01*
X141517029Y-54490211D01*
X141517032Y-54490215D01*
X141692439Y-54651688D01*
X141696215Y-54655164D01*
X141795057Y-54719740D01*
X141900099Y-54788368D01*
X141900102Y-54788369D01*
X141904393Y-54791173D01*
X142132119Y-54891063D01*
X142373179Y-54952108D01*
X142558933Y-54967500D01*
X142680497Y-54967500D01*
X142683067Y-54967500D01*
X142868821Y-54952108D01*
X143109881Y-54891063D01*
X143337607Y-54791173D01*
X143420525Y-54737000D01*
X150644592Y-54737000D01*
X150644939Y-54741631D01*
X150660743Y-54952532D01*
X150664198Y-54998630D01*
X150722580Y-55254416D01*
X150724275Y-55258734D01*
X150724276Y-55258738D01*
X150816734Y-55494318D01*
X150816737Y-55494324D01*
X150818432Y-55498643D01*
X150820750Y-55502658D01*
X150820753Y-55502664D01*
X150894973Y-55631216D01*
X150949614Y-55725857D01*
X151113195Y-55930981D01*
X151305521Y-56109433D01*
X151522296Y-56257228D01*
X151758677Y-56371063D01*
X151763105Y-56372428D01*
X151763108Y-56372430D01*
X151866537Y-56404333D01*
X152009385Y-56448396D01*
X152268818Y-56487500D01*
X152526547Y-56487500D01*
X152531182Y-56487500D01*
X152790615Y-56448396D01*
X153041323Y-56371063D01*
X153277704Y-56257228D01*
X153494479Y-56109433D01*
X153686805Y-55930981D01*
X153850386Y-55725857D01*
X153981568Y-55498643D01*
X154077420Y-55254416D01*
X154135802Y-54998630D01*
X154155408Y-54737000D01*
X154135802Y-54475370D01*
X154077420Y-54219584D01*
X153981568Y-53975357D01*
X153850386Y-53748143D01*
X153686805Y-53543019D01*
X153494479Y-53364567D01*
X153277704Y-53216772D01*
X153270648Y-53213374D01*
X153045502Y-53104949D01*
X153045496Y-53104946D01*
X153041323Y-53102937D01*
X153036901Y-53101573D01*
X153036891Y-53101569D01*
X152795048Y-53026971D01*
X152795043Y-53026969D01*
X152790615Y-53025604D01*
X152786035Y-53024913D01*
X152786028Y-53024912D01*
X152535765Y-52987190D01*
X152535754Y-52987189D01*
X152531182Y-52986500D01*
X152268818Y-52986500D01*
X152264246Y-52987189D01*
X152264234Y-52987190D01*
X152013971Y-53024912D01*
X152013961Y-53024914D01*
X152009385Y-53025604D01*
X152004959Y-53026968D01*
X152004951Y-53026971D01*
X151763108Y-53101569D01*
X151763093Y-53101574D01*
X151758677Y-53102937D01*
X151754508Y-53104944D01*
X151754497Y-53104949D01*
X151526481Y-53214756D01*
X151526474Y-53214759D01*
X151522296Y-53216772D01*
X151518463Y-53219385D01*
X151518460Y-53219387D01*
X151399242Y-53300669D01*
X151305521Y-53364567D01*
X151302129Y-53367713D01*
X151302123Y-53367719D01*
X151138596Y-53519450D01*
X151113195Y-53543019D01*
X151110306Y-53546641D01*
X151110302Y-53546646D01*
X150963106Y-53731224D01*
X150949614Y-53748143D01*
X150947295Y-53752159D01*
X150947294Y-53752161D01*
X150820753Y-53971335D01*
X150820747Y-53971346D01*
X150818432Y-53975357D01*
X150816739Y-53979670D01*
X150816734Y-53979681D01*
X150724276Y-54215261D01*
X150724273Y-54215268D01*
X150722580Y-54219584D01*
X150721548Y-54224102D01*
X150721547Y-54224108D01*
X150665229Y-54470850D01*
X150665227Y-54470858D01*
X150664198Y-54475370D01*
X150663851Y-54479989D01*
X150663851Y-54479995D01*
X150650514Y-54657971D01*
X150644592Y-54737000D01*
X143420525Y-54737000D01*
X143545785Y-54655164D01*
X143728738Y-54486744D01*
X143881474Y-54290509D01*
X143999828Y-54071810D01*
X144080571Y-53836614D01*
X144121500Y-53591335D01*
X144121500Y-53342665D01*
X144080571Y-53097386D01*
X143999828Y-52862190D01*
X143923961Y-52722000D01*
X158026551Y-52722000D01*
X158046317Y-52973148D01*
X158047452Y-52977877D01*
X158047453Y-52977881D01*
X158103989Y-53213374D01*
X158103991Y-53213382D01*
X158105127Y-53218111D01*
X158201534Y-53450859D01*
X158204081Y-53455016D01*
X158204082Y-53455017D01*
X158330617Y-53661504D01*
X158330622Y-53661511D01*
X158333164Y-53665659D01*
X158336324Y-53669358D01*
X158336327Y-53669363D01*
X158493183Y-53853017D01*
X158496776Y-53857224D01*
X158500476Y-53860384D01*
X158682705Y-54016023D01*
X158688341Y-54020836D01*
X158692491Y-54023379D01*
X158692495Y-54023382D01*
X158771523Y-54071810D01*
X158903141Y-54152466D01*
X159135889Y-54248873D01*
X159380852Y-54307683D01*
X159632000Y-54327449D01*
X159883148Y-54307683D01*
X160128111Y-54248873D01*
X160360859Y-54152466D01*
X160575659Y-54020836D01*
X160767224Y-53857224D01*
X160930836Y-53665659D01*
X161062466Y-53450859D01*
X161158873Y-53218111D01*
X161217683Y-52973148D01*
X161237449Y-52722000D01*
X161217683Y-52470852D01*
X161158873Y-52225889D01*
X161062466Y-51993141D01*
X160967366Y-51837952D01*
X160933382Y-51782495D01*
X160933379Y-51782491D01*
X160930836Y-51778341D01*
X160767224Y-51586776D01*
X160763523Y-51583615D01*
X160579363Y-51426327D01*
X160579358Y-51426324D01*
X160575659Y-51423164D01*
X160571511Y-51420622D01*
X160571504Y-51420617D01*
X160365017Y-51294082D01*
X160365016Y-51294081D01*
X160360859Y-51291534D01*
X160128111Y-51195127D01*
X160123382Y-51193991D01*
X160123374Y-51193989D01*
X159887881Y-51137453D01*
X159887877Y-51137452D01*
X159883148Y-51136317D01*
X159878295Y-51135935D01*
X159636854Y-51116933D01*
X159632000Y-51116551D01*
X159627146Y-51116933D01*
X159385704Y-51135935D01*
X159385702Y-51135935D01*
X159380852Y-51136317D01*
X159376124Y-51137451D01*
X159376118Y-51137453D01*
X159140625Y-51193989D01*
X159140613Y-51193992D01*
X159135889Y-51195127D01*
X159131392Y-51196989D01*
X159131388Y-51196991D01*
X158907645Y-51289668D01*
X158907640Y-51289670D01*
X158903141Y-51291534D01*
X158898988Y-51294078D01*
X158898982Y-51294082D01*
X158692495Y-51420617D01*
X158692482Y-51420626D01*
X158688341Y-51423164D01*
X158684646Y-51426319D01*
X158684636Y-51426327D01*
X158500476Y-51583615D01*
X158500469Y-51583621D01*
X158496776Y-51586776D01*
X158493621Y-51590469D01*
X158493615Y-51590476D01*
X158336327Y-51774636D01*
X158336319Y-51774646D01*
X158333164Y-51778341D01*
X158330626Y-51782482D01*
X158330617Y-51782495D01*
X158204082Y-51988982D01*
X158204078Y-51988988D01*
X158201534Y-51993141D01*
X158199670Y-51997640D01*
X158199668Y-51997645D01*
X158112020Y-52209247D01*
X158105127Y-52225889D01*
X158103992Y-52230613D01*
X158103989Y-52230625D01*
X158047453Y-52466118D01*
X158047451Y-52466124D01*
X158046317Y-52470852D01*
X158045935Y-52475702D01*
X158045935Y-52475704D01*
X158026933Y-52717146D01*
X158026551Y-52722000D01*
X143923961Y-52722000D01*
X143881474Y-52643491D01*
X143728738Y-52447256D01*
X143724970Y-52443787D01*
X143724967Y-52443784D01*
X143549560Y-52282311D01*
X143549559Y-52282310D01*
X143545785Y-52278836D01*
X143528510Y-52267550D01*
X143341900Y-52145631D01*
X143341893Y-52145627D01*
X143337607Y-52142827D01*
X143332916Y-52140769D01*
X143332910Y-52140766D01*
X143114577Y-52044997D01*
X143114578Y-52044997D01*
X143109881Y-52042937D01*
X143104911Y-52041678D01*
X143104910Y-52041678D01*
X142873795Y-51983151D01*
X142873788Y-51983149D01*
X142868821Y-51981892D01*
X142863709Y-51981468D01*
X142863701Y-51981467D01*
X142685633Y-51966712D01*
X142685617Y-51966711D01*
X142683067Y-51966500D01*
X142558933Y-51966500D01*
X142556383Y-51966711D01*
X142556366Y-51966712D01*
X142378298Y-51981467D01*
X142378288Y-51981468D01*
X142373179Y-51981892D01*
X142368213Y-51983149D01*
X142368204Y-51983151D01*
X142137089Y-52041678D01*
X142137084Y-52041679D01*
X142132119Y-52042937D01*
X142127425Y-52044995D01*
X142127422Y-52044997D01*
X141909089Y-52140766D01*
X141909077Y-52140772D01*
X141904393Y-52142827D01*
X141900111Y-52145624D01*
X141900099Y-52145631D01*
X141700512Y-52276028D01*
X141700506Y-52276031D01*
X141696215Y-52278836D01*
X141692446Y-52282305D01*
X141692439Y-52282311D01*
X141517032Y-52443784D01*
X141517023Y-52443793D01*
X141513262Y-52447256D01*
X141510113Y-52451301D01*
X141510111Y-52451304D01*
X141363678Y-52639440D01*
X141363672Y-52639448D01*
X141360526Y-52643491D01*
X141358088Y-52647995D01*
X141358084Y-52648002D01*
X141244610Y-52857683D01*
X141244605Y-52857693D01*
X141242172Y-52862190D01*
X141240511Y-52867026D01*
X141240507Y-52867037D01*
X141163094Y-53092534D01*
X141163092Y-53092541D01*
X141161429Y-53097386D01*
X141160585Y-53102441D01*
X141160585Y-53102443D01*
X141121344Y-53337601D01*
X141121343Y-53337613D01*
X141120500Y-53342665D01*
X141120500Y-53591335D01*
X136539374Y-53591335D01*
X136572894Y-53519450D01*
X136630070Y-53306068D01*
X136649323Y-53086000D01*
X136630070Y-52865932D01*
X136572894Y-52652550D01*
X136564223Y-52633956D01*
X136490429Y-52475704D01*
X136479534Y-52452339D01*
X136352826Y-52271380D01*
X136196620Y-52115174D01*
X136094776Y-52043862D01*
X136020096Y-51991570D01*
X136020090Y-51991566D01*
X136015662Y-51988466D01*
X136010757Y-51986178D01*
X136010754Y-51986177D01*
X135879972Y-51925193D01*
X135815450Y-51895106D01*
X135810235Y-51893708D01*
X135810228Y-51893706D01*
X135607300Y-51839331D01*
X135607289Y-51839329D01*
X135602068Y-51837930D01*
X135596676Y-51837458D01*
X135596669Y-51837457D01*
X135387395Y-51819149D01*
X135382000Y-51818677D01*
X135376605Y-51819149D01*
X135167330Y-51837457D01*
X135167321Y-51837458D01*
X135161932Y-51837930D01*
X135156711Y-51839328D01*
X135156699Y-51839331D01*
X134953777Y-51893705D01*
X134953772Y-51893706D01*
X134948550Y-51895106D01*
X134943654Y-51897388D01*
X134943643Y-51897393D01*
X134753249Y-51986176D01*
X134753245Y-51986178D01*
X134748339Y-51988466D01*
X134743906Y-51991569D01*
X134743899Y-51991574D01*
X134571815Y-52112068D01*
X134571810Y-52112071D01*
X134567380Y-52115174D01*
X134563556Y-52118997D01*
X134563550Y-52119003D01*
X134415003Y-52267550D01*
X134414997Y-52267556D01*
X134411174Y-52271380D01*
X134408071Y-52275810D01*
X134408068Y-52275815D01*
X134287574Y-52447899D01*
X134287569Y-52447906D01*
X134284466Y-52452339D01*
X134282178Y-52457245D01*
X134282176Y-52457249D01*
X134224382Y-52581189D01*
X134178625Y-52633365D01*
X134112000Y-52652784D01*
X134045375Y-52633365D01*
X133999618Y-52581189D01*
X133950429Y-52475704D01*
X133939534Y-52452339D01*
X133812826Y-52271380D01*
X133656620Y-52115174D01*
X133554776Y-52043862D01*
X133480096Y-51991570D01*
X133480090Y-51991566D01*
X133475662Y-51988466D01*
X133470757Y-51986178D01*
X133470754Y-51986177D01*
X133339972Y-51925193D01*
X133275450Y-51895106D01*
X133270235Y-51893708D01*
X133270228Y-51893706D01*
X133067300Y-51839331D01*
X133067289Y-51839329D01*
X133062068Y-51837930D01*
X133056676Y-51837458D01*
X133056669Y-51837457D01*
X132847395Y-51819149D01*
X132842000Y-51818677D01*
X132836605Y-51819149D01*
X132627330Y-51837457D01*
X132627321Y-51837458D01*
X132621932Y-51837930D01*
X132616711Y-51839328D01*
X132616699Y-51839331D01*
X132413777Y-51893705D01*
X132413772Y-51893706D01*
X132408550Y-51895106D01*
X132403654Y-51897388D01*
X132403643Y-51897393D01*
X132213249Y-51986176D01*
X132213245Y-51986178D01*
X132208339Y-51988466D01*
X132203906Y-51991569D01*
X132203899Y-51991574D01*
X132031815Y-52112068D01*
X132031810Y-52112071D01*
X132027380Y-52115174D01*
X132023556Y-52118997D01*
X132023550Y-52119003D01*
X131875003Y-52267550D01*
X131874997Y-52267556D01*
X131871174Y-52271380D01*
X131868071Y-52275810D01*
X131868068Y-52275815D01*
X131747574Y-52447899D01*
X131747569Y-52447906D01*
X131744466Y-52452339D01*
X131742179Y-52457242D01*
X131742178Y-52457245D01*
X131684105Y-52581782D01*
X131638347Y-52633957D01*
X131571722Y-52653376D01*
X131505097Y-52633956D01*
X131459341Y-52581780D01*
X131401391Y-52457504D01*
X131395990Y-52448150D01*
X131361529Y-52398935D01*
X131353418Y-52391502D01*
X131344139Y-52397413D01*
X130667095Y-53074457D01*
X130660431Y-53086000D01*
X129943566Y-53086000D01*
X129943567Y-53085999D01*
X129936903Y-53074457D01*
X129259859Y-52397413D01*
X129250581Y-52391502D01*
X129232457Y-52408111D01*
X129229895Y-52405315D01*
X129202801Y-52428429D01*
X129141962Y-52440779D01*
X129082762Y-52422092D01*
X129040039Y-52377054D01*
X129024499Y-52316951D01*
X129024499Y-52279439D01*
X129024499Y-52276128D01*
X129018091Y-52216517D01*
X128967796Y-52081669D01*
X128932546Y-52034581D01*
X129607502Y-52034581D01*
X129613413Y-52043859D01*
X130290457Y-52720903D01*
X130301999Y-52727567D01*
X130313542Y-52720903D01*
X130990582Y-52043862D01*
X130996496Y-52034579D01*
X130989065Y-52026470D01*
X130939848Y-51992008D01*
X130930496Y-51986609D01*
X130740180Y-51897864D01*
X130730056Y-51894178D01*
X130527213Y-51839826D01*
X130516581Y-51837952D01*
X130307395Y-51819651D01*
X130296605Y-51819651D01*
X130087418Y-51837952D01*
X130076786Y-51839826D01*
X129873949Y-51894177D01*
X129863815Y-51897865D01*
X129673498Y-51986612D01*
X129664154Y-51992006D01*
X129614936Y-52026468D01*
X129607502Y-52034581D01*
X128932546Y-52034581D01*
X128881546Y-51966454D01*
X128786237Y-51895106D01*
X128773431Y-51885519D01*
X128773430Y-51885518D01*
X128766331Y-51880204D01*
X128656745Y-51839331D01*
X128638752Y-51832620D01*
X128638750Y-51832619D01*
X128631483Y-51829909D01*
X128623770Y-51829079D01*
X128623767Y-51829079D01*
X128575180Y-51823855D01*
X128575169Y-51823854D01*
X128571873Y-51823500D01*
X128568550Y-51823500D01*
X126955439Y-51823500D01*
X126955420Y-51823500D01*
X126952128Y-51823501D01*
X126948850Y-51823853D01*
X126948838Y-51823854D01*
X126900231Y-51829079D01*
X126900225Y-51829080D01*
X126892517Y-51829909D01*
X126885252Y-51832618D01*
X126885246Y-51832620D01*
X126765980Y-51877104D01*
X126765978Y-51877104D01*
X126757669Y-51880204D01*
X126750572Y-51885516D01*
X126750568Y-51885519D01*
X126649550Y-51961141D01*
X126649546Y-51961144D01*
X126642454Y-51966454D01*
X126637144Y-51973546D01*
X126637141Y-51973550D01*
X126561519Y-52074568D01*
X126561516Y-52074572D01*
X126556204Y-52081669D01*
X126553104Y-52089978D01*
X126553104Y-52089980D01*
X126508620Y-52209247D01*
X126508619Y-52209250D01*
X126505909Y-52216517D01*
X126505079Y-52224227D01*
X126505079Y-52224232D01*
X126499855Y-52272819D01*
X126499854Y-52272831D01*
X126499500Y-52276127D01*
X126499500Y-52279448D01*
X126499500Y-52279449D01*
X126499500Y-53892560D01*
X126499500Y-53892578D01*
X121963359Y-53892578D01*
X121982571Y-53836614D01*
X122023500Y-53591335D01*
X122023500Y-53342665D01*
X121982571Y-53097386D01*
X121901828Y-52862190D01*
X121783474Y-52643491D01*
X121630738Y-52447256D01*
X121626970Y-52443787D01*
X121626967Y-52443784D01*
X121451560Y-52282311D01*
X121451559Y-52282310D01*
X121447785Y-52278836D01*
X121430510Y-52267550D01*
X121243900Y-52145631D01*
X121243893Y-52145627D01*
X121239607Y-52142827D01*
X121234916Y-52140769D01*
X121234910Y-52140766D01*
X121016577Y-52044997D01*
X121016578Y-52044997D01*
X121011881Y-52042937D01*
X121006911Y-52041678D01*
X121006910Y-52041678D01*
X120775795Y-51983151D01*
X120775788Y-51983149D01*
X120770821Y-51981892D01*
X120765709Y-51981468D01*
X120765701Y-51981467D01*
X120587633Y-51966712D01*
X120587617Y-51966711D01*
X120585067Y-51966500D01*
X120460933Y-51966500D01*
X120458383Y-51966711D01*
X120458366Y-51966712D01*
X120280298Y-51981467D01*
X120280288Y-51981468D01*
X120275179Y-51981892D01*
X120270213Y-51983149D01*
X120270204Y-51983151D01*
X120039089Y-52041678D01*
X120039084Y-52041679D01*
X120034119Y-52042937D01*
X120029425Y-52044995D01*
X120029422Y-52044997D01*
X119811089Y-52140766D01*
X119811077Y-52140772D01*
X119806393Y-52142827D01*
X119802111Y-52145624D01*
X119802099Y-52145631D01*
X119602512Y-52276028D01*
X119602506Y-52276031D01*
X119598215Y-52278836D01*
X119594446Y-52282305D01*
X119594439Y-52282311D01*
X119419032Y-52443784D01*
X119419023Y-52443793D01*
X119415262Y-52447256D01*
X119412113Y-52451301D01*
X119412111Y-52451304D01*
X119265678Y-52639440D01*
X119265672Y-52639448D01*
X119262526Y-52643491D01*
X119260088Y-52647995D01*
X119260084Y-52648002D01*
X119146610Y-52857683D01*
X119146605Y-52857693D01*
X119144172Y-52862190D01*
X119142511Y-52867026D01*
X119142507Y-52867037D01*
X119065094Y-53092534D01*
X119065092Y-53092541D01*
X119063429Y-53097386D01*
X119062585Y-53102441D01*
X119062585Y-53102443D01*
X119023344Y-53337601D01*
X119023343Y-53337613D01*
X119022500Y-53342665D01*
X119022500Y-53591335D01*
X112958336Y-53591335D01*
X112919805Y-53543019D01*
X112727479Y-53364567D01*
X112510704Y-53216772D01*
X112503648Y-53213374D01*
X112278502Y-53104949D01*
X112278496Y-53104946D01*
X112274323Y-53102937D01*
X112269901Y-53101573D01*
X112269891Y-53101569D01*
X112028048Y-53026971D01*
X112028043Y-53026969D01*
X112023615Y-53025604D01*
X112019035Y-53024913D01*
X112019028Y-53024912D01*
X111768765Y-52987190D01*
X111768754Y-52987189D01*
X111764182Y-52986500D01*
X111501818Y-52986500D01*
X111497246Y-52987189D01*
X111497234Y-52987190D01*
X111246971Y-53024912D01*
X111246961Y-53024914D01*
X111242385Y-53025604D01*
X111237959Y-53026968D01*
X111237951Y-53026971D01*
X110996108Y-53101569D01*
X110996093Y-53101574D01*
X110991677Y-53102937D01*
X110987508Y-53104944D01*
X110987497Y-53104949D01*
X110759481Y-53214756D01*
X110759474Y-53214759D01*
X110755296Y-53216772D01*
X110751463Y-53219385D01*
X110751460Y-53219387D01*
X110632242Y-53300669D01*
X110538521Y-53364567D01*
X110535129Y-53367713D01*
X110535123Y-53367719D01*
X110371596Y-53519450D01*
X110346195Y-53543019D01*
X110343306Y-53546641D01*
X110343302Y-53546646D01*
X110196106Y-53731224D01*
X110182614Y-53748143D01*
X110180295Y-53752159D01*
X110180294Y-53752161D01*
X110053753Y-53971335D01*
X110053747Y-53971346D01*
X110051432Y-53975357D01*
X110049739Y-53979670D01*
X110049734Y-53979681D01*
X109957276Y-54215261D01*
X109957273Y-54215268D01*
X109955580Y-54219584D01*
X109954548Y-54224102D01*
X109954547Y-54224108D01*
X109898229Y-54470850D01*
X109898227Y-54470858D01*
X109897198Y-54475370D01*
X109896851Y-54479989D01*
X109896851Y-54479995D01*
X109883514Y-54657971D01*
X109877592Y-54737000D01*
X100632500Y-54737000D01*
X100632500Y-52722000D01*
X102026551Y-52722000D01*
X102046317Y-52973148D01*
X102047452Y-52977877D01*
X102047453Y-52977881D01*
X102103989Y-53213374D01*
X102103991Y-53213382D01*
X102105127Y-53218111D01*
X102201534Y-53450859D01*
X102204081Y-53455016D01*
X102204082Y-53455017D01*
X102330617Y-53661504D01*
X102330622Y-53661511D01*
X102333164Y-53665659D01*
X102336324Y-53669358D01*
X102336327Y-53669363D01*
X102493183Y-53853017D01*
X102496776Y-53857224D01*
X102500476Y-53860384D01*
X102682705Y-54016023D01*
X102688341Y-54020836D01*
X102692491Y-54023379D01*
X102692495Y-54023382D01*
X102771523Y-54071810D01*
X102903141Y-54152466D01*
X103135889Y-54248873D01*
X103380852Y-54307683D01*
X103632000Y-54327449D01*
X103883148Y-54307683D01*
X104128111Y-54248873D01*
X104360859Y-54152466D01*
X104575659Y-54020836D01*
X104767224Y-53857224D01*
X104930836Y-53665659D01*
X105062466Y-53450859D01*
X105158873Y-53218111D01*
X105217683Y-52973148D01*
X105237449Y-52722000D01*
X105217683Y-52470852D01*
X105158873Y-52225889D01*
X105062466Y-51993141D01*
X104967366Y-51837952D01*
X104933382Y-51782495D01*
X104933379Y-51782491D01*
X104930836Y-51778341D01*
X104767224Y-51586776D01*
X104763523Y-51583615D01*
X104579363Y-51426327D01*
X104579358Y-51426324D01*
X104575659Y-51423164D01*
X104571511Y-51420622D01*
X104571504Y-51420617D01*
X104365017Y-51294082D01*
X104365016Y-51294081D01*
X104360859Y-51291534D01*
X104128111Y-51195127D01*
X104123382Y-51193991D01*
X104123374Y-51193989D01*
X103887881Y-51137453D01*
X103887877Y-51137452D01*
X103883148Y-51136317D01*
X103878295Y-51135935D01*
X103636854Y-51116933D01*
X103632000Y-51116551D01*
X103627146Y-51116933D01*
X103385704Y-51135935D01*
X103385702Y-51135935D01*
X103380852Y-51136317D01*
X103376124Y-51137451D01*
X103376118Y-51137453D01*
X103140625Y-51193989D01*
X103140613Y-51193992D01*
X103135889Y-51195127D01*
X103131392Y-51196989D01*
X103131388Y-51196991D01*
X102907645Y-51289668D01*
X102907640Y-51289670D01*
X102903141Y-51291534D01*
X102898988Y-51294078D01*
X102898982Y-51294082D01*
X102692495Y-51420617D01*
X102692482Y-51420626D01*
X102688341Y-51423164D01*
X102684646Y-51426319D01*
X102684636Y-51426327D01*
X102500476Y-51583615D01*
X102500469Y-51583621D01*
X102496776Y-51586776D01*
X102493621Y-51590469D01*
X102493615Y-51590476D01*
X102336327Y-51774636D01*
X102336319Y-51774646D01*
X102333164Y-51778341D01*
X102330626Y-51782482D01*
X102330617Y-51782495D01*
X102204082Y-51988982D01*
X102204078Y-51988988D01*
X102201534Y-51993141D01*
X102199670Y-51997640D01*
X102199668Y-51997645D01*
X102112020Y-52209247D01*
X102105127Y-52225889D01*
X102103992Y-52230613D01*
X102103989Y-52230625D01*
X102047453Y-52466118D01*
X102047451Y-52466124D01*
X102046317Y-52470852D01*
X102045935Y-52475702D01*
X102045935Y-52475704D01*
X102026933Y-52717146D01*
X102026551Y-52722000D01*
X100632500Y-52722000D01*
X100632500Y-49846500D01*
X100649113Y-49784500D01*
X100694500Y-49739113D01*
X100756500Y-49722500D01*
X162507500Y-49722500D01*
X162569500Y-49739113D01*
G37*
%TD.AperFunction*%
%TD*%
M02*
